<?xml version="1.0" encoding="utf-8" ?>
<svg xmlns="http://www.w3.org/2000/svg" xmlns:xlink="http://www.w3.org/1999/xlink" width="1438" height="1420">
	<defs>
		<linearGradient id="gradient_0" gradientUnits="userSpaceOnUse" x1="448.97275" y1="1393.2053" x2="949.96942" y2="546.32434">
			<stop offset="0" stop-color="#1D8CDB"/>
			<stop offset="1" stop-color="#1FE4EC"/>
		</linearGradient>
	</defs>
	<path fill="url(#gradient_0)" d="M517.316 868.163L517.283 748.775C517.277 712.887 514.328 671.658 522.995 637.083Q523.768 634.04 524.642 631.024Q525.517 628.008 526.492 625.023Q527.467 622.038 528.541 619.087Q529.615 616.137 530.788 613.224Q531.961 610.311 533.23 607.439Q534.499 604.567 535.864 601.739Q537.229 598.911 538.688 596.13Q540.147 593.349 541.698 590.619Q543.249 587.889 544.891 585.212Q546.532 582.536 548.263 579.915Q549.993 577.295 551.81 574.734Q553.627 572.174 555.529 569.675Q557.431 567.177 559.416 564.743Q561.4 562.31 563.465 559.945Q565.53 557.579 567.673 555.284Q569.815 552.989 572.034 550.767C610.514 512.17 657.475 495.042 711.324 495.037C750.102 495.033 788.99 494.439 827.756 495.129L827.745 868.221L912.301 868.158C927.06 868.159 942.245 867.382 956.935 868.481C957.724 868.668 958.419 868.741 959.23 868.731Q963.456 868.64 967.68 868.467Q971.904 868.295 976.124 868.042Q980.344 867.789 984.559 867.455Q988.773 867.121 992.98 866.707Q997.187 866.293 1001.39 865.798Q1005.58 865.304 1009.77 864.729Q1013.96 864.154 1018.14 863.499Q1022.31 862.844 1026.48 862.109Q1030.64 861.375 1034.79 860.56Q1038.94 859.746 1043.07 858.853Q1047.2 857.959 1051.32 856.987Q1055.43 856.015 1059.52 854.964Q1063.62 853.913 1067.69 852.785Q1071.77 851.656 1075.82 850.449Q1079.87 849.242 1083.9 847.958Q1087.93 846.675 1091.93 845.314Q1095.93 843.953 1099.91 842.516Q1103.88 841.079 1107.83 839.566Q1111.78 838.053 1115.7 836.465Q1119.61 834.877 1123.5 833.215Q1127.39 831.552 1131.24 829.815Q1135.1 828.078 1138.92 826.268Q1142.74 824.458 1146.52 822.575Q1150.31 820.692 1154.06 818.737Q1157.81 816.782 1161.52 814.756Q1165.23 812.729 1168.9 810.632Q1172.57 808.535 1176.2 806.369Q1179.83 804.202 1183.42 801.966Q1187.01 799.73 1190.55 797.426Q1194.09 795.122 1197.6 792.751Q1201.1 790.379 1204.55 787.941Q1208 785.504 1211.41 783C1232.42 767.508 1251.4 750.262 1269.72 731.701L1269.81 871.35L1269.66 921.002C1269.69 936.174 1270.03 951.317 1268.65 966.444Q1268.43 968.884 1268.16 971.32Q1267.89 973.755 1267.57 976.184Q1267.25 978.612 1266.88 981.034Q1266.5 983.455 1266.08 985.868Q1265.65 988.281 1265.17 990.684Q1264.7 993.087 1264.17 995.479Q1263.64 997.871 1263.06 1000.25Q1262.48 1002.63 1261.85 1005Q1261.22 1007.37 1260.53 1009.72Q1259.85 1012.07 1259.12 1014.41Q1258.39 1016.75 1257.6 1019.07Q1256.82 1021.39 1255.99 1023.7Q1255.16 1026 1254.28 1028.29Q1253.39 1030.57 1252.46 1032.84Q1251.53 1035.1 1250.55 1037.35Q1249.58 1039.6 1248.55 1041.82Q1247.52 1044.05 1246.45 1046.25Q1245.37 1048.45 1244.25 1050.63Q1243.13 1052.81 1241.96 1054.96Q1240.79 1057.11 1239.58 1059.24Q1238.37 1061.37 1237.11 1063.47Q1235.85 1065.57 1234.54 1067.65Q1233.24 1069.72 1231.89 1071.76Q1230.54 1073.81 1229.15 1075.83Q1227.76 1077.84 1226.32 1079.83Q1224.89 1081.81 1223.41 1083.77Q1221.93 1085.72 1220.41 1087.64Q1218.89 1089.57 1217.33 1091.45Q1215.77 1093.34 1214.17 1095.2Q1212.57 1097.05 1210.93 1098.87Q1209.29 1100.69 1207.61 1102.48Q1205.94 1104.26 1204.22 1106.01Q1202.25 1108.02 1200.24 1109.99Q1198.22 1111.95 1196.16 1113.86Q1194.1 1115.78 1191.99 1117.64Q1189.88 1119.5 1187.73 1121.31Q1185.57 1123.12 1183.37 1124.88Q1181.18 1126.63 1178.93 1128.33Q1176.69 1130.04 1174.41 1131.68Q1172.13 1133.33 1169.81 1134.92Q1167.49 1136.5 1165.13 1138.04Q1162.77 1139.57 1160.37 1141.04Q1157.97 1142.51 1155.54 1143.92Q1153.1 1145.34 1150.64 1146.69Q1148.17 1148.04 1145.67 1149.33Q1143.17 1150.62 1140.64 1151.85Q1138.11 1153.08 1135.55 1154.25Q1132.99 1155.42 1130.4 1156.52Q1127.81 1157.62 1125.2 1158.66Q1122.59 1159.7 1119.95 1160.68Q1117.31 1161.65 1114.64 1162.56Q1111.98 1163.47 1109.3 1164.31Q1106.61 1165.16 1103.91 1165.93Q1101.21 1166.71 1098.48 1167.42Q1095.76 1168.13 1093.02 1168.77Q1090.28 1169.41 1087.53 1169.99Q1084.78 1170.56 1082.01 1171.07Q1079.24 1171.58 1076.46 1172.02Q1073.68 1172.46 1070.89 1172.83Q1068.11 1173.2 1065.31 1173.5Q1062.51 1173.8 1059.71 1174.03Q1056.9 1174.26 1054.1 1174.43Q1051.29 1174.59 1048.47 1174.68Q1045.66 1174.78 1042.85 1174.8L769.304 1174.81L769.29 549.791C710.544 549.705 664.846 545.077 618.687 590.742C586.749 622.339 576.61 658.173 576.6 701.931L576.637 1011.59L576.642 1114.73C576.645 1134.74 576.241 1154.82 576.904 1174.81C520.716 1175.71 464.394 1174.95 408.19 1174.94L75.2128 1174.85L75.2407 1113.78C75.224 1093.93 74.8836 1074.14 77.4588 1054.4Q77.7428 1052.23 78.0713 1050.06Q78.3997 1047.9 78.7724 1045.74Q79.1452 1043.58 79.562 1041.44Q79.9788 1039.29 80.4396 1037.15Q80.9003 1035 81.4048 1032.87Q81.9093 1030.74 82.4574 1028.62Q83.0054 1026.5 83.5968 1024.4Q84.1881 1022.29 84.8225 1020.19Q85.4569 1018.1 86.1341 1016.01Q86.8113 1013.93 87.531 1011.87Q88.2507 1009.8 89.0126 1007.74Q89.7745 1005.69 90.5783 1003.66Q91.382 1001.62 92.2274 999.599Q93.0727 997.58 93.9592 995.578Q94.8457 993.576 95.773 991.593Q96.7004 989.609 97.6681 987.645Q98.6359 985.681 99.6437 983.738Q100.651 981.794 101.699 979.871Q102.746 977.949 103.833 976.048Q104.919 974.147 106.045 972.269Q107.17 970.391 108.333 968.536Q109.497 966.682 110.698 964.852Q111.899 963.021 113.138 961.216Q114.376 959.41 115.651 957.631Q116.926 955.851 118.238 954.098Q119.549 952.345 120.896 950.619Q122.243 948.893 123.625 947.195Q125.007 945.497 126.424 943.828Q127.84 942.158 129.291 940.518Q130.741 938.879 132.225 937.269Q133.709 935.659 135.225 934.08Q136.742 932.501 138.29 930.953C175.824 893.684 223.997 872.559 276.507 868.546C288.013 867.666 299.768 868.137 311.311 868.14L369.977 868.16L517.316 868.163Z"/>
	<defs>
		<linearGradient id="gradient_1" gradientUnits="userSpaceOnUse" x1="1103.9075" y1="871.77643" x2="1126.1194" y2="246.43672">
			<stop offset="0" stop-color="#1A91DC"/>
			<stop offset="1" stop-color="#20F2EE"/>
		</linearGradient>
	</defs>
	<path fill="url(#gradient_1)" d="M1069.97 249.008C1078.51 240.899 1091.03 234.435 1101.42 228.891C1158.41 198.47 1206.5 195.969 1269.65 197.317L1269.67 255.269C1269.67 264.21 1270.48 273.885 1269.47 282.712C1270.4 319.191 1269.66 355.857 1269.66 392.353L1269.64 616.799C1269.64 655.065 1269.02 693.446 1269.72 731.701C1251.4 750.262 1232.42 767.508 1211.41 783Q1208 785.504 1204.55 787.941Q1201.1 790.379 1197.6 792.751Q1194.09 795.122 1190.55 797.426Q1187.01 799.73 1183.42 801.966Q1179.83 804.202 1176.2 806.369Q1172.57 808.535 1168.9 810.632Q1165.23 812.729 1161.52 814.756Q1157.81 816.782 1154.06 818.737Q1150.31 820.692 1146.52 822.575Q1142.74 824.458 1138.92 826.268Q1135.1 828.078 1131.24 829.815Q1127.39 831.552 1123.5 833.215Q1119.61 834.877 1115.7 836.465Q1111.78 838.053 1107.83 839.566Q1103.88 841.079 1099.91 842.516Q1095.93 843.953 1091.93 845.314Q1087.93 846.675 1083.9 847.959Q1079.87 849.242 1075.82 850.449Q1071.77 851.656 1067.69 852.785Q1063.62 853.913 1059.52 854.964Q1055.43 856.015 1051.32 856.987Q1047.2 857.959 1043.07 858.853Q1038.94 859.746 1034.79 860.56Q1030.64 861.375 1026.48 862.109Q1022.31 862.844 1018.14 863.499Q1013.96 864.154 1009.77 864.729Q1005.58 865.304 1001.39 865.798Q997.187 866.293 992.98 866.707Q988.773 867.121 984.559 867.455Q980.344 867.789 976.124 868.042Q971.904 868.295 967.68 868.467Q963.456 868.64 959.23 868.731C958.419 868.741 957.724 868.668 956.935 868.481C958.187 864.665 957.291 858.163 957.396 854.017C957.951 832.065 958.069 810.217 958.063 788.256L958.304 601.108L958.294 512.185C958.275 466.127 956.989 428.605 971.409 384.147Q972.803 379.889 974.336 375.678Q975.869 371.468 977.539 367.31Q979.209 363.152 981.015 359.051Q982.821 354.951 984.759 350.911Q986.698 346.872 988.769 342.898Q990.839 338.924 993.038 335.021Q995.238 331.117 997.564 327.287Q999.89 323.458 1002.34 319.707Q1004.79 315.956 1007.36 312.287Q1009.94 308.618 1012.63 305.035Q1015.32 301.453 1018.12 297.961Q1020.93 294.468 1023.85 291.07Q1026.77 287.671 1029.8 284.37Q1032.83 281.07 1035.97 277.87Q1039.1 274.67 1042.34 271.575Q1045.58 268.479 1048.92 265.492C1055.2 259.878 1062.46 252.835 1069.97 249.008Z"/>
	<path fill="#1FEEEE" d="M1069.97 249.008C1078.51 240.899 1091.03 234.435 1101.42 228.891C1158.41 198.47 1206.5 195.969 1269.65 197.317L1269.67 255.269C1269.67 264.21 1270.48 273.885 1269.47 282.712C1265.26 291.975 1271.89 309.182 1266.38 318.668C1265.85 314.751 1263.11 314.248 1261.45 309.939C1260.03 306.232 1259 303.826 1254.95 302.473C1248.14 300.202 1235.96 301.591 1228.33 300.813C1196.97 297.612 1167.96 291.994 1138.95 279.331C1132.16 276.367 1124.91 273.565 1119.32 268.565C1119.12 268.387 1118.93 268.204 1118.73 268.023L1117.3 268.183C1110.76 265.929 1092.72 252.667 1089.54 246.651C1089.36 246.315 1089.21 245.965 1089.04 245.622C1084.86 246.28 1081.9 251.092 1077.63 251.506L1077.06 250.834L1077.04 249.592C1076.07 248.224 1075.81 248.227 1074.2 247.65C1073.17 248.052 1072.17 248.388 1071.1 248.693L1069.97 249.008Z"/>
	<path fill="#C7E70D" d="M705.044 20.6757C705.494 20.5943 705.94 20.4866 706.394 20.4315C714.43 19.4571 723.504 20.2441 731.614 20.5404C744.622 21.0157 757.58 21.4877 770.562 22.4778Q775.552 22.8428 780.537 23.2807Q785.522 23.7187 790.499 24.2294Q795.477 24.7402 800.447 25.3238Q805.416 25.9073 810.377 26.5635Q815.337 27.2197 820.288 27.9483Q825.238 28.6769 830.177 29.4779Q835.117 30.2789 840.044 31.152Q844.971 32.0251 849.885 32.9702Q854.798 33.9153 859.698 34.9322Q864.597 35.9491 869.481 37.0375Q874.365 38.1259 879.233 39.2856Q884.1 40.4454 888.95 41.6762Q893.801 42.907 898.632 44.2086Q903.464 45.5102 908.276 46.8823Q913.088 48.2544 917.879 49.6968Q922.671 51.1392 927.441 52.6515Q932.211 54.1638 936.958 55.7457Q941.705 57.3275 946.429 58.9787Q951.152 60.6299 955.851 62.3499Q960.55 64.07 965.223 65.8586Q969.897 67.6472 974.543 69.504Q979.19 71.3607 983.809 73.2853Q988.428 75.2098 993.018 77.2017Q997.609 79.1936 1002.17 81.2524Q1006.73 83.3112 1011.26 85.4365Q1015.79 87.5618 1020.29 89.7531Q1024.79 91.9444 1029.25 94.2013Q1033.72 96.4582 1038.15 98.7802Q1042.59 101.102 1046.98 103.489Q1051.38 105.875 1055.74 108.326Q1060.11 110.776 1064.43 113.291Q1068.76 115.805 1073.05 118.382C1093.11 130.415 1113.29 143.304 1131.57 157.916C1110.65 162.815 1091.07 172.173 1072.19 182.17C1026.58 150.402 974.264 125.523 921.7 107.747Q914.325 105.261 906.89 102.957Q899.456 100.653 891.967 98.5318Q884.479 96.4108 876.94 94.4743Q869.402 92.5377 861.818 90.7867Q854.235 89.0357 846.61 87.4714Q838.986 85.907 831.326 84.5303Q823.665 83.1535 815.974 81.9652Q808.282 80.7768 800.563 79.7776Q792.844 78.7784 785.104 77.9689Q777.363 77.1594 769.604 76.5401Q761.846 75.9208 754.075 75.4922Q746.303 75.0635 738.524 74.8256Q730.744 74.5878 722.962 74.541Q715.179 74.4941 707.397 74.6383Q699.615 74.7825 691.839 75.1176Q684.063 75.4527 676.298 75.9785Q668.533 76.5044 660.783 77.2206Q653.033 77.9369 645.303 78.8431Q637.572 79.7493 629.867 80.845Q622.161 81.9407 614.485 83.2251Q606.809 84.5096 599.166 85.982Q591.523 87.4545 583.919 89.1141Q576.315 90.7737 568.754 92.6193Q561.193 94.465 553.679 96.4957Q546.166 98.5264 538.704 100.741Q531.243 102.955 523.838 105.352Q516.433 107.749 509.089 110.327Q501.745 112.905 494.467 115.663Q487.188 118.42 479.98 121.355Q472.771 124.29 465.637 127.402Q458.502 130.513 451.446 133.798Q444.39 137.083 437.417 140.541Q430.381 144.044 423.434 147.718Q416.486 151.392 409.631 155.236Q402.775 159.081 396.017 163.092Q389.258 167.103 382.6 171.28Q375.941 175.456 369.388 179.795Q362.834 184.133 356.389 188.632Q349.944 193.13 343.612 197.786Q337.279 202.441 331.063 207.251Q324.847 212.061 318.751 217.022Q312.655 221.983 306.682 227.092Q300.71 232.202 294.865 237.456Q289.019 242.711 283.305 248.107Q277.591 253.504 272.011 259.04Q266.431 264.575 260.989 270.246Q255.547 275.917 250.245 281.72Q244.944 287.523 239.787 293.455Q234.63 299.386 229.62 305.443Q224.61 311.5 219.751 317.677Q214.891 323.855 210.185 330.151Q205.479 336.446 200.929 342.855Q196.378 349.264 191.987 355.783Q187.596 362.303 183.366 368.928Q179.136 375.553 175.07 382.28Q171.005 389.007 167.105 395.831Q163.206 402.656 159.476 409.575Q155.745 416.494 152.186 423.502Q148.627 430.51 145.241 437.604Q141.855 444.697 138.644 451.872Q135.433 459.047 132.4 466.298Q129.366 473.55 126.512 480.873Q123.657 488.197 120.984 495.589Q118.31 502.981 115.819 510.436C74.7438 628.852 73.402 766.014 108.551 885.973C91.9466 900.144 78.6605 915.56 66.8848 933.949C46.9599 879.464 35.8574 819.979 31.4185 762.24Q30.7716 753.788 30.3333 745.323Q29.895 736.857 29.6655 728.384Q29.4361 719.91 29.4156 711.434Q29.395 702.957 29.5835 694.483Q29.772 686.008 30.1693 677.541Q30.5666 669.073 31.1726 660.618Q31.7786 652.163 32.5928 643.726Q33.407 635.289 34.4289 626.874Q35.4509 618.459 36.68 610.072Q37.9091 601.685 39.3446 593.331Q40.7801 584.977 42.4211 576.66Q44.0621 568.344 45.9077 560.071Q47.7532 551.798 49.8021 543.573Q51.8511 535.347 54.1022 527.175Q56.3532 519.003 58.8051 510.889Q61.257 502.775 63.9081 494.723Q66.5593 486.672 69.4081 478.689Q72.257 470.705 75.3017 462.795Q78.3465 454.884 81.5854 447.051Q84.8243 439.217 88.2553 431.466Q91.6863 423.715 95.3073 416.051Q98.9284 408.387 102.737 400.815Q106.546 393.243 110.541 385.767Q114.535 378.29 118.712 370.915Q122.89 363.54 127.248 356.27Q131.606 349 136.142 341.839Q140.678 334.679 145.389 327.632Q150.1 320.586 154.984 313.658Q159.867 306.73 164.92 299.925Q169.972 293.119 175.191 286.44Q180.41 279.761 185.792 273.213Q191.174 266.665 196.716 260.252Q201.58 254.596 206.565 249.046Q211.55 243.497 216.654 238.056Q221.758 232.616 226.978 227.287Q232.199 221.958 237.533 216.744Q242.868 211.53 248.314 206.432Q253.76 201.334 259.315 196.356Q264.871 191.377 270.532 186.52Q276.194 181.663 281.959 176.929Q287.725 172.196 293.591 167.588Q299.458 162.981 305.423 158.501Q311.387 154.022 317.448 149.673Q323.508 145.323 329.661 141.106Q335.814 136.889 342.057 132.806Q348.3 128.724 354.63 124.777Q360.96 120.83 367.374 117.021Q373.787 113.213 380.282 109.543Q386.777 105.874 393.349 102.347Q399.922 98.8192 406.569 95.4348Q413.216 92.0503 419.935 88.8105Q426.654 85.5707 433.442 82.4771Q440.23 79.3836 447.082 76.4377Q453.935 73.4917 460.85 70.6949Q467.766 67.898 474.74 65.2515Q481.713 62.605 488.743 60.1101Q495.773 57.6152 502.855 55.2731Q509.937 52.9309 517.068 50.7426Q524.199 48.5543 531.375 46.5209Q538.552 44.4875 545.771 42.61Q552.99 40.7324 560.248 39.0116Q567.506 37.2908 574.799 35.7274Q582.093 34.1641 589.418 32.7591Q596.744 31.354 604.098 30.1079Q640.174 24.0584 676.685 21.815C686.136 21.2138 695.61 21.3864 705.044 20.6757Z"/>
	<path fill="#1D9DDF" d="M1089.15 1226.22L1175.87 1226.24C1166.75 1235.37 1155.86 1243.43 1145.84 1251.61C1030.52 1340.69 898.822 1391.57 752.822 1398.9Q744.5 1399.32 736.17 1399.54Q727.84 1399.76 719.507 1399.77Q711.174 1399.79 702.844 1399.6Q694.513 1399.41 686.189 1399.03Q677.865 1398.64 669.554 1398.04Q661.242 1397.45 652.947 1396.66Q644.652 1395.87 636.379 1394.87Q628.105 1393.88 619.859 1392.68Q611.612 1391.49 603.397 1390.09Q595.182 1388.7 587.003 1387.1Q578.824 1385.51 570.686 1383.71Q562.549 1381.92 554.457 1379.93Q546.365 1377.94 538.324 1375.75Q530.283 1373.57 522.298 1371.19Q514.312 1368.8 506.387 1366.23Q498.462 1363.66 490.601 1360.89Q482.741 1358.12 474.95 1355.17Q467.159 1352.21 459.442 1349.06Q451.726 1345.92 444.088 1342.59Q436.45 1339.26 428.895 1335.74Q421.34 1332.22 413.873 1328.52Q406.405 1324.83 399.03 1320.95Q391.655 1317.07 384.376 1313.01Q377.098 1308.95 369.92 1304.72Q362.742 1300.49 355.669 1296.08Q348.596 1291.67 341.632 1287.1Q334.668 1282.52 327.817 1277.78Q320.967 1273.03 314.233 1268.12Q307.5 1263.21 300.888 1258.14Q294.276 1253.07 287.789 1247.84Q281.302 1242.61 274.944 1237.22Q268.586 1231.83 262.361 1226.29C291.186 1225.87 320.052 1226.21 348.882 1226.23Q356.241 1231.54 363.75 1236.63Q371.258 1241.72 378.909 1246.6Q386.561 1251.47 394.348 1256.12Q402.136 1260.78 410.054 1265.21Q417.972 1269.64 426.013 1273.84Q434.055 1278.04 442.213 1282Q450.372 1285.97 458.641 1289.7Q466.91 1293.44 475.282 1296.93Q483.654 1300.42 492.123 1303.68Q500.592 1306.93 509.151 1309.94Q517.71 1312.95 526.351 1315.71Q534.993 1318.47 543.71 1320.98Q552.427 1323.5 561.212 1325.76Q569.997 1328.02 578.844 1330.03Q587.691 1332.04 596.591 1333.8Q605.492 1335.55 614.439 1337.05Q622.151 1338.34 629.892 1339.44Q637.633 1340.54 645.399 1341.45Q653.166 1342.36 660.952 1343.08Q668.738 1343.79 676.539 1344.32Q684.341 1344.84 692.153 1345.17Q699.965 1345.5 707.783 1345.64Q715.601 1345.78 723.42 1345.73Q731.239 1345.67 739.054 1345.42Q746.869 1345.17 754.676 1344.73Q762.482 1344.29 770.276 1343.66Q778.069 1343.02 785.844 1342.2Q793.62 1341.37 801.372 1340.35Q809.125 1339.34 816.85 1338.13Q824.575 1336.92 832.268 1335.52Q839.961 1334.12 847.617 1332.53Q855.273 1330.94 862.887 1329.16Q870.501 1327.39 878.07 1325.42Q885.638 1323.46 893.155 1321.3Q900.672 1319.15 908.134 1316.82Q915.596 1314.48 922.998 1311.96Q930.4 1309.44 937.738 1306.74Q945.075 1304.03 952.344 1301.15Q959.612 1298.27 966.807 1295.21Q974.002 1292.15 981.12 1288.91Q988.237 1285.67 995.272 1282.26Q1002.31 1278.84 1009.26 1275.26Q1016.2 1271.67 1023.06 1267.92Q1029.92 1264.16 1036.68 1260.23Q1043.45 1256.31 1050.11 1252.22Q1056.78 1248.13 1063.34 1243.88Q1069.9 1239.62 1076.35 1235.21Q1082.81 1230.79 1089.15 1226.22Z"/>
	<path fill="#1D9DDF" d="M1325.72 382.607C1342.76 411.964 1356.66 444.519 1368.02 476.468Q1370.89 484.437 1373.56 492.475Q1376.24 500.512 1378.71 508.613Q1381.18 516.714 1383.46 524.873Q1385.73 533.032 1387.81 541.244Q1389.88 549.457 1391.75 557.718Q1393.62 565.979 1395.29 574.283Q1396.96 582.588 1398.42 590.931Q1399.88 599.274 1401.14 607.65Q1402.4 616.027 1403.45 624.432Q1404.5 632.836 1405.35 641.264Q1406.19 649.693 1406.83 658.139Q1407.46 666.585 1407.89 675.045Q1408.32 683.504 1408.55 691.971Q1408.77 700.439 1408.78 708.909Q1408.79 717.38 1408.6 725.848Q1408.4 734.316 1408 742.776Q1407.6 751.237 1406.99 759.685Q1406.38 768.134 1405.56 776.565Q1404.74 784.995 1403.72 793.403Q1402.69 801.811 1401.46 810.192Q1400.23 818.572 1398.79 826.92Q1397.36 835.267 1395.71 843.577Q1394.07 851.887 1392.23 860.154Q1390.38 868.42 1388.33 876.639Q1386.29 884.858 1384.04 893.025Q1381.79 901.191 1379.34 909.299Q1376.89 917.408 1374.24 925.453Q1371.6 933.499 1368.75 941.478Q1365.91 949.456 1362.87 957.362Q1359.83 965.268 1356.6 973.097Q1353.36 980.926 1349.94 988.673Q1346.51 996.42 1342.9 1004.08C1338 1015.73 1331.93 1027.16 1325.46 1038.01Q1325.17 993.902 1325.35 949.796C1325.34 934.087 1323.85 917.247 1325.73 901.714C1326.68 893.773 1329.8 885.548 1331.98 877.847Q1336.99 860.809 1340.55 843.41Q1346.13 817.035 1349.55 790.293Q1352.97 763.552 1354.2 736.62C1354.77 722.38 1354.44 707.978 1354.38 693.723C1354.19 652.044 1348.04 608.915 1338.58 568.372Q1335.33 554.4 1331.46 540.585C1329.42 533.387 1326.77 525.99 1325.7 518.578C1324.8 512.367 1325.28 505.51 1325.28 499.224L1325.28 464.601L1325.32 414.35C1325.32 403.814 1324.96 393.116 1325.72 382.607Z"/>
</svg>
