<?xml version="1.0" encoding="utf-8" ?>
<svg xmlns="http://www.w3.org/2000/svg" xmlns:xlink="http://www.w3.org/1999/xlink" width="1437" height="1420">
	<defs>
		<linearGradient id="gradient_0" gradientUnits="userSpaceOnUse" x1="562.10388" y1="1204.1012" x2="516.81165" y2="507.53256">
			<stop offset="0" stop-color="#1D97DD"/>
			<stop offset="1" stop-color="#1FD5E9"/>
		</linearGradient>
	</defs>
	<path fill="url(#gradient_0)" d="M516.389 868.241L516.352 695.741C516.324 639.508 531.364 590.118 572.291 549.666Q573.722 548.251 575.182 546.867Q576.642 545.483 578.132 544.13Q579.621 542.777 581.139 541.456Q582.656 540.135 584.202 538.846Q585.747 537.557 587.319 536.302Q588.891 535.046 590.49 533.824Q592.089 532.602 593.713 531.414Q595.337 530.226 596.985 529.073Q598.634 527.92 600.307 526.802Q601.98 525.684 603.676 524.601Q605.373 523.519 607.091 522.473Q608.81 521.426 610.551 520.417Q612.291 519.407 614.053 518.435Q615.814 517.462 617.596 516.527Q619.378 515.592 621.179 514.695Q622.98 513.798 624.8 512.939Q626.62 512.081 628.457 511.261Q630.295 510.441 632.149 509.66Q634.004 508.879 635.874 508.138Q637.745 507.397 639.631 506.695Q641.517 505.993 643.417 505.332Q645.318 504.671 647.231 504.049Q649.145 503.428 651.072 502.848Q652.999 502.268 654.937 501.728Q656.876 501.189 658.825 500.69Q660.775 500.192 662.734 499.735Q664.694 499.278 666.663 498.863Q668.632 498.448 670.609 498.074Q672.586 497.701 674.571 497.369Q676.556 497.038 678.547 496.749Q680.538 496.459 682.535 496.212Q684.532 495.965 686.534 495.76C704.921 494.055 724.083 495.061 742.562 495.062L827.04 495.098L827.023 868.283C870.325 867.429 913.892 868.008 957.203 868.362C964.051 867.943 970.834 867.537 977.7 867.769L976.945 867.957C965.883 870.612 954.434 868.725 943.255 870.234C942.926 880.406 949.092 894.483 952.539 904C955.747 912.861 958.366 922.023 961.906 930.746C974.495 961.767 989.548 991.842 1002.36 1022.78C1004.22 1027.27 1007.2 1032.88 1008 1037.59C1008.22 1038.95 1007.87 1040.42 1008.17 1041.75C1008.74 1044.29 1010.89 1047.51 1011.97 1050.03C1015.67 1058.68 1018.74 1067.29 1022.95 1075.76C1024.27 1078.41 1024.13 1081.33 1024.31 1084.22C1024.83 1092.47 1029.68 1103.52 1031.95 1111.78C1035.29 1123.9 1037.52 1136.05 1039.89 1148.38C1041.25 1155.47 1043.01 1162.69 1043.61 1169.89C1040.3 1173.34 1035.06 1173.47 1030.55 1173.56C1019.91 1173.76 941.624 1172.74 939.735 1174.54C922.559 1176.01 899.919 1174.78 882.269 1174.78L768.302 1174.76L768.281 549.802C746.85 549.783 724.239 548.376 702.97 550.578Q699.982 550.899 697.011 551.345Q694.039 551.792 691.089 552.364Q688.139 552.937 685.216 553.633Q682.293 554.329 679.402 555.149Q676.511 555.968 673.657 556.909Q670.803 557.85 667.992 558.911Q665.18 559.972 662.416 561.151Q659.652 562.33 656.941 563.624Q654.229 564.919 651.575 566.327Q648.92 567.736 646.328 569.255Q643.735 570.774 641.209 572.402Q638.683 574.029 636.229 575.762Q633.774 577.495 631.395 579.331Q629.016 581.166 626.716 583.1Q624.417 585.035 622.201 587.064Q619.986 589.094 617.858 591.216Q615.982 593.083 614.178 595.019Q612.374 596.955 610.643 598.956Q608.912 600.958 607.257 603.023Q605.602 605.089 604.026 607.214Q602.449 609.34 600.953 611.522Q599.457 613.705 598.044 615.943Q596.631 618.18 595.302 620.468Q593.973 622.757 592.731 625.094Q591.489 627.43 590.334 629.811Q589.18 632.193 588.116 634.615Q587.051 637.038 586.078 639.499Q585.105 641.96 584.225 644.455Q583.344 646.951 582.557 649.477Q581.771 652.004 581.079 654.558Q580.387 657.113 579.792 659.691Q579.196 662.269 578.697 664.868C574.469 686.879 575.972 710.471 575.984 732.819L576.001 826.223L576.027 1174.86C556.954 1175.53 537.699 1175.03 518.611 1175.02L412.916 1175.01L75.1978 1174.8L75.1724 1105.64C75.1723 1091.37 74.6098 1076.88 76.0102 1062.67Q76.2226 1060.36 76.4853 1058.05Q76.748 1055.74 77.0609 1053.43Q77.3737 1051.13 77.7366 1048.84Q78.0995 1046.54 78.5122 1044.25Q78.9249 1041.97 79.3872 1039.69Q79.8495 1037.41 80.3613 1035.14Q80.873 1032.88 81.434 1030.62Q81.9949 1028.37 82.6048 1026.12Q83.2146 1023.88 83.8731 1021.65Q84.5316 1019.42 85.2384 1017.21Q85.9451 1015 86.6999 1012.8Q87.4547 1010.6 88.2571 1008.42Q89.0595 1006.24 89.9091 1004.07Q90.7587 1001.91 91.6552 999.766Q92.5517 997.622 93.4946 995.498Q94.4375 993.373 95.4264 991.27Q96.4152 989.167 97.4496 987.086Q98.484 985.004 99.5633 982.946Q100.643 980.888 101.767 978.853Q102.891 976.819 104.058 974.81Q105.226 972.8 106.438 970.817Q107.649 968.833 108.903 966.877Q110.157 964.92 111.453 962.991Q112.75 961.062 114.088 959.162Q115.426 957.261 116.805 955.391Q118.184 953.52 119.603 951.679Q121.023 949.839 122.482 948.03Q123.941 946.221 125.439 944.444Q126.937 942.667 128.473 940.923Q130.01 939.179 131.584 937.469Q133.158 935.759 134.768 934.083Q136.379 932.408 138.026 930.768Q139.675 929.125 141.359 927.519Q143.043 925.912 144.761 924.343Q146.48 922.773 148.232 921.241Q149.984 919.709 151.769 918.215Q153.553 916.721 155.37 915.267Q157.187 913.812 159.035 912.397Q160.883 910.982 162.761 909.608Q164.64 908.233 166.547 906.9Q168.455 905.566 170.391 904.274Q172.327 902.983 174.29 901.733Q176.254 900.483 178.244 899.277Q180.235 898.07 182.251 896.907Q184.267 895.744 186.307 894.624Q188.348 893.505 190.412 892.431Q192.477 891.356 194.564 890.326Q196.652 889.296 198.761 888.312Q200.87 887.328 203 886.39Q205.13 885.451 207.28 884.56Q209.43 883.668 211.598 882.823Q213.767 881.978 215.954 881.18Q218.14 880.382 220.343 879.632Q222.547 878.882 224.766 878.179Q226.985 877.477 229.219 876.823Q231.452 876.169 233.7 875.564Q235.947 874.958 238.207 874.402Q240.467 873.845 242.739 873.338Q245.01 872.83 247.292 872.372Q249.574 871.914 251.866 871.506Q254.157 871.097 256.457 870.739Q258.757 870.38 261.064 870.071Q263.371 869.763 265.684 869.504Q267.997 869.245 270.315 869.037C283.92 867.784 297.669 868.187 311.321 868.196L370.234 868.213L516.389 868.241Z"/>
	<defs>
		<linearGradient id="gradient_1" gradientUnits="userSpaceOnUse" x1="1104.0143" y1="871.14624" x2="1123.601" y2="263.91504">
			<stop offset="0" stop-color="#1A91DC"/>
			<stop offset="1" stop-color="#20F0EE"/>
		</linearGradient>
	</defs>
	<path fill="url(#gradient_1)" d="M1051.14 263.578C1058.08 256.683 1066.24 250.763 1074.25 245.162Q1077.89 242.645 1081.6 240.249Q1085.32 237.852 1089.11 235.578Q1092.9 233.304 1096.77 231.155Q1100.63 229.006 1104.57 226.985Q1108.5 224.964 1112.5 223.072Q1116.49 221.18 1120.55 219.42Q1124.61 217.66 1128.72 216.033Q1132.83 214.406 1136.99 212.915Q1141.16 211.423 1145.37 210.069Q1149.57 208.714 1153.83 207.498Q1158.08 206.281 1162.37 205.205Q1166.66 204.128 1170.98 203.192Q1175.3 202.256 1179.65 201.461Q1184 200.667 1188.37 200.015Q1192.75 199.364 1197.14 198.855Q1201.53 198.347 1205.94 197.982C1226.73 196.1 1248.12 197.153 1268.98 197.195L1268.99 283.899L1269.04 744.453L1269.07 887.565L1269.13 929.284C1269.14 936.23 1269.75 943.93 1268.75 950.786C1267.56 926.449 1268.53 901.582 1268.51 877.193L1268.41 732.891Q1265.61 735.805 1262.76 738.667Q1259.91 741.53 1257.01 744.339Q1254.11 747.149 1251.16 749.905Q1248.21 752.661 1245.2 755.363Q1242.2 758.065 1239.15 760.711Q1236.1 763.358 1233 765.948Q1229.9 768.538 1226.76 771.07Q1223.61 773.603 1220.42 776.078Q1217.23 778.553 1213.99 780.969Q1210.75 783.385 1207.47 785.742Q1204.19 788.098 1200.87 790.394Q1197.55 792.691 1194.18 794.925Q1190.82 797.16 1187.41 799.333Q1184.01 801.506 1180.57 803.617Q1177.12 805.727 1173.64 807.774Q1170.16 809.821 1166.64 811.804Q1163.12 813.786 1159.57 815.704Q1156.01 817.623 1152.42 819.475Q1148.83 821.328 1145.21 823.115Q1141.59 824.902 1137.93 826.622Q1134.28 828.342 1130.59 829.995Q1126.91 831.648 1123.19 833.234Q1119.48 834.819 1115.74 836.336Q1111.99 837.853 1108.22 839.302Q1104.45 840.75 1100.66 842.129Q1096.86 843.508 1093.04 844.818Q1089.22 846.127 1085.37 847.367Q1081.53 848.606 1077.66 849.775Q1073.8 850.944 1069.91 852.041Q1066.02 853.139 1062.12 854.166Q1058.21 855.192 1054.29 856.147Q1050.36 857.102 1046.42 857.985C1023.65 863.033 1000.93 865.808 977.7 867.769C970.834 867.537 964.051 867.943 957.203 868.362L957.28 609.28L957.262 519.124C957.254 477.498 956.275 436.595 967.34 396.071Q968.454 392.022 969.694 388.009Q970.933 383.996 972.297 380.023Q973.66 376.051 975.146 372.123Q976.633 368.195 978.24 364.315Q979.848 360.435 981.575 356.606Q983.302 352.778 985.148 349.005Q986.993 345.232 988.955 341.519Q990.917 337.805 992.993 334.154Q995.069 330.503 997.258 326.918Q999.446 323.334 1001.75 319.819Q1004.04 316.304 1006.45 312.862Q1008.86 309.42 1011.37 306.054Q1013.88 302.689 1016.5 299.403Q1019.12 296.117 1021.83 292.914Q1024.55 289.711 1027.36 286.594Q1030.18 283.477 1033.09 280.449C1038.23 275.05 1044.67 267.28 1051.14 263.578Z"/>
	<path fill="#1FEDEE" d="M1051.14 263.578C1058.08 256.683 1066.24 250.763 1074.25 245.162Q1077.89 242.645 1081.6 240.249Q1085.32 237.852 1089.11 235.578Q1092.9 233.304 1096.77 231.155Q1100.63 229.006 1104.57 226.985Q1108.5 224.964 1112.5 223.072Q1116.49 221.18 1120.55 219.42Q1124.61 217.66 1128.72 216.033Q1132.83 214.406 1136.99 212.915Q1141.16 211.423 1145.37 210.069Q1149.57 208.714 1153.83 207.498Q1158.08 206.281 1162.37 205.205Q1166.66 204.128 1170.98 203.192Q1175.3 202.256 1179.65 201.461Q1184 200.667 1188.37 200.015Q1192.75 199.364 1197.14 198.855Q1201.53 198.347 1205.94 197.982C1226.73 196.1 1248.12 197.153 1268.98 197.195L1268.99 283.899C1265.92 295.593 1271.91 328.666 1265.61 336.115C1264.12 334.432 1262.84 331.04 1260.95 329.924C1252.87 325.161 1225.96 325.286 1215.55 324.272C1171.96 320.029 1137.85 311.692 1098.16 292.759C1089.68 288.717 1080.47 284.568 1072.54 279.535C1066.62 275.783 1062.17 269.658 1056.06 265.788C1055.72 265.572 1055.37 265.363 1055.03 265.151L1055.13 262.5C1053.76 262.676 1052.46 263.166 1051.14 263.578Z"/>
	<path fill="#1FEDEE" d="M704.637 20.6565C705.06 20.5896 705.48 20.4985 705.906 20.4559C714.338 19.6136 723.44 20.2819 731.919 20.591C746.559 21.1248 761.119 21.7873 775.726 22.9604C907.299 33.528 1024.84 80.4267 1131.17 157.741C1109.92 163.961 1091.05 171.635 1071.68 182.393C1062.56 175.484 1052.35 169.546 1042.52 163.704Q1027.3 154.655 1011.6 146.468Q995.894 138.28 979.761 130.979Q963.628 123.677 947.113 117.285Q930.599 110.893 913.754 105.429Q906.359 103.026 898.906 100.806Q891.454 98.5857 883.949 96.5496Q876.444 94.5135 868.891 92.6627Q861.339 90.8118 853.743 89.1475Q846.147 87.4831 838.512 86.0062Q830.878 84.5292 823.209 83.2406Q815.54 81.9521 807.842 80.8526Q800.144 79.7531 792.422 78.8434Q784.699 77.9337 776.956 77.2143Q769.213 76.495 761.455 75.9664Q753.697 75.4378 745.928 75.1003Q738.159 74.7628 730.384 74.6166Q722.609 74.4704 714.833 74.5156Q707.057 74.5607 699.285 74.7973Q691.512 75.0338 683.748 75.4616Q675.983 75.8893 668.232 76.508Q660.48 77.1267 652.746 77.936Q645.012 78.7453 637.301 79.7446Q629.589 80.744 621.904 81.9328Q614.219 83.1217 606.566 84.4993Q598.913 85.8769 591.296 87.4424Q583.679 89.008 576.103 90.7605Q568.527 92.513 560.996 94.4514Q553.466 96.3899 545.985 98.513Q538.505 100.636 531.078 102.943Q523.652 105.249 516.285 107.738Q508.918 110.227 501.615 112.896Q494.311 115.565 487.075 118.414Q479.84 121.262 472.676 124.287Q465.513 127.312 458.426 130.513Q451.339 133.714 444.333 137.088Q437.328 140.462 430.407 144.008Q423.496 147.535 416.673 151.229Q409.85 154.923 403.118 158.782Q396.387 162.641 389.752 166.663Q383.117 170.684 376.582 174.866Q370.046 179.049 363.615 183.389Q357.183 187.729 350.859 192.224Q344.536 196.719 338.323 201.367Q332.111 206.015 326.013 210.813Q319.916 215.611 313.937 220.556Q307.958 225.501 302.101 230.59Q296.245 235.679 290.514 240.909Q284.783 246.139 279.181 251.507Q273.579 256.875 268.109 262.378Q262.64 267.881 257.306 273.515Q251.972 279.15 246.777 284.912Q241.582 290.675 236.529 296.562Q231.476 302.45 226.567 308.458Q221.659 314.467 216.899 320.593Q212.138 326.72 207.528 332.96Q202.918 339.201 198.462 345.552Q194.005 351.903 189.705 358.36Q185.404 364.818 181.262 371.378Q177.12 377.938 173.139 384.598Q169.158 391.257 165.34 398.011Q161.523 404.765 157.871 411.61Q154.219 418.456 150.734 425.388Q147.25 432.32 143.936 439.334Q140.621 446.349 137.479 453.443Q134.336 460.536 131.367 467.704Q128.398 474.872 125.605 482.11Q122.811 489.348 120.195 496.652Q117.579 503.956 115.141 511.321C73.4617 632.204 74.1193 763.883 107.911 886.405C90.9702 898.572 77.6812 916.882 66.3201 934.046C46.1605 880.098 34.5881 814.992 30.678 757.587Q30.0875 749.123 29.706 740.647Q29.3244 732.171 29.152 723.689Q28.9796 715.206 29.0165 706.721Q29.0534 698.237 29.2995 689.756Q29.5456 681.275 30.0009 672.803Q30.4561 664.331 31.1201 655.872Q31.7842 647.414 32.6566 638.974Q33.5291 630.535 34.6094 622.119Q35.6898 613.704 36.9774 605.318Q38.2649 596.931 39.759 588.579Q41.253 580.227 42.9525 571.915Q44.6521 563.602 46.5562 555.334Q48.4602 547.066 50.5677 538.847Q52.6751 530.629 54.9845 522.465Q57.294 514.3 59.8041 506.196Q62.3143 498.091 65.0235 490.05Q67.7328 482.01 70.6395 474.039Q73.5463 466.068 76.6488 458.171Q79.7512 450.274 83.0475 442.456Q86.3438 434.637 89.8319 426.903Q93.32 419.168 96.9979 411.522Q100.676 403.876 104.541 396.323Q108.406 388.77 112.457 381.315Q116.507 373.859 120.74 366.506Q124.973 359.152 129.386 351.906Q133.799 344.659 138.39 337.523Q142.98 330.387 147.745 323.367Q152.511 316.347 157.447 309.446Q162.384 302.545 167.49 295.768Q172.595 288.992 177.866 282.343Q183.137 275.694 188.571 269.177Q194.004 262.66 199.597 256.279Q204.405 250.772 209.33 245.368Q214.254 239.964 219.292 234.666Q224.33 229.368 229.479 224.178Q234.628 218.988 239.886 213.908Q245.145 208.829 250.51 203.862Q255.874 198.895 261.344 194.043Q266.813 189.192 272.384 184.457Q277.955 179.723 283.625 175.107Q289.295 170.492 295.062 165.998Q300.829 161.504 306.69 157.134Q312.551 152.764 318.504 148.519Q324.456 144.274 330.498 140.156Q336.539 136.038 342.667 132.05Q348.794 128.061 355.005 124.204Q361.215 120.346 367.507 116.622Q373.798 112.897 380.167 109.306Q386.536 105.716 392.979 102.262Q399.423 98.8071 405.939 95.4903Q412.454 92.1734 419.039 88.9956Q425.623 85.8178 432.274 82.7805Q438.924 79.7433 445.638 76.8478Q452.351 73.9524 459.125 71.2001Q465.898 68.4479 472.729 65.84Q479.559 63.2322 486.443 60.7699Q493.327 58.3076 500.262 55.9921Q507.197 53.6765 514.18 51.5087Q521.162 49.3408 528.19 47.3217Q535.217 45.3026 542.285 43.4331Q549.353 41.5636 556.46 39.8445Q563.566 38.1255 570.707 36.5577Q577.849 34.9899 585.022 33.5741Q592.195 32.1582 599.396 30.895Q636.56 24.3805 674.217 22.0131C684.355 21.3426 694.508 21.3467 704.637 20.6565Z"/>
	<defs>
		<linearGradient id="gradient_2" gradientUnits="userSpaceOnUse" x1="979.17871" y1="1038.3734" x2="1332.0623" y2="877.56354">
			<stop offset="0" stop-color="#1EB4E1"/>
			<stop offset="1" stop-color="#1FFFF6" stop-opacity="0.98823529"/>
		</linearGradient>
	</defs>
	<path fill="url(#gradient_2)" d="M1268.41 732.891L1268.51 877.193C1268.53 901.582 1267.56 926.449 1268.75 950.786C1268.89 1008.95 1242.74 1067.25 1201.77 1108.12Q1198.59 1111.26 1195.29 1114.28Q1192 1117.3 1188.58 1120.19Q1185.17 1123.08 1181.65 1125.84Q1178.13 1128.59 1174.5 1131.21Q1170.88 1133.83 1167.16 1136.3Q1163.43 1138.78 1159.62 1141.11Q1155.8 1143.44 1151.9 1145.62Q1147.99 1147.8 1144.01 1149.83C1096.71 1173.75 1063.19 1174.8 1011.37 1174.75L948.643 1174.81C945.737 1174.8 942.613 1174.95 939.735 1174.54C941.624 1172.74 1019.91 1173.76 1030.55 1173.56C1035.06 1173.47 1040.3 1173.34 1043.61 1169.89C1043.01 1162.69 1041.25 1155.47 1039.89 1148.38C1037.52 1136.05 1035.29 1123.9 1031.95 1111.78C1029.68 1103.52 1024.83 1092.47 1024.31 1084.22C1024.13 1081.33 1024.27 1078.41 1022.95 1075.76C1018.74 1067.29 1015.67 1058.68 1011.97 1050.03C1010.89 1047.51 1008.74 1044.29 1008.17 1041.75C1007.87 1040.42 1008.22 1038.95 1008 1037.59C1007.2 1032.88 1004.22 1027.27 1002.36 1022.78C989.548 991.842 974.495 961.767 961.906 930.746C958.366 922.023 955.747 912.861 952.539 904C949.092 894.483 942.926 880.406 943.255 870.234C954.434 868.725 965.883 870.612 976.945 867.957L977.7 867.769C1000.93 865.808 1023.65 863.033 1046.42 857.985Q1050.36 857.102 1054.29 856.147Q1058.21 855.192 1062.12 854.166Q1066.02 853.139 1069.91 852.041Q1073.8 850.944 1077.66 849.775Q1081.53 848.606 1085.37 847.367Q1089.22 846.127 1093.04 844.818Q1096.86 843.508 1100.66 842.129Q1104.45 840.75 1108.22 839.302Q1111.99 837.853 1115.74 836.336Q1119.48 834.819 1123.19 833.234Q1126.91 831.648 1130.6 829.995Q1134.28 828.342 1137.93 826.622Q1141.59 824.902 1145.21 823.115Q1148.83 821.328 1152.42 819.475Q1156.01 817.623 1159.57 815.704Q1163.12 813.786 1166.64 811.804Q1170.16 809.821 1173.64 807.774Q1177.12 805.727 1180.57 803.617Q1184.01 801.506 1187.41 799.333Q1190.82 797.16 1194.18 794.925Q1197.55 792.691 1200.87 790.394Q1204.19 788.098 1207.47 785.742Q1210.75 783.385 1213.99 780.969Q1217.23 778.553 1220.42 776.078Q1223.61 773.603 1226.76 771.07Q1229.9 768.538 1233 765.948Q1236.1 763.358 1239.15 760.711Q1242.2 758.065 1245.21 755.363Q1248.21 752.662 1251.16 749.905Q1254.11 747.149 1257.01 744.339Q1259.91 741.53 1262.76 738.667Q1265.61 735.805 1268.41 732.891Z"/>
	<path fill="#1D9DDF" d="M1089.05 1226.28L1175.14 1226.33C1166.31 1234.93 1156.45 1242.67 1146.85 1250.38Q1141.4 1254.71 1135.86 1258.94Q1130.33 1263.16 1124.71 1267.27Q1119.08 1271.38 1113.38 1275.38Q1107.68 1279.37 1101.9 1283.25Q1096.11 1287.13 1090.25 1290.89Q1084.39 1294.66 1078.46 1298.3Q1072.52 1301.94 1066.51 1305.46Q1060.5 1308.98 1054.43 1312.38Q1048.35 1315.78 1042.2 1319.05Q1036.06 1322.33 1029.85 1325.48Q1023.63 1328.63 1017.36 1331.65Q1011.09 1334.67 1004.75 1337.57Q998.421 1340.46 992.03 1343.23Q985.639 1345.99 979.194 1348.63Q972.748 1351.27 966.25 1353.77Q959.753 1356.28 953.206 1358.65Q946.659 1361.02 940.065 1363.26Q933.471 1365.5 926.833 1367.61Q920.196 1369.72 913.516 1371.69Q906.837 1373.66 900.12 1375.49Q893.402 1377.33 886.648 1379.03Q879.895 1380.72 873.108 1382.29Q866.322 1383.85 859.505 1385.27Q852.688 1386.7 845.844 1387.98Q839 1389.27 832.131 1390.41Q825.262 1391.56 818.371 1392.57Q811.48 1393.57 804.571 1394.44Q797.661 1395.31 790.735 1396.03Q783.809 1396.76 776.87 1397.35Q769.931 1397.93 762.981 1398.38Q756.031 1398.83 749.074 1399.13Q742.117 1399.44 735.155 1399.6Q728.325 1399.77 721.492 1399.8Q714.66 1399.84 707.828 1399.74Q700.997 1399.64 694.168 1399.4Q687.34 1399.16 680.518 1398.79Q673.696 1398.41 666.882 1397.91Q660.069 1397.4 653.267 1396.75Q646.465 1396.11 639.677 1395.33Q632.89 1394.55 626.119 1393.63Q619.348 1392.72 612.597 1391.67Q605.845 1390.62 599.116 1389.44Q592.387 1388.25 585.683 1386.93Q578.979 1385.62 572.302 1384.17Q565.625 1382.72 558.979 1381.13Q552.332 1379.55 545.719 1377.84Q539.105 1376.12 532.527 1374.27Q525.949 1372.43 519.409 1370.45Q512.868 1368.47 506.369 1366.37Q499.869 1364.26 493.413 1362.03Q486.957 1359.79 480.546 1357.43Q474.136 1355.06 467.774 1352.57Q461.411 1350.08 455.1 1347.47Q448.789 1344.85 442.531 1342.11Q436.273 1339.37 430.071 1336.5Q423.868 1333.63 417.725 1330.65Q411.581 1327.66 405.497 1324.55Q399.414 1321.44 393.394 1318.2Q387.374 1314.97 381.42 1311.62Q375.465 1308.27 369.578 1304.81Q363.692 1301.34 357.875 1297.75Q352.059 1294.17 346.315 1290.47Q340.571 1286.77 334.901 1282.96Q329.232 1279.14 323.64 1275.22C302.39 1260.22 280.9 1244.23 262.037 1226.28L348.321 1226.3C425.156 1279.58 505.708 1316.35 597.829 1334.17Q604.217 1335.4 610.628 1336.51Q617.04 1337.61 623.473 1338.58Q629.905 1339.55 636.357 1340.39Q642.808 1341.23 649.275 1341.94Q655.743 1342.65 662.223 1343.22Q668.703 1343.79 675.194 1344.24Q681.685 1344.68 688.183 1344.99Q694.682 1345.29 701.185 1345.47Q707.689 1345.64 714.194 1345.69Q720.7 1345.73 727.205 1345.64Q733.71 1345.54 740.212 1345.32Q746.714 1345.09 753.21 1344.74Q759.706 1344.38 766.193 1343.89Q772.68 1343.4 779.156 1342.77Q785.632 1342.15 792.093 1341.39Q798.555 1340.64 805 1339.75Q811.444 1338.86 817.87 1337.84Q824.295 1336.82 830.698 1335.67Q837.101 1334.52 843.479 1333.23Q849.857 1331.95 856.207 1330.54Q862.558 1329.12 868.878 1327.58Q875.198 1326.04 881.485 1324.37Q887.772 1322.69 894.024 1320.89Q900.275 1319.09 906.488 1317.16Q912.702 1315.24 918.874 1313.18Q925.047 1311.13 931.176 1308.94Q937.305 1306.76 943.388 1304.46Q949.471 1302.15 955.506 1299.72Q961.54 1297.29 967.524 1294.74Q973.507 1292.18 979.437 1289.51Q985.367 1286.83 991.241 1284.03Q997.115 1281.24 1002.93 1278.32C1033.09 1263.13 1061.12 1245.15 1089.05 1226.28Z"/>
	<path fill="#1D9DDF" d="M1324.74 382.156C1327.14 385.233 1328.9 389.187 1330.79 392.628C1344.98 418.411 1356.47 446.48 1366.61 474.055Q1369.52 482.047 1372.23 490.108Q1374.94 498.169 1377.45 506.294Q1379.97 514.419 1382.28 522.604Q1384.59 530.789 1386.7 539.028Q1388.8 547.267 1390.71 555.556Q1392.61 563.844 1394.31 572.178Q1396.01 580.511 1397.51 588.883Q1399 597.256 1400.29 605.662Q1401.57 614.069 1402.65 622.505Q1403.73 630.941 1404.6 639.401Q1405.48 647.861 1406.14 656.34Q1406.8 664.818 1407.25 673.311Q1407.71 681.804 1407.95 690.305Q1408.19 698.806 1408.23 707.311Q1408.26 715.815 1408.09 724.318Q1407.91 732.821 1407.53 741.317Q1407.14 749.813 1406.55 758.297Q1405.95 766.78 1405.15 775.247Q1404.34 783.714 1403.33 792.158Q1402.32 800.602 1401.1 809.019Q1399.88 817.436 1398.45 825.82Q1397.03 834.204 1395.39 842.55Q1393.76 850.897 1391.92 859.2Q1390.08 867.504 1388.04 875.76Q1386 884.016 1383.75 892.219Q1381.51 900.422 1379.06 908.567Q1376.61 916.712 1373.97 924.794Q1371.32 932.876 1368.47 940.891Q1365.63 948.906 1362.59 956.848Q1359.54 964.79 1356.31 972.655Q1353.07 980.519 1349.64 988.302Q1346.21 996.084 1342.59 1003.78C1337.79 1015.73 1331.09 1027.4 1324.7 1038.57C1323.88 1028.78 1324.27 1018.7 1324.27 1008.87L1324.31 957.928L1324.25 925.969C1324.2 918.059 1323.72 909.937 1324.88 902.101C1325.97 894.774 1328.78 887.349 1330.85 880.21Q1335.36 865.187 1338.62 849.842Q1342.55 832.314 1345.5 814.595Q1348.45 796.876 1350.42 779.02Q1352.38 761.164 1353.34 743.227Q1354.31 725.289 1354.28 707.326Q1354.14 690.238 1353.11 673.18Q1352.08 656.122 1350.15 639.142Q1348.23 622.162 1345.41 605.306Q1342.6 588.45 1338.91 571.764Q1335.39 556.533 1331.17 541.481C1328.94 533.666 1326.1 525.735 1324.8 517.701C1322.87 505.758 1324.24 480.083 1324.24 467.141C1324.26 439.002 1323.08 410.236 1324.74 382.156Z"/>
</svg>
