<?xml version="1.0" encoding="utf-8" ?>
<svg xmlns="http://www.w3.org/2000/svg" xmlns:xlink="http://www.w3.org/1999/xlink" width="1536" height="1024">
	<path fill="#9595D4" d="M1023.08 206.422C1041.68 206.435 1060.33 206.719 1078.92 206.267L1079.22 206.998C1079.41 213.842 1081.35 228.743 1078.16 234.414C1078.09 234.537 1078.02 234.662 1077.96 234.786L1083.16 234.75C1085.59 238.296 1085.36 249.535 1084.58 253.899C1084.44 254.67 1084.15 255.171 1083.77 255.844C1088.05 255.826 1093.38 256.431 1097.52 255.571L1102.73 255.595C1113.14 255.768 1123.56 255.79 1133.97 255.659L1145.85 255.607L1146.48 255.606C1150.91 255.651 1156.56 255.019 1160.82 255.981C1165.81 256.031 1171.75 255.526 1176.62 256.327C1179.66 256.857 1182.3 257.948 1184.1 260.587C1184.89 261.736 1185.41 262.912 1185.09 264.326C1185.05 264.489 1184.98 264.643 1184.93 264.802C1185.25 265.294 1186.06 266.23 1186.2 266.752C1187.69 272.426 1186.42 333.707 1186.39 344.707L1185.95 654.952L1185.87 720.954C1185.93 731.582 1187.94 745.059 1185.65 755.371C1184.64 759.913 1180.85 764.677 1176.93 767.092C1173.24 769.357 1169.06 769.869 1164.83 770.123C1154.63 770.738 1144.24 770.324 1134.02 770.291L1079.65 770.191C1039.17 770.235 998.226 771.493 957.798 770.097C937.707 769.421 917.555 770.04 897.449 769.662L893.644 769.547C816.178 770.422 738.629 769.75 661.154 769.726L640.926 769.853C633.346 771.818 623.146 770.721 615.312 770.708L576.91 770.749C576.376 784.421 576.124 798.007 576.068 811.693L489.202 811.77C489.118 798.1 488.96 784.432 488.728 770.764L409.496 770.464C395.728 770.418 381.567 771.071 367.863 769.868C362.699 769.555 358.307 767.677 354.778 763.783C351.467 760.129 350.807 755.925 350.473 751.221C349.526 737.884 350.325 724.003 350.369 710.619L350.413 635.403L350.215 493.617C350.209 467.055 349.809 440.419 350.374 413.867C349.365 386.185 350.306 358.131 350.362 330.42C350.406 309.473 349.247 287.826 350.905 266.992C351.063 264.319 351.978 261.311 353.896 259.366C358.76 254.436 370.126 256.207 376.39 256.442C385.255 255.301 395.072 256.009 404.027 255.972C422.734 255.864 441.441 255.866 460.148 255.978L463.77 255.911L536.326 255.976C536.515 244.701 536.508 233.422 536.306 222.147C547.743 221.578 559.441 222.041 570.914 221.98L571.462 222.125L575.851 221.976L576.668 221.536C577.789 222.035 578.93 222.189 579.426 223.362C581.518 228.314 579.877 249.551 579.747 256.044C585.894 256.035 592.241 255.695 598.364 256.077L600.922 255.971L627.72 255.977L630.088 255.945C641.773 255.956 653.487 255.795 665.168 255.996C697.246 256.33 729.325 256.432 761.404 256.301L824.506 256.59C840.048 254.754 856.616 256.653 872.359 255.968C877.504 255.954 882.817 255.662 887.938 256.12L888.982 255.897L942.852 256.039C951.618 256.06 960.931 256.67 969.65 255.964C978.976 255.055 988.655 255.586 998.028 255.614C997.578 240.134 998.043 224.67 998.421 209.193L999.142 209.358C997.656 224.382 999.697 240.213 998.825 255.44C1006.76 255.933 1014.68 255.553 1022.61 255.766C1025.09 250.052 1023.29 237.836 1023 231.451C1023.66 223.238 1023.13 214.674 1023.08 206.422Z"/>
	<defs>
		<linearGradient id="gradient_0" gradientUnits="userSpaceOnUse" x1="1218.6073" y1="517.95428" x2="823.0036" y2="247.83429">
			<stop offset="0" stop-color="#0C1661"/>
			<stop offset="1" stop-color="#432DA3"/>
		</linearGradient>
	</defs>
	<path fill="url(#gradient_0)" d="M824.434 288.977L1059 288.655L1116.98 288.637C1127.93 288.645 1141.29 287.162 1151.84 289.789C1153.33 302.077 1152.37 315.289 1152.34 327.696L1152.36 394.333C1152.64 466.803 1154.15 539.628 1152.9 612.06C1152.85 614.817 1152.99 617.322 1151.59 619.78C1152.24 620.797 1152.63 621.747 1152.73 622.968C1153.47 631.712 1154.13 706.371 1152.94 711.508C1152.75 712.307 1152.34 712.848 1151.87 713.494C1148.49 710.523 1078.5 712.179 1067.87 711.87L1024.15 711.829L992.978 711.498C977.313 712.751 960.9 711.703 945.15 711.721L912.611 711.758C896.781 712.163 880.749 712.111 864.918 711.773L864.75 633.603C864.603 625.189 864.74 616.751 864.744 608.335C865.087 573.967 864.948 539.508 864.599 505.139C865.949 475.606 861.468 444.899 864.371 415.587L886.883 415.564C886.716 403.453 886.733 391.34 886.935 379.23L887.095 335.699C876.619 338.545 865.863 340.421 855.279 342.835C852.993 343.278 850.384 343.533 848.204 344.311C848.718 348.998 845.86 353.398 841.369 354.831C836.878 356.265 831.999 354.335 829.704 350.217C829.529 349.903 829.372 349.58 829.232 349.25L820.727 355.594C811.247 362.814 796.62 375.582 786.855 380.966C785.253 382.746 783.403 384.057 781.476 385.45C778.345 381.82 774.416 379.976 769.612 379.739C766.501 379.586 762.556 380.547 760.354 382.887C759.147 384.17 758.397 385.853 757.819 387.493C755.903 387.627 754.079 387.678 752.318 388.528C751.207 389.063 750.389 389.342 749.176 389.576C750.065 386.917 751.633 385.477 753.648 383.614C752.438 382.266 750.902 381.146 749.512 379.985C743.515 375.061 740.509 372.142 732.39 371.791C735.697 370.867 737.742 371.859 740.758 369.548C742.187 368.452 743.685 367.46 745.162 366.429C745.562 367.276 746.076 367.854 746.668 368.572C753.003 364.021 752.127 355.13 757.609 350.16C759.589 349.851 762.346 349.684 763.887 348.297C764.03 348.168 764.158 348.023 764.294 347.887C766.185 346.004 766.138 343.442 766.517 340.942C766.969 337.967 767.624 336.992 769.992 335.24C770.745 335.347 771.639 335.543 772.394 335.494C774.309 335.371 774.735 334.429 775.954 333.12C777.752 332.67 778.272 333.204 779.931 333.941C779.466 331.108 780.858 328.294 783.391 326.946C785.924 325.597 789.035 326.014 791.124 327.982C795.932 325.293 799.714 317.231 803.986 313.231C806.831 310.567 811.34 309.891 813.98 307.074C815.91 305.015 817.329 300.146 818.468 297.51C816.237 292.738 813.267 296.331 809.568 294.492L809.342 292.225C806.878 291.926 804.588 291.177 802.223 290.459C807.771 288.308 817.387 291.187 823.913 289.155C824.088 289.101 824.26 289.036 824.434 288.977Z"/>
	<path fill="#121447" d="M913.734 480.435C921.407 475.534 929.266 470.539 936.119 464.521C943.842 457.739 958.6 435.79 968.655 435.372C980.448 434.882 997.199 459.259 1004.37 467.159C1008.37 471.557 1013.19 475.248 1017.65 479.158C1022.44 483.362 1024.51 485.254 1024.93 491.77C1025.33 507.491 1026.39 625.063 1024.47 630.463C1025.78 635.537 1026.17 647.311 1024.17 652.002C1025.78 655.201 1026.23 705.789 1024.79 710.449C1024.63 710.96 1024.4 711.344 1024.15 711.829L992.978 711.498C977.313 712.751 960.9 711.703 945.15 711.721L912.611 711.758C896.781 712.163 880.749 712.111 864.918 711.773L864.75 633.603C864.603 625.189 864.74 616.751 864.744 608.335C875.601 608.346 903.956 609.647 912.849 607.967L913.426 607.732C914.639 593.578 913.702 578.586 913.691 564.35L913.734 480.435Z"/>
	<path fill="#42319F" d="M864.744 608.335C875.601 608.346 903.956 609.647 912.849 607.967L913.426 607.732C913.143 616.387 912.995 625.047 912.982 633.708L912.611 711.758C896.781 712.163 880.749 712.111 864.918 711.773L864.75 633.603C864.603 625.189 864.74 616.751 864.744 608.335Z"/>
	<path fill="#4A238A" d="M864.744 608.335C875.601 608.346 903.956 609.647 912.849 607.967L913.426 607.732C913.143 616.387 912.995 625.047 912.982 633.708C896.941 633.234 880.808 633.713 864.75 633.603C864.603 625.189 864.74 616.751 864.744 608.335Z"/>
	<path fill="#C3537D" d="M944.432 563.449L993.106 563.529C993.441 597.454 992.973 631.419 992.825 665.348L944.939 665.524C943.816 631.624 944.556 597.381 944.432 563.449Z"/>
	<path fill="#42319F" d="M992.825 665.348C993.045 680.73 993.095 696.114 992.978 711.498C977.313 712.751 960.9 711.703 945.15 711.721C944.547 706.838 945.008 701.348 944.999 696.406L944.939 665.524L992.825 665.348Z"/>
	<path fill="#FEFCF5" d="M966.574 510.127L969.027 510.911C971.18 514.064 970.023 555.569 969.512 562.04L967.231 561.052C964.67 556.466 966.433 518.59 966.574 510.127Z"/>
	<path fill="#1D174F" d="M1023.75 457.404C1038.6 457.282 1053.51 456.852 1068.35 457.197C1070.27 461.181 1070.45 514.216 1068.72 519.237C1071.25 519.423 1074.21 519.239 1076.11 521.109C1082.82 527.729 1087.49 536.623 1092.4 544.606C1101.86 559.998 1110.92 576.429 1122.14 590.617C1128.69 598.892 1148.53 614.322 1151.59 619.78C1152.24 620.797 1152.63 621.747 1152.73 622.968C1153.47 631.712 1154.13 706.371 1152.94 711.508C1152.75 712.307 1152.34 712.848 1151.87 713.494C1148.49 710.523 1078.5 712.179 1067.87 711.87L1024.15 711.829C1024.4 711.344 1024.63 710.96 1024.79 710.449C1026.23 705.789 1025.78 655.201 1024.17 652.002C1026.17 647.311 1025.78 635.537 1024.47 630.463C1026.39 625.063 1025.33 507.491 1024.93 491.77C1024.98 484.437 1026.86 463.206 1023.75 457.404Z"/>
	<path fill="#5890B0" d="M1023.75 457.404C1038.6 457.282 1053.51 456.852 1068.35 457.197C1070.27 461.181 1070.45 514.216 1068.72 519.237C1070.34 524.224 1070.05 626.255 1068.45 630.108C1070.34 633.972 1070.51 645.716 1069.25 649.787C1069 650.587 1068.59 651.307 1068.11 651.992C1063.64 652.551 1058.5 652.087 1053.95 652.081L1024.17 652.002C1026.17 647.311 1025.78 635.537 1024.47 630.463C1026.39 625.063 1025.33 507.491 1024.93 491.77C1024.98 484.437 1026.86 463.206 1023.75 457.404Z"/>
	<path fill="#4A238A" d="M1024.47 630.463C1030.78 630.746 1065.11 631.837 1068.45 630.108C1070.34 633.972 1070.51 645.716 1069.25 649.787C1069 650.587 1068.59 651.307 1068.11 651.992C1063.64 652.551 1058.5 652.087 1053.95 652.081L1024.17 652.002C1026.17 647.311 1025.78 635.537 1024.47 630.463Z"/>
	<path fill="#42319F" d="M1024.17 652.002L1053.95 652.081C1058.5 652.087 1063.64 652.551 1068.11 651.992C1068.85 652.991 1069.32 653.962 1069.45 655.215C1070.12 661.66 1070.47 704.915 1069.32 709.647C1069.09 710.585 1068.51 711.176 1067.87 711.87L1024.15 711.829C1024.4 711.344 1024.63 710.96 1024.79 710.449C1026.23 705.789 1025.78 655.201 1024.17 652.002Z"/>
	<defs>
		<linearGradient id="gradient_1" gradientUnits="userSpaceOnUse" x1="907.48596" y1="607.15942" x2="869.31451" y2="465.04025">
			<stop offset="0" stop-color="#5A58B1"/>
			<stop offset="1" stop-color="#8C73B3"/>
		</linearGradient>
	</defs>
	<path fill="url(#gradient_1)" d="M864.599 505.139C865.949 475.606 861.468 444.899 864.371 415.587C865.577 432.008 863.976 448.648 864.741 465.106C880.768 464.925 896.796 464.897 912.823 465.021C912.924 455.858 912.381 446.193 913.35 437.102C914.176 459.31 912.853 481.719 912.84 503.959C912.821 538.585 913.744 573.36 912.849 607.967C903.956 609.647 875.601 608.346 864.744 608.335C865.087 573.967 864.948 539.508 864.599 505.139Z"/>
	<defs>
		<linearGradient id="gradient_2" gradientUnits="userSpaceOnUse" x1="892.57697" y1="465.89276" x2="884.07373" y2="413.45972">
			<stop offset="0" stop-color="#ECB4A4"/>
			<stop offset="1" stop-color="#F7E7AF"/>
		</linearGradient>
	</defs>
	<path fill="url(#gradient_2)" d="M886.883 415.564C886.716 403.453 886.733 391.34 886.935 379.23C887.084 384.663 886.436 412.557 888.047 415.504L889.022 414.865C890.808 406.267 888.983 396.362 889.767 387.516C889.955 396.875 890.012 406.235 889.938 415.595L913.214 415.533L913.35 437.102C912.381 446.193 912.924 455.858 912.823 465.021C896.796 464.897 880.768 464.925 864.741 465.106C863.976 448.648 865.577 432.008 864.371 415.587L886.883 415.564Z"/>
	<path fill="#42319F" d="M822.266 334.748C827.92 331.956 830.542 328.617 837.353 328.029C841.329 327.685 845.82 328.489 848.862 331.23C852.319 334.345 853.146 337.667 853.485 342.066C851.611 342.29 849.794 342.504 847.966 342.984C848.076 343.421 848.155 343.864 848.204 344.311C848.718 348.998 845.86 353.398 841.369 354.831C836.878 356.265 831.999 354.335 829.704 350.217C829.529 349.903 829.372 349.58 829.232 349.25L820.727 355.594C820.528 351.947 819.391 348.264 818.529 344.714C820.614 342.108 821.355 337.946 822.266 334.748Z"/>
	<path fill="#21E8DA" d="M829.232 349.25C827.783 345.82 828.378 341.868 830.772 339.017C833.167 336.167 836.956 334.9 840.583 335.736C844.21 336.573 847.062 339.373 847.966 342.984C848.076 343.421 848.155 343.864 848.204 344.311C848.718 348.998 845.86 353.398 841.369 354.831C836.878 356.265 831.999 354.335 829.704 350.217C829.529 349.903 829.372 349.58 829.232 349.25Z"/>
	<path fill="#4A58B3" d="M991.258 373.568C992.431 371.284 993.451 369.06 995.775 367.715C997.983 366.437 1000.34 365.93 1002.82 366.59C1006.73 367.625 1008.52 369.913 1010.46 373.184L1010.67 374.49L1011.04 376.626C1011.69 380.474 1012.63 385.971 1010.28 389.389C1009.59 390.382 1008.77 391.283 1007.96 392.169C1002.34 393.059 998.526 393.122 993.271 390.7C988.826 388.652 984.839 385.719 983.228 380.872C982.153 377.637 982.651 375.558 984.169 372.596L986.998 373.655L990.243 373.311L991.258 373.568Z"/>
	<path fill="#21E8DA" d="M991.258 373.568C992.431 371.284 993.451 369.06 995.775 367.715C997.983 366.437 1000.34 365.93 1002.82 366.59C1006.73 367.625 1008.52 369.913 1010.46 373.184L1010.67 374.49L1011.04 376.626C1010.03 379.494 1008.88 382.405 1006.01 383.907C1003.56 385.186 1000.45 384.936 997.917 384.087C996.727 383.689 995.556 383.077 994.437 382.522C992.452 379.476 991.492 377.178 991.258 373.568Z"/>
	<path fill="#CC3C53" d="M1062.54 351.082C1064.69 354.861 1064.35 363.209 1063.24 367.403C1063.06 368.073 1062.92 368.352 1062.65 369.035C1059.41 372.515 1052.65 374.993 1047.86 375.203C1040.21 375.538 1035.35 372.196 1030.02 367.149C1029.63 366.78 1029.26 366.409 1028.83 366.079C1032.3 364.679 1035.42 363.189 1038.58 361.187C1039.35 361.621 1039.23 361.443 1039.68 362C1042.12 365.011 1043.65 367.276 1047.77 368.04C1049.05 368.278 1050.33 368.073 1051.35 367.23C1054.11 364.947 1053.95 359.348 1054.24 356.093C1055.35 354.122 1060.41 352.306 1062.54 351.082Z"/>
	<path fill="#CC3C53" d="M1028.95 363.992C1029.24 361.718 1028.93 359.35 1029.05 357.049C1029.26 352.96 1031.55 347.826 1034.69 345.165C1039.4 341.17 1046.55 341.398 1052.33 341.679C1054.08 342.566 1055.95 344.309 1057.21 345.804C1058.7 347.558 1059.16 348.571 1059.02 350.829C1057.51 351.989 1055.23 354.148 1053.22 353.958C1048.77 353.534 1046.48 351.641 1042.17 354.446C1036.26 358.291 1038.6 362.535 1028.95 363.992Z"/>
	<path fill="#FEFCF5" d="M889.086 333.865C906.858 342.698 925.195 352.001 943.826 358.863L943.113 360.229C925.208 352.589 906.989 344.805 889.736 335.771C889.764 352.909 890.587 370.424 889.767 387.516C888.983 396.362 890.808 406.267 889.022 414.865L888.047 415.504C886.436 412.557 887.084 384.663 886.935 379.23L887.095 335.699C876.619 338.545 865.863 340.421 855.279 342.835C852.993 343.278 850.384 343.533 848.204 344.311C848.155 343.864 848.076 343.421 847.966 342.984C849.794 342.504 851.611 342.29 853.485 342.066C856.255 341.29 859.073 340.676 861.874 340.018C870.89 338.08 880.269 336.542 889.086 333.865Z"/>
	<path fill="#21E8DA" d="M943.826 358.863C945.486 355.626 947.497 353.157 951.104 351.945C953.281 351.213 955.529 351.446 957.507 352.622C960.023 354.118 962.237 356.513 962.891 359.43C963.348 361.469 963.102 363.761 962.974 365.833C969.563 367.523 976.127 369.307 982.664 371.186L990.243 373.311L986.998 373.655L984.169 372.596C976.811 371.38 969.315 368.807 962.096 366.855C960.579 368.495 958.852 369.986 956.637 370.55C954.089 371.199 950.948 370.916 948.711 369.469C945.383 367.316 943.921 363.934 943.113 360.229L943.826 358.863Z"/>
	<path fill="#C9D3E2" d="M1059.02 350.829C1059.22 350.757 1059.43 350.688 1059.64 350.613C1074.64 345.175 1089.88 335.398 1103.95 327.667C1109.76 324.473 1116.03 319.958 1122.63 318.603C1114.05 324.293 1104.32 328.888 1095.25 333.799C1084.46 339.638 1073.71 346.022 1062.54 351.082C1060.41 352.306 1055.35 354.122 1054.24 356.093C1053.95 359.348 1054.11 364.947 1051.35 367.23C1050.33 368.073 1049.05 368.278 1047.77 368.04C1043.65 367.276 1042.12 365.011 1039.68 362C1039.23 361.443 1039.35 361.621 1038.58 361.187C1035.42 363.189 1032.3 364.679 1028.83 366.079C1025.11 367.97 1021.29 369.633 1017.46 371.299L1010.67 374.49L1010.46 373.184L1016.14 370.424C1019.51 368.985 1026.94 366.785 1028.95 363.992C1038.6 362.535 1036.26 358.291 1042.17 354.446C1046.48 351.641 1048.77 353.534 1053.22 353.958C1055.23 354.148 1057.51 351.989 1059.02 350.829Z"/>
	<path fill="#42319F" d="M982.664 371.186C985.553 370.027 988.949 361.317 998.576 358.597C1001.88 357.663 1005.18 357.608 1008.21 359.404C1010.99 361.051 1014.11 362.967 1014.94 366.263C1015.3 367.662 1015.73 369.038 1016.14 370.424L1010.46 373.184C1008.52 369.913 1006.73 367.625 1002.82 366.59C1000.34 365.93 997.983 366.437 995.775 367.715C993.451 369.06 992.431 371.284 991.258 373.568L990.243 373.311L982.664 371.186Z"/>
	<path fill="#42319F" d="M762.854 376.184C766.003 374.232 769.22 375.689 772.609 374.597C774.862 375.308 784.653 381.041 785.387 380.977C786.517 380.879 786.078 380.848 786.855 380.966C785.253 382.746 783.403 384.057 781.476 385.45C778.345 381.82 774.416 379.976 769.612 379.739C766.501 379.586 762.556 380.547 760.354 382.887C759.147 384.17 758.397 385.853 757.819 387.493C755.903 387.627 754.079 387.678 752.318 388.528C751.207 389.063 750.389 389.342 749.176 389.576C750.065 386.917 751.633 385.477 753.648 383.614C756.211 379.545 758.391 377.93 762.854 376.184Z"/>
	<path fill="#42319F" d="M818.529 344.714C818.12 343.568 817.992 342.572 818.2 341.373C819.164 335.723 822.451 330.737 827.263 327.625C831.448 324.948 836.158 324.16 841.001 325.302C844.808 326.201 850.643 329.135 852.935 332.391C854.146 334.113 854.701 336.212 855.882 337.942C857.256 339.958 859.58 339.672 861.874 340.018C859.073 340.676 856.255 341.29 853.485 342.066C853.146 337.667 852.319 334.345 848.862 331.23C845.82 328.489 841.329 327.685 837.353 328.029C830.542 328.617 827.92 331.956 822.266 334.748C821.355 337.946 820.614 342.108 818.529 344.714Z"/>
	<path fill="#C9D3E2" d="M779.931 333.941C779.466 331.108 780.858 328.294 783.391 326.946C785.924 325.597 789.035 326.014 791.124 327.982C793.25 329.985 793.832 333.134 792.564 335.764C791.295 338.394 788.469 339.899 785.579 339.482C782.69 339.065 780.404 336.822 779.931 333.941Z"/>
	<path fill="#42319F" d="M1010.67 374.49L1017.46 371.299C1018.82 376.279 1017.08 381.979 1014.56 386.346C1012.78 389.417 1011.27 390.788 1007.96 392.169C1008.77 391.283 1009.59 390.382 1010.28 389.389C1012.63 385.971 1011.69 380.474 1011.04 376.626L1010.67 374.49Z"/>
	<path fill="#42319F" d="M749.512 379.985C749.766 379.711 750.019 379.437 750.286 379.177C752.603 376.925 759.613 376.179 762.854 376.184C758.391 377.93 756.211 379.545 753.648 383.614C752.438 382.266 750.902 381.146 749.512 379.985Z"/>
	<path fill="#FEFCF5" d="M1046.04 402.373C1047.9 402.38 1048.33 402.112 1049.77 403.378C1050.28 410.572 1051.03 447.945 1049.56 453.047C1049.41 453.584 1048.5 454.566 1048.16 455.068C1047.16 455.08 1047.14 454.831 1046.39 454.237C1045.74 437.046 1047.52 419.491 1046.04 402.373Z"/>
	<defs>
		<linearGradient id="gradient_3" gradientUnits="userSpaceOnUse" x1="769.9389" y1="759.46362" x2="754.75055" y2="475.2113">
			<stop offset="0" stop-color="#08132D"/>
			<stop offset="1" stop-color="#2C1E7E"/>
		</linearGradient>
	</defs>
	<path fill="url(#gradient_3)" d="M811.932 453.34C813.164 465.055 815.537 479.618 825.172 487.534C835.295 495.85 851.753 494.005 863.986 493.617C864.152 497.399 864.06 501.4 864.599 505.139C864.948 539.508 865.087 573.967 864.744 608.335C864.74 616.751 864.603 625.189 864.75 633.603L864.918 711.773C880.749 712.111 896.781 712.163 912.611 711.758L945.15 711.721C960.9 711.703 977.313 712.751 992.978 711.498L1024.15 711.829L1067.87 711.87C1078.5 712.179 1148.49 710.523 1151.87 713.494C1152.34 714.338 1152.67 715.126 1152.87 716.085C1154.14 722.229 1154.09 732.552 1149.92 737.578C1148.27 739.557 1145.99 740.872 1143.42 741.108C1133.4 742.027 1122.83 741.407 1112.76 741.392L1055.43 741.322L867.627 741.166L554.46 741.03C501.752 741.039 448.842 741.97 396.159 740.869C393.378 740.811 388.44 740.362 386.414 738.214C384.485 736.167 383.94 730.92 383.725 728.215C382.897 717.842 383.801 706.912 383.912 696.498C384.099 678.859 383.966 661.21 383.921 643.57C390.523 636.433 395.351 626.661 400.397 618.361C414.754 594.744 431.89 563.664 452.362 545.077C472.037 527.213 488.177 538.133 510.647 538.951C514.074 539.076 517.882 538.706 520.704 536.583C528.722 530.55 536.463 504.5 550.425 491.856C569.81 474.3 591.495 491.121 608.46 503.107C617.782 509.694 627.241 516.737 637.566 521.681C644.505 525.051 652.07 526.938 659.778 527.222C680.318 528.177 693.602 519.613 704.555 502.716C708.169 497.14 711.622 490.954 716.646 486.513C718.861 484.555 721.222 482.82 724.295 482.997C724.34 493.686 724.052 504.524 724.493 515.197C725.743 515.18 727.096 515.271 728.331 515.106L728.501 496.419C730.241 493.78 729.291 486.518 729.304 483.252C762.104 487.54 783.591 464.255 811.932 453.34Z"/>
	<path fill="#121447" d="M811.932 453.34C813.164 465.055 815.537 479.618 825.172 487.534C835.295 495.85 851.753 494.005 863.986 493.617C864.152 497.399 864.06 501.4 864.599 505.139C864.948 539.508 865.087 573.967 864.744 608.335C864.74 616.751 864.603 625.189 864.75 633.603L864.918 711.773C858.901 709.731 840.965 711.489 833.935 711.754C817.486 712.677 800.381 712.092 783.899 711.801C773.167 711.442 762.414 711.64 751.678 711.71L751.454 642.805C751.356 625.499 751.731 608.196 751.443 590.89C752.211 582.905 751.616 574.308 751.647 566.264L751.725 514.75C743.954 514.732 736.076 514.465 728.331 515.106L728.501 496.419C730.241 493.78 729.291 486.518 729.304 483.252C762.104 487.54 783.591 464.255 811.932 453.34Z"/>
	<path fill="#9444AA" d="M783.846 577.484C800.616 577.599 817.387 577.505 834.154 577.2C834.061 612.604 833.615 648.044 833.97 683.444C817.419 683.243 800.847 683.418 784.293 683.426C784.514 648.111 784.365 612.795 783.846 577.484Z"/>
	<defs>
		<linearGradient id="gradient_4" gradientUnits="userSpaceOnUse" x1="812.02881" y1="578.55432" x2="805.8197" y2="539.83258">
			<stop offset="0" stop-color="#8B6FB1"/>
			<stop offset="1" stop-color="#AA8EBB"/>
		</linearGradient>
	</defs>
	<path fill="url(#gradient_4)" d="M809.172 541.107C810.422 541.015 811.64 540.839 812.881 541.043C817.449 543.352 828.934 541.829 834.276 541.732L834.154 577.2C817.387 577.505 800.616 577.599 783.846 577.484C783.947 565.527 783.785 553.555 783.752 541.597C790.246 541.656 803.611 543.155 809.172 541.107Z"/>
	<path fill="#42319F" d="M784.293 683.426C800.847 683.418 817.419 683.243 833.97 683.444C833.97 692.862 834.213 702.345 833.935 711.754C817.486 712.677 800.381 712.092 783.899 711.801L784.293 683.426Z"/>
	<path fill="#FEFCF5" d="M809.172 541.107C809.072 525.695 807.543 508.561 809.718 493.384L810.479 492.797C812.163 494.945 812.944 497.669 813.234 500.371C813.734 505.023 813.044 510.207 813.005 514.913C812.932 523.604 813.226 532.364 812.881 541.043C811.64 540.839 810.422 541.015 809.172 541.107Z"/>
	<path fill="#AD8DB0" d="M728.331 515.106C736.076 514.465 743.954 514.732 751.725 514.75L751.647 566.264C751.616 574.308 752.211 582.905 751.443 590.89C751.731 608.196 751.356 625.499 751.454 642.805L704.172 642.851C704.331 622.078 702.851 600.987 704.116 580.262C703.333 573.785 703.982 566.393 703.991 559.842L704.161 514.887C710.899 514.836 717.787 514.519 724.493 515.197C725.743 515.18 727.096 515.271 728.331 515.106Z"/>
	<defs>
		<linearGradient id="gradient_5" gradientUnits="userSpaceOnUse" x1="729.75867" y1="566.33807" x2="724.77448" y2="514.30286">
			<stop offset="0" stop-color="#D6B0AD"/>
			<stop offset="1" stop-color="#FFF5BE"/>
		</linearGradient>
	</defs>
	<path fill="url(#gradient_5)" d="M728.331 515.106C736.076 514.465 743.954 514.732 751.725 514.75L751.647 566.264C751.616 574.308 752.211 582.905 751.443 590.89C748.741 588.477 752.517 569.853 749.711 564.656C749.134 564.559 748.556 564.456 747.974 564.399C740.411 563.661 710.888 565.766 705.447 570.137C703.901 577.384 704.913 586.84 704.838 594.351C704.721 589.649 704.48 584.951 704.116 580.262C703.333 573.785 703.982 566.393 703.991 559.842L704.161 514.887C710.899 514.836 717.787 514.519 724.493 515.197C725.743 515.18 727.096 515.271 728.331 515.106Z"/>
	<path fill="#42319F" d="M751.454 642.805L751.678 711.71C735.89 712.361 719.916 711.892 704.107 711.906L704.172 642.851L751.454 642.805Z"/>
	<path fill="#D0A9A5" d="M565.566 564.954L570.705 564.914C578.615 564.93 586.567 564.77 594.471 564.993C594.51 568.302 594.658 571.65 594.544 574.955C594.644 593.101 595.057 611.711 594.06 629.82C595.489 637.785 594.304 648.041 594.261 656.242L594.169 711.888L543.834 711.965C543.979 681.645 543.524 651.32 543.851 621C543.146 605.93 542.597 579.886 544.071 564.955C551.206 564.706 558.422 564.94 565.566 564.954Z"/>
	<defs>
		<linearGradient id="gradient_6" gradientUnits="userSpaceOnUse" x1="570.0188" y1="710.6449" x2="567.71124" y2="657.22693">
			<stop offset="0" stop-color="#684798"/>
			<stop offset="1" stop-color="#9A71A3"/>
		</linearGradient>
	</defs>
	<path fill="url(#gradient_6)" d="M543.851 621C546.07 634.448 545.564 647.462 545.525 661.019C558.96 655.98 578.88 655.949 592.875 658.301C592.995 654.068 592.173 632.899 592.984 630.893C593.174 630.424 593.701 630.178 594.06 629.82C595.489 637.785 594.304 648.041 594.261 656.242L594.169 711.888L543.834 711.965C543.979 681.645 543.524 651.32 543.851 621Z"/>
	<path fill="#F1ECB0" d="M565.566 564.954L570.705 564.914C578.615 564.93 586.567 564.77 594.471 564.993C594.51 568.302 594.658 571.65 594.544 574.955C592.972 580.292 593.912 586.848 593.777 592.396C591.199 586.685 593.127 575.733 593.26 569.302C590.544 568.262 587.736 567.125 584.832 566.766C574.922 565.538 554.38 568.315 545.264 572.082C545.29 578.592 545.459 585.131 544.972 591.628C543.926 582.872 544.222 573.773 544.071 564.955C551.206 564.706 558.422 564.94 565.566 564.954Z"/>
	<defs>
		<linearGradient id="gradient_7" gradientUnits="userSpaceOnUse" x1="650.0379" y1="675.64795" x2="646.7121" y2="618.41797">
			<stop offset="0" stop-color="#643C99"/>
			<stop offset="1" stop-color="#9177B4"/>
		</linearGradient>
	</defs>
	<path fill="url(#gradient_7)" d="M624.047 618.363C640.495 617.947 656.99 618.22 673.444 618.257L673.376 636.707C674.318 661.656 673.499 686.91 673.42 711.89L623.961 711.94L623.94 676.198L624.047 618.363Z"/>
	<path fill="#4A238A" d="M673.376 636.707C674.318 661.656 673.499 686.91 673.42 711.89L623.961 711.94L623.94 676.198L672.882 676.099C672.733 663.074 672.424 649.692 673.376 636.707Z"/>
	<defs>
		<linearGradient id="gradient_8" gradientUnits="userSpaceOnUse" x1="487.93832" y1="711.44019" x2="489.99942" y2="667.95941">
			<stop offset="0" stop-color="#CB344A"/>
			<stop offset="1" stop-color="#E07476"/>
		</linearGradient>
	</defs>
	<path fill="url(#gradient_8)" d="M487.568 658.117L490.149 657.676C491.631 655.893 491.43 653.776 491.689 651.505C491.729 653.604 491.392 656.451 492.643 658.203C499.677 659.226 507.409 658.543 514.535 658.436L514.504 668.914L514.365 712.101C497.865 711.993 481.364 711.986 464.863 712.078L464.969 668.76L464.947 658.547C472.218 658.533 480.454 659.378 487.568 658.117Z"/>
	<path fill="#E57A75" d="M487.568 658.117L490.149 657.676C491.631 655.893 491.43 653.776 491.689 651.505C491.729 653.604 491.392 656.451 492.643 658.203C499.677 659.226 507.409 658.543 514.535 658.436L514.504 668.914C514.207 669.304 514.065 669.893 513.614 670.085C511.002 671.199 481.652 667.448 475.951 667.426C472.19 667.411 468.643 668.002 464.969 668.76L464.947 658.547C472.218 658.533 480.454 659.378 487.568 658.117Z"/>
	<path fill="#5890B0" d="M644.058 561.894C644.151 558.955 643.881 557.413 645.457 554.887L646.757 554.588C647.996 555.707 648.68 556.285 648.896 558.006C649.086 559.524 648.868 561.304 648.796 562.836C648.789 571.401 650.281 607.228 647.05 612.457C646.354 613.584 646.241 613.346 645.067 613.625C642.761 610.772 644.015 568.613 644.058 561.894Z"/>
	<path fill="#37A8FA" d="M644.058 561.894C644.151 558.955 643.881 557.413 645.457 554.887L646.757 554.588C647.996 555.707 648.68 556.285 648.896 558.006C649.086 559.524 648.868 561.304 648.796 562.836L648.459 562.257C646.848 561.322 645.881 561.719 644.058 561.894Z"/>
	<path fill="#FA86ED" d="M487.568 658.117C487.445 645.505 485.694 618.914 488.057 607.893C488.251 606.987 488.649 606.997 489.387 606.507L491.068 607.471C493.538 611.585 491.818 644.23 491.689 651.505C491.43 653.776 491.631 655.893 490.149 657.676L487.568 658.117Z"/>
	<path fill="#FA86ED" d="M565.59 535.822L570.884 535.702L570.705 564.914L565.566 564.954L565.59 535.822Z"/>
	<path fill="#FEFCF5" d="M565.59 535.822C565.472 528.902 564.253 519.542 567.54 513.204L568.384 512.692C570.719 514.943 571.007 520.313 571.074 523.42C571.163 527.504 570.993 531.618 570.884 535.702L565.59 535.822Z"/>
	<defs>
		<linearGradient id="gradient_9" gradientUnits="userSpaceOnUse" x1="688.08746" y1="586.80811" x2="569.7572" y2="368.74063">
			<stop offset="0" stop-color="#162482"/>
			<stop offset="1" stop-color="#622C9E"/>
		</linearGradient>
	</defs>
	<path fill="url(#gradient_9)" d="M887.095 335.699L886.935 379.23C886.733 391.34 886.716 403.453 886.883 415.564L864.371 415.587C861.468 444.899 865.949 475.606 864.599 505.139C864.06 501.4 864.152 497.399 863.986 493.617C851.753 494.005 835.295 495.85 825.172 487.534C815.537 479.618 813.164 465.055 811.932 453.34C783.591 464.255 762.104 487.54 729.304 483.252C729.291 486.518 730.241 493.78 728.501 496.419L728.331 515.106C727.096 515.271 725.743 515.18 724.493 515.197C724.052 504.524 724.34 493.686 724.295 482.997C721.222 482.82 718.861 484.555 716.646 486.513C711.622 490.954 708.169 497.14 704.555 502.716C693.602 519.613 680.318 528.177 659.778 527.222C652.07 526.938 644.505 525.051 637.566 521.681C627.241 516.737 617.782 509.694 608.46 503.107C591.495 491.121 569.81 474.3 550.425 491.856C536.463 504.5 528.722 530.55 520.704 536.583C517.882 538.706 514.074 539.076 510.647 538.951C488.177 538.133 472.037 527.213 452.362 545.077C431.89 563.664 414.754 594.744 400.397 618.361C395.351 626.661 390.523 636.433 383.921 643.57L384.059 518.606C383.851 481.929 383.848 445.252 384.05 408.575C388.671 407.57 394.072 407.763 398.848 407.075C413.662 404.944 428.9 401.842 442.932 396.524C455.606 391.721 470.989 379.348 482.682 376.583C487.878 375.355 493.055 377.385 497.553 379.894C513.014 388.519 526.055 404.796 544.064 408.545C544.971 407.302 545.863 406.281 547.028 405.27L547.371 404.977C547.581 404.468 547.69 404.297 547.732 403.681C547.767 403.175 547.556 401.453 547.256 401.064L543.788 403.501C543.585 403.083 543.533 403.037 543.444 402.505C541.924 393.418 548.587 381.902 553.493 374.81C560.624 373.118 569.529 371.778 576.43 375.095C579.48 376.56 581.098 378.774 582.152 381.914L581.564 382.768C586.686 385.802 590.022 389.471 596.571 388.966C601.416 388.593 605.682 384.799 608.684 381.248C620.147 385.418 631.53 389.801 642.828 394.397C641.882 397.719 640.333 402.542 642.072 405.805C642.624 406.843 643.466 407.806 644.245 408.683C647.86 411.509 651.41 414.907 655.378 417.179C658.108 418.129 660.663 418.605 663.555 418.316C669.725 417.701 674.478 414.327 678.256 409.598C689.718 416.239 701.234 424.02 713.11 429.791L713.5 428.937C715.362 426.547 717.159 424.197 720.42 423.838C723.518 423.496 726.321 425.303 728.516 427.3C728.959 427.704 729.375 428.134 729.786 428.57C737.692 421.853 745.738 415.284 753.716 408.651C753.492 407.088 752.669 405.374 752.136 403.878L752.581 403.118L753.431 405.476L754.705 405.584L757.025 403.591C753.973 393.604 758.362 394.567 757.819 387.493C758.397 385.853 759.147 384.17 760.354 382.887C762.556 380.547 766.501 379.586 769.612 379.739C774.416 379.976 778.345 381.82 781.476 385.45C783.403 384.057 785.253 382.746 786.855 380.966C796.62 375.582 811.247 362.814 820.727 355.594L829.232 349.25C829.372 349.58 829.529 349.903 829.704 350.217C831.999 354.335 836.878 356.265 841.369 354.831C845.86 353.398 848.718 348.998 848.204 344.311C850.384 343.533 852.993 343.278 855.279 342.835C865.863 340.421 876.619 338.545 887.095 335.699Z"/>
	<defs>
		<linearGradient id="gradient_10" gradientUnits="userSpaceOnUse" x1="471.39166" y1="473.35132" x2="403.28415" y2="393.646">
			<stop offset="0" stop-color="#5636A6"/>
			<stop offset="1" stop-color="#883FB1"/>
		</linearGradient>
	</defs>
	<path fill="url(#gradient_10)" d="M384.05 408.575C388.671 407.57 394.072 407.763 398.848 407.075C413.662 404.944 428.9 401.842 442.932 396.524C455.606 391.721 470.989 379.348 482.682 376.583C487.878 375.355 493.055 377.385 497.553 379.894C513.014 388.519 526.055 404.796 544.064 408.545C544.971 407.302 545.863 406.281 547.028 405.27L547.371 404.977L547.693 406.961C535.686 418.777 523.829 430.831 511.346 442.143C507.256 441.311 502.678 440.28 498.926 442.792C496.222 444.602 494.913 447.404 493.944 450.4L493.174 450.093C479.087 444.325 465.879 426.9 449.021 433.69C431.244 440.85 408.967 481.655 398.466 498.368C394.188 505.176 390.033 513.155 384.059 518.606C383.851 481.929 383.848 445.252 384.05 408.575Z"/>
	<path fill="#42319F" d="M553.493 374.81C560.624 373.118 569.529 371.778 576.43 375.095C579.48 376.56 581.098 378.774 582.152 381.914L581.564 382.768C586.686 385.802 590.022 389.471 596.571 388.966C601.416 388.593 605.682 384.799 608.684 381.248C620.147 385.418 631.53 389.801 642.828 394.397C641.882 397.719 640.333 402.542 642.072 405.805C642.624 406.843 643.466 407.806 644.245 408.683L643.296 408.737C613.78 410.608 573.579 426.559 545.908 410.926L546.724 410.256C549.92 406.151 553.889 402.296 557.399 398.432L556.84 397.511L547.693 406.961L547.371 404.977C547.581 404.468 547.69 404.297 547.732 403.681C547.767 403.175 547.556 401.453 547.256 401.064L543.788 403.501C543.585 403.083 543.533 403.037 543.444 402.505C541.924 393.418 548.587 381.902 553.493 374.81Z"/>
	<path fill="#4A58B3" d="M553.493 374.81C560.624 373.118 569.529 371.778 576.43 375.095C579.48 376.56 581.098 378.774 582.152 381.914L581.564 382.768L579.253 385.118C580.419 387.818 581.688 390.511 582.748 393.252C579.193 400.585 573.197 407.897 565.172 410.596C562.835 411.382 560.584 411.679 558.312 410.519C557.44 410.074 556.97 409.463 556.388 408.701C558.781 406.522 562.394 407.797 564.469 405.334C563.013 402.982 560.019 402.149 557.533 401.08C554.338 404.112 551.394 407.243 548.519 410.579L546.724 410.256C549.92 406.151 553.889 402.296 557.399 398.432L556.84 397.511L547.693 406.961L547.371 404.977C547.581 404.468 547.69 404.297 547.732 403.681C547.767 403.175 547.556 401.453 547.256 401.064L543.788 403.501C543.585 403.083 543.533 403.037 543.444 402.505C541.924 393.418 548.587 381.902 553.493 374.81Z"/>
	<path fill="#21E8DA" d="M556.84 397.511C556.081 395.414 555.097 393.082 555.223 390.818C555.378 388.023 556.814 385.032 559.038 383.302C560.634 382.062 562.65 381.588 564.638 381.9C568.385 382.488 570.44 385.141 572.528 387.987C573.115 391.921 573.3 395.442 570.604 398.762C569.206 400.484 567.26 401.405 565.071 401.612C562.137 401.89 559.57 400.218 557.399 398.432L556.84 397.511Z"/>
	<path fill="#FEFCF5" d="M829.232 349.25C829.372 349.58 829.529 349.903 829.704 350.217C827.55 351.858 825.415 353.532 823.188 355.075L776.793 390.627C778.379 394.727 778.801 397.912 776.873 402.112C775.731 404.6 773.801 406.43 771.152 407.204C767.787 408.187 764.422 407.398 761.498 405.583C761.168 405.378 760.846 405.158 760.525 404.939C751.407 412.315 740.13 423.316 730.557 429.22L729.786 428.57C737.692 421.853 745.738 415.284 753.716 408.651C753.492 407.088 752.669 405.374 752.136 403.878L752.581 403.118L753.431 405.476L754.705 405.584L757.025 403.591C753.973 393.604 758.362 394.567 757.819 387.493C758.397 385.853 759.147 384.17 760.354 382.887C762.556 380.547 766.501 379.586 769.612 379.739C774.416 379.976 778.345 381.82 781.476 385.45C783.403 384.057 785.253 382.746 786.855 380.966C796.62 375.582 811.247 362.814 820.727 355.594L829.232 349.25Z"/>
	<path fill="#4A58B3" d="M757.819 387.493C758.397 385.853 759.147 384.17 760.354 382.887C762.556 380.547 766.501 379.586 769.612 379.739C774.416 379.976 778.345 381.82 781.476 385.45C779.588 386.769 777.679 388.832 775.229 388.352C771.153 387.552 768.065 384.822 763.859 387.084C761.267 388.479 758.501 391.264 757.897 394.207C756.338 401.798 761.561 402.532 753.716 408.651C753.492 407.088 752.669 405.374 752.136 403.878L752.581 403.118L753.431 405.476L754.705 405.584L757.025 403.591C753.973 393.604 758.362 394.567 757.819 387.493Z"/>
	<path fill="#FEFCF5" d="M556.84 397.511L557.399 398.432C553.889 402.296 549.92 406.151 546.724 410.256L545.908 410.926C540.909 415.477 513.891 439.698 513.233 444.26C514.633 447.554 516.394 451.038 514.886 454.627C513.848 457.096 511.263 459.572 508.776 460.564C505.596 461.832 501.824 459.451 498.534 460.298C494.556 461.323 482.461 476.114 478.648 479.728L478.446 478.508C484.901 471.959 491.395 465.461 497.434 458.52C495.738 455.804 494.722 453.509 493.944 450.4C494.913 447.404 496.222 444.602 498.926 442.792C502.678 440.28 507.256 441.311 511.346 442.143C523.829 430.831 535.686 418.777 547.693 406.961L556.84 397.511Z"/>
	<path fill="#4A58B3" d="M848.204 344.311C850.384 343.533 852.993 343.278 855.279 342.835C855.872 348.865 854.899 354.616 850.947 359.425C848.264 362.69 844.418 364.886 840.189 365.285C835.619 365.717 831.21 364.072 827.737 361.132C825.71 359.416 824.407 357.397 823.188 355.075C825.415 353.532 827.55 351.858 829.704 350.217C831.999 354.335 836.878 356.265 841.369 354.831C845.86 353.398 848.718 348.998 848.204 344.311Z"/>
	<path fill="#E57A75" d="M478.446 478.508L478.648 479.728C471.663 489.518 460.937 497.526 453.112 506.885C452.836 509.445 452.629 512.11 452.063 514.623C451.374 517.684 449.391 520.547 446.678 522.151C444.577 523.39 442.06 523.712 439.716 523.04C437.035 522.291 434.829 520.386 433.697 517.843C432.64 515.527 432.564 512.882 433.486 510.509C434.464 507.973 436.597 505.356 439.223 504.433C442.916 503.134 446.714 505.34 449.995 506.848C458.915 501.155 470.789 486.515 478.446 478.508Z"/>
	<path fill="#21E8DA" d="M713.5 428.937C715.362 426.547 717.159 424.197 720.42 423.838C723.518 423.496 726.321 425.303 728.516 427.3C728.959 427.704 729.375 428.134 729.786 428.57L730.557 429.22C730.621 433.082 730.708 436.666 727.773 439.636C726.187 441.241 723.852 442.311 721.573 442.142C719.049 441.954 716.827 440.631 715.34 438.604C713.292 435.813 713.07 433.142 713.11 429.791L713.5 428.937Z"/>
	<path fill="#FEFCF5" d="M724.295 482.997C724.221 477.974 722.674 460.647 725.474 457.539L726.904 457.534C730.841 462.369 728.238 488.813 728.501 496.419L728.331 515.106C727.096 515.271 725.743 515.18 724.493 515.197C724.052 504.524 724.34 493.686 724.295 482.997Z"/>
	<path fill="#9444AA" d="M383.759 408.071C385.123 381.849 384.06 354.976 384.078 328.689C384.086 317.226 382.264 301.695 385.666 290.792C387.631 288.812 393.804 288.6 396.539 288.472C405.421 288.057 414.47 288.702 423.371 288.721C437.936 288.751 452.524 288.329 467.095 288.259L649.584 288.001L649.504 288.937C674.754 288.233 700.155 288.947 725.427 288.934C758.405 288.918 791.465 288.364 824.434 288.977C824.26 289.036 824.088 289.101 823.913 289.155C817.387 291.187 807.771 288.308 802.223 290.459C804.588 291.177 806.878 291.926 809.342 292.225L809.568 294.492C813.267 296.331 816.237 292.738 818.468 297.51C817.329 300.146 815.91 305.015 813.98 307.074C811.34 309.891 806.831 310.567 803.986 313.231C799.714 317.231 795.932 325.293 791.124 327.982C789.035 326.014 785.924 325.597 783.391 326.946C780.858 328.294 779.466 331.108 779.931 333.941C778.272 333.204 777.752 332.67 775.954 333.12C774.735 334.429 774.309 335.371 772.394 335.494C771.639 335.543 770.745 335.347 769.992 335.24C767.624 336.992 766.969 337.967 766.517 340.942C766.138 343.442 766.185 346.004 764.294 347.887C764.158 348.023 764.03 348.168 763.887 348.297C762.346 349.684 759.589 349.851 757.609 350.16C752.127 355.13 753.003 364.021 746.668 368.572C746.076 367.854 745.562 367.276 745.162 366.429C743.685 367.46 742.187 368.452 740.758 369.548C737.742 371.859 735.697 370.867 732.39 371.791C740.509 372.142 743.515 375.061 749.512 379.985C750.902 381.146 752.438 382.266 753.648 383.614C751.633 385.477 750.065 386.917 749.176 389.576C750.389 389.342 751.207 389.063 752.318 388.528C754.079 387.678 755.903 387.627 757.819 387.493C758.362 394.567 753.973 393.604 757.025 403.591L754.705 405.584L753.431 405.476L752.581 403.118L752.136 403.878C752.669 405.374 753.492 407.088 753.716 408.651C745.738 415.284 737.692 421.853 729.786 428.57C729.375 428.134 728.959 427.704 728.516 427.3C726.321 425.303 723.518 423.496 720.42 423.838C717.159 424.197 715.362 426.547 713.5 428.937L713.11 429.791C701.234 424.02 689.718 416.239 678.256 409.598C674.478 414.327 669.725 417.701 663.555 418.316C660.663 418.605 658.108 418.129 655.378 417.179C651.41 414.907 647.86 411.509 644.245 408.683C643.466 407.806 642.624 406.843 642.072 405.805C640.333 402.542 641.882 397.719 642.828 394.397C631.53 389.801 620.147 385.418 608.684 381.248C605.682 384.799 601.416 388.593 596.571 388.966C590.022 389.471 586.686 385.802 581.564 382.768L582.152 381.914C581.098 378.774 579.48 376.56 576.43 375.095C569.529 371.778 560.624 373.118 553.493 374.81C548.587 381.902 541.924 393.418 543.444 402.505C543.533 403.037 543.585 403.083 543.788 403.501L547.256 401.064C547.556 401.453 547.767 403.175 547.732 403.681C547.69 404.297 547.581 404.468 547.371 404.977L547.028 405.27C545.863 406.281 544.971 407.302 544.064 408.545C526.055 404.796 513.014 388.519 497.553 379.894C493.055 377.385 487.878 375.355 482.682 376.583C470.989 379.348 455.606 391.721 442.932 396.524C428.9 401.842 413.662 404.944 398.848 407.075C394.072 407.763 388.671 407.57 384.05 408.575L383.759 408.071Z"/>
	<path fill="#42319F" d="M649.504 288.937C674.754 288.233 700.155 288.947 725.427 288.934C758.405 288.918 791.465 288.364 824.434 288.977C824.26 289.036 824.088 289.101 823.913 289.155C817.387 291.187 807.771 288.308 802.223 290.459C804.588 291.177 806.878 291.926 809.342 292.225L809.568 294.492C813.267 296.331 816.237 292.738 818.468 297.51C817.329 300.146 815.91 305.015 813.98 307.074C811.34 309.891 806.831 310.567 803.986 313.231C799.714 317.231 795.932 325.293 791.124 327.982C789.035 326.014 785.924 325.597 783.391 326.946C780.858 328.294 779.466 331.108 779.931 333.941C778.272 333.204 777.752 332.67 775.954 333.12C774.735 334.429 774.309 335.371 772.394 335.494C771.639 335.543 770.745 335.347 769.992 335.24C767.624 336.992 766.969 337.967 766.517 340.942C766.138 343.442 766.185 346.004 764.294 347.887C764.158 348.023 764.03 348.168 763.887 348.297C762.346 349.684 759.589 349.851 757.609 350.16C752.127 355.13 753.003 364.021 746.668 368.572C746.076 367.854 745.562 367.276 745.162 366.429C743.685 367.46 742.187 368.452 740.758 369.548C737.742 371.859 735.697 370.867 732.39 371.791C740.509 372.142 743.515 375.061 749.512 379.985C750.902 381.146 752.438 382.266 753.648 383.614C751.633 385.477 750.065 386.917 749.176 389.576C750.389 389.342 751.207 389.063 752.318 388.528C754.079 387.678 755.903 387.627 757.819 387.493C758.362 394.567 753.973 393.604 757.025 403.591L754.705 405.584L753.431 405.476L752.581 403.118L752.136 403.878C752.669 405.374 753.492 407.088 753.716 408.651C745.738 415.284 737.692 421.853 729.786 428.57C729.375 428.134 728.959 427.704 728.516 427.3C726.321 425.303 723.518 423.496 720.42 423.838C717.159 424.197 715.362 426.547 713.5 428.937L713.11 429.791C701.234 424.02 689.718 416.239 678.256 409.598C674.478 414.327 669.725 417.701 663.555 418.316C660.663 418.605 658.108 418.129 655.378 417.179C651.41 414.907 647.86 411.509 644.245 408.683C643.466 407.806 642.624 406.843 642.072 405.805C640.333 402.542 641.882 397.719 642.828 394.397C631.53 389.801 620.147 385.418 608.684 381.248L608.134 380.528L610.98 381.267L613.002 376.913C613.54 378.048 613.256 378.739 613.109 379.952C617.668 382.123 623.919 385.108 628.909 385.92C633.64 386.69 651.378 376.87 655.036 373.674C656.747 372.178 657.253 369.624 659.02 368.092C663.472 364.235 669.269 361.277 673.16 356.849C676.775 352.736 678.454 347.033 682.141 342.97C686.257 338.433 692.322 335.861 696.337 331.053C702.344 323.861 703.016 318.829 711.237 312.574C712.597 309.932 713.704 307.34 714.688 304.536C714.073 301.012 713.766 296.857 711.146 294.172C704.566 287.428 651.652 289.577 639.608 289.813C642.121 288.654 646.669 289.039 649.504 288.937Z"/>
	<path fill="#4A238A" d="M732.39 371.791C740.509 372.142 743.515 375.061 749.512 379.985C750.902 381.146 752.438 382.266 753.648 383.614C751.633 385.477 750.065 386.917 749.176 389.576C750.389 389.342 751.207 389.063 752.318 388.528C754.079 387.678 755.903 387.627 757.819 387.493C758.362 394.567 753.973 393.604 757.025 403.591L754.705 405.584L753.431 405.476L752.581 403.118L752.136 403.878C752.669 405.374 753.492 407.088 753.716 408.651C745.738 415.284 737.692 421.853 729.786 428.57C729.375 428.134 728.959 427.704 728.516 427.3C726.321 425.303 723.518 423.496 720.42 423.838C717.159 424.197 715.362 426.547 713.5 428.937C702.022 421.748 690.402 414.787 678.649 408.056C679.755 405.37 679.187 402.152 680.2 399.947C681.119 397.945 685.841 396.344 687.797 395.392C698.363 390.248 707.663 383.027 718.127 377.69C722.774 375.32 727.443 373.435 732.39 371.791Z"/>
	<path fill="#FEFCF5" d="M608.134 380.528L610.98 381.267C624.511 385.33 637.937 390.699 650.79 396.581C652.938 392.702 654.733 390.207 659.25 388.879C661.871 388.108 664.813 388.064 667.21 389.533C669.412 390.883 671.555 394.025 671.97 396.571C672.169 397.794 671.91 399.084 671.811 400.303C671.728 401.333 671.708 402.376 671.653 403.409C673.665 405.392 676.212 406.672 678.649 408.056C690.402 414.787 702.022 421.748 713.5 428.937L713.11 429.791C701.234 424.02 689.718 416.239 678.256 409.598C674.478 414.327 669.725 417.701 663.555 418.316C660.663 418.605 658.108 418.129 655.378 417.179C651.41 414.907 647.86 411.509 644.245 408.683C643.466 407.806 642.624 406.843 642.072 405.805C640.333 402.542 641.882 397.719 642.828 394.397C631.53 389.801 620.147 385.418 608.684 381.248L608.134 380.528Z"/>
	<path fill="#4A58B3" d="M642.828 394.397C646.443 395.825 649.329 396.516 650.898 400.371C651.923 402.887 652.511 405.182 653.993 407.519C657.167 409.342 660.238 411.147 664.042 410.029C666.725 409.24 668.776 407.338 670.692 405.4C672.935 406.611 676.415 407.941 678.256 409.598C674.478 414.327 669.725 417.701 663.555 418.316C660.663 418.605 658.108 418.129 655.378 417.179C651.41 414.907 647.86 411.509 644.245 408.683C643.466 407.806 642.624 406.843 642.072 405.805C640.333 402.542 641.882 397.719 642.828 394.397Z"/>
	<path fill="#FB57AD" d="M582.152 381.914L583.888 380.866C582.949 378.493 582.545 376.62 582.85 374.044C583.399 369.408 585.356 364.867 589.179 362.017C592.007 359.909 595.326 359.129 598.783 359.871C604.027 360.996 606.897 363.955 609.758 368.264C609.022 372.306 608.642 376.449 608.134 380.528L608.684 381.248C605.682 384.799 601.416 388.593 596.571 388.966C590.022 389.471 586.686 385.802 581.564 382.768L582.152 381.914Z"/>
	<path fill="#D3CAE6" d="M575.851 221.976L576.668 221.536C577.789 222.035 578.93 222.189 579.426 223.362C581.518 228.314 579.877 249.551 579.747 256.044C585.894 256.035 592.241 255.695 598.364 256.077L600.922 255.971L627.72 255.977L630.088 255.945C641.773 255.956 653.487 255.795 665.168 255.996C697.246 256.33 729.325 256.432 761.404 256.301L824.506 256.59C831.963 259.588 893.739 257.318 907.133 257.219C903.91 258.508 900.849 258.612 897.494 259.257C892.033 260.307 886.737 261.882 881.158 262.275C872.845 262.861 864.463 262.105 856.143 262.75C846.703 263.481 837.38 265.18 827.902 265.513C818.339 265.85 807.946 265.227 798.545 266.677C794.704 267.27 791.06 268.846 787.334 269.894C780.629 271.78 773.636 273.2 766.79 274.5C758.903 275.998 751.032 277.302 743.022 277.921C738.474 278.272 733.702 278.038 729.206 278.63C724.733 279.219 727.674 284.512 721.922 282.211C721.425 283.171 721.094 284.045 720.802 285.085L717.438 287.159C723.864 288.196 730.612 286.165 737.048 287.485C730.414 288.339 723.309 287.954 716.621 287.99L672.555 287.864C664.997 287.829 657.102 287.409 649.584 288.001L467.095 288.259C452.524 288.329 437.936 288.751 423.371 288.721C414.47 288.702 405.421 288.057 396.539 288.472C393.804 288.6 387.631 288.812 385.666 290.792C382.264 301.695 384.086 317.226 384.078 328.689C384.06 354.976 385.123 381.849 383.759 408.071C382.072 453.264 384.251 498.504 382.809 543.711C382.117 537.288 384.076 528.286 380.445 522.803C376.229 519.565 373.529 522.524 369.222 517.228C367.008 517.149 366.285 517.61 364.584 519.092C358.117 524.725 351.649 540.953 351.554 549.425C351.515 552.827 352.549 558.372 351.376 561.432L350.881 463.565C350.859 448.07 352.223 428.733 350.374 413.867C349.365 386.185 350.306 358.131 350.362 330.42C350.406 309.473 349.247 287.826 350.905 266.992C351.063 264.319 351.978 261.311 353.896 259.366C358.76 254.436 370.126 256.207 376.39 256.442C385.255 255.301 395.072 256.009 404.027 255.972C422.734 255.864 441.441 255.866 460.148 255.978L463.77 255.911L536.326 255.976C536.515 244.701 536.508 233.422 536.306 222.147C547.743 221.578 559.441 222.041 570.914 221.98L571.462 222.125L575.851 221.976Z"/>
	<path fill="#3B1D6F" d="M575.851 221.976L576.668 221.536C577.789 222.035 578.93 222.189 579.426 223.362C581.518 228.314 579.877 249.551 579.747 256.044L576.025 256.159L571.393 256.089L536.326 255.976C536.515 244.701 536.508 233.422 536.306 222.147C547.743 221.578 559.441 222.041 570.914 221.98L571.462 222.125L575.851 221.976Z"/>
	<path fill="#4A238A" d="M575.851 221.976L576.668 221.536C577.789 222.035 578.93 222.189 579.426 223.362C581.518 228.314 579.877 249.551 579.747 256.044L576.025 256.159L571.393 256.089L571.462 222.125L575.851 221.976Z"/>
	<path fill="#3B1D6F" d="M575.851 221.976L576.668 221.536C577.789 222.035 578.93 222.189 579.426 223.362C581.518 228.314 579.877 249.551 579.747 256.044L576.025 256.159C576.268 244.813 576.392 233.311 575.851 221.976Z"/>
	<path fill="#FEFCF5" d="M350.905 266.992C351.063 264.319 351.978 261.311 353.896 259.366C358.76 254.436 370.126 256.207 376.39 256.442L377.24 256.523C388.92 257.574 401.112 256.882 412.858 256.88C436.646 256.764 460.434 256.825 484.221 257.063C443.477 258.21 402.705 256.561 361.96 257.964C359.375 261.868 354.129 267.541 352.493 271.698C350.501 276.761 351.699 291.622 351.7 297.53L351.755 361.831C351.766 372.671 352.548 384.121 351.591 394.896C351.863 393.658 351.68 393.243 351.409 392.065C350.032 386.069 351.18 374.033 351.185 367.378L351.298 300.446C351.317 289.607 352.337 277.669 350.905 266.992Z"/>
	<path fill="#84CDE8" d="M1023.08 206.422C1041.68 206.435 1060.33 206.719 1078.92 206.267L1079.22 206.998C1079.41 213.842 1081.35 228.743 1078.16 234.414C1078.09 234.537 1078.02 234.662 1077.96 234.786L1083.16 234.75C1085.59 238.296 1085.36 249.535 1084.58 253.899C1084.44 254.67 1084.15 255.171 1083.77 255.844C1088.05 255.826 1093.38 256.431 1097.52 255.571L1102.73 255.595C1113.14 255.768 1123.56 255.79 1133.97 255.659L1145.85 255.607L1146.48 255.606C1150.91 255.651 1156.56 255.019 1160.82 255.981C1165.81 256.031 1171.75 255.526 1176.62 256.327C1179.66 256.857 1182.3 257.948 1184.1 260.587C1184.89 261.736 1185.41 262.912 1185.09 264.326C1185.05 264.489 1184.98 264.643 1184.93 264.802C1187.47 270.403 1185.49 327.144 1185.37 337.892C1183.01 332.595 1186.78 302.206 1183.92 292.082C1182.52 287.093 1171.77 270.824 1171.79 269.046C1171.79 268.797 1171.82 268.549 1171.83 268.301C1170.11 268.475 1167.25 265.515 1165.18 265.084C1160.62 264.135 1155.02 264.833 1150.21 264.123C1137.04 262.175 1123.51 257.482 1110.24 257.239C1061.27 256.343 1012.09 257.332 963.087 257.321L925.873 257.326C919.698 257.338 913.252 257.956 907.133 257.219C893.739 257.318 831.963 259.588 824.506 256.59C840.048 254.754 856.616 256.653 872.359 255.968C877.504 255.954 882.817 255.662 887.938 256.12L888.982 255.897L942.852 256.039C951.618 256.06 960.931 256.67 969.65 255.964C978.976 255.055 988.655 255.586 998.028 255.614C997.578 240.134 998.043 224.67 998.421 209.193L999.142 209.358C997.656 224.382 999.697 240.213 998.825 255.44C1006.76 255.933 1014.68 255.553 1022.61 255.766C1025.09 250.052 1023.29 237.836 1023 231.451C1023.66 223.238 1023.13 214.674 1023.08 206.422Z"/>
	<path fill="#3B1D6F" d="M1023.08 206.422C1041.68 206.435 1060.33 206.719 1078.92 206.267L1079.22 206.998C1079.41 213.842 1081.35 228.743 1078.16 234.414C1078.09 234.537 1078.02 234.662 1077.96 234.786C1069.56 234.804 1028.71 236.373 1023.95 234.34L1023 231.451C1023.66 223.238 1023.13 214.674 1023.08 206.422Z"/>
	<path fill="#121447" d="M1023 231.451L1023.95 234.34C1028.71 236.373 1069.56 234.804 1077.96 234.786C1080.11 238.35 1079.83 249.557 1078.96 253.533C1078.75 254.502 1078.42 255.101 1077.93 255.955C1067.59 255.974 1056.92 255.487 1046.62 256.418C1038.58 256.738 1030.4 256.417 1022.34 256.401L1022.61 255.766C1025.09 250.052 1023.29 237.836 1023 231.451Z"/>
	<path fill="#42319F" d="M1077.96 234.786L1083.16 234.75C1085.59 238.296 1085.36 249.535 1084.58 253.899C1084.44 254.67 1084.15 255.171 1083.77 255.844C1088.05 255.826 1093.38 256.431 1097.52 255.571L1102.73 255.595C1113.14 255.768 1123.56 255.79 1133.97 255.659L1145.85 255.607L1146.48 255.606C1150.91 255.651 1156.56 255.019 1160.82 255.981C1146.99 257.262 1132.26 256.289 1118.32 256.341C1094.46 256.43 1070.47 257.031 1046.62 256.418C1056.92 255.487 1067.59 255.974 1077.93 255.955C1078.42 255.101 1078.75 254.502 1078.96 253.533C1079.83 249.557 1080.11 238.35 1077.96 234.786Z"/>
	<path fill="#3B1D6F" d="M998.421 209.193L999.142 209.358C997.656 224.382 999.697 240.213 998.825 255.44C1006.76 255.933 1014.68 255.553 1022.61 255.766L1022.34 256.401C1004.86 256.4 987.09 256.949 969.65 255.964C978.976 255.055 988.655 255.586 998.028 255.614C997.578 240.134 998.043 224.67 998.421 209.193Z"/>
	<defs>
		<linearGradient id="gradient_11" gradientUnits="userSpaceOnUse" x1="532.89862" y1="770.35712" x2="532.10138" y2="810.27881">
			<stop offset="0" stop-color="#46197D"/>
			<stop offset="1" stop-color="#5A359E"/>
		</linearGradient>
	</defs>
	<path fill="url(#gradient_11)" d="M367.863 769.868C420.601 768.735 473.522 769.907 526.284 769.879L601.556 769.8C614.614 769.783 627.889 769.261 640.926 769.853C633.346 771.818 623.146 770.721 615.312 770.708L576.91 770.749C576.376 784.421 576.124 798.007 576.068 811.693L489.202 811.77C489.118 798.1 488.96 784.432 488.728 770.764L409.496 770.464C395.728 770.418 381.567 771.071 367.863 769.868Z"/>
	<path fill="#9595D4" d="M212.166 760.943C217.978 760.992 224.098 760.688 229.869 761.268L232.468 760.873C237.96 760.911 243.62 761.209 249.094 760.867C255.49 760.856 261.924 760.982 268.315 760.76L269.22 760.817C274.549 760.832 279.877 760.925 285.204 761.094L287.819 760.802C293.058 760.926 298.298 761.013 303.538 761.063C308.392 760.951 313.831 760.092 317.529 764C318.859 765.405 318.738 766.284 318.681 768.053C317.377 770.034 315.761 771.203 313.416 771.742C311.598 772.159 309.652 771.97 307.812 771.835C308.072 780.559 308.278 789.238 308.052 797.967L308.261 849.85L661.376 849.827C661.935 828.023 661.098 806.169 661.486 784.35C660.997 779.548 661.206 774.557 661.154 769.726C738.629 769.75 816.178 770.422 893.644 769.547L897.449 769.662C917.555 770.04 937.707 769.421 957.798 770.097C956.44 782.107 957.249 794.774 957.281 806.887C967.968 807.406 996.611 803.985 1004.36 807.382C1005.05 809.761 1004.74 811.586 1004.4 813.978L1004.26 849.041L1011.88 849.315L1133.15 849.268L1171.97 849.236C1178.27 849.23 1184.9 849.674 1191.16 849.142C1191.65 848.459 1192.2 847.651 1192.44 846.834C1193.97 841.538 1193.51 793.839 1191.52 789.535C1203.87 789.004 1216.26 789.606 1228.61 789.102C1229.33 788.051 1229.61 787.277 1229.84 786.028C1230.5 782.333 1231.25 778.319 1229.01 775.151C1227.7 775.135 1226.44 775.227 1225.26 774.592C1223.27 773.527 1223.9 766.833 1223.27 764.532C1223.21 764.328 1223.15 764.127 1223.09 763.924L1232.13 763.579C1237.73 763.683 1243.32 763.837 1248.92 763.575L1250.28 763.576C1255.99 763.598 1261.72 763.716 1267.43 763.538L1268.05 763.552C1283.64 763.599 1299.22 763.536 1314.8 763.363C1321.34 763.32 1329.95 762.253 1336.22 763.687C1337.8 766.103 1338.18 768.539 1337.63 771.439C1337.41 772.558 1337.13 773.277 1336.35 774.133C1333.76 775.794 1328.72 775.086 1325.55 775.053C1327.43 778.836 1328.05 837.362 1326.48 841.979C1326.23 842.703 1325.68 843.374 1325.12 843.874C1325.18 844.175 1325.24 844.474 1325.29 844.776C1325.52 846.029 1325.25 847.017 1324.91 848.213C1326.22 849.591 1328 849.526 1329.86 849.578C1335.88 849.746 1357.97 847.447 1361.73 849.974C1361.95 850.205 1362.19 850.425 1362.4 850.666C1363.62 852.071 1363.69 854.546 1363.92 856.329C1375.27 859.887 1407.84 852.012 1414.87 859.667C1415.28 861.068 1415.38 861.259 1414.96 862.637C1416.37 865.92 1417.43 873.673 1416.1 877.048C1415.01 879.817 1412.92 881.719 1410.14 882.757C1400.9 886.21 1382.61 883.019 1371.97 883.77C1373.06 885.065 1373.43 886.281 1373.58 887.945C1374.19 894.594 1375.28 909.255 1370.64 914.43C1368.14 917.228 1363.92 917.856 1360.35 918.175C1348.58 919.229 1335.98 918.291 1324.13 918.216L1261.88 918.23L1048.13 918.188L393.253 918.125L236.5 918.156L191.662 918.156C183.56 918.195 175.08 918.786 167.027 918.103C163.932 917.841 160.412 917.07 158.076 914.896C153.343 910.492 155.026 890.161 154.834 883.549C146.027 883.325 126.045 886.254 119.47 880.469C115.962 877.381 117.243 867.762 117.165 863.377C117.721 862.308 118.354 861.242 119.228 860.398C123.637 856.144 164.458 858.033 173.051 858.058C173.065 857.088 173.1 856.119 173.154 855.151C173.313 852.704 173.771 851.673 175.592 850.092C186.44 848.726 199.694 848.947 210.596 849.962L210.607 775.512L210.173 772.349C208.175 771.672 205.148 771.935 202.997 771.835C200.859 770.624 199.512 769.637 198.094 767.613C198.029 766.066 197.915 765.332 199.117 764.219C203.206 760.431 206.946 760.72 212.166 760.943Z"/>
	<path fill="#121447" d="M154.834 883.549L1010.14 883.614L1258.09 883.686L1335.37 883.629C1347.33 883.618 1360.14 882.566 1371.97 883.77C1373.06 885.065 1373.43 886.281 1373.58 887.945C1374.19 894.594 1375.28 909.255 1370.64 914.43C1368.14 917.228 1363.92 917.856 1360.35 918.175C1348.58 919.229 1335.98 918.291 1324.13 918.216L1261.88 918.23L1048.13 918.188L393.253 918.125L236.5 918.156L191.662 918.156C183.56 918.195 175.08 918.786 167.027 918.103C163.932 917.841 160.412 917.07 158.076 914.896C153.343 910.492 155.026 890.161 154.834 883.549Z"/>
	<path fill="#42319F" d="M1361.73 849.974C1361.95 850.205 1362.19 850.425 1362.4 850.666C1363.62 852.071 1363.69 854.546 1363.92 856.329C1375.27 859.887 1407.84 852.012 1414.87 859.667C1415.28 861.068 1415.38 861.259 1414.96 862.637C1416.37 865.92 1417.43 873.673 1416.1 877.048C1415.01 879.817 1412.92 881.719 1410.14 882.757C1400.9 886.21 1382.61 883.019 1371.97 883.77C1360.14 882.566 1347.33 883.618 1335.37 883.629L1258.09 883.686L1010.14 883.614L154.834 883.549C146.027 883.325 126.045 886.254 119.47 880.469C115.962 877.381 117.243 867.762 117.165 863.377C125.588 865.33 137.453 863.795 146.206 863.695C162.915 863.491 179.625 863.402 196.335 863.431L453.268 862.933L1061.75 862.842L1259.58 862.713L1328.01 862.696C1339.08 862.682 1350.41 863.169 1361.45 862.586C1361.88 862.007 1362.3 861.466 1362.57 860.789C1363.73 857.879 1362.81 852.791 1361.73 849.974Z"/>
	<path fill="#664AB0" d="M1361.73 849.974C1361.95 850.205 1362.19 850.425 1362.4 850.666C1363.62 852.071 1363.69 854.546 1363.92 856.329C1375.27 859.887 1407.84 852.012 1414.87 859.667C1415.28 861.068 1415.38 861.259 1414.96 862.637C1408.27 864.563 1370.1 863.385 1361.45 862.586C1361.88 862.007 1362.3 861.466 1362.57 860.789C1363.73 857.879 1362.81 852.791 1361.73 849.974Z"/>
	<defs>
		<linearGradient id="gradient_12" gradientUnits="userSpaceOnUse" x1="769.19061" y1="777.16754" x2="767.5166" y2="850.35132">
			<stop offset="0" stop-color="#6145AD"/>
			<stop offset="1" stop-color="#8474CD"/>
		</linearGradient>
	</defs>
	<path fill="url(#gradient_12)" d="M661.154 769.726C738.629 769.75 816.178 770.422 893.644 769.547C893.509 777.33 894.137 807.116 892.62 812.2L892.632 849.177L876.18 849.278C832.553 850.724 788.661 849.868 745.009 849.933L689.535 849.993C680.244 849.987 670.62 850.462 661.376 849.827C661.935 828.023 661.098 806.169 661.486 784.35C660.997 779.548 661.206 774.557 661.154 769.726Z"/>
	<path fill="#42319F" d="M661.154 769.726C738.629 769.75 816.178 770.422 893.644 769.547C893.509 777.33 894.137 807.116 892.62 812.2L892.632 849.177L876.18 849.278C876.296 827.598 876.283 805.916 876.142 784.236L874.911 780.729C868.116 779.723 860.809 780.428 853.929 780.429C832.923 780.433 812.065 781.281 791.079 781.889C759.925 782.605 728.755 782.09 697.642 780.346C687.409 779.827 674.894 781.085 665.06 778.49C663.993 778.208 663.849 778.477 662.857 778.883C662.681 780.631 662.28 782.111 661.695 783.769L661.486 784.35C660.997 779.548 661.206 774.557 661.154 769.726Z"/>
	<path fill="#3B1D6F" d="M876.038 770.111L892.707 770.242C892.552 779.869 890.891 804.201 892.62 812.2L892.632 849.177L876.18 849.278C876.296 827.598 876.283 805.916 876.142 784.236L876.038 770.111Z"/>
	<path fill="#664AB0" d="M893.644 769.547L897.449 769.662C917.555 770.04 937.707 769.421 957.798 770.097C956.44 782.107 957.249 794.774 957.281 806.887C967.968 807.406 996.611 803.985 1004.36 807.382C1005.05 809.761 1004.74 811.586 1004.4 813.978L1004.26 849.041L1011.88 849.315C999.668 850.943 985.729 849.814 973.365 849.844C950.74 849.898 927.859 850.518 905.265 849.348L897.536 849.263L892.632 849.177L892.62 812.2C894.137 807.116 893.509 777.33 893.644 769.547Z"/>
	<path fill="#3B1D6F" d="M893.644 769.547L897.449 769.662C917.555 770.04 937.707 769.421 957.798 770.097C956.44 782.107 957.249 794.774 957.281 806.887C967.968 807.406 996.611 803.985 1004.36 807.382C1005.05 809.761 1004.74 811.586 1004.4 813.978C1004.35 811.99 1004.29 810.378 1003.6 808.499C995.679 806.403 973.592 807.969 964.392 808.016C944.684 807.857 924.975 807.803 905.266 807.854L905.265 849.348L897.536 849.263L892.632 849.177L892.62 812.2C894.137 807.116 893.509 777.33 893.644 769.547Z"/>
	<path fill="#664AB0" d="M893.644 769.547L897.449 769.662C897.642 796.195 897.671 822.729 897.536 849.263L892.632 849.177L892.62 812.2C894.137 807.116 893.509 777.33 893.644 769.547Z"/>
	<path fill="#42319F" d="M964.392 808.016C973.592 807.969 995.679 806.403 1003.6 808.499C1004.29 810.378 1004.35 811.99 1004.4 813.978L1004.26 849.041L964.203 849.128C964.357 835.424 964.42 821.72 964.392 808.016Z"/>
	<defs>
		<linearGradient id="gradient_13" gradientUnits="userSpaceOnUse" x1="243.77068" y1="812.94867" x2="210.58868" y2="812.08154">
			<stop offset="0" stop-color="#CBBCDB"/>
			<stop offset="1" stop-color="#EDE0EA"/>
		</linearGradient>
	</defs>
	<path fill="url(#gradient_13)" d="M210.607 775.512C222.552 775.621 235.348 776.708 247.219 775.659C251.385 777.064 255.534 778.341 259.793 779.435L240.726 779.116C241.016 780.79 241.337 782.338 241.861 783.953C246.029 796.801 244.712 835.072 243.165 849.207C249.911 849.233 256.729 849.047 263.465 849.319C256.828 850.804 216.555 851.935 210.596 849.962L210.607 775.512Z"/>
	<defs>
		<linearGradient id="gradient_14" gradientUnits="userSpaceOnUse" x1="1267.8126" y1="818.06927" x2="1227.7279" y2="812.83331">
			<stop offset="0" stop-color="#CCBEDD"/>
			<stop offset="1" stop-color="#F0E6EE"/>
		</linearGradient>
	</defs>
	<path fill="url(#gradient_14)" d="M1229.49 782.371L1257.51 782.523L1258.38 782.628C1264.83 783.371 1271.42 783.286 1277.91 783.42L1276.92 783.834L1280.12 783.569C1276.32 783.949 1272.57 784.023 1268.75 784.046C1272.12 801.549 1266.55 829.86 1264.5 848.052C1268.33 850.26 1277.33 847.161 1281.9 848.85C1278.39 850.438 1237.41 850.82 1233.37 849.365C1232.71 849.126 1232.04 848.81 1231.42 848.468C1231.77 846.013 1230.45 808.873 1229.76 807.231C1229.99 806.63 1230.18 806.017 1230.34 805.393C1231.53 800.611 1231.95 786.489 1229.49 782.371Z"/>
	<path fill="#42319F" d="M1191.52 789.535C1203.87 789.004 1216.26 789.606 1228.61 789.102C1231.21 793.441 1230 802.143 1229.76 807.231C1230.45 808.873 1231.77 846.013 1231.42 848.468C1227.56 851.061 1197.29 849.561 1191.16 849.142C1191.65 848.459 1192.2 847.651 1192.44 846.834C1193.97 841.538 1193.51 793.839 1191.52 789.535Z"/>
	<path fill="#D3CAE6" d="M212.166 760.943C217.978 760.992 224.098 760.688 229.869 761.268L232.468 760.873C237.96 760.911 243.62 761.209 249.094 760.867C255.49 760.856 261.924 760.982 268.315 760.76L269.22 760.817C274.549 760.832 279.877 760.925 285.204 761.094L287.819 760.802C293.058 760.926 298.298 761.013 303.538 761.063C308.392 760.951 313.831 760.092 317.529 764C318.859 765.405 318.738 766.284 318.681 768.053C317.377 770.034 315.761 771.203 313.416 771.742C311.598 772.159 309.652 771.97 307.812 771.835C308.072 780.559 308.278 789.238 308.052 797.967C306.083 795.956 307.109 782.567 307.132 779.058C293.596 779.563 279.082 777.677 265.538 776.565C259.446 776.065 253.334 775.159 247.219 775.659C235.348 776.708 222.552 775.621 210.607 775.512L210.173 772.349C208.175 771.672 205.148 771.935 202.997 771.835C200.859 770.624 199.512 769.637 198.094 767.613C198.029 766.066 197.915 765.332 199.117 764.219C203.206 760.431 206.946 760.72 212.166 760.943Z"/>
	<path fill="#AD8DB0" d="M210.173 772.349C218.519 773.549 228.667 772.21 237.16 772.098C260.624 771.789 284.376 770.989 307.812 771.835C308.072 780.559 308.278 789.238 308.052 797.967C306.083 795.956 307.109 782.567 307.132 779.058C293.596 779.563 279.082 777.677 265.538 776.565C259.446 776.065 253.334 775.159 247.219 775.659C235.348 776.708 222.552 775.621 210.607 775.512L210.173 772.349Z"/>
	<path fill="#D3CAE6" d="M1268.05 763.552C1283.64 763.599 1299.22 763.536 1314.8 763.363C1321.34 763.32 1329.95 762.253 1336.22 763.687C1337.8 766.103 1338.18 768.539 1337.63 771.439C1337.41 772.558 1337.13 773.277 1336.35 774.133C1322.92 775.492 1308.68 774.645 1295.18 774.659L1229.01 775.151C1227.7 775.135 1226.44 775.227 1225.26 774.592C1223.27 773.527 1223.9 766.833 1223.27 764.532C1223.21 764.328 1223.15 764.127 1223.09 763.924L1232.13 763.579C1237.73 763.683 1243.32 763.837 1248.92 763.575L1250.28 763.576C1255.99 763.598 1261.72 763.716 1267.43 763.538L1268.05 763.552Z"/>
	<path fill="#664AB0" d="M1229.01 775.151L1295.18 774.659C1308.68 774.645 1322.92 775.492 1336.35 774.133C1333.76 775.794 1328.72 775.086 1325.55 775.053C1327.43 778.836 1328.05 837.362 1326.48 841.979C1326.23 842.703 1325.68 843.374 1325.12 843.874C1325.17 843.732 1325.23 843.592 1325.28 843.448C1327.02 838.319 1326.96 787.214 1324.95 783.262C1302.72 783.284 1279.56 781.263 1257.51 782.523L1229.49 782.371C1231.95 786.489 1231.53 800.611 1230.34 805.393C1230.18 806.017 1229.99 806.63 1229.76 807.231C1230 802.143 1231.21 793.441 1228.61 789.102C1229.33 788.051 1229.61 787.277 1229.84 786.028C1230.5 782.333 1231.25 778.319 1229.01 775.151Z"/>
	<defs>
		<linearGradient id="gradient_15" gradientUnits="userSpaceOnUse" x1="235.57329" y1="876.23779" x2="203.96465" y2="831.23309">
			<stop offset="0" stop-color="#AB92CE"/>
			<stop offset="1" stop-color="#DCCDDB"/>
		</linearGradient>
	</defs>
	<path fill="url(#gradient_15)" d="M173.051 858.058C173.065 857.088 173.1 856.119 173.154 855.151C173.313 852.704 173.771 851.673 175.592 850.092C186.44 848.726 199.694 848.947 210.596 849.962C216.555 851.935 256.828 850.804 263.465 849.319C265.615 849.206 267.701 848.912 269.757 849.671C268.21 850.959 266.501 851.898 265.909 853.855C267.73 855.901 270.156 856.48 272.84 856.625C279.042 856.961 285.4 856.071 291.625 856.041C304.844 855.977 318.234 856.683 331.44 857.305C315.799 857.538 300.18 858.326 284.537 858.234C274.602 858.176 264.692 857.204 254.769 857.251C227.511 857.381 200.335 858.264 173.051 858.058Z"/>
	<defs>
		<linearGradient id="gradient_16" gradientUnits="userSpaceOnUse" x1="768.6449" y1="256.15805" x2="768.01263" y2="228.10718">
			<stop offset="0" stop-color="#878BE3"/>
			<stop offset="1" stop-color="#C5C7F6"/>
		</linearGradient>
	</defs>
	<path fill="url(#gradient_16)" d="M734.923 130.449C734.842 120.965 733.322 61.1678 735.281 56.4619L737.111 55.408C738.723 56.6713 739.392 57.872 739.66 59.9389C740.675 67.7837 739.61 77.1773 739.592 85.1866C739.552 102.624 739.893 120.13 739.449 137.559C740.574 149.949 739.651 163.08 739.582 175.54C739.485 193.149 739.907 210.996 739.272 228.578L753.847 228.515L753.803 198.418C753.804 194.379 754.353 189.626 753.751 185.678C753.541 184.302 752.704 183.49 751.759 182.564C751.649 182.457 751.537 182.352 751.426 182.246C751.935 180.747 753.175 180.686 753.626 179.692C755.687 175.153 752.002 129.574 754.557 118.579C757.037 129.387 755.587 142.582 755.706 153.732C755.971 178.645 756.458 203.603 756.069 228.516L860.937 228.731C861.221 197.013 861.23 165.293 860.964 133.575C860.974 120.789 860.178 107.477 860.933 94.7684C861.056 92.6904 861.224 91.4192 862.635 89.8436C863.765 90.1965 863.963 89.985 864.564 91.124C868.162 97.9405 862.698 170.76 866.501 178.816L866.871 179.613C867.192 180.3 867.532 180.978 867.891 181.646C867.644 183.393 866.979 184.19 865.863 185.525C865.484 192.889 863.968 224.208 866.108 229.133C868.52 230.022 870.743 230.659 871.823 233.23C873.427 237.05 872.45 243.092 872.273 247.167L872.359 255.968C856.616 256.653 840.048 254.754 824.506 256.59L761.404 256.301C729.325 256.432 697.246 256.33 665.168 255.996C665.021 249.847 663.206 236.024 667.66 231.15C668.844 229.854 670.466 229.201 672.175 228.943C677.222 228.181 695.731 229.42 702.948 229.342C705.619 227.365 729.659 228.586 734.457 228.604L734.498 164.231C734.535 153.039 734.123 141.603 734.923 130.449Z"/>
	<path fill="#3B1D6F" d="M734.923 130.449C734.842 120.965 733.322 61.1678 735.281 56.4619L737.111 55.408C738.723 56.6713 739.392 57.872 739.66 59.9389C740.675 67.7837 739.61 77.1773 739.592 85.1866C739.552 102.624 739.893 120.13 739.449 137.559C740.574 149.949 739.651 163.08 739.582 175.54C739.485 193.149 739.907 210.996 739.272 228.578L753.847 228.515L753.803 198.418C753.804 194.379 754.353 189.626 753.751 185.678C753.541 184.302 752.704 183.49 751.759 182.564C751.649 182.457 751.537 182.352 751.426 182.246C751.935 180.747 753.175 180.686 753.626 179.692C755.687 175.153 752.002 129.574 754.557 118.579C757.037 129.387 755.587 142.582 755.706 153.732C755.971 178.645 756.458 203.603 756.069 228.516L860.937 228.731C861.221 197.013 861.23 165.293 860.964 133.575C860.974 120.789 860.178 107.477 860.933 94.7684C861.056 92.6904 861.224 91.4192 862.635 89.8436C863.765 90.1965 863.963 89.985 864.564 91.124C868.162 97.9405 862.698 170.76 866.501 178.816L866.871 179.613C867.192 180.3 867.532 180.978 867.891 181.646C867.644 183.393 866.979 184.19 865.863 185.525C865.484 192.889 863.968 224.208 866.108 229.133C856.286 231.021 825.501 229.504 813.727 229.466C776.816 229.347 739.848 229.908 702.948 229.342C705.619 227.365 729.659 228.586 734.457 228.604L734.498 164.231C734.535 153.039 734.123 141.603 734.923 130.449Z"/>
	<path fill="#4A238A" d="M734.923 130.449C734.842 120.965 733.322 61.1678 735.281 56.4619L737.111 55.408C738.723 56.6713 739.392 57.872 739.66 59.9389C740.675 67.7837 739.61 77.1773 739.592 85.1866C739.552 102.624 739.893 120.13 739.449 137.559C739.296 137.68 739.127 137.783 738.99 137.922C737.563 139.376 738.385 174.634 737.841 180.214C734.348 176.541 736.22 151.767 736.074 145.876C735.947 140.72 735.446 135.578 734.923 130.449Z"/>
	<path fill="#9595D4" d="M761.404 256.301C762.035 255.982 761.801 256.003 762.445 256.006C779.513 256.089 796.615 255.386 813.686 255.125C824.999 254.952 836.356 255.308 847.658 254.975C852.362 254.837 858.071 251.665 862.235 251.967C864.439 252.126 867.034 253.401 869.084 254.227C870.061 253.924 870.86 253.91 871.46 253.05C871.212 251.033 871.466 249.776 872.062 247.833L872.273 247.167L872.359 255.968C856.616 256.653 840.048 254.754 824.506 256.59L761.404 256.301Z"/>
	<path fill="#9595D4" d="M802.874 242.728C805.974 242.508 809.223 243.638 811.972 244.957L811.931 245.607C805.115 246.527 797.149 245.155 790.236 244.862C781.28 244.483 772.276 244.563 763.313 244.549C759.552 244.513 755.768 244.557 752.016 244.301C768.541 240.821 786.278 245.711 802.874 242.728Z"/>
	<path fill="#3B1D6F" d="M109.008 397.062C126.455 396.528 144.008 396.978 161.465 397.002C173.064 397.018 185.445 396.205 196.931 397.534C199.67 397.851 202.869 398.271 204.946 400.213C205.8 402.446 206.259 404.539 206.443 406.92C207.233 417.142 206.309 427.866 206.294 438.144C206.284 445.026 207.488 452.298 206.308 459.103C205.727 462.455 204.566 463.847 201.844 465.793C184.664 466.215 167.359 465.534 150.168 465.44C137.983 465.374 125.226 466.214 113.107 465.092C110.341 464.836 107.566 464.47 105.255 462.838C103.84 459.12 103.648 403.768 104.756 400.741C105.537 398.606 107.163 398.076 109.008 397.062Z"/>
	<path fill="#3B1D6F" d="M994.539 136.987C994.435 130.899 994.298 124.912 995.009 118.851C996.692 124.388 996.08 131.132 995.939 136.889L1011.09 136.726C1011.08 160.755 1012.03 185.37 1010.31 209.319L999.142 209.358L998.421 209.193C972.622 210.01 946.673 209.295 920.852 209.352L920.646 136.896L994.539 136.987Z"/>
	<defs>
		<linearGradient id="gradient_17" gradientUnits="userSpaceOnUse" x1="284.82251" y1="668.02484" x2="232.57428" y2="657.37488">
			<stop offset="0" stop-color="#DF2F49"/>
			<stop offset="1" stop-color="#F0BA9D"/>
		</linearGradient>
	</defs>
	<path fill="url(#gradient_17)" d="M249.53 560.086C254.157 560 264.154 558.805 267.919 561.014C268.93 576.718 268.115 592.758 268.243 608.509C268.678 641.858 268.773 675.211 268.528 708.562C268.444 723.192 266.491 747.149 268.315 760.76C261.924 760.982 255.49 760.856 249.094 760.867C243.62 761.209 237.96 760.911 232.468 760.873L232.613 742.369C232.03 735.847 232.461 728.925 232.465 722.367L232.778 679.147C233.392 657.581 233.141 635.935 233.192 614.359L249.582 614.316C248.996 599.329 249.462 584.195 249.52 569.193L249.53 560.086Z"/>
	<defs>
		<linearGradient id="gradient_18" gradientUnits="userSpaceOnUse" x1="266.53946" y1="699.51459" x2="208.00839" y2="672.73328">
			<stop offset="0" stop-color="#D95E63"/>
			<stop offset="1" stop-color="#FEB385"/>
		</linearGradient>
	</defs>
	<path fill="url(#gradient_18)" d="M233.192 614.359L249.582 614.316C249.759 634.003 252.731 750.071 249.688 758.191L249.094 760.867C243.62 761.209 237.96 760.911 232.468 760.873L232.613 742.369C232.03 735.847 232.461 728.925 232.465 722.367L232.778 679.147C233.392 657.581 233.141 635.935 233.192 614.359Z"/>
	<path fill="#E57A75" d="M232.613 742.369C232.68 742.544 232.752 742.717 232.815 742.894C234.726 748.296 231.786 754.519 233.662 759.401C235.717 759.606 238.347 760.424 240.054 759.249C240.298 754.642 239.114 750.3 239.193 745.772C239.327 738.174 243.372 721.255 248.041 715.257C248.102 713.937 247.982 712.486 248.532 711.278C248.818 726.685 248.207 742.898 249.688 758.191L249.094 760.867C243.62 761.209 237.96 760.911 232.468 760.873L232.613 742.369Z"/>
	<path fill="#F2CBA1" d="M249.53 560.086C254.157 560 264.154 558.805 267.919 561.014C267.65 566.382 267.796 572.016 267.14 577.321L266.859 567.024C261.947 566.042 254.474 568.212 249.52 569.193L249.53 560.086Z"/>
	<path fill="#121447" d="M1094.16 180.818L1097.82 180.378C1099.89 176.729 1098.35 108.167 1098.28 98.6989C1098.23 91.6985 1096.97 82.2015 1098.63 75.5076C1099.05 73.7799 1099.42 73.3678 1100.98 72.6014C1102.56 73.6159 1103.36 74.1759 1103.85 76.0843C1105.2 81.3695 1103.93 90.5807 1103.9 96.2597C1103.86 105.956 1102.81 178.599 1104.72 181.487C1104.86 181.624 1105 181.764 1105.14 181.899C1106.53 183.209 1107.19 183.679 1109.09 183.896C1110.12 182.984 1111.12 182.149 1112.25 181.353C1115.3 181.581 1115.2 183.764 1118.11 183.626L1119.92 180.915L1121.23 180.737C1122.97 183.014 1123 183.349 1125.76 183.955C1127.86 182.76 1127.09 180.662 1129.37 180.466C1131.92 182.653 1132.34 185.659 1132.6 188.837C1133.32 197.841 1131.27 250.106 1133.99 253.684L1133.97 255.659C1123.56 255.79 1113.14 255.768 1102.73 255.595L1097.52 255.571C1093.38 256.431 1088.05 255.826 1083.77 255.844C1084.15 255.171 1084.44 254.67 1084.58 253.899C1085.36 249.535 1085.59 238.296 1083.16 234.75L1077.96 234.786C1078.02 234.662 1078.09 234.537 1078.16 234.414C1081.35 228.743 1079.41 213.842 1079.22 206.998C1081.17 206.493 1081.54 206.167 1083.45 206.979C1083.52 206.845 1083.59 206.715 1083.65 206.577C1085.17 202.982 1084.74 199.086 1083.39 195.543C1083.52 195.328 1083.65 195.119 1083.76 194.899C1085.41 191.736 1084.73 184.965 1083.66 181.669C1085.62 180.991 1086.95 180.61 1089.02 181.029C1090.95 181.42 1092.26 181.256 1094.16 180.818Z"/>
	<path fill="#121447" d="M1104.72 181.487C1104.86 181.624 1105 181.764 1105.14 181.899C1106.53 183.209 1107.19 183.679 1109.09 183.896C1110.12 182.984 1111.12 182.149 1112.25 181.353C1115.3 181.581 1115.2 183.764 1118.11 183.626L1119.92 180.915L1121.23 180.737C1122.97 183.014 1123 183.349 1125.76 183.955C1127.86 182.76 1127.09 180.662 1129.37 180.466C1131.92 182.653 1132.34 185.659 1132.6 188.837C1133.32 197.841 1131.27 250.106 1133.99 253.684L1133.97 255.659C1123.56 255.79 1113.14 255.768 1102.73 255.595C1106.82 246.687 1099.92 190.807 1104.72 181.487Z"/>
	<path fill="#4A238A" d="M1094.16 180.818L1097.82 180.378C1099.89 176.729 1098.35 108.167 1098.28 98.6989C1098.23 91.6985 1096.97 82.2015 1098.63 75.5076C1099.05 73.7799 1099.42 73.3678 1100.98 72.6014C1102.56 73.6159 1103.36 74.1759 1103.85 76.0843C1105.2 81.3695 1103.93 90.5807 1103.9 96.2597C1103.86 105.956 1102.81 178.599 1104.72 181.487C1099.92 190.807 1106.82 246.687 1102.73 255.595L1097.52 255.571C1097.59 255.457 1097.65 255.342 1097.72 255.23C1098.21 254.43 1098.57 253.736 1098.77 252.799C1099.95 247.299 1099.42 188.787 1098.34 184.65C1098.03 183.459 1095.25 182.598 1094.16 180.818Z"/>
	<path fill="#664AB0" d="M1079.22 206.998C1081.17 206.493 1081.54 206.167 1083.45 206.979C1085.22 210.953 1085.59 228.181 1084.25 232.598C1084.02 233.352 1083.54 234.07 1083.16 234.75L1077.96 234.786C1078.02 234.662 1078.09 234.537 1078.16 234.414C1081.35 228.743 1079.41 213.842 1079.22 206.998Z"/>
	<path fill="#121447" d="M1133.99 253.684C1138.68 244.474 1130.97 196.757 1136.77 180.991L1137.74 180.623C1139.23 181.765 1140.73 182.799 1142.35 183.759L1144.05 183.318L1145.03 180.674L1147.51 181.084L1149.15 183.526C1150.54 183.692 1151.65 183.949 1152.78 182.9C1153.38 182.345 1153.85 181.476 1154.27 180.782C1157.05 181.444 1156.73 183.52 1159.86 183.788C1161.9 182.5 1161.65 180.843 1164.03 180.643C1165.92 182.407 1166.43 183.23 1169.07 183.542L1171.36 181.234C1173.35 181.262 1174.92 182.461 1176.35 183.889C1176.75 184.299 1177.33 185.006 1177.53 185.552C1178.43 187.962 1177.73 243.566 1177.39 251.513C1177.33 253.131 1177.25 254.82 1176.62 256.327C1171.75 255.526 1165.81 256.031 1160.82 255.981C1156.56 255.019 1150.91 255.651 1146.48 255.606L1145.85 255.607L1133.97 255.659L1133.99 253.684Z"/>
	<path fill="#3B1D6F" d="M1133.99 253.684C1138.68 244.474 1130.97 196.757 1136.77 180.991L1137.74 180.623C1139.23 181.765 1140.73 182.799 1142.35 183.759L1144.05 183.318L1145.03 180.674C1145.35 181.773 1145.66 182.723 1145.73 183.876C1144.63 187.549 1145.23 248.911 1145.85 255.607L1133.97 255.659L1133.99 253.684Z"/>
	<path fill="#1D174F" d="M1145.73 183.876C1148.02 188.914 1147.58 247.905 1146.48 255.606L1145.85 255.607C1145.23 248.911 1144.63 187.549 1145.73 183.876Z"/>
	<path fill="#4A238A" d="M1282.22 477.178L1282.48 477.876L1285.12 477.985L1285.39 477.223L1285.87 477.339C1288.89 478.042 1290.87 477.658 1293.44 479.495C1295.41 483.831 1296.31 521.11 1294.61 525.325C1294.33 526.003 1294.41 525.779 1294.12 526.354C1294.05 526.483 1293.99 526.615 1293.93 526.746C1291.08 526.818 1287.78 526.596 1285.03 527.328C1285.46 530.848 1286.93 543.192 1284.76 545.882C1284.13 546.655 1283.38 547.075 1282.54 547.562L1281.41 546.909L1280.87 543.93C1282.32 539.778 1282.45 530.925 1280.6 526.966C1269.43 527.145 1258.22 527.487 1247.05 527.405C1243.29 527.378 1237.97 527.783 1235.22 524.986C1233.97 520.716 1233.44 486.229 1235.24 482.304C1239.79 472.396 1272.13 481.006 1281.36 477.531C1281.65 477.422 1281.93 477.296 1282.22 477.178Z"/>
	<path fill="#4A238A" d="M1285.39 477.223L1285.87 477.339C1288.89 478.042 1290.87 477.658 1293.44 479.495C1295.41 483.831 1296.31 521.11 1294.61 525.325C1294.33 526.003 1294.41 525.779 1294.12 526.354C1294.05 526.483 1293.99 526.615 1293.93 526.746C1291.08 526.818 1287.78 526.596 1285.03 527.328L1284.81 525.896C1286.76 519.644 1286.09 485.183 1285.12 477.985L1285.39 477.223Z"/>
	<path fill="#42319F" d="M1282.48 477.876L1285.12 477.985C1286.09 485.183 1286.76 519.644 1284.81 525.896C1283.69 526.21 1282.72 525.949 1281.58 525.79C1284.18 518.726 1282.4 487.545 1282.48 477.876Z"/>
	<path fill="#42319F" d="M1281.58 525.79C1282.72 525.949 1283.69 526.21 1284.81 525.896L1285.03 527.328C1285.46 530.848 1286.93 543.192 1284.76 545.882C1284.13 546.655 1283.38 547.075 1282.54 547.562L1281.41 546.909L1280.87 543.93C1281.12 543.644 1281.48 543.266 1281.66 542.908C1283.26 539.761 1282.81 529.087 1281.58 525.79Z"/>
	<path fill="#28A671" d="M1268.03 673.528C1268.11 673.66 1268.19 673.79 1268.26 673.926C1271.21 679.691 1269.18 697.783 1269.46 705.166C1269.73 700.987 1268.92 693.683 1270.4 689.985C1270.55 689.994 1270.7 690.004 1270.85 690.011C1276.71 690.281 1282.72 688.629 1288.51 689.57C1289.75 692.149 1289.08 696.483 1288.88 699.34C1288.94 699.457 1289.01 699.575 1289.07 699.691C1294.21 708.519 1286.84 757.31 1291.47 762.814C1291.56 762.666 1291.67 762.527 1291.74 762.37C1292.89 759.795 1292.67 694.946 1291.16 690.337C1294.33 686.046 1293.01 679.515 1292.78 674.345C1292.81 674.337 1292.84 674.32 1292.87 674.322C1295.48 674.515 1297.4 674.257 1299.97 674.106C1302.03 673.983 1302.64 674.239 1304.2 675.532C1305.8 679.656 1305.05 685.079 1305.03 689.46L1305.69 689.56C1309.82 701.217 1304.33 758.264 1307.72 762.807C1313.14 762.88 1318.59 763.082 1324.01 762.833C1326.76 762.863 1334.02 762.189 1336.22 763.687C1329.95 762.253 1321.34 763.32 1314.8 763.363C1299.22 763.536 1283.64 763.599 1268.05 763.552C1269.39 760.672 1269.01 677.35 1268.03 673.528Z"/>
	<defs>
		<linearGradient id="gradient_19" gradientUnits="userSpaceOnUse" x1="1293.6797" y1="687.18469" x2="1263.934" y2="583.27246">
			<stop offset="0" stop-color="#2EAF74"/>
			<stop offset="1" stop-color="#6DFCBD"/>
		</linearGradient>
	</defs>
	<path fill="url(#gradient_19)" d="M1281.41 546.909L1282.54 547.562C1284.08 553.95 1281.71 576.43 1283.33 579.136C1283.56 579.523 1284.05 579.677 1284.42 579.947L1288.83 580.103C1289.17 580.477 1289.67 580.754 1289.86 581.224C1290.68 583.311 1290.57 685.948 1290.12 694.645C1290.02 696.454 1289.82 697.768 1288.88 699.34C1289.08 696.483 1289.75 692.149 1288.51 689.57C1282.72 688.629 1276.71 690.281 1270.85 690.011C1270.7 690.004 1270.55 689.994 1270.4 689.985C1268.92 693.683 1269.73 700.987 1269.46 705.166C1269.18 697.783 1271.21 679.691 1268.26 673.926C1268.19 673.79 1268.11 673.66 1268.03 673.528C1268.08 673.397 1268.13 673.268 1268.18 673.135C1269.79 667.799 1269.16 593 1268.5 583.362C1268.41 582.066 1268.11 581.082 1267.49 579.954L1279.83 579.848C1283.27 573.989 1280.42 554.811 1281.41 546.909Z"/>
	<path fill="#CC3C53" d="M269.297 618.533L269.306 615.905C271.014 614.272 272.861 614.08 275.186 614.133C278.702 614.213 282.207 614.371 285.727 614.413C285.718 628.795 286.198 643.351 285.653 657.712C286.212 692.133 285.297 726.662 285.204 761.094C279.877 760.925 274.549 760.832 269.22 760.817C270.527 713.453 267.665 665.913 269.297 618.533Z"/>
	<path fill="#EA8B63" d="M269.297 618.533L269.306 615.905C271.014 614.272 272.861 614.08 275.186 614.133C278.702 614.213 282.207 614.371 285.727 614.413C285.718 628.795 286.198 643.351 285.653 657.712C284.915 660.678 284.794 663.763 284.542 666.802C279.754 666.25 275.255 664.947 270.402 665.756C269.979 650.165 270.82 634.026 269.297 618.533Z"/>
	<defs>
		<linearGradient id="gradient_20" gradientUnits="userSpaceOnUse" x1="1278.0909" y1="756.02185" x2="1239.7722" y2="665.09357">
			<stop offset="0" stop-color="#1D9564"/>
			<stop offset="1" stop-color="#41CA8E"/>
		</linearGradient>
	</defs>
	<path fill="url(#gradient_20)" d="M1250.27 657.943L1266.12 657.898C1270.11 665.072 1264 747.288 1267.43 763.538C1261.72 763.716 1255.99 763.598 1250.28 763.576C1250.56 763.082 1251.18 762.283 1251.31 761.763C1251.94 759.324 1251.72 662.332 1251.16 659.969C1250.99 659.218 1250.67 658.592 1250.27 657.943Z"/>
	<defs>
		<linearGradient id="gradient_21" gradientUnits="userSpaceOnUse" x1="244.60275" y1="737.59052" x2="196.39725" y2="700.51062">
			<stop offset="0" stop-color="#DA615A"/>
			<stop offset="1" stop-color="#F5896D"/>
		</linearGradient>
	</defs>
	<path fill="url(#gradient_21)" d="M211.959 677.395C217.682 677.376 224.482 676.61 230.027 677.917C230.284 705.689 229.367 733.509 229.869 761.268C224.098 760.688 217.978 760.992 212.166 760.943L211.959 677.395Z"/>
	<path fill="#3B1D6F" d="M1383.41 596.022L1386.89 595.39C1387.49 595.989 1388.62 597.338 1389.4 597.623C1393.54 599.136 1416.95 597.903 1423.65 597.945C1424.3 598.953 1424.85 600.083 1425.02 601.282C1425.82 606.71 1426.99 621.78 1423.83 626.017C1420.71 627.438 1416.93 627.058 1413.56 627.058C1406.25 627 1398.91 626.837 1391.6 627.054C1386.64 627.201 1381.43 628.021 1376.49 627.479C1376.37 627.288 1376.24 627.102 1376.13 626.906C1373.34 622.155 1374.16 605.317 1375.61 599.899C1377.74 598.137 1380.73 598.255 1383.42 597.537L1383.41 596.022Z"/>
	<path fill="#42319F" d="M1282.22 477.178C1282.8 464.614 1282.4 451.915 1282.36 439.337L1282.22 378.29L1281.88 194.921L1281.88 147.481C1281.87 139.624 1281.44 131.643 1281.81 123.8C1281.9 121.94 1281.71 119.321 1282.99 117.862C1284.6 118.609 1285.16 119.231 1285.79 120.965C1286.82 123.811 1285.65 208.079 1285.63 218.065L1285.47 390.889C1285.46 419.636 1286.02 448.488 1285.39 477.223L1285.12 477.985L1282.48 477.876L1282.22 477.178Z"/>
	<path fill="#28A671" d="M1232.25 687.972L1248.41 688.154C1250.32 692.265 1249.74 755.324 1248.92 763.575C1243.32 763.837 1237.73 763.683 1232.13 763.579C1232.44 763.075 1233.09 762.3 1233.25 761.762C1233.93 759.546 1234.01 692.744 1232.85 689.215C1232.61 688.506 1232.58 688.512 1232.25 687.972Z"/>
	<path fill="#42319F" d="M294.711 328.003C301.351 328.016 320.744 325.652 325.016 329.482C327.441 331.657 327.925 335.266 328.015 338.355C328.178 343.953 329.312 353.651 325.361 357.866C315.925 357.956 303.715 359.403 294.684 356.917C293.11 355.566 292.931 355.08 292.657 352.987C292 347.981 291.84 331.721 294.711 328.003Z"/>
	<path fill="#1C8162" d="M1307.9 699.289L1323.84 699.384C1324.32 700.238 1324.68 700.842 1324.84 701.82C1325.7 706.803 1325.61 757.617 1324.63 761.129C1324.46 761.726 1324.24 762.259 1324.01 762.833C1318.59 763.082 1313.14 762.88 1307.72 762.807C1309.21 759.869 1310.03 706.018 1308.79 701.346C1308.59 700.603 1308.25 699.965 1307.9 699.289Z"/>
	<defs>
		<linearGradient id="gradient_22" gradientUnits="userSpaceOnUse" x1="1297.756" y1="673.77332" x2="1299.494" y2="609.79004">
			<stop offset="0" stop-color="#31B77D"/>
			<stop offset="1" stop-color="#5DE8AC"/>
		</linearGradient>
	</defs>
	<path fill="url(#gradient_22)" d="M1290.76 608.536L1305.18 608.568C1305.42 608.944 1305.48 609.024 1305.69 609.47C1307.34 612.951 1307.53 684.262 1305.69 689.56L1305.03 689.46C1305.05 685.079 1305.8 679.656 1304.2 675.532C1302.64 674.239 1302.03 673.983 1299.97 674.106C1297.4 674.257 1295.48 674.515 1292.87 674.322C1292.84 674.32 1292.81 674.337 1292.78 674.345C1293.01 679.515 1294.33 686.046 1291.16 690.337C1292.84 684.546 1292.83 612.583 1290.76 608.536Z"/>
	<path fill="#CC3C53" d="M287.865 700.735L303.715 700.665C303.521 720.797 303.462 740.931 303.538 761.063C298.298 761.013 293.058 760.926 287.819 760.802L287.865 700.735Z"/>
	<path fill="#121447" d="M294.625 625.653C294.479 625.379 294.323 625.11 294.187 624.831C293.163 622.732 294.149 424.384 295.653 420.78C295.717 420.628 295.792 420.481 295.862 420.331L296.582 420.229C297.87 433.357 297.195 447.071 297.215 460.267L297.297 529.441C297.352 565.644 299.879 603.677 297.874 639.608C298.537 646.367 300.103 690.805 297.43 694.096C294.874 688.112 299.004 655.245 296.434 652.436C295.578 660.749 295.178 688.76 296.663 696.337C296.699 696.521 296.742 696.703 296.782 696.886L295.898 697.21C295.754 697.06 295.588 696.928 295.467 696.758C293.385 693.828 294.183 633.654 294.625 625.653Z"/>
	<path fill="#3B1D6F" d="M294.625 625.653C294.652 625.431 294.683 625.209 294.707 624.986C296.105 612.441 294.879 598.632 294.82 585.96C294.782 577.761 295.615 569.74 295.754 561.606C295.838 556.699 294.808 550.264 295.919 545.575C297.594 547.828 296.812 607.36 296.858 615.729C296.897 622.807 295.732 633.02 297.874 639.608C298.537 646.367 300.103 690.805 297.43 694.096C294.874 688.112 299.004 655.245 296.434 652.436C295.578 660.749 295.178 688.76 296.663 696.337C296.699 696.521 296.742 696.703 296.782 696.886L295.898 697.21C295.754 697.06 295.588 696.928 295.467 696.758C293.385 693.828 294.183 633.654 294.625 625.653Z"/>
	<path fill="#4A238A" d="M118.266 730.045C128.16 729.873 138.056 729.876 147.95 730.051C148.399 735.726 150.251 747.245 146.977 752.174C139.631 752.147 125.473 754.754 119.46 751.135C117.747 750.105 116.696 748.395 116.246 746.472C115.173 741.891 115.746 734.06 118.266 730.045Z"/>
	<path fill="#42319F" d="M1078.39 181.426C1078.45 181.285 1078.51 181.147 1078.57 181.004C1080.7 175.465 1079.42 165.605 1079.4 159.493C1079.36 149.296 1077.38 79.5744 1080.19 74.2792L1081.94 73.83C1083.75 75.1295 1084.14 76.307 1084.47 78.5016C1085.36 84.4508 1084.47 179.347 1083.66 181.669C1084.73 184.965 1085.41 191.736 1083.76 194.899C1083.65 195.119 1083.52 195.328 1083.39 195.543C1084.74 199.086 1085.17 202.982 1083.65 206.577C1083.59 206.715 1083.52 206.845 1083.45 206.979C1081.54 206.167 1081.17 206.493 1079.22 206.998L1078.92 206.267C1080.07 200.273 1080.55 186.99 1078.39 181.426Z"/>
	<path fill="#4A238A" d="M1384.91 165.415C1391.53 164.939 1404.69 163.364 1410.36 166.881C1412.42 168.155 1413.67 170.249 1414.22 172.571C1414.95 175.652 1414.34 179.68 1412.56 182.332C1410.93 184.744 1409.15 185.319 1406.39 185.827C1399.94 186.469 1390.76 187.079 1384.51 185.159C1382.11 184.42 1380.34 182.997 1379.27 180.69C1377.88 177.708 1378.12 173.529 1379.29 170.489C1380.41 167.57 1382.24 166.64 1384.91 165.415Z"/>
	<path fill="#3B1D6F" d="M310.021 438.727C310.551 439.219 310.395 438.968 310.669 439.697C312.165 443.683 311.43 577.047 311.595 593.699C311.818 616.247 313.085 638.77 313.102 661.326C313.107 667.27 314.147 690.895 312.073 695.239C310.849 693.502 311.281 691.153 311.25 689.043C310.173 690.352 310.203 693.791 310.315 695.492C310.334 695.785 310.363 696.076 310.387 696.368C309.578 695.516 308.693 694.568 308.535 693.356C307.745 687.303 308.777 679.453 308.806 673.207L309.428 614.22L310.021 438.727Z"/>
	<path fill="#3B1D6F" d="M1376.44 761.81C1384.92 760.518 1394.2 761.274 1402.74 761.466C1403.42 762.578 1403.8 763.556 1403.93 764.852C1404.38 769.069 1405.18 778.276 1402.59 781.463C1394.43 782.965 1384.12 781.758 1375.74 781.673C1375.9 781.4 1376.08 781.136 1376.22 780.856C1378.04 777.443 1377.55 765.636 1376.44 761.81Z"/>
	<path fill="#3B1D6F" d="M570.914 221.98C571.071 212.379 570.77 202.766 570.99 193.175C571.303 179.563 572.156 166.069 572.179 152.432C572.205 137.19 570.601 112.485 573.244 98.1646L575.336 97.7643L575.134 96.6719C577.432 105.406 576.099 115.979 576.062 125.005C576.013 136.867 574.735 216.766 576.668 221.536L575.851 221.976L571.462 222.125L570.914 221.98Z"/>
	<path fill="#121447" d="M221.25 543.512C221.686 544.344 222.069 545.186 222.187 546.128C223.406 555.808 224.938 662.155 222.413 665.568C220.814 660.424 223.199 654.016 221.435 648.984L221.25 652.472C221.339 655.771 221.805 659.368 220.564 662.493L219.902 661.72C217.704 644.717 220.141 626.643 220.026 609.525C219.962 599.819 217.464 566.514 219.854 558.741C220.093 557.963 220.149 558.522 219.8 557.63L220.928 564.619L221.211 564.656L221.25 543.512Z"/>
	<path fill="#4A238A" d="M150.355 268.315C156.219 267.716 161.504 271.868 162.311 277.707C163.119 283.547 159.158 288.978 153.352 289.992C149.409 290.681 145.404 289.162 142.909 286.03C140.414 282.899 139.827 278.655 141.379 274.963C142.93 271.272 146.373 268.723 150.355 268.315Z"/>
	<path fill="#9444AA" d="M357.786 154.012L379.547 154.028L379.53 171.08L357.706 171.074C357.679 165.387 357.706 159.699 357.786 154.012Z"/>
	<path fill="#3B1D6F" d="M1300.11 370.215C1306.3 369.992 1314.21 368.778 1320.21 370.406C1321.97 370.884 1323.93 371.874 1324.72 373.622C1325.63 375.615 1325.14 378.322 1324.24 380.228C1323.29 382.217 1321.32 382.704 1319.37 383.297C1314.89 383.5 1310.37 383.802 1305.88 383.767C1302.43 383.739 1299.22 383.292 1296.72 380.698C1296.05 379.321 1295.82 378.455 1295.97 376.906C1296.29 373.654 1297.64 372.19 1300.11 370.215Z"/>
	<path fill="#3B1D6F" d="M150.739 753.193C151.869 753.185 153.019 753.178 154.141 753.322C157.054 753.697 159.553 755.121 161.285 757.497C163.038 759.901 163.527 762.646 162.922 765.546C162.054 769.701 159.526 771.726 156.121 773.786C155.289 773.716 154.461 773.645 153.631 773.545C150.429 773.156 147.672 771.644 145.792 768.961C144.291 766.821 143.851 764.223 144.323 761.676C145.111 757.426 147.467 755.577 150.739 753.193Z"/>
	<path fill="#4A238A" d="M1384.58 266.962C1388.06 266.283 1391.63 267.543 1393.92 270.255C1396.2 272.966 1396.84 276.703 1395.58 280.017C1394.32 283.332 1391.36 285.704 1387.86 286.215C1382.61 286.978 1377.71 283.416 1376.82 278.188C1375.93 272.96 1379.38 267.977 1384.58 266.962Z"/>
	<path fill="#3B1D6F" d="M598.364 256.077C600.345 233.465 599.247 208.903 599.143 186.05C599.101 176.957 597.972 166.44 599.78 157.536C600.07 164.368 598.802 173.492 600.408 179.892C601.391 180.361 602.374 180.774 603.391 181.166L603.765 182.202C602.147 183.723 600.951 184.429 600.768 186.798C600.231 193.762 600.796 201.22 600.832 208.226C601.007 224.141 601.037 240.056 600.922 255.971L598.364 256.077Z"/>
	<path fill="#3B1D6F" d="M627.72 255.977C627.811 235.565 628.442 214.905 628.111 194.525C628.058 191.274 625.517 182.844 626.981 180.604L628.577 180.975C631.473 185.829 630.268 246.075 630.088 255.945L627.72 255.977Z"/>
	<path fill="#3B1D6F" d="M819.864 145.784C820.242 146.125 821.166 146.757 821.391 147.162C823.334 150.671 821.444 170.902 821.831 176.362C822.032 179.189 822.386 179.344 824.445 181.13L824.533 182.63C824.143 183.02 823.753 183.412 823.382 183.821C823.236 183.981 823.095 184.146 822.947 184.305C819.937 187.541 821.174 218.616 821.111 225.243C821.053 225.827 820.821 226.184 820.557 226.7C818.356 220.154 819.821 157.147 819.864 145.784Z"/>
	<path fill="#121447" d="M460.148 255.978L460.304 255.123C462.611 241.878 459.382 188.504 463.066 181.915C463.003 206.425 461.931 231.471 463.77 255.911L460.148 255.978Z"/>
	<path fill="#121447" d="M685.078 124.343C686.013 141.863 688.033 167.551 686.013 184.49L684.183 182.218C683.047 175.084 683.219 129.687 685.078 124.343Z"/>
	<path fill="#3B1D6F" d="M887.938 256.12C887.667 233.895 887.77 211.666 888.247 189.444C890.148 211.189 888.912 234.02 888.982 255.897L887.938 256.12Z"/>
	<path fill="#121447" d="M1063.98 125.623C1064.1 125.764 1064.24 125.888 1064.34 126.044C1065.93 128.564 1065.5 173.296 1064.18 178.282C1065.39 170.494 1064.62 135.01 1063.98 125.623Z"/>
</svg>
