<?xml version="1.0" encoding="utf-8" ?>
<svg xmlns="http://www.w3.org/2000/svg" xmlns:xlink="http://www.w3.org/1999/xlink" width="1536" height="1024">
	<path fill="#0C2743" d="M968.376 217.535C968.256 194.675 972.454 176.337 989.123 159.51C1002.01 146.503 1020.67 138.593 1039 138.699C1057.78 138.927 1075.71 146.54 1088.91 159.891C1101.74 173.024 1110.4 192.695 1110.11 211.231C1110.07 213.907 1110.04 215.236 1108.45 217.407C1139.72 217.899 1171.05 217.243 1202.33 217.227C1213.63 217.222 1231.08 215.748 1241.76 218.07C1246.24 219.043 1250.83 221.636 1254.02 224.92C1254.93 225.856 1255.78 226.869 1256.63 227.862C1260.69 232.618 1261.91 240.938 1262.16 246.992C1262.87 264.008 1262.35 281.266 1262.39 298.304L1262.45 398.149L1263.03 633.47L1263.02 794.946C1262.95 807.859 1263.02 820.773 1263.22 833.685C1263.38 841.825 1264.2 850.553 1263.34 858.64C1262.55 866.116 1259.11 872.523 1253.14 877.177C1251.67 878.318 1250.01 879.134 1248.32 879.882C1256.84 879.808 1296.9 880.919 1302.23 879.148C1316.49 879.507 1330.79 879.328 1345.06 879.321C1351.05 879.319 1358.65 880.159 1364.44 878.998C1379.46 879.896 1394.77 879.321 1409.82 879.238C1415.36 879.207 1422.46 878.277 1427.79 879.407C1429.2 879.705 1430.54 880.682 1431.43 881.804C1431.81 882.285 1431.98 882.764 1432.18 883.335C1431.52 885.031 1430.96 885.415 1429.21 886.098C1422.1 888.874 1309.91 887.017 1292.26 887.059L718.45 887.337L198.349 887.261C187.269 887.245 113.667 888.581 110.959 887.145C109.895 886.581 109.541 885.814 108.867 884.857C108.773 882.786 108.867 882.61 110.001 880.863C116.438 877.877 163.261 879.887 173.414 879.916L235.614 880.026C254.569 879.669 273.556 879.98 292.519 879.759C288.302 877.568 284.141 875.182 280.846 871.7C276.477 867.084 274.853 861.666 274.4 855.436C273.759 846.638 274.21 837.596 274.253 828.773L274.377 783.605L274.481 637.654L274.348 381.862C274.354 337.372 273.475 292.67 274.534 248.213C274.744 239.407 276.691 230.73 283.37 224.519C288.577 219.677 295.556 217.669 302.51 217.141C311.908 216.428 321.658 216.909 331.101 216.908L382.446 216.891L556.105 217.179L828.955 217.131C875.31 217.183 922.055 215.934 968.376 217.535Z"/>
	<path fill="#CD5539" d="M968.376 217.535C968.256 194.675 972.454 176.337 989.123 159.51C1002.01 146.503 1020.67 138.593 1039 138.699C1057.78 138.927 1075.71 146.54 1088.91 159.891C1101.74 173.024 1110.4 192.695 1110.11 211.231C1110.07 213.907 1110.04 215.236 1108.45 217.407C1104.38 217.786 1100.1 217.497 1096.02 217.474C1091.59 217.782 1087.06 217.516 1082.62 217.442C1053.08 218.802 1022.98 217.609 993.383 217.594L980.633 217.561L968.376 217.535Z"/>
	<path fill="#F38E42" d="M993.383 217.594C993.198 202.896 996.198 190.344 1006.83 179.573C1015.43 170.864 1027.1 165.277 1039.46 165.329C1052.52 165.384 1063.5 171.331 1072.42 180.564C1080.1 188.663 1084.33 199.431 1084.21 210.592C1084.16 213.224 1084.16 215.224 1082.62 217.442C1053.08 218.802 1022.98 217.609 993.383 217.594Z"/>
	<path fill="#F6662C" d="M980.633 217.561C980.365 198.844 983.862 184.111 997.422 170.329C1008.46 159.113 1023.36 151.838 1039.28 151.898C1054.64 151.956 1070.06 158.289 1080.73 169.37C1091.04 180.072 1098.06 196.595 1097.73 211.604C1097.68 213.93 1097.42 215.571 1096.02 217.474C1091.59 217.782 1087.06 217.516 1082.62 217.442C1084.16 215.224 1084.16 213.224 1084.21 210.592C1084.33 199.431 1080.1 188.663 1072.42 180.564C1063.5 171.331 1052.52 165.384 1039.46 165.329C1027.1 165.277 1015.43 170.864 1006.83 179.573C996.198 190.344 993.198 202.896 993.383 217.594L980.633 217.561Z"/>
	<defs>
		<linearGradient id="gradient_0" gradientUnits="userSpaceOnUse" x1="577.49823" y1="970.24896" x2="957.67145" y2="135.55107">
			<stop offset="0" stop-color="#0F1E3E"/>
			<stop offset="1" stop-color="#064262"/>
		</linearGradient>
	</defs>
	<path fill="url(#gradient_0)" d="M318.809 251.435C333.338 250.339 348.273 251.141 362.843 251.241L431.74 251.34L661.963 251.381L1039.09 251.285L1153.67 251.302C1171.69 251.3 1189.85 250.785 1207.85 251.224C1212.42 251.335 1217.54 252.207 1221.28 255.018C1223.66 256.804 1225.66 259.659 1226 262.63L1226.16 262.996C1226.71 264.238 1227.04 265.347 1227.13 266.705C1227.77 276.728 1227.3 287.066 1227.27 297.115L1227.09 353.41L1227.06 519.122L1227.16 741.054L1227.23 814.477C1227.22 823.521 1227.81 832.747 1227.45 841.759C1227.29 845.548 1226.3 849.568 1223.59 852.362C1219.71 856.357 1214.67 856.001 1209.56 855.94L536.828 855.844L394.819 856.008C381.113 856.064 331.808 858.425 321.915 855.298C317.757 853.984 312.117 850.736 310.189 846.654C308.142 842.319 307.619 836.767 307.528 832.042C307.021 805.527 308.082 778.918 308.085 752.387L308.025 555.837L308.149 418.602L307.669 314.42C307.621 299.579 307.115 284.685 307.343 269.851C307.393 266.616 307.559 263.057 308.787 260.019C310.702 255.284 314.427 253.348 318.809 251.435Z"/>
	<path fill="#0C2743" d="M419.013 796.727C417.503 724.778 418.658 652.593 418.545 580.618L418.533 470.714C418.57 454.868 417.922 438.77 418.531 422.951C418.618 420.678 418.739 418.479 419.617 416.352C419.894 415.68 420.309 415.739 420.953 415.493L421.986 416.479C423.015 424.581 422.288 433.511 422.092 441.7C484.298 441.838 546.501 440.403 608.707 441.19L886.107 441.026L973.902 440.877C991.391 440.81 1009.24 440.11 1026.7 441.135C1030.25 438.879 1036.91 427.431 1037.84 423.186C1037.89 422.991 1037.9 422.79 1037.92 422.592C1041.2 424.947 1048.44 436.658 1049.02 440.686C1049.05 440.847 1049.04 441.011 1049.04 441.174C1049.45 441.88 1050.01 442.648 1050.28 443.41C1053.43 446.585 1089.79 512.367 1089.84 515.768C1089.84 515.909 1089.81 516.05 1089.79 516.191C1092.34 518.293 1099.78 530.386 1100 533.589C1100.01 533.736 1099.98 533.883 1099.97 534.03C1111.85 534.814 1124.02 534.342 1135.94 534.327C1136.95 536.222 1137.04 537.718 1137.09 539.836C1137.57 558.931 1137.16 578.042 1137.17 597.139C1137.37 625.971 1137.42 654.805 1137.31 683.638C1137.29 692.429 1138.7 723.847 1136.85 730.854C1136.66 731.552 1136.34 732.138 1135.95 732.74C1138.4 737.063 1138.1 759.921 1137.06 765.125C1136.91 765.88 1136.56 766.412 1136.17 767.054C1141.33 767.064 1146.65 766.801 1151.76 767.61C1146.55 767.793 1141.35 767.986 1136.13 767.898C1138.08 771.28 1138.2 787.063 1136.86 791.025C1136.73 791.415 1136.4 791.94 1136.21 792.271C1140.63 792.222 1152.93 790.823 1156.37 792.749C1157.72 793.334 1158.28 793.9 1159.24 794.962L1159.15 796.196C1157.06 797.485 1154.49 797.45 1152.1 797.501C1125.61 798.067 1098.91 797.445 1072.4 797.414L891.847 796.876L419.013 796.727Z"/>
	<path fill="#0C2743" d="M608.707 441.19L886.107 441.026L973.902 440.877C991.391 440.81 1009.24 440.11 1026.7 441.135C1026.35 442.176 1026.32 442.325 1025.45 443.073C1024.95 449.578 993.028 496.963 987.828 507.066L986.843 508.259C982.485 514.933 977.535 521.636 973.849 528.69C965.061 541.571 957.054 555.145 948.671 568.308L947.338 570.403L946.439 571.82C938.551 571.544 892.597 570.274 889.572 571.668L888.334 570.301C875.773 553.132 862.673 536.427 849.866 519.451C838.87 535.731 828.917 553.254 819.027 570.24L818.038 571.653L794.815 611.703C791.26 617.917 786.83 624.536 784.094 631.138C776.742 641.988 770.69 654.043 764.369 665.53C753.283 649.834 740.74 635.064 728.635 620.151C717.086 605.923 705.801 591.312 693.499 577.729C680.757 598.03 665.804 617.041 652.566 637.063L651.605 637.887C639.078 636.761 625.637 637.706 613.02 637.69C601.852 637.675 587.652 636.211 576.899 638.145L576.107 637.846C575.175 639.991 574.526 640.288 572.285 641.075C569.664 641.996 566.127 641.431 564.328 643.769C565.819 644.599 567.175 645.038 568.823 645.468L568.993 645.316L568.417 646.235C568.221 646.113 568.031 645.984 567.831 645.87C565.957 644.799 561.924 644.517 559.904 645.197C556.033 646.499 551.967 649.323 547.815 649.189C544.372 646.802 541.119 644.277 537.891 641.609L530.795 636.744C519.814 647.772 509.446 659.462 498.189 670.194C485.852 683.224 473.931 697.646 460.666 709.685L459.411 711.218C452.136 718.8 445.291 726.785 438.235 734.569C432.887 740.47 427.112 746.207 422.291 752.544L422.311 744.4C421.557 708.978 422.235 673.403 422.227 637.964L421.982 637.09C423.284 615.019 422.211 592.319 422.198 570.17L422.275 443.034L422.092 441.7C484.298 441.838 546.501 440.403 608.707 441.19Z"/>
	<path fill="#CD5539" d="M530.129 590.779C544.426 603.139 558.046 617.338 570.247 631.784L575.856 637.101L576.107 637.846C575.175 639.991 574.526 640.288 572.285 641.075C569.664 641.996 566.127 641.431 564.328 643.769C565.819 644.599 567.175 645.038 568.823 645.468L568.993 645.316L568.417 646.235C568.221 646.113 568.031 645.984 567.831 645.87C565.957 644.799 561.924 644.517 559.904 645.197C556.033 646.499 551.967 649.323 547.815 649.189C544.372 646.802 541.119 644.277 537.891 641.609L530.795 636.744C519.814 647.772 509.446 659.462 498.189 670.194C485.852 683.224 473.931 697.646 460.666 709.685L459.411 711.218C452.136 718.8 445.291 726.785 438.235 734.569C432.887 740.47 427.112 746.207 422.291 752.544L422.311 744.4C421.557 708.978 422.235 673.403 422.227 637.964C436.529 637.453 450.914 637.725 465.226 637.711C475.488 637.7 486.069 637.219 496.3 637.859L496.843 637.003C508.397 624.458 518.085 604.576 530.129 590.779Z"/>
	<path fill="#0C2743" d="M422.227 637.964C436.529 637.453 450.914 637.725 465.226 637.711C475.488 637.7 486.069 637.219 496.3 637.859C488.868 649.262 480.057 659.903 473.008 671.503C461.132 688.045 449.819 705.037 438.23 721.787C433.029 729.303 428.04 737.284 422.311 744.4C421.557 708.978 422.235 673.403 422.227 637.964Z"/>
	<path fill="#924240" d="M461.503 706.304C468.153 700.441 491.993 671.164 498.189 670.194C485.852 683.224 473.931 697.646 460.666 709.685L459.411 711.218C452.136 718.8 445.291 726.785 438.235 734.569C432.887 740.47 427.112 746.207 422.291 752.544L422.311 744.4C428.04 737.284 433.029 729.303 438.23 721.787C449.819 705.037 461.132 688.045 473.008 671.503C469.298 682.999 452.735 699.942 451.228 705.853C453.258 707.357 457.065 706.433 459.58 706.197C460.073 705.786 460.863 706.255 461.503 706.304Z"/>
	<path fill="#924240" d="M570.247 631.784L575.856 637.101L576.107 637.846C575.175 639.991 574.526 640.288 572.285 641.075C569.664 641.996 566.127 641.431 564.328 643.769C565.819 644.599 567.175 645.038 568.823 645.468L568.993 645.316L568.417 646.235C568.221 646.113 568.031 645.984 567.831 645.87C565.957 644.799 561.924 644.517 559.904 645.197C556.033 646.499 551.967 649.323 547.815 649.189C544.372 646.802 541.119 644.277 537.891 641.609C538.039 641.629 538.187 641.651 538.336 641.669C541.48 642.039 542.03 643.357 544.38 644.883C546.297 646.128 551.359 643.436 553.504 642.655L552.371 642.316C550.743 642.727 549.364 642.941 547.682 642.951L546.999 641.988C550.258 637.538 561.295 638.443 566.605 636.145C567.911 635.58 569.238 635.08 570.556 634.545L570.247 631.784Z"/>
	<path fill="#29406E" d="M608.707 441.19L886.107 441.026L973.902 440.877C991.391 440.81 1009.24 440.11 1026.7 441.135C1026.35 442.176 1026.32 442.325 1025.45 443.073L1024.55 441.967L608.919 441.981L504.156 442.591C476.879 442.714 449.54 442.317 422.275 443.034L422.092 441.7C484.298 441.838 546.501 440.403 608.707 441.19Z"/>
	<path fill="#29406E" d="M818.038 571.653C807.49 570.88 796.613 571.512 786.039 571.599L736.289 571.691L529.613 571.641L463.882 571.689C450.954 571.703 437.78 572.255 424.9 571.294L426.649 571.001C429.207 571.98 520.254 570.274 531.953 570.221L675.823 570.776C723.553 570.699 771.302 569.685 819.027 570.24L818.038 571.653Z"/>
	<path fill="#29406E" d="M657 507.855C639.155 508.077 426.47 507.339 425.418 506.432C430.596 505.338 436.407 506 441.693 505.966C454.719 505.883 467.714 506.097 480.723 506.108L657 507.063L657 507.855Z"/>
	<path fill="#29406E" d="M657 507.063L882.482 507.033L951.955 506.944C963.835 506.929 975.994 506.311 987.828 507.066L986.843 508.259C942.457 507.553 897.996 507.962 853.603 507.922L657 507.855L657 507.063Z"/>
	<path fill="#29406E" d="M421.982 637.09C433.379 636.977 489.48 634.651 496.843 637.003L496.3 637.859C486.069 637.219 475.488 637.7 465.226 637.711C450.914 637.725 436.529 637.453 422.227 637.964L421.982 637.09Z"/>
	<path fill="#29406E" d="M575.856 637.101C591.267 636.789 606.681 636.593 622.095 636.514C632.144 636.434 642.584 635.869 652.566 637.063L651.605 637.887C639.078 636.761 625.637 637.706 613.02 637.69C601.852 637.675 587.652 636.211 576.899 638.145L576.107 637.846L575.856 637.101Z"/>
	<path fill="#29406E" d="M888.334 570.301C907.975 569.722 927.694 570.019 947.338 570.403L946.439 571.82C938.551 571.544 892.597 570.274 889.572 571.668L888.334 570.301Z"/>
	<defs>
		<linearGradient id="gradient_1" gradientUnits="userSpaceOnUse" x1="870.35175" y1="672.10211" x2="858.22302" y2="493.16037">
			<stop offset="0" stop-color="#276788"/>
			<stop offset="1" stop-color="#BAD1DB"/>
		</linearGradient>
	</defs>
	<path fill="url(#gradient_1)" d="M1037.92 422.592C1041.2 424.947 1048.44 436.658 1049.02 440.686C1049.05 440.847 1049.04 441.011 1049.04 441.174C1049.45 441.88 1050.01 442.648 1050.28 443.41C1053.43 446.585 1089.79 512.367 1089.84 515.768C1089.84 515.909 1089.81 516.05 1089.79 516.191C1092.34 518.293 1099.78 530.386 1100 533.589C1100.01 533.736 1099.98 533.883 1099.97 534.03C1088.5 536.583 1071.91 532.935 1059.47 534.753C1061.16 539.6 1061.4 593.631 1059.4 597.994C1055.21 599.729 1050.34 600.825 1045.86 601.499C1046.64 599.163 1047.49 596.123 1046.21 593.802C1046.07 593.55 1045.91 593.311 1045.76 593.066C1021.46 593.356 997.154 592.991 972.85 593.326L972.736 611.148C968.005 615.882 963.369 620.719 958.126 624.895C954.322 628.647 950.588 632.472 946.929 636.366C946.39 636.938 945.978 637.071 945.247 637.288C941.725 640.31 938.061 643.254 934.746 646.502C928.992 645.659 922.967 646.057 917.189 646.456C916.344 643.423 910.717 639.167 908.342 636.945L907.642 636.901L906.536 635.256C901.619 637.179 818.498 636.894 817.256 636.267C817.124 636.201 817.007 636.108 816.882 636.029L815.668 637.227C810.637 644.736 805.367 652.295 799.742 659.377C793.137 657.508 786.797 658.495 780.795 661.801C771.491 666.927 757.432 681.107 746.357 680.289C743.904 678.542 741.737 676.501 738.816 675.63C731.382 670.194 724.426 663.301 717.576 657.105C707.717 648.188 697.717 639.396 688.133 630.182C676.609 644.985 662.796 658.554 650.006 672.286L649.474 671.765L649.916 669.78C643.77 668.561 636.391 669.086 630.046 668.641C637.679 658.836 644.499 648.099 651.605 637.887L652.566 637.063C665.804 617.041 680.757 598.03 693.499 577.729C705.801 591.312 717.086 605.923 728.635 620.151C740.74 635.064 753.283 649.834 764.369 665.53C770.69 654.043 776.742 641.988 784.094 631.138C786.83 624.536 791.26 617.917 794.815 611.703L818.038 571.653L819.027 570.24C828.917 553.254 838.87 535.731 849.866 519.451C862.673 536.427 875.773 553.132 888.334 570.301L889.572 571.668C892.597 570.274 938.551 571.544 946.439 571.82L947.338 570.403L948.671 568.308C957.054 555.145 965.061 541.571 973.849 528.69C977.535 521.636 982.485 514.933 986.843 508.259L987.828 507.066C993.028 496.963 1024.95 449.578 1025.45 443.073C1026.32 442.325 1026.35 442.176 1026.7 441.135C1030.25 438.879 1036.91 427.431 1037.84 423.186C1037.89 422.991 1037.9 422.79 1037.92 422.592Z"/>
	<path fill="#F8F4F1" d="M1037.92 422.592C1041.2 424.947 1048.44 436.658 1049.02 440.686C1049.05 440.847 1049.04 441.011 1049.04 441.174C1049.45 441.88 1050.01 442.648 1050.28 443.41C1053.43 446.585 1089.79 512.367 1089.84 515.768C1089.84 515.909 1089.81 516.05 1089.79 516.191L1088.87 516.328C1079.85 509.179 1048.54 484.363 1039.74 480.447C1037.81 483.279 977.653 528.47 974.821 528.926C974.236 529.02 974.314 528.965 973.849 528.69C977.535 521.636 982.485 514.933 986.843 508.259L987.828 507.066C993.028 496.963 1024.95 449.578 1025.45 443.073C1026.32 442.325 1026.35 442.176 1026.7 441.135C1030.25 438.879 1036.91 427.431 1037.84 423.186C1037.89 422.991 1037.9 422.79 1037.92 422.592Z"/>
	<path fill="#0C2743" d="M856.633 581.243C869.129 595.585 879.06 613.065 895.04 624.048C898.788 627.856 902.854 631.405 906.536 635.256C901.619 637.179 818.498 636.894 817.256 636.267C817.124 636.201 817.007 636.108 816.882 636.029C820.014 631.6 823.187 627.201 826.4 622.832C837.315 609.973 847.272 595.299 856.633 581.243Z"/>
	<path fill="#397DB3" d="M895.04 624.048L894.589 621.54C901.189 617.394 947.777 619.875 958.415 621.482C958.991 622.87 958.539 623.48 958.126 624.895C954.322 628.647 950.588 632.472 946.929 636.366C946.39 636.938 945.978 637.071 945.247 637.288C941.725 640.31 938.061 643.254 934.746 646.502C928.992 645.659 922.967 646.057 917.189 646.456C916.344 643.423 910.717 639.167 908.342 636.945L907.642 636.901L906.536 635.256C902.854 631.405 898.788 627.856 895.04 624.048Z"/>
	<path fill="#2E6CB3" d="M908.342 636.945C920.634 637.51 932.964 636.657 945.247 637.288C941.725 640.31 938.061 643.254 934.746 646.502C928.992 645.659 922.967 646.057 917.189 646.456C916.344 643.423 910.717 639.167 908.342 636.945Z"/>
	<path fill="#0C2743" d="M889.572 571.668C892.597 570.274 938.551 571.544 946.439 571.82C938.269 585.447 928.63 598.176 921.092 612.206C911.328 598.209 900.135 585.074 889.572 571.668Z"/>
	<path fill="#0C2743" d="M650.006 672.286C662.796 658.554 676.609 644.985 688.133 630.182C697.717 639.396 707.717 648.188 717.576 657.105C724.426 663.301 731.382 670.194 738.816 675.63C741.737 676.501 743.904 678.542 746.357 680.289C757.432 681.107 771.491 666.927 780.795 661.801C786.797 658.495 793.137 657.508 799.742 659.377C805.367 652.295 810.637 644.736 815.668 637.227L816.882 636.029C817.007 636.108 817.124 636.201 817.256 636.267C818.498 636.894 901.619 637.179 906.536 635.256L907.642 636.901L908.342 636.945C910.717 639.167 916.344 643.423 917.189 646.456L887.964 646.535C888.213 667.479 887.557 688.884 888.942 709.766C865.51 710.191 842.191 709.748 818.777 709.812L594.414 709.818C585.491 709.358 576.389 709.731 567.449 709.717C531.984 709.662 496.08 711.625 460.666 709.685C473.931 697.646 485.852 683.224 498.189 670.194C509.446 659.462 519.814 647.772 530.795 636.744L537.891 641.609C541.119 644.277 544.372 646.802 547.815 649.189C551.967 649.323 556.033 646.499 559.904 645.197C561.924 644.517 565.957 644.799 567.831 645.87C568.031 645.984 568.221 646.113 568.417 646.235L568.993 645.316L568.823 645.468C567.175 645.038 565.819 644.599 564.328 643.769C566.127 641.431 569.664 641.996 572.285 641.075C574.526 640.288 575.175 639.991 576.107 637.846L576.899 638.145C587.652 636.211 601.852 637.675 613.02 637.69C625.637 637.706 639.078 636.761 651.605 637.887C644.499 648.099 637.679 658.836 630.046 668.641C636.391 669.086 643.77 668.561 649.916 669.78L649.474 671.765L650.006 672.286Z"/>
	<path fill="#2B4E86" d="M576.899 638.145C587.652 636.211 601.852 637.675 613.02 637.69C625.637 637.706 639.078 636.761 651.605 637.887C644.499 648.099 637.679 658.836 630.046 668.641C636.391 669.086 643.77 668.561 649.916 669.78L649.474 671.765L650.006 672.286C642.178 683.72 631.33 692.86 623.573 704.547C612.818 696.195 601.715 688.357 590.675 680.391C584.335 675.816 577.37 671.227 571.68 665.883C565.346 663.507 553.842 653.58 547.815 649.189C551.967 649.323 556.033 646.499 559.904 645.197C561.924 644.517 565.957 644.799 567.831 645.87C568.031 645.984 568.221 646.113 568.417 646.235L568.993 645.316L568.823 645.468C567.175 645.038 565.819 644.599 564.328 643.769C566.127 641.431 569.664 641.996 572.285 641.075C574.526 640.288 575.175 639.991 576.107 637.846L576.899 638.145Z"/>
	<path fill="#0C2743" d="M576.899 638.145C587.652 636.211 601.852 637.675 613.02 637.69C625.637 637.706 639.078 636.761 651.605 637.887C644.499 648.099 637.679 658.836 630.046 668.641C626.395 673.449 623.188 678.577 619.9 683.636C611.803 675.245 604.253 665.087 595.293 657.7C589.73 650.781 582.555 645.099 576.899 638.145Z"/>
	<defs>
		<linearGradient id="gradient_2" gradientUnits="userSpaceOnUse" x1="566.20166" y1="644.97479" x2="568.79175" y2="652.00208">
			<stop offset="0" stop-color="#7E5461"/>
			<stop offset="1" stop-color="#66566C"/>
		</linearGradient>
	</defs>
	<path fill="url(#gradient_2)" d="M576.107 637.846L576.899 638.145C582.555 645.099 589.73 650.781 595.293 657.7C591.91 657.244 586.708 652.176 584.588 649.329C584.385 649.056 584.191 648.777 583.992 648.502L582.343 649.993C580.636 649.806 579.567 648.884 578.222 647.915C572.004 648.923 564.059 651.458 558.502 654.417C562.252 658.899 567.962 661.122 572.051 665.278L571.68 665.883C565.346 663.507 553.842 653.58 547.815 649.189C551.967 649.323 556.033 646.499 559.904 645.197C561.924 644.517 565.957 644.799 567.831 645.87C568.031 645.984 568.221 646.113 568.417 646.235L568.993 645.316L568.823 645.468C567.175 645.038 565.819 644.599 564.328 643.769C566.127 641.431 569.664 641.996 572.285 641.075C574.526 640.288 575.175 639.991 576.107 637.846Z"/>
	<path fill="#2E6CB3" d="M738.816 675.63C741.737 676.501 743.904 678.542 746.357 680.289C757.432 681.107 771.491 666.927 780.795 661.801C786.797 658.495 793.137 657.508 799.742 659.377C789.081 673.847 778.793 688.7 767.934 703.004C757.867 694.376 748.142 685.055 738.816 675.63Z"/>
	<path fill="#29406E" d="M906.536 635.256L907.642 636.901C893.161 639.458 872.211 637.837 857.142 637.808C843.638 637.781 828.998 638.915 815.668 637.227L816.882 636.029C817.007 636.108 817.124 636.201 817.256 636.267C818.498 636.894 901.619 637.179 906.536 635.256Z"/>
	<defs>
		<linearGradient id="gradient_3" gradientUnits="userSpaceOnUse" x1="1112.2302" y1="796.7984" x2="1084.6672" y2="531.69452">
			<stop offset="0" stop-color="#067DA8"/>
			<stop offset="1" stop-color="#1CE0E5"/>
		</linearGradient>
	</defs>
	<path fill="url(#gradient_3)" d="M1059.47 534.753C1071.91 532.935 1088.5 536.583 1099.97 534.03C1111.85 534.814 1124.02 534.342 1135.94 534.327C1136.95 536.222 1137.04 537.718 1137.09 539.836C1137.57 558.931 1137.16 578.042 1137.17 597.139C1137.37 625.971 1137.42 654.805 1137.31 683.638C1137.29 692.429 1138.7 723.847 1136.85 730.854C1136.66 731.552 1136.34 732.138 1135.95 732.74C1138.4 737.063 1138.1 759.921 1137.06 765.125C1136.91 765.88 1136.56 766.412 1136.17 767.054C1141.33 767.064 1146.65 766.801 1151.76 767.61C1146.55 767.793 1141.35 767.986 1136.13 767.898C1138.08 771.28 1138.2 787.063 1136.86 791.025C1136.73 791.415 1136.4 791.94 1136.21 792.271C1140.63 792.222 1152.93 790.823 1156.37 792.749C1124.43 793.358 1092.27 793.229 1060.32 792.794L1060.16 792.127C1061.54 786.976 1061.9 773.557 1059.61 768.874L1059.62 766.784C1061.74 762.145 1061.45 737.007 1059.92 731.353C1060.14 730.718 1060.17 730.676 1060.32 729.903C1061.22 725.085 1061.85 708.239 1059.08 704.553C1059.72 703.695 1060.19 702.78 1060.34 701.707C1061.59 693.153 1060.59 683.082 1060.59 674.395C1060.58 663.018 1061.49 650.714 1060.35 639.426C1060.22 638.211 1059.77 637.261 1059.07 636.286C1059.45 635.647 1059.83 635.034 1060.07 634.321C1061.5 629.99 1061 601.226 1059.4 597.994C1061.4 593.631 1061.16 539.6 1059.47 534.753Z"/>
	<defs>
		<linearGradient id="gradient_4" gradientUnits="userSpaceOnUse" x1="1005.7436" y1="794.90497" x2="1026.7539" y2="591.45801">
			<stop offset="0" stop-color="#075B70"/>
			<stop offset="1" stop-color="#42DAB7"/>
		</linearGradient>
	</defs>
	<path fill="url(#gradient_4)" d="M972.85 593.326C997.154 592.991 1021.46 593.356 1045.76 593.066C1045.91 593.311 1046.07 593.55 1046.21 593.802C1047.49 596.123 1046.64 599.163 1045.86 601.499C1050.34 600.825 1055.21 599.729 1059.4 597.994C1061 601.226 1061.5 629.99 1060.07 634.321C1059.83 635.034 1059.45 635.647 1059.07 636.286C1059.77 637.261 1060.22 638.211 1060.35 639.426C1061.49 650.714 1060.58 663.018 1060.59 674.395C1060.59 683.082 1061.59 693.153 1060.34 701.707C1060.19 702.78 1059.72 703.695 1059.08 704.553C1061.85 708.239 1061.22 725.085 1060.32 729.903C1060.17 730.676 1060.14 730.718 1059.92 731.353C1061.45 737.007 1061.74 762.145 1059.62 766.784L1059.61 768.874C1061.9 773.557 1061.54 786.976 1060.16 792.127L1060.32 792.794C1051.05 793.42 1041.49 792.919 1032.17 792.921C1014.99 792.99 997.815 792.942 980.637 792.775C978.077 792.465 975.443 792.452 972.866 792.328L961.925 792.37C962.182 764.123 963.619 735.202 962.152 707.009L961.935 706.287C963.54 686.777 962.259 666.266 962.265 646.653C953.092 646.68 943.918 646.63 934.746 646.502C938.061 643.254 941.725 640.31 945.247 637.288C945.978 637.071 946.39 636.938 946.929 636.366C950.588 632.472 954.322 628.647 958.126 624.895C963.369 620.719 968.005 615.882 972.736 611.148L972.85 593.326Z"/>
	<path fill="#29406E" d="M1059.4 597.994C1061 601.226 1061.5 629.99 1060.07 634.321C1059.83 635.034 1059.45 635.647 1059.07 636.286C1059.77 637.261 1060.22 638.211 1060.35 639.426C1061.49 650.714 1060.58 663.018 1060.59 674.395C1060.59 683.082 1061.59 693.153 1060.34 701.707C1060.19 702.78 1059.72 703.695 1059.08 704.553C1054.81 705.071 1050.44 704.718 1046.16 704.554C1047.18 699.55 1046.65 693.313 1046.63 688.195C1046.56 673.686 1044.92 649.368 1046.88 636.062C1044.11 625.31 1049.08 612.256 1045.86 601.499C1050.34 600.825 1055.21 599.729 1059.4 597.994Z"/>
	<path fill="#0C2743" d="M958.126 624.895C963.369 620.719 968.005 615.882 972.736 611.148L973.349 706.204C969.558 706.225 965.72 706.118 961.935 706.287C963.54 686.777 962.259 666.266 962.265 646.653C953.092 646.68 943.918 646.63 934.746 646.502C938.061 643.254 941.725 640.31 945.247 637.288C945.978 637.071 946.39 636.938 946.929 636.366C950.588 632.472 954.322 628.647 958.126 624.895Z"/>
	<path fill="#0C2743" d="M962.152 707.009C965.758 706.294 970.004 706.612 973.699 706.527C972.385 715.647 973.245 725.749 973.215 734.997C973.153 754.101 973.182 773.226 972.866 792.328L961.925 792.37C962.182 764.123 963.619 735.202 962.152 707.009Z"/>
	<path fill="#0C2743" d="M1046.16 704.554C1050.44 704.718 1054.81 705.071 1059.08 704.553C1061.85 708.239 1061.22 725.085 1060.32 729.903C1060.17 730.676 1060.14 730.718 1059.92 731.353C1061.45 737.007 1061.74 762.145 1059.62 766.784C1057.15 768.556 1048.19 767.432 1044.96 767.374C1045.21 766.988 1045.29 766.889 1045.51 766.432C1047.34 762.65 1047.07 721.713 1045.6 717.301C1047.17 713.719 1046.78 708.373 1046.16 704.554Z"/>
	<path fill="#0C2743" d="M1045 768.609C1049.4 768.611 1055.51 767.438 1059.61 768.874C1061.9 773.557 1061.54 786.976 1060.16 792.127C1055.28 792.536 1050.16 792.221 1045.25 792.219C1045.69 791.419 1046.03 790.824 1046.2 789.912C1047.06 785.198 1047.52 772.583 1045 768.609Z"/>
	<path fill="#0A9BBD" d="M917.189 646.456C922.967 646.057 928.992 645.659 934.746 646.502C943.918 646.63 953.092 646.68 962.265 646.653C962.259 666.266 963.54 686.777 961.935 706.287L962.152 707.009C961.255 719.735 960.084 732.829 960.383 745.579C944.014 741.898 921.751 739.77 905.145 741.851C900.611 742.419 895.988 744.001 891.6 745.247L891.076 746.337C889.4 743.847 891.028 731.42 888.742 725.837C889.271 721.081 888.767 715.812 888.724 711.003L888.942 709.766C887.557 688.884 888.213 667.479 887.964 646.535L917.189 646.456Z"/>
	<path fill="#2B4E86" d="M962.152 707.009C963.619 735.202 962.182 764.123 961.925 792.37L972.866 792.328C975.443 792.452 978.077 792.465 980.637 792.775C949.895 793.829 918.815 792.924 888.038 792.851L803.908 792.938C804.196 792.82 804.51 792.753 804.77 792.583C807.26 790.963 806.117 775.831 806.178 772.109L807.471 767.196C819.125 763.655 858.051 765.48 872.017 766.476C872.025 766.649 872.028 766.822 872.041 766.994C872.133 768.226 872.21 770.022 872.969 770.997C873.132 778.057 873.184 785.12 873.126 792.183L888.238 792.175C890.568 787.544 888.521 735.546 888.742 725.837C891.028 731.42 889.4 743.847 891.076 746.337L891.6 745.247C895.988 744.001 900.611 742.419 905.145 741.851C921.751 739.77 944.014 741.898 960.383 745.579C960.084 732.829 961.255 719.735 962.152 707.009Z"/>
	<defs>
		<linearGradient id="gradient_5" gradientUnits="userSpaceOnUse" x1="600.56641" y1="794.21838" x2="603.12671" y2="717.60352">
			<stop offset="0" stop-color="#034073"/>
			<stop offset="1" stop-color="#12B9D1"/>
		</linearGradient>
	</defs>
	<path fill="url(#gradient_5)" d="M540.721 717.533L614.18 717.882L614.225 765.468C614.225 774.277 614.673 783.538 613.879 792.301C618.253 792.256 622.735 792.414 627.09 792.031C634.381 791.865 658.54 790.095 663.872 792.757C650.481 793.381 636.832 792.889 623.403 792.92L540.556 792.936C541.12 782.396 540.68 771.579 540.678 761.012L540.721 717.533Z"/>
	<defs>
		<linearGradient id="gradient_6" gradientUnits="userSpaceOnUse" x1="666.76172" y1="792.71423" x2="665.89337" y2="726.42755">
			<stop offset="0" stop-color="#05396B"/>
			<stop offset="1" stop-color="#0EA6C6"/>
		</linearGradient>
	</defs>
	<path fill="url(#gradient_6)" d="M627.526 726.927L702.189 726.974C703.677 737.538 700.569 786.702 703.556 791.824L707.193 792.332L707.263 792.878L663.872 792.757C658.54 790.095 634.381 791.865 627.09 792.031C627.326 777.996 627.184 763.923 627.162 749.884C627.15 742.288 626.763 734.486 627.526 726.927Z"/>
	<path fill="#F8F4F1" d="M419.013 796.727C417.503 724.778 418.658 652.593 418.545 580.618L418.533 470.714C418.57 454.868 417.922 438.77 418.531 422.951C418.618 420.678 418.739 418.479 419.617 416.352C419.894 415.68 420.309 415.739 420.953 415.493L421.986 416.479C423.015 424.581 422.288 433.511 422.092 441.7L422.275 443.034L422.198 570.17C422.211 592.319 423.284 615.019 421.982 637.09L422.227 637.964C422.235 673.403 421.557 708.978 422.311 744.4L422.291 752.544L422.39 792.945L453.631 792.913L527.576 792.916L540.556 792.936L623.403 792.92C636.832 792.889 650.481 793.381 663.872 792.757L707.263 792.878L786.75 792.968L803.908 792.938L888.038 792.851C918.815 792.924 949.895 793.829 980.637 792.775C997.815 792.942 1014.99 792.99 1032.17 792.921C1041.49 792.919 1051.05 793.42 1060.32 792.794C1092.27 793.229 1124.43 793.358 1156.37 792.749C1157.72 793.334 1158.28 793.9 1159.24 794.962L1159.15 796.196C1157.06 797.485 1154.49 797.45 1152.1 797.501C1125.61 798.067 1098.91 797.445 1072.4 797.414L891.847 796.876L419.013 796.727Z"/>
	<defs>
		<linearGradient id="gradient_7" gradientUnits="userSpaceOnUse" x1="490.12988" y1="792.61865" x2="489.5448" y2="741.52106">
			<stop offset="0" stop-color="#034374"/>
			<stop offset="1" stop-color="#12A3C1"/>
		</linearGradient>
	</defs>
	<path fill="url(#gradient_7)" d="M453.78 741.758L527.256 741.826L527.268 756.192C527.254 768.414 526.957 780.708 527.576 792.916L453.631 792.913C453.643 782.562 453.714 772.21 453.845 761.86C453.674 755.172 453.797 748.45 453.78 741.758Z"/>
	<defs>
		<linearGradient id="gradient_8" gradientUnits="userSpaceOnUse" x1="839.19452" y1="766.01007" x2="839.30377" y2="717.85559">
			<stop offset="0" stop-color="#055482"/>
			<stop offset="1" stop-color="#0EACC0"/>
		</linearGradient>
	</defs>
	<path fill="url(#gradient_8)" d="M806.218 716.461L872.837 716.535L873.009 752.937C873.033 758.829 873.518 765.147 872.969 770.997C872.21 770.022 872.133 768.226 872.041 766.994C872.028 766.822 872.025 766.649 872.017 766.476C858.051 765.48 819.125 763.655 807.471 767.196L806.178 772.109L806.218 716.461Z"/>
	<defs>
		<linearGradient id="gradient_9" gradientUnits="userSpaceOnUse" x1="749.98889" y1="791.4527" x2="750.01984" y2="762.1496">
			<stop offset="0" stop-color="#044476"/>
			<stop offset="1" stop-color="#0B7FA9"/>
		</linearGradient>
	</defs>
	<path fill="url(#gradient_9)" d="M786.712 756.611C786.535 768.729 786.547 780.85 786.75 792.968L707.263 792.878L707.193 792.332C709.527 792.17 712.499 792.476 714.424 791.152C715.509 782.301 714.77 772.787 714.708 763.856C715.798 764.087 783.017 761.086 784.116 760.703C785.904 760.08 786.087 758.22 786.712 756.611Z"/>
	<path fill="#29406E" d="M888.942 709.766L888.724 711.003L575.877 711.029C563.096 711.893 549.714 711.218 536.874 711.236L459.411 711.218L460.666 709.685C496.08 711.625 531.984 709.662 567.449 709.717C576.389 709.731 585.491 709.358 594.414 709.818L818.777 709.812C842.191 709.748 865.51 710.191 888.942 709.766Z"/>
	<path fill="#0A9BBD" d="M714.708 763.856C714.66 761.478 714.476 759.261 715.284 756.984C723.074 755.859 731.816 756.596 739.706 756.579C755.375 756.495 771.044 756.505 786.712 756.611C786.087 758.22 785.904 760.08 784.116 760.703C783.017 761.086 715.798 764.087 714.708 763.856Z"/>
	<path fill="#F8F4F1" d="M727.454 310.628C738.126 310.501 751.871 308.815 762.026 311.882C767.01 313.387 771.489 316.555 773.905 321.244C776.672 326.615 776.746 333.748 774.778 339.387C772.162 346.882 766.816 350.627 759.93 353.897C766.47 363.431 772.944 372.953 779.005 382.803C776.709 382.861 774.369 382.978 772.075 382.869C769.563 382.749 768.937 382.385 767.285 380.64C761.525 371.815 755.944 362.858 750.267 353.979L736.36 354.005L736.286 382.994L727.229 382.986C727.556 358.877 727.395 334.74 727.454 310.628Z"/>
	<path fill="#0C2743" d="M736.377 318.777C744.87 318.664 756.103 317.301 763.231 322.984C765.358 324.68 767.04 326.912 767.221 329.705C767.509 334.182 764.862 339.318 762.049 342.663C754.015 347.65 745.435 346.939 736.313 347.084L736.377 318.777Z"/>
	<path fill="#F8F4F1" d="M807.437 309.995C814.77 309.382 822.036 310.208 828.795 313.36C831.15 314.458 832.41 315.354 833.316 317.828C833.194 319.065 833.101 319.728 832.348 320.761C831.637 321.737 830.594 323.278 829.257 323.409C826.424 323.686 818.836 316.771 810.432 318.15C806.539 318.788 802.953 321.627 800.847 324.926C800.012 326.236 799.61 327.752 799.99 329.287C802.235 338.348 822.03 341.735 829.156 346.66C833.48 349.649 836.897 353.781 837.774 359.089C838.591 364.036 837.13 369.87 834.195 373.919C830.031 379.662 823.377 381.866 816.663 382.858C805.724 382.942 798.418 380.842 790.198 373.466C792.044 371.116 794.078 368.878 796.021 366.604C802.557 370.735 809.372 375.114 817.451 373.483C820.941 372.778 824.912 371.076 826.814 367.92C828.234 365.564 828.489 362.295 827.669 359.693C825.054 351.401 808.634 348.963 801.663 345.375C797.161 343.058 792.965 339.659 791.519 334.588C790.151 329.796 791.138 323.651 793.489 319.297C796.556 313.616 801.608 311.692 807.437 309.995Z"/>
	<path fill="#F8F4F1" d="M853.658 310.496C856.518 310.448 859.309 310.135 861.954 311.387C863.484 318.485 862.415 327.782 862.383 335.09L862.155 382.617C859.54 382.667 856.132 383.052 853.865 381.651C852.955 373.138 853.469 364.307 853.494 355.734L853.658 310.496Z"/>
	<path fill="#2B4E86" d="M1049.04 441.174C1060.25 441.116 1153.77 440.512 1154.96 441.56L1153.81 441.743L1154.76 441.474L1152.97 441.27L1153.52 441.814C1130.51 441.979 1107.51 441.989 1084.5 441.844C1074.39 441.824 1063.37 440.882 1053.38 441.999C1052.23 442.128 1051.16 442.688 1050.28 443.41C1050.01 442.648 1049.45 441.88 1049.04 441.174Z"/>
	<path fill="#6FEDF2" d="M370.859 440.281C375.947 440.147 387.933 438.288 392.288 440.808C393.363 441.43 393.366 442.892 393.661 444.057C388.443 444.045 376.72 445.942 372.336 443.421C371.282 442.814 371.202 441.41 370.859 440.281Z"/>
	<path fill="#D3F6FB" d="M371.75 626.45C377.47 626.455 386.877 624.69 391.873 627.372L392.608 630.095C387.891 630.162 376.985 631.866 373.08 629.516C372.046 628.894 372.044 627.578 371.75 626.45Z"/>
	<path fill="#F8F4F1" d="M372.031 743.689C377.293 743.439 386.015 742.12 390.87 743.906C392.208 744.398 392.261 745.357 392.823 746.592C388.712 747.328 376.987 748.489 373.452 746.491C372.425 745.91 372.378 744.772 372.031 743.689Z"/>
	<path fill="#6FEDF2" d="M371.777 563.651C377.241 563.734 386.9 562.051 391.641 564.528L392.246 566.926C387.341 566.922 376.078 568.706 372.161 565.942L371.777 563.651Z"/>
	<path fill="#D3F6FB" d="M371.889 685.971C377.445 685.466 385.018 684.729 390.401 685.937C391.882 686.269 392.019 687.05 392.822 688.275C387.83 689.516 378.335 689.75 373.532 688.365C372.751 688.14 372.278 686.696 371.889 685.971Z"/>
	<path fill="#F38E42" d="M1329.72 700.871C1331.98 699.607 1333.06 696.955 1334.3 694.766L1335.11 694.574C1338.26 699.009 1349.2 718.017 1349.79 722.513C1352.84 726.588 1358.75 735.649 1359.46 740.545C1361.7 743.309 1365 748.437 1365.5 751.948C1366.43 758.379 1365.82 765.645 1365.81 772.155L1365.78 811.569L1365.75 853.987C1365.75 861.117 1366.31 868.72 1365.59 875.797C1365.46 877.122 1365.18 877.908 1364.44 878.998C1358.65 880.159 1351.05 879.319 1345.06 879.321C1330.79 879.328 1316.49 879.507 1302.23 879.148C1302.52 878.579 1302.69 878.304 1302.87 877.723C1304.62 872.078 1303.51 772.717 1303.02 760.72C1302.92 758.153 1303.03 755.605 1301.85 753.266C1302.57 752.542 1303.24 751.799 1303.85 750.974C1305.25 749.094 1306.68 746.749 1306.36 744.362C1307.03 743.901 1307.53 743.57 1308.04 742.923C1310.21 740.191 1315.67 730.483 1315.17 726.961C1315.83 726.431 1316.38 725.995 1316.89 725.309C1319.72 721.491 1330.05 704.427 1329.72 700.871Z"/>
	<path fill="#F38E42" d="M190.781 739.067L202.503 716.46L202.97 716.368C203.072 716.125 203.204 715.892 203.276 715.638C203.33 715.449 203.322 715.248 203.345 715.053C205.196 715.596 206.313 718.022 207.437 719.592C209.13 722.778 210.823 725.949 212.673 729.047L228.493 757.811C230.505 761.315 232.438 764.911 234.773 768.211C236.865 773.966 235.563 863.99 235.614 880.026L173.414 879.916C172.432 843.606 173.553 807.053 173.43 770.712C177.299 764.179 181.003 757.55 184.539 750.832L190.781 739.067Z"/>
	<path fill="#2E6CB3" d="M814.928 139.514C827.302 141.441 836.973 159.187 847.125 166.074C852.605 169.792 860.627 171.709 866.924 173.872C844.476 174.756 821.765 173.886 799.3 173.602C772.055 173.375 744.808 173.293 717.562 173.358C704.855 173.337 692.161 173.353 679.462 172.81C693.613 168.633 708.22 163.929 722.563 160.609C725.919 162.132 729.169 164.144 732.408 165.914C744.756 160.117 756.325 151.878 768.532 145.626L788.839 156.129C796.987 150.227 805.464 143.033 814.928 139.514Z"/>
	<path fill="#2B4E86" d="M1303.91 486.232L1312.9 486.279C1315.44 491.868 1313.8 524.603 1313.79 532.796C1313.74 557.079 1312.4 722.227 1315.17 726.961C1315.67 730.483 1310.21 740.191 1308.04 742.923C1307.53 743.57 1307.03 743.901 1306.36 744.362C1305.45 742.667 1305.22 740.876 1305.13 738.971C1304.05 715.778 1305.09 692.092 1305.1 668.831L1304.78 534.673C1304.75 524.211 1306.56 494.409 1303.91 486.232Z"/>
	<path fill="#2E6CB3" d="M1153.76 136.156C1164.79 134.44 1160.23 140.135 1169.86 144.672C1170.11 144.523 1170.31 144.292 1170.52 144.09C1173.34 141.384 1174.39 141.045 1178.31 141.115C1181.01 143.415 1178.13 152.701 1179.74 157.07C1181.56 157.335 1183.27 157.245 1185.11 157.144C1186.22 157.887 1186.75 157.993 1186.96 159.423C1187.18 160.835 1186.75 163.923 1185.9 165.016C1185.4 165.664 1182.33 165.389 1181.4 165.389C1179.16 166.938 1177.96 171.347 1176.01 173.657C1178.47 174.925 1180.67 176.99 1181.55 179.637C1181.53 179.772 1181.53 179.91 1181.5 180.042C1180.84 182.663 1178.05 184.394 1176.01 185.902C1174.96 183.887 1172.28 182.039 1170.45 180.777C1166.18 184.205 1164.29 183.549 1162.43 189.431L1162.34 190.741C1160.55 191.462 1159.45 191.394 1157.55 191.143C1155.71 189.352 1155.85 187.685 1155.45 185.247C1153.24 183.309 1149.42 182.399 1146.64 181.412C1146.05 183.573 1143.66 184.953 1141.91 186.078C1140.77 184.2 1139.27 182.645 1137.81 181.019C1138.15 179.129 1139.41 177.784 1140.1 176.034C1140.19 175.797 1140.28 175.559 1140.37 175.321C1140.13 174.072 1139.65 172.837 1139.14 171.677C1138.11 169.392 1136.9 168.429 1134.59 167.575C1133.29 167.097 1132.01 166.584 1130.72 166.088C1130.29 164.356 1130.04 162.359 1130.66 160.633C1131.46 158.435 1135.34 157.674 1137.37 156.731C1138.74 154.78 1139.05 152.976 1139.52 150.692C1139.33 148.17 1136.81 147.117 1136.43 144.483C1137.92 142.702 1139.2 141.284 1141.2 140.029C1142.67 139.111 1145.19 144.184 1147.15 144.659C1149.51 144.297 1152.53 142.555 1153.85 140.476C1154.74 139.064 1154.07 137.674 1153.76 136.156Z"/>
	<path fill="#29406E" d="M1154.01 153.41C1156.78 153.014 1159.52 152.613 1162.23 153.645C1165.23 154.789 1167.74 157.107 1168.85 160.153C1169.69 162.461 1169.51 165.019 1168.34 167.18C1166.66 170.331 1163.67 171.88 1160.43 172.919C1159.47 173.421 1158.75 173.441 1157.69 173.357C1154.78 173.127 1152.32 171.99 1150.5 169.659C1148.75 167.411 1147.86 163.722 1148.31 160.895C1148.86 157.422 1151.44 155.448 1154.01 153.41Z"/>
	<path fill="#2B4E86" d="M1327.94 518.788C1330.86 518.584 1333.78 518.708 1336.7 518.783C1338.56 527.589 1337.42 538.392 1337.37 547.446L1337.2 596.27L1337.31 655.833C1337.39 667.037 1338.12 678.635 1337.38 689.788C1337.21 692.35 1336.97 692.939 1335.11 694.574L1334.3 694.766C1333.06 696.955 1331.98 699.607 1329.72 700.871C1327.27 694.135 1328.52 680.036 1328.42 672.548C1327.95 636.396 1328.31 600.186 1328.43 564.031C1328.47 552.926 1329.96 528.674 1327.94 518.788Z"/>
	<path fill="#2B4E86" d="M184.539 750.832C184.451 750.705 184.36 750.582 184.276 750.453C184.136 750.24 184.01 750.017 183.866 749.806C183.771 749.667 183.658 749.542 183.561 749.405C182.245 747.553 182.154 745.155 182.058 742.956C181.171 722.601 181.672 702.062 181.688 681.684L181.605 600.285C181.691 588.744 181.714 577.203 181.673 565.662C181.624 557.938 180.918 549.615 182.108 541.981C183.199 540.413 183.571 540.545 185.353 540.055C187.346 540.937 187.839 542.174 188.2 544.277C188.913 548.42 188.309 553.203 188.303 557.434L188.355 586.676L188.934 698.803C188.956 705.982 187.781 733.354 190.275 738.194C190.429 738.493 190.612 738.776 190.781 739.067L184.539 750.832Z"/>
	<path fill="#397DB3" d="M217.929 394.868C225.264 393.046 233.012 395.305 238.218 400.785C243.425 406.265 245.287 414.12 243.094 421.355C240.901 428.589 234.992 434.088 227.62 435.753C216.389 438.29 205.21 431.312 202.554 420.106C199.897 408.901 206.755 397.644 217.929 394.868Z"/>
	<path fill="#2B4E86" d="M1351.16 585.286L1359.78 585.175C1360.46 586.441 1360.84 587.563 1360.93 588.998C1361.53 598.261 1361.12 607.779 1361.13 617.073L1360.84 678.402C1360.8 688.817 1362.6 730.812 1360.2 738.75C1360.01 739.38 1359.76 739.959 1359.46 740.545C1358.75 735.649 1352.84 726.588 1349.79 722.513C1351.7 720.045 1351.65 718.494 1351.87 715.413C1353.61 691.204 1352.11 663.007 1352.15 638.396C1352.17 625.696 1353.56 598.868 1351.86 587.819C1351.73 586.96 1351.45 586.103 1351.16 585.286Z"/>
	<path fill="#2B4E86" d="M207.437 719.592C208.789 696.021 204.978 571.175 208.883 561.198L210.128 560.239C212.093 560.616 212.318 560.378 213.497 562.101C214.957 590.601 213.41 619.661 213.524 648.23L213.663 698.541C213.674 708.407 214.574 719.358 212.673 729.047C210.823 725.949 209.13 722.778 207.437 719.592Z"/>
	<path fill="#2B4E86" d="M536.333 150.276C542.047 150.143 547.78 150.188 553.497 150.148L553.383 190.372L536.353 190.543L536.333 150.276Z"/>
	<path fill="#2B4E86" d="M228.493 757.811C228.559 757.66 228.63 757.512 228.691 757.359C232.103 748.872 229.992 689.075 229.899 674.391C229.865 669.094 229.034 662.497 229.833 657.321C230.131 655.39 230.595 654.978 232.065 653.76L234.064 653.862C235.303 655.392 235.584 656.014 235.745 657.999C236.075 662.067 235.531 666.449 235.527 670.556L235.573 702.31C235.605 720.385 236.995 747.809 235.146 765.211C235.048 766.214 234.924 767.215 234.773 768.211C232.438 764.911 230.505 761.315 228.493 757.811Z"/>
	<path fill="#2E6CB3" d="M1317.12 352.209C1323.91 350.69 1369.08 350.463 1374.87 352.473C1376.93 353.186 1377.24 353.878 1378.03 355.716C1377.53 357.773 1377.22 358.179 1375.78 359.754L1374.71 361.071C1365.05 363.129 1329.21 361.306 1317.22 361.154C1317.34 360.913 1317.48 360.677 1317.59 360.432C1318.76 357.895 1317.96 354.708 1317.12 352.209Z"/>
	<path fill="#2E6CB3" d="M1354.07 365.714C1357.85 365.652 1363.08 364.896 1366.5 366.524C1367.95 367.968 1368.65 368.715 1368.99 370.763C1368.61 372.081 1368.55 372.917 1367.52 373.873C1362.39 378.62 1339.16 376.07 1331.81 375.991L1317.22 375.973C1317.54 375.454 1317.76 374.948 1317.94 374.369C1318.92 371.248 1318.59 368.798 1317.17 365.896C1329.47 366.037 1341.77 365.976 1354.07 365.714Z"/>
	<path fill="#2E6CB3" d="M1317.57 337.206C1324.52 336.214 1352.73 335.602 1358.81 337.73C1360.73 338.401 1361.31 339.015 1362.22 340.743C1361.78 342.995 1360.32 344.28 1358.55 345.615L1357.71 346.588C1351.4 348.741 1324.98 347.322 1316.9 347.299C1318.55 344.232 1318.21 340.526 1317.57 337.206Z"/>
	<path fill="#2B4E86" d="M506.371 166.857C512.12 166.902 517.888 167.185 523.636 167.36C523.419 174.617 524.005 181.929 523.43 189.17C517.727 189.441 511.998 189.407 506.289 189.472L506.371 166.857Z"/>
	<path fill="#2B4E86" d="M1317.69 380.717C1325.16 379.956 1348.25 379.08 1354.67 381.305C1356.43 381.918 1356.92 382.401 1357.66 384.039C1356.99 385.949 1356.3 386.646 1354.72 387.881L1354.34 388.881C1350.44 391.531 1323.78 390.168 1317.31 390.153C1318.89 387.538 1318.09 383.581 1317.69 380.717Z"/>
	<path fill="#2B4E86" d="M474.675 177.913L491.947 177.881L491.576 189.987C485.993 190.33 480.359 190.174 474.766 190.162L474.675 177.913Z"/>
	<path fill="#6FEDF2" d="M159.636 481.089C166.502 480.804 200.595 479.38 204.752 481.32C205.486 481.663 205.838 484.31 206.043 485.179C191.664 486.085 175.944 485.981 161.562 485.182C160.018 483.958 160.107 482.964 159.636 481.089Z"/>
	<path fill="#6FEDF2" d="M1253.69 178.917C1261.12 177.73 1279.39 177.638 1286.88 178.545C1288.71 178.766 1289.38 178.807 1290.48 180.249L1289.18 182.385C1284.06 183.16 1259.43 183.753 1255.29 181.817C1254.07 181.248 1254.08 180.137 1253.69 178.917Z"/>
</svg>
