<?xml version="1.0" encoding="utf-8" ?>
<svg xmlns="http://www.w3.org/2000/svg" xmlns:xlink="http://www.w3.org/1999/xlink" width="1437" height="1420">
	<path fill="#FCFCFC" d="M516.415 868.275L516.414 687.545C516.612 635.32 535.404 586.315 572.904 549.387Q574.35 547.963 575.826 546.57Q577.301 545.177 578.807 543.815Q580.312 542.454 581.846 541.126Q583.38 539.797 584.943 538.502Q586.505 537.206 588.095 535.945Q589.685 534.683 591.301 533.456Q592.918 532.229 594.56 531.036Q596.202 529.844 597.87 528.687Q599.537 527.53 601.229 526.409Q602.921 525.289 604.637 524.204Q606.353 523.12 608.091 522.073Q609.83 521.026 611.59 520.016Q613.351 519.006 615.132 518.034Q616.914 517.062 618.716 516.129Q620.519 515.195 622.34 514.301Q624.162 513.406 626.003 512.551Q627.843 511.696 629.702 510.88Q631.56 510.064 633.436 509.289Q635.311 508.513 637.203 507.778Q639.095 507.043 641.002 506.348Q642.909 505.654 644.83 505Q646.752 504.347 648.687 503.734Q650.622 503.122 652.569 502.552Q654.517 501.981 656.477 501.452Q658.436 500.924 660.407 500.437Q662.377 499.951 664.357 499.507Q666.338 499.062 668.327 498.661Q670.317 498.259 672.314 497.9Q674.312 497.541 676.317 497.225Q678.322 496.909 680.333 496.636Q682.344 496.363 684.36 496.133Q686.377 495.904 688.398 495.717C706.997 494.104 726.196 494.994 744.882 494.993L826.695 495.121L826.669 688.867C826.668 722.405 827.457 756.107 826.565 789.621C827.236 815.806 826.599 842.051 826.78 868.246L920.02 868.275C931.076 868.271 946.866 869.869 957.222 868.109C964.202 867.141 971.883 867.623 978.982 867.221Q1000.29 865.951 1021.37 862.609Q1024.93 862.032 1028.48 861.397Q1032.03 860.762 1035.57 860.069Q1039.11 859.375 1042.63 858.623Q1046.16 857.872 1049.67 857.062Q1053.19 856.252 1056.69 855.385Q1060.19 854.518 1063.67 853.593Q1067.16 852.668 1070.63 851.686Q1074.1 850.704 1077.55 849.665Q1081 848.626 1084.44 847.53Q1087.88 846.434 1091.29 845.282Q1094.71 844.13 1098.11 842.922Q1101.5 841.714 1104.88 840.45Q1108.26 839.186 1111.61 837.866Q1114.97 836.547 1118.3 835.172Q1121.64 833.798 1124.95 832.369Q1128.26 830.94 1131.55 829.456Q1134.83 827.973 1138.09 826.435Q1141.36 824.898 1144.59 823.307Q1147.83 821.716 1151.04 820.072Q1154.25 818.429 1157.43 816.732Q1160.61 815.036 1163.77 813.287Q1166.92 811.538 1170.04 809.738Q1173.17 807.938 1176.26 806.086Q1179.36 804.235 1182.42 802.333Q1185.48 800.43 1188.51 798.478Q1191.55 796.526 1194.55 794.524Q1197.54 792.522 1200.51 790.471Q1203.48 788.42 1206.41 786.32Q1209.34 784.22 1212.24 782.073Q1215.13 779.925 1217.99 777.73Q1220.85 775.535 1223.68 773.294Q1226.5 771.052 1229.29 768.764C1243.25 757.295 1256.04 744.899 1268.8 732.138L1268.89 873.79L1268.67 922.466C1268.67 937.172 1269.09 951.95 1267.73 966.61Q1267.51 969.057 1267.23 971.499Q1266.95 973.941 1266.63 976.376Q1266.3 978.811 1265.92 981.239Q1265.54 983.667 1265.1 986.085Q1264.67 988.504 1264.19 990.913Q1263.7 993.322 1263.17 995.721Q1262.63 998.119 1262.04 1000.5Q1261.45 1002.89 1260.81 1005.26Q1260.18 1007.64 1259.49 1009.99Q1258.8 1012.35 1258.06 1014.7Q1257.31 1017.04 1256.52 1019.37Q1255.73 1021.69 1254.89 1024Q1254.05 1026.31 1253.16 1028.6Q1252.27 1030.89 1251.33 1033.16Q1250.4 1035.43 1249.41 1037.68Q1248.42 1039.93 1247.38 1042.16Q1246.35 1044.39 1245.27 1046.6Q1244.18 1048.8 1243.05 1050.98Q1241.92 1053.17 1240.74 1055.32Q1239.57 1057.48 1238.34 1059.61Q1237.12 1061.74 1235.85 1063.85Q1234.58 1065.95 1233.27 1068.03Q1231.96 1070.11 1230.6 1072.15Q1229.24 1074.2 1227.84 1076.22Q1226.44 1078.24 1224.99 1080.23Q1223.55 1082.21 1222.06 1084.17Q1220.57 1086.13 1219.04 1088.05Q1217.51 1089.97 1215.94 1091.86Q1214.37 1093.76 1212.76 1095.61Q1211.15 1097.47 1209.5 1099.29Q1207.85 1101.11 1206.17 1102.9Q1204.48 1104.68 1202.75 1106.43C1159.06 1150.78 1100.78 1174.28 1038.74 1174.68L991.457 1174.7C982.425 1174.69 973.102 1175.14 964.105 1174.49C941.996 1175.54 919.526 1174.69 897.37 1174.68L768.383 1174.73L768.355 756.439L768.356 620.152C768.352 596.911 767.229 573.116 768.574 549.937C710.744 548.825 664.397 545.729 619.207 589.268C591.115 616.335 576.388 652.617 575.768 691.417C574.723 756.839 575.747 822.463 575.746 887.904L575.748 1174.79C557.919 1175.5 539.961 1175.06 522.114 1175.06L429.683 1175.03L190.581 1174.96C152.294 1173.95 113.368 1174.02 75.0763 1174.89C75.0472 1141.83 74.4906 1108.69 75.1226 1075.64C76.1989 1019.36 101.658 965.509 142.093 926.841Q143.723 925.298 145.384 923.789Q147.046 922.28 148.739 920.807Q150.432 919.333 152.155 917.896Q153.879 916.458 155.632 915.057Q157.385 913.656 159.167 912.292Q160.95 910.928 162.76 909.601Q164.571 908.275 166.409 906.987Q168.247 905.699 170.112 904.45Q171.976 903.201 173.867 901.991Q175.757 900.781 177.673 899.611Q179.588 898.442 181.528 897.312Q183.467 896.183 185.43 895.095Q187.393 894.006 189.378 892.959Q191.363 891.912 193.37 890.907Q195.377 889.902 197.405 888.94Q199.432 887.977 201.479 887.057Q203.527 886.137 205.593 885.26Q207.659 884.384 209.743 883.55Q211.827 882.717 213.928 881.928Q216.029 881.139 218.146 880.394Q220.263 879.649 222.396 878.949Q224.528 878.248 226.675 877.593Q228.821 876.937 230.981 876.327Q233.141 875.717 235.314 875.152Q237.486 874.587 239.669 874.068Q241.853 873.549 244.047 873.076Q246.241 872.603 248.445 872.176Q250.648 871.749 252.86 871.369Q255.072 870.988 257.291 870.654Q259.511 870.32 261.737 870.032Q263.963 869.745 266.194 869.504Q268.426 869.264 270.662 869.07C288.057 867.54 305.824 868.263 323.292 868.258C345.574 868.253 367.917 867.944 390.19 868.442C404.497 867.814 419.002 868.334 433.337 868.335L516.415 868.275Z"/>
	<defs>
		<linearGradient id="gradient_0" gradientUnits="userSpaceOnUse" x1="929.05396" y1="1037.7538" x2="1325.2025" y2="889.18512">
			<stop offset="0" stop-color="#D2D1D1"/>
			<stop offset="1" stop-color="white"/>
		</linearGradient>
	</defs>
	<path fill="url(#gradient_0)" d="M1268.8 732.138L1268.89 873.79L1268.67 922.466C1268.67 937.172 1269.09 951.95 1267.73 966.61Q1267.51 969.057 1267.23 971.499Q1266.95 973.941 1266.63 976.376Q1266.3 978.811 1265.92 981.239Q1265.54 983.667 1265.1 986.085Q1264.67 988.504 1264.19 990.913Q1263.7 993.322 1263.17 995.721Q1262.63 998.119 1262.04 1000.5Q1261.45 1002.89 1260.81 1005.26Q1260.18 1007.64 1259.49 1009.99Q1258.8 1012.35 1258.06 1014.7Q1257.31 1017.04 1256.52 1019.37Q1255.73 1021.69 1254.89 1024Q1254.05 1026.31 1253.16 1028.6Q1252.27 1030.89 1251.33 1033.16Q1250.4 1035.43 1249.41 1037.68Q1248.42 1039.93 1247.38 1042.16Q1246.35 1044.39 1245.27 1046.6Q1244.18 1048.8 1243.05 1050.98Q1241.92 1053.17 1240.74 1055.32Q1239.57 1057.48 1238.34 1059.61Q1237.12 1061.74 1235.85 1063.85Q1234.58 1065.95 1233.27 1068.03Q1231.96 1070.11 1230.6 1072.15Q1229.24 1074.2 1227.84 1076.22Q1226.44 1078.24 1224.99 1080.23Q1223.55 1082.21 1222.06 1084.17Q1220.57 1086.13 1219.04 1088.05Q1217.51 1089.97 1215.94 1091.86Q1214.37 1093.76 1212.76 1095.61Q1211.15 1097.47 1209.5 1099.29Q1207.85 1101.11 1206.17 1102.9Q1204.48 1104.68 1202.75 1106.43C1159.06 1150.78 1100.78 1174.28 1038.74 1174.68L991.457 1174.7C982.425 1174.69 973.102 1175.14 964.105 1174.49C969.285 1171.99 993.078 1173.89 1000.61 1173.57C1003.64 1173.35 1006.75 1173.44 1009.79 1173.4Q1010.87 1171.42 1011.9 1169.41C1017.52 1158.45 1013.46 1144.74 1009.76 1133.71C1008.43 1129.74 1009.15 1126.35 1008.73 1122.32C1008.31 1118.22 1007.47 1114.06 1006.62 1110.03C1004.73 1101 1002.5 1091.92 999.959 1083.05C997.925 1075.95 982.889 1029.4 980.025 1026.49C979.113 1025.56 978.021 1024.63 977.278 1023.56C975.528 1021.04 974.436 1016.2 973.184 1013.22C969.616 1004.72 965.926 995.932 961.576 987.812C954.96 975.459 945.643 964.373 938.375 952.375C932.272 942.299 927.827 931.183 921.927 920.954C916.536 911.608 909.851 903.279 904.252 894.171C901.502 889.697 897.498 876.614 894.73 874.066C887 866.949 839.762 870.856 826.869 869.248C826.644 869.22 826.419 869.187 826.194 869.156C824.52 858.688 824.667 799.305 826.565 789.621C827.236 815.806 826.599 842.051 826.78 868.246L920.02 868.275C931.076 868.271 946.866 869.869 957.222 868.109C964.202 867.141 971.883 867.623 978.982 867.221Q1000.29 865.951 1021.37 862.609Q1024.93 862.032 1028.48 861.397Q1032.03 860.762 1035.57 860.069Q1039.11 859.375 1042.63 858.623Q1046.16 857.872 1049.67 857.062Q1053.19 856.252 1056.69 855.385Q1060.19 854.518 1063.67 853.593Q1067.16 852.668 1070.63 851.686Q1074.1 850.704 1077.55 849.665Q1081 848.626 1084.44 847.53Q1087.88 846.434 1091.29 845.282Q1094.71 844.13 1098.11 842.922Q1101.5 841.714 1104.88 840.45Q1108.26 839.186 1111.61 837.866Q1114.97 836.547 1118.3 835.172Q1121.64 833.798 1124.95 832.369Q1128.26 830.94 1131.55 829.456Q1134.83 827.973 1138.09 826.435Q1141.36 824.898 1144.59 823.307Q1147.83 821.716 1151.04 820.072Q1154.25 818.429 1157.43 816.732Q1160.61 815.036 1163.77 813.287Q1166.92 811.538 1170.04 809.738Q1173.17 807.938 1176.26 806.086Q1179.36 804.235 1182.42 802.333Q1185.48 800.43 1188.51 798.478Q1191.55 796.526 1194.55 794.524Q1197.54 792.522 1200.51 790.471Q1203.48 788.42 1206.41 786.32Q1209.34 784.22 1212.24 782.073Q1215.13 779.925 1217.99 777.73Q1220.85 775.535 1223.68 773.294Q1226.5 771.052 1229.29 768.764C1243.25 757.295 1256.04 744.899 1268.8 732.138Z"/>
	<path fill="#C7C6C6" d="M768.574 549.937L768.655 550.731C769.549 560.459 769.035 570.542 769.013 580.32L768.977 629.59L769.287 795.186C769.342 809.143 769.815 823.096 769.831 837.047C769.843 846.78 768.902 857.579 770.281 867.191C770.539 868.994 771.093 869.703 772.333 870.994C774.179 871.648 775.315 871.816 777.218 871.111C783.063 868.948 787.744 869.434 793.98 869.567C810.021 869.911 812.523 870.536 827.954 873.496C831.216 874.122 835.658 873.165 839.031 873.038C842.221 872.917 846.117 872.818 849.212 873.622C854.472 874.989 864.623 882.358 869.132 885.761C873.096 888.753 878.209 889.874 882.107 893.104C890.785 900.295 896.238 909.754 902.57 918.876C906.896 925.108 912.232 930.563 916.458 936.901C921.342 944.225 925.028 952.308 929.764 959.727C937.363 971.632 946.824 982.533 953.903 994.72C958.412 1002.48 961.671 1010.77 965.423 1018.9Q969.013 1026.7 972.312 1034.63Q975.612 1042.56 978.615 1050.6Q981.619 1058.64 984.324 1066.79Q987.028 1074.94 989.43 1083.19Q991.831 1091.43 993.926 1099.76Q996.021 1108.09 997.806 1116.48Q999.592 1124.88 1001.07 1133.34Q1002.54 1141.8 1003.7 1150.31C1004.25 1154.15 1005.1 1159.83 1003.93 1163.55C1002.88 1166.87 1000.75 1170.01 1000.61 1173.57C993.078 1173.89 969.285 1171.99 964.105 1174.49C941.996 1175.54 919.526 1174.69 897.37 1174.68L768.383 1174.73L768.355 756.439L768.356 620.152C768.352 596.911 767.229 573.116 768.574 549.937Z"/>
	<path fill="#C7C6C6" d="M75.0763 1174.89C75.0472 1141.83 74.4906 1108.69 75.1226 1075.64C76.1989 1019.36 101.658 965.509 142.093 926.841Q143.723 925.298 145.384 923.789Q147.046 922.28 148.739 920.807Q150.432 919.333 152.155 917.896Q153.879 916.458 155.632 915.057Q157.385 913.656 159.167 912.292Q160.95 910.928 162.76 909.601Q164.571 908.275 166.409 906.987Q168.247 905.699 170.112 904.45Q171.976 903.201 173.867 901.991Q175.757 900.781 177.673 899.611Q179.588 898.442 181.528 897.312Q183.467 896.183 185.43 895.095Q187.393 894.006 189.378 892.959Q191.363 891.912 193.37 890.907Q195.377 889.902 197.405 888.94Q199.432 887.977 201.479 887.057Q203.527 886.137 205.593 885.26Q207.659 884.384 209.743 883.55Q211.827 882.717 213.928 881.928Q216.029 881.139 218.146 880.394Q220.263 879.649 222.396 878.949Q224.528 878.248 226.675 877.593Q228.821 876.937 230.981 876.327Q233.141 875.717 235.314 875.152Q237.486 874.587 239.669 874.068Q241.853 873.549 244.047 873.076Q246.241 872.603 248.445 872.176Q250.648 871.749 252.86 871.369Q255.072 870.988 257.291 870.654Q259.511 870.32 261.737 870.032Q263.963 869.745 266.194 869.504Q268.426 869.264 270.662 869.07C288.057 867.54 305.824 868.263 323.292 868.258C345.574 868.253 367.917 867.944 390.19 868.442C389.945 868.51 389.701 868.584 389.455 868.646C376.255 871.993 343.414 868.625 327.408 869.728C327.66 869.841 327.915 869.949 328.165 870.067C329.579 870.734 330.724 871.355 331.286 872.91C332.65 876.682 331.603 884.533 331.552 888.895C331.194 919.243 328.789 936.545 318.617 964.805C315.853 972.483 313.583 979.327 309.456 986.427C307.273 990.182 301.9 997.127 302.989 1001.7C303.397 1003.41 304.655 1004.83 305.773 1006.12L305.251 1006.75C278.947 980.344 257.558 950.621 238.469 918.775Q231.893 907.925 225.8 896.797C223.206 892.078 220.8 886.579 217.568 882.312C213.835 882.863 209.446 885.432 205.902 886.868C175.125 899.336 141.995 923.901 121.992 950.579C96.24 984.924 79.65 1024.76 76.7102 1067.88C75.8207 1080.93 76.4359 1094.37 76.4377 1107.47L76.481 1173.4C94.7019 1173.38 179.871 1171.51 190.581 1174.96C152.294 1173.95 113.368 1174.02 75.0763 1174.89Z"/>
	<defs>
		<linearGradient id="gradient_1" gradientUnits="userSpaceOnUse" x1="1123.7401" y1="858.59613" x2="1098.9683" y2="397.32056">
			<stop offset="0" stop-color="#C3C3C2"/>
			<stop offset="1" stop-color="#F9F8F8"/>
		</linearGradient>
	</defs>
	<path fill="url(#gradient_1)" d="M964.267 408.455C974.768 358.543 1001.79 311.552 1037.85 275.764Q1039.91 273.719 1042.01 271.718Q1044.1 269.717 1046.25 267.762Q1048.39 265.807 1050.57 263.898Q1052.75 261.989 1054.98 260.128Q1057.2 258.267 1059.47 256.454Q1061.73 254.641 1064.03 252.877Q1066.33 251.113 1068.67 249.399Q1071.01 247.684 1073.39 246.021Q1075.76 244.358 1078.17 242.746Q1080.58 241.134 1083.03 239.574Q1085.47 238.014 1087.95 236.508Q1090.43 235.001 1092.94 233.548Q1095.45 232.095 1097.99 230.696Q1100.53 229.297 1103.1 227.953Q1105.67 226.609 1108.27 225.321Q1110.87 224.032 1113.49 222.8Q1116.12 221.568 1118.77 220.393Q1121.42 219.217 1124.1 218.099Q1126.77 216.981 1129.47 215.92Q1132.17 214.86 1134.89 213.858Q1137.61 212.856 1140.36 211.912Q1143.1 210.969 1145.86 210.085Q1148.62 209.201 1151.4 208.376Q1154.18 207.552 1156.98 206.787Q1159.78 206.022 1162.59 205.318Q1165.41 204.614 1168.23 203.97Q1171.06 203.326 1173.9 202.744Q1176.74 202.161 1179.6 201.64Q1182.45 201.118 1185.31 200.658Q1188.18 200.198 1191.05 199.8Q1193.92 199.401 1196.8 199.065Q1199.68 198.728 1202.57 198.454C1224.44 196.386 1246.74 197.254 1268.7 197.315C1268.61 241.829 1269.93 287.931 1268.53 332.255C1269.1 362.884 1268.7 393.574 1268.7 424.213L1268.71 626.808C1268.72 661.897 1268.21 697.062 1268.8 732.138C1256.04 744.899 1243.25 757.295 1229.29 768.764Q1226.5 771.052 1223.68 773.294Q1220.85 775.535 1217.99 777.73Q1215.13 779.925 1212.24 782.073Q1209.34 784.22 1206.41 786.32Q1203.48 788.42 1200.51 790.471Q1197.54 792.522 1194.55 794.524Q1191.55 796.526 1188.51 798.478Q1185.48 800.43 1182.42 802.333Q1179.36 804.235 1176.26 806.086Q1173.17 807.938 1170.04 809.738Q1166.92 811.538 1163.77 813.287Q1160.61 815.036 1157.43 816.732Q1154.25 818.429 1151.04 820.072Q1147.83 821.716 1144.59 823.307Q1141.36 824.898 1138.09 826.435Q1134.83 827.973 1131.55 829.456Q1128.26 830.94 1124.95 832.369Q1121.64 833.798 1118.3 835.172Q1114.97 836.547 1111.61 837.866Q1108.26 839.186 1104.88 840.45Q1101.5 841.714 1098.11 842.922Q1094.71 844.13 1091.29 845.282Q1087.88 846.434 1084.44 847.53Q1081 848.626 1077.55 849.665Q1074.1 850.704 1070.63 851.686Q1067.16 852.668 1063.67 853.593Q1060.19 854.518 1056.69 855.385Q1053.19 856.253 1049.67 857.062Q1046.16 857.872 1042.63 858.623Q1039.11 859.375 1035.57 860.069Q1032.03 860.762 1028.48 861.397Q1024.93 862.032 1021.37 862.609Q1000.29 865.951 978.982 867.221C971.883 867.623 964.202 867.141 957.222 868.109L957.398 602.313L957.447 511.488C957.494 476.531 956.887 442.822 964.267 408.455Z"/>
	<path fill="#FCFCFC" d="M964.267 408.455C974.768 358.543 1001.79 311.552 1037.85 275.764Q1039.91 273.719 1042.01 271.718Q1044.1 269.717 1046.25 267.762Q1048.39 265.807 1050.57 263.898Q1052.75 261.989 1054.98 260.128Q1057.2 258.267 1059.47 256.454Q1061.73 254.641 1064.03 252.877Q1066.33 251.113 1068.67 249.399Q1071.01 247.684 1073.39 246.021Q1075.76 244.358 1078.17 242.746Q1080.58 241.134 1083.03 239.574Q1085.47 238.014 1087.95 236.508Q1090.43 235.001 1092.94 233.548Q1095.45 232.095 1097.99 230.696Q1100.53 229.297 1103.1 227.953Q1105.67 226.609 1108.27 225.321Q1110.87 224.032 1113.49 222.8Q1116.12 221.568 1118.77 220.393Q1121.42 219.217 1124.1 218.099Q1126.77 216.981 1129.47 215.92Q1132.17 214.86 1134.89 213.858Q1137.61 212.856 1140.36 211.912Q1143.1 210.969 1145.86 210.085Q1148.62 209.201 1151.4 208.376Q1154.18 207.552 1156.98 206.787Q1159.78 206.022 1162.59 205.318Q1165.41 204.614 1168.23 203.97Q1171.06 203.326 1173.9 202.744Q1176.74 202.161 1179.6 201.64Q1182.45 201.118 1185.31 200.658Q1188.18 200.198 1191.05 199.8Q1193.92 199.401 1196.8 199.065Q1199.68 198.728 1202.57 198.454C1224.44 196.386 1246.74 197.254 1268.7 197.315C1268.61 241.829 1269.93 287.931 1268.53 332.255C1268.39 332.64 1268.25 333.02 1268.12 333.408C1266.45 338.455 1267.76 428.353 1267.72 442.447C1267.71 447.353 1268.8 458.383 1267.51 462.695L1267.05 461.989L1267.58 464.456C1263.01 454.734 1273.4 429.269 1260.91 424.393C1257.78 423.17 1252.69 422.683 1249.57 424.159C1248.77 424.537 1248.07 425.07 1247.36 425.589C1247.04 425.586 1246.72 425.578 1246.39 425.579C1234.59 425.605 1219.88 431.399 1208.09 434.034C1200.27 435.783 1192.34 437.022 1184.57 439.007C1174.55 441.568 1164.51 444.995 1154.34 446.803C1126.26 451.793 1097.44 446.859 1070.75 437.713C1063.42 435.199 1056.33 431.865 1049.09 429.065C1043.43 426.873 1037.49 423.975 1031.72 422.248C1024.36 420.048 1015.59 420.623 1009.08 416.291C1008.83 414.867 1008.69 413.502 1008.62 412.058L1008.06 411.745L1007.71 414.28C1000.65 413.024 974.676 402.282 970.627 405.363C968.542 406.949 968.062 409.171 965.531 410.087C964.426 408.929 964.796 409.508 964.267 408.455Z"/>
	<path fill="#FCFCFC" d="M687.371 21.4376C842.204 13.2128 1007.28 62.9783 1130.31 157.746C1109.53 163.105 1090.41 171.592 1071.71 181.983Q1063.6 176.53 1055.32 171.33Q1047.04 166.13 1038.61 161.188Q1030.18 156.246 1021.59 151.566Q1013.01 146.887 1004.29 142.475Q995.564 138.063 986.709 133.922Q977.854 129.782 968.876 125.916Q959.897 122.051 950.804 118.465Q941.71 114.879 932.51 111.575Q925.203 108.957 917.835 106.518Q910.467 104.079 903.041 101.821Q895.615 99.5633 888.136 97.4878Q880.657 95.4122 873.13 93.5201Q865.602 91.6281 858.031 89.9207Q850.459 88.2133 842.848 86.6916Q835.237 85.1699 827.591 83.8348Q819.946 82.4997 812.269 81.352Q804.593 80.2042 796.891 79.2446Q789.189 78.285 781.466 77.514Q773.742 76.743 766.003 76.1612Q758.263 75.5793 750.511 75.1869Q742.76 74.7945 735.001 74.5919Q727.242 74.3892 719.48 74.3763Q711.719 74.3634 703.959 74.5404Q696.199 74.7173 688.446 75.084Q680.693 75.4507 672.952 76.0069Q665.21 76.5631 657.484 77.3084Q649.759 78.0538 642.053 78.9879Q634.348 79.922 626.668 81.0442Q618.988 82.1665 611.338 83.4762Q603.688 84.786 596.072 86.2824Q588.456 87.7789 580.878 89.4611Q573.301 91.1434 565.768 93.0105Q558.234 94.8776 550.748 96.9283Q543.263 98.9791 535.829 101.212Q528.396 103.446 521.02 105.86Q513.643 108.274 506.328 110.868Q499.013 113.462 491.763 116.235Q484.513 119.007 477.334 121.955Q470.154 124.904 463.049 128.027Q455.944 131.151 448.917 134.447Q441.771 137.809 434.711 141.346Q427.65 144.884 420.679 148.594Q413.709 152.305 406.832 156.187Q399.955 160.069 393.176 164.12Q386.397 168.171 379.72 172.388Q373.044 176.605 366.473 180.986Q359.903 185.367 353.443 189.909Q346.983 194.451 340.637 199.151Q334.291 203.851 328.064 208.707Q321.836 213.563 315.73 218.571Q309.625 223.579 303.645 228.736Q297.665 233.894 291.814 239.198Q285.964 244.501 280.246 249.948Q274.528 255.395 268.947 260.981Q263.366 266.568 257.924 272.29Q252.483 278.013 247.184 283.868Q241.886 289.724 236.734 295.708Q231.582 301.693 226.58 307.803Q221.577 313.913 216.728 320.145Q211.878 326.377 207.183 332.727Q202.489 339.077 197.953 345.541Q193.418 352.005 189.043 358.579Q184.668 365.153 180.458 371.833Q176.247 378.513 172.203 385.296Q168.158 392.078 164.283 398.958Q160.408 405.838 156.704 412.812Q153 419.786 149.469 426.849Q145.938 433.913 142.584 441.061Q139.229 448.209 136.052 455.439Q132.875 462.668 129.877 469.973Q126.88 477.279 124.064 484.656Q121.249 492.033 118.616 499.478C110.334 521.277 104.172 544.523 98.923 567.227Q97.7931 572.134 96.741 577.059Q95.6888 581.983 94.7147 586.924Q93.7406 591.864 92.8447 596.819Q91.9488 601.775 91.1314 606.743Q90.314 611.712 89.5752 616.693Q88.8365 621.674 88.1766 626.666Q87.5168 631.659 86.9359 636.661Q86.3551 641.663 85.8534 646.673Q85.3518 651.684 84.9294 656.701Q84.507 661.719 84.1641 666.743Q83.8211 671.767 83.5577 676.796Q83.2942 681.824 83.1103 686.856Q82.9264 691.889 82.8221 696.923Q82.7178 701.958 82.6931 706.993Q82.6684 712.029 82.7233 717.064Q82.7783 722.099 82.9129 727.133Q83.0474 732.167 83.2616 737.198Q83.4758 742.229 83.7695 747.256Q84.0632 752.283 84.4363 757.305Q84.8095 762.326 85.262 767.341Q85.7145 772.357 86.2463 777.364Q86.7781 782.371 87.389 787.37Q87.9999 792.368 88.6897 797.356Q89.3796 802.344 90.1483 807.321Q90.9169 812.297 91.7642 817.261Q92.6115 822.225 93.5371 827.175Q94.4628 832.124 95.4666 837.059Q96.4704 841.993 97.5521 846.911Q98.6339 851.829 99.7932 856.73Q100.953 861.63 102.189 866.511Q103.426 871.393 104.74 876.254Q106.054 881.115 107.444 885.955C91.0347 900.086 77.7089 915.179 66.2648 933.57C61.5751 921.776 58.1172 909.115 54.6807 896.906Q49.5143 878.545 45.3735 859.926Q41.2328 841.307 38.1305 822.487Q35.0282 803.667 32.9738 784.704Q30.9195 765.741 29.9194 746.693Q29.4641 738.211 29.2184 729.721Q28.9728 721.231 28.937 712.737Q28.9012 704.243 29.0752 695.751Q29.2493 687.259 29.6332 678.774Q30.017 670.289 30.6104 661.816Q31.2037 653.343 32.0063 644.887Q32.8088 636.431 33.82 627.997Q34.8312 619.564 36.0505 611.158Q37.2697 602.752 38.6963 594.379Q40.1229 586.006 41.7559 577.67Q43.3889 569.335 45.2274 561.042Q47.0659 552.75 49.1087 544.505Q51.1515 536.26 53.3974 528.069Q55.6432 519.877 58.0908 511.744Q60.5384 503.61 63.1862 495.539Q65.834 487.469 68.6804 479.466Q71.5268 471.463 74.5701 463.533Q77.6133 455.603 80.8516 447.75Q84.0898 439.898 87.5211 432.128Q90.9524 424.357 94.5746 416.675Q98.1968 408.992 102.008 401.4Q105.819 393.809 109.816 386.315Q113.813 378.82 117.995 371.426Q122.176 364.033 126.539 356.744Q130.901 349.456 135.443 342.278Q139.984 335.1 144.702 328.036Q149.419 320.972 154.309 314.027Q159.2 307.082 164.26 300.26Q169.321 293.438 174.549 286.743Q179.776 280.048 185.168 273.484Q190.559 266.92 196.111 260.491Q201.663 254.063 207.372 247.773Q213.076 241.454 218.935 235.279Q224.794 229.103 230.804 223.074Q236.814 217.046 242.971 211.167Q249.129 205.289 255.429 199.565Q261.73 193.841 268.171 188.274Q274.611 182.708 281.187 177.302Q287.763 171.897 294.471 166.655Q301.179 161.414 308.015 156.34Q314.851 151.267 321.81 146.363Q328.768 141.46 335.847 136.731Q342.925 132.001 350.118 127.449Q357.311 122.896 364.614 118.522Q371.918 114.148 379.327 109.957Q386.737 105.765 394.247 101.758Q401.758 97.7508 409.366 93.9307Q416.974 90.1106 424.674 86.4799Q432.374 82.8491 440.161 79.41Q447.948 75.9708 455.818 72.7253Q463.688 69.4798 471.636 66.4299Q479.584 63.3801 487.605 60.5277Q495.626 57.6754 503.715 55.0223Q511.804 52.3693 519.956 49.9171Q528.109 47.4649 536.319 45.2151Q544.53 42.9654 552.793 40.9193Q561.057 38.8733 569.368 37.0324Q577.68 35.1914 586.035 33.5565Q594.389 31.9217 602.782 30.494Q611.174 29.0663 619.6 27.8467Q628.025 26.627 636.478 25.6161Q644.931 24.6052 653.406 23.8037Q661.881 23.0022 670.374 22.4106Q678.866 21.819 687.371 21.4376Z"/>
	<path fill="#FCFCFC" d="M262.105 1226.36L347.9 1226.43Q355.067 1231.59 362.374 1236.55Q369.682 1241.5 377.125 1246.26Q384.568 1251.01 392.14 1255.55Q399.713 1260.09 407.409 1264.42Q415.105 1268.75 422.918 1272.87Q430.732 1276.98 438.657 1280.88Q446.582 1284.77 454.613 1288.45Q462.644 1292.12 470.773 1295.57Q478.903 1299.01 487.126 1302.23Q495.349 1305.45 503.658 1308.44Q511.967 1311.43 520.357 1314.19Q528.746 1316.95 537.209 1319.47Q545.671 1321.99 554.201 1324.28Q562.731 1326.56 571.321 1328.61Q579.911 1330.66 588.555 1332.47Q597.199 1334.27 605.89 1335.84Q612.381 1337.01 618.894 1338.05Q625.408 1339.08 631.941 1339.98Q638.475 1340.88 645.026 1341.64Q651.577 1342.4 658.142 1343.03Q664.708 1343.66 671.285 1344.15Q677.862 1344.64 684.447 1344.99Q691.033 1345.34 697.625 1345.56Q704.217 1345.78 710.811 1345.85Q717.406 1345.93 724.001 1345.87Q730.596 1345.82 737.188 1345.62Q743.781 1345.42 750.368 1345.09Q756.954 1344.76 763.533 1344.29Q770.111 1343.82 776.679 1343.21Q783.246 1342.61 789.799 1341.86Q796.353 1341.12 802.889 1340.24Q809.425 1339.36 815.942 1338.35Q822.459 1337.33 828.953 1336.18Q835.447 1335.03 841.916 1333.75Q848.384 1332.46 854.825 1331.04Q861.266 1329.62 867.675 1328.07Q874.085 1326.52 880.461 1324.83Q886.837 1323.14 893.177 1321.33Q899.516 1319.51 905.817 1317.56Q912.117 1315.61 918.375 1313.53Q924.634 1311.45 930.848 1309.24Q937.061 1307.03 943.228 1304.69Q949.394 1302.35 955.511 1299.88Q961.627 1297.41 967.691 1294.82Q973.754 1292.23 979.763 1289.51Q985.771 1286.79 991.722 1283.95Q997.673 1281.1 1003.56 1278.14Q1009.45 1275.17 1015.28 1272.08C1040.95 1258.48 1065.18 1242.96 1088.98 1226.36L1174.5 1226.42C1165.02 1235.45 1154.58 1243.62 1144.36 1251.78Q1139.2 1255.86 1133.97 1259.83Q1128.73 1263.81 1123.42 1267.68Q1118.12 1271.56 1112.73 1275.33Q1107.35 1279.11 1101.9 1282.77Q1096.44 1286.44 1090.92 1290.01Q1085.39 1293.57 1079.8 1297.03Q1074.21 1300.48 1068.56 1303.83Q1062.9 1307.18 1057.18 1310.42Q1051.46 1313.66 1045.68 1316.79Q1039.9 1319.92 1034.06 1322.94Q1028.22 1325.96 1022.32 1328.86Q1016.43 1331.77 1010.48 1334.56Q1004.52 1337.35 998.521 1340.03Q992.518 1342.71 986.464 1345.27Q980.41 1347.83 974.309 1350.28Q968.207 1352.73 962.059 1355.05Q955.912 1357.38 949.721 1359.59Q943.53 1361.8 937.297 1363.89Q931.065 1365.98 924.794 1367.95Q918.522 1369.92 912.214 1371.77Q905.907 1373.62 899.564 1375.35Q893.222 1377.08 886.848 1378.69Q880.474 1380.29 874.07 1381.78Q867.666 1383.26 861.235 1384.62Q854.804 1385.99 848.348 1387.22Q841.892 1388.46 835.413 1389.57Q828.934 1390.69 822.435 1391.68Q815.937 1392.67 809.42 1393.53Q802.904 1394.39 796.372 1395.13Q789.84 1395.87 783.295 1396.49Q776.75 1397.1 770.194 1397.59Q763.639 1398.08 757.075 1398.44Q748.687 1398.92 740.29 1399.19Q731.892 1399.47 723.491 1399.54Q715.089 1399.61 706.689 1399.47Q698.288 1399.33 689.893 1398.99Q681.498 1398.65 673.115 1398.1Q664.731 1397.55 656.363 1396.8Q647.995 1396.05 639.648 1395.09Q631.301 1394.13 622.979 1392.97Q614.658 1391.81 606.368 1390.44Q598.078 1389.08 589.824 1387.51Q581.57 1385.94 573.356 1384.18Q565.143 1382.41 556.975 1380.44Q548.808 1378.47 540.691 1376.3Q532.574 1374.13 524.513 1371.76Q516.451 1369.39 508.45 1366.83Q500.449 1364.27 492.514 1361.51Q484.578 1358.75 476.712 1355.8Q468.846 1352.84 461.055 1349.7Q453.264 1346.56 445.552 1343.22Q437.84 1339.89 430.212 1336.37Q422.584 1332.84 415.045 1329.14Q407.506 1325.43 400.059 1321.54Q392.613 1317.65 385.264 1313.58Q377.915 1309.5 370.668 1305.25Q363.422 1301 356.281 1296.58Q349.14 1292.15 342.11 1287.55Q335.08 1282.95 328.165 1278.18Q321.249 1273.41 314.453 1268.47Q307.657 1263.53 300.983 1258.42Q294.31 1253.32 287.763 1248.05Q281.217 1242.79 274.801 1237.36Q268.386 1231.94 262.105 1226.36Z"/>
	<path fill="#FCFCFC" d="M1324.81 383.514C1333.64 392.193 1361.56 461.302 1367.03 476.456Q1369.89 484.396 1372.56 492.405Q1375.23 500.413 1377.7 508.484Q1380.17 516.555 1382.44 524.684Q1384.71 532.813 1386.78 540.996Q1388.86 549.178 1390.73 557.409Q1392.6 565.64 1394.27 573.914Q1395.94 582.188 1397.4 590.501Q1398.87 598.814 1400.13 607.16Q1401.39 615.506 1402.44 623.88Q1403.5 632.254 1404.35 640.652Q1405.2 649.05 1405.84 657.466Q1406.49 665.882 1406.93 674.311Q1407.36 682.741 1407.59 691.178Q1407.83 699.616 1407.85 708.057Q1407.87 716.497 1407.69 724.936Q1407.51 733.375 1407.12 741.806Q1406.73 750.238 1406.13 758.658Q1405.54 767.077 1404.73 775.48Q1403.93 783.882 1402.92 792.262Q1401.92 800.643 1400.7 808.996Q1399.49 817.349 1398.07 825.67Q1396.65 833.99 1395.03 842.274Q1393.41 850.558 1391.59 858.799Q1389.76 867.04 1387.74 875.235Q1385.71 883.429 1383.49 891.571Q1381.26 899.713 1378.84 907.798Q1376.41 915.883 1373.79 923.906Q1371.17 931.93 1368.35 939.886Q1365.53 947.843 1362.52 955.728Q1359.51 963.613 1356.31 971.422Q1353.1 979.231 1349.71 986.959Q1346.31 994.687 1342.73 1002.33C1337.4 1014.44 1331 1026.17 1324.82 1037.86C1324.39 1008.11 1324.8 978.308 1324.78 948.558C1324.77 933.28 1323.23 916.617 1325.21 901.537C1326.12 894.638 1328.69 887.689 1330.61 881.011Q1334.94 866.026 1338.4 850.819Q1342.24 833.782 1345.14 816.562Q1348.05 799.342 1350.02 781.989Q1351.98 764.637 1353.01 747.203Q1354.03 729.77 1354.1 712.306Q1354.15 694.667 1353.22 677.051Q1352.3 659.436 1350.42 641.897Q1348.53 624.359 1345.68 606.951Q1342.84 589.542 1339.04 572.316Q1335.6 556.873 1331.27 541.657C1329.25 534.606 1326.39 527.061 1325.39 519.842C1323.33 505.05 1324.71 488.489 1324.72 473.516L1324.81 383.514Z"/>
</svg>
