<?xml version="1.0" encoding="utf-8" ?>
<svg xmlns="http://www.w3.org/2000/svg" xmlns:xlink="http://www.w3.org/1999/xlink" width="1437" height="1420">
	<defs>
		<linearGradient id="gradient_0" gradientUnits="userSpaceOnUse" x1="173.07878" y1="755.02179" x2="808.39648" y2="911.40179">
			<stop offset="0" stop-color="#0DC780"/>
			<stop offset="1" stop-color="#1AFD75"/>
		</linearGradient>
	</defs>
	<path fill="url(#gradient_0)" d="M517.099 868.193L517.065 677.971C517.446 629.857 539.445 582.041 573.748 548.638Q575.165 547.246 576.611 545.885Q578.057 544.523 579.532 543.193Q581.007 541.862 582.509 540.563Q584.012 539.264 585.541 537.997Q587.071 536.73 588.627 535.495Q590.183 534.261 591.765 533.06Q593.347 531.859 594.954 530.691Q596.561 529.524 598.193 528.391Q599.824 527.258 601.479 526.16Q603.134 525.061 604.812 523.998Q606.49 522.935 608.19 521.908Q609.89 520.881 611.612 519.89Q613.333 518.899 615.075 517.944Q616.817 516.99 618.579 516.073Q620.341 515.155 622.122 514.276Q623.902 513.396 625.701 512.554Q627.5 511.712 629.317 510.908Q631.133 510.105 632.967 509.34Q634.8 508.575 636.649 507.849Q638.498 507.123 640.361 506.436Q642.225 505.749 644.103 505.102Q645.981 504.455 647.872 503.848Q649.764 503.241 651.667 502.674Q653.571 502.107 655.486 501.58Q657.402 501.054 659.328 500.568Q661.254 500.082 663.189 499.637Q665.125 499.192 667.07 498.788Q669.015 498.384 670.968 498.021Q672.921 497.658 674.881 497.337Q676.841 497.016 678.808 496.736Q680.774 496.456 682.746 496.218Q684.718 495.98 686.695 495.784C705.393 494.076 724.835 495.066 743.63 495.066L827.833 495.217C827.924 500.725 827.804 506.25 827.778 511.759L827.847 707.758L827.775 868.252L957.241 868.352C970.737 868.136 984.244 867.013 997.7 865.997L996.638 866.924C981.974 869.203 967.434 869.636 952.629 869.552C944.98 869.509 936.772 868.716 929.186 869.653C925.834 870.067 921.145 870.972 918.881 873.727C918.204 874.55 918.309 875.11 918.477 876.102C919.431 881.74 923.338 888.301 925.387 893.811C930.269 906.939 934.266 920.451 939.871 933.301C946.546 948.604 955.264 963.221 962.814 978.116C967.663 987.685 971.499 997.75 976.431 1007.28C978.574 1011.41 978.488 1017.72 981.683 1020.95C982.491 1021.76 983.097 1022.41 983.65 1023.44C986.41 1028.61 1007.97 1100.56 1007.92 1105.24C1007.92 1105.88 1007.84 1106.5 1007.8 1107.13C1007.56 1111.16 1007.99 1113.44 1010.11 1116.84L1011.19 1115.43C1013.12 1124.11 1011.45 1132.6 1014.65 1141.28C1018.2 1150.92 1015.29 1163.28 1019.55 1171.51C1019.85 1172.1 1020.11 1172.71 1020.38 1173.32C1015.13 1174.94 1007.49 1173.89 1001.91 1173.84C992.051 1173.75 937.707 1172.18 932.712 1174.52C927.461 1175.26 921.384 1174.8 916.07 1174.79L883.722 1174.68L769.093 1174.85L769.039 794.224C769.03 727.547 768.273 660.767 769.152 594.103Q768.902 571.901 769.082 549.699C748.846 549.77 727.756 548.429 707.646 550.129Q706.072 550.25 704.501 550.405Q702.93 550.56 701.363 550.751Q699.795 550.941 698.233 551.165Q696.67 551.39 695.113 551.649Q693.556 551.909 692.004 552.202Q690.453 552.496 688.909 552.824Q687.365 553.152 685.828 553.514Q684.292 553.876 682.763 554.272Q681.235 554.668 679.716 555.097Q678.197 555.527 676.688 555.99Q675.178 556.453 673.68 556.949Q672.181 557.446 670.694 557.975Q669.207 558.505 667.731 559.067Q666.256 559.629 664.794 560.224Q663.331 560.818 661.883 561.445Q660.434 562.072 658.999 562.731Q657.564 563.39 656.145 564.08Q654.725 564.77 653.321 565.492Q651.917 566.214 650.529 566.966Q649.141 567.719 647.771 568.502Q646.4 569.285 645.047 570.098Q643.694 570.911 642.359 571.754Q641.024 572.597 639.708 573.469Q638.392 574.341 637.096 575.242Q635.8 576.143 634.524 577.073Q633.248 578.003 631.993 578.96Q630.738 579.918 629.504 580.903Q628.271 581.888 627.059 582.9Q625.848 583.912 624.659 584.951Q623.47 585.99 622.305 587.054Q621.139 588.119 619.998 589.209Q618.856 590.3 617.739 591.415Q615.928 593.229 614.184 595.107Q612.44 596.985 610.765 598.924Q609.09 600.864 607.486 602.864Q605.883 604.863 604.353 606.919Q602.823 608.975 601.368 611.085Q599.913 613.195 598.536 615.357Q597.159 617.518 595.861 619.728Q594.562 621.938 593.345 624.193Q592.128 626.448 590.993 628.746Q589.858 631.044 588.808 633.382Q587.757 635.719 586.791 638.093Q585.826 640.467 584.947 642.875Q584.068 645.282 583.277 647.72Q582.486 650.157 581.784 652.622Q581.081 655.087 580.469 657.575Q579.856 660.064 579.334 662.573C575.259 682.513 576.759 703.688 576.766 723.967L576.802 802.463L576.813 1107.65C576.813 1112.91 577.274 1173.48 576.786 1174.16C576.534 1174.52 576.117 1174.71 575.783 1174.99L573.625 1174.86C533.431 1175.37 493.19 1174.96 452.988 1174.96L75.2008 1174.81L75.1992 1111.77C75.1998 1080.93 75.2207 1051.88 83.9244 1021.95Q84.9379 1018.54 86.0628 1015.16Q87.1878 1011.78 88.4229 1008.44Q89.6581 1005.1 91.0022 1001.8Q92.3463 998.508 93.7979 995.256Q95.2495 992.005 96.8069 988.803Q98.3644 985.601 100.026 982.452Q101.688 979.303 103.452 976.211Q105.216 973.118 107.081 970.084Q108.945 967.051 110.909 964.081Q112.872 961.11 114.932 958.206Q116.991 955.301 119.145 952.466Q121.299 949.631 123.545 946.867Q125.79 944.104 128.126 941.416Q130.461 938.728 132.883 936.119Q135.305 933.509 137.811 930.98Q140.318 928.451 142.906 926.005C148.401 920.822 154.779 914.699 161.393 911.077C175.072 897.904 200.674 887.102 218.472 880.204C234.178 875.129 250.015 871.164 266.466 869.387C293.233 866.495 325.301 868.205 352.548 868.195L509.8 868.178L517.099 868.193Z"/>
	<defs>
		<linearGradient id="gradient_1" gradientUnits="userSpaceOnUse" x1="978.07135" y1="954.74005" x2="731.05444" y2="1110.7065">
			<stop offset="0" stop-color="#09BA83"/>
			<stop offset="1" stop-color="#00898C"/>
		</linearGradient>
	</defs>
	<path fill="url(#gradient_1)" d="M769.152 594.103C770.498 615.997 769.681 638.406 769.829 660.358Q770.636 715.871 770.547 771.39L770.42 817.931C770.427 825.432 769.811 833.554 770.708 840.984C772.446 840.795 772.498 839.814 774.34 840.034C782.125 840.961 789.99 839.594 797.824 839.734C804.91 839.86 812.569 841.913 819.55 841.003C819.593 839.11 819.655 837.434 820.152 835.587C822.071 835.93 822.299 836.979 823.636 838.25C824.454 839.028 825.259 839.79 826.058 840.595L826.131 840.86C826.679 829.244 826.271 817.458 826.261 805.826L826.21 740.921L827.096 595.491L827.082 540.101C827.075 531.3 826.032 520.951 827.658 512.336C827.694 512.143 827.738 511.952 827.778 511.759L827.847 707.758L827.775 868.252L957.241 868.352C970.737 868.136 984.244 867.013 997.7 865.997L996.638 866.924C981.974 869.203 967.434 869.636 952.629 869.552C944.98 869.509 936.772 868.716 929.186 869.653C925.834 870.067 921.145 870.972 918.881 873.727C918.204 874.55 918.309 875.11 918.477 876.102C919.431 881.74 923.338 888.301 925.387 893.811C930.269 906.939 934.266 920.451 939.871 933.301C946.546 948.604 955.264 963.221 962.814 978.116C967.663 987.685 971.499 997.75 976.431 1007.28C978.574 1011.41 978.488 1017.72 981.683 1020.95C982.491 1021.76 983.097 1022.41 983.65 1023.44C986.41 1028.61 1007.97 1100.56 1007.92 1105.24C1007.92 1105.88 1007.84 1106.5 1007.8 1107.13C1007.56 1111.16 1007.99 1113.44 1010.11 1116.84L1011.19 1115.43C1013.12 1124.11 1011.45 1132.6 1014.65 1141.28C1018.2 1150.92 1015.29 1163.28 1019.55 1171.51C1019.85 1172.1 1020.11 1172.71 1020.38 1173.32C1015.13 1174.94 1007.49 1173.89 1001.91 1173.84C992.051 1173.75 937.707 1172.18 932.712 1174.52C927.461 1175.26 921.384 1174.8 916.07 1174.79L883.722 1174.68L769.093 1174.85L769.039 794.224C769.03 727.547 768.273 660.767 769.152 594.103Z"/>
	<path fill="#06AA86" d="M75.2008 1174.81L75.1992 1111.77C75.1998 1080.93 75.2207 1051.88 83.9244 1021.95Q84.9379 1018.54 86.0628 1015.16Q87.1878 1011.78 88.4229 1008.44Q89.6581 1005.1 91.0022 1001.8Q92.3463 998.508 93.7979 995.256Q95.2495 992.005 96.8069 988.803Q98.3644 985.601 100.026 982.452Q101.688 979.303 103.452 976.211Q105.216 973.118 107.081 970.084Q108.945 967.051 110.909 964.081Q112.872 961.11 114.932 958.206Q116.991 955.301 119.145 952.466Q121.299 949.631 123.545 946.867Q125.79 944.104 128.126 941.416Q130.461 938.728 132.883 936.119Q135.305 933.509 137.811 930.98Q140.318 928.451 142.906 926.005C148.401 920.822 154.779 914.699 161.393 911.077L161.482 912.295C155.269 917.566 128.318 939.982 126.649 946.259C127.888 947.995 129.201 949.127 129.253 951.29C127.749 952.671 126.382 953.442 125.81 955.445C128.171 959.222 131.666 961.981 133.86 965.88C147.626 990.353 157.468 1027.88 163.31 1055.32C164.632 1061.53 166.315 1067.78 166.971 1074.1C169.215 1095.69 168.452 1116.6 166.656 1138.17C165.839 1147.98 165.965 1159.53 163.647 1168.99C163.241 1170.64 161.826 1169.77 161.62 1171.82L162.548 1171.97L162.1 1170.71L162.943 1171.93L162.899 1170.33L163.302 1172.47C173.12 1174.25 184.032 1173.52 194.02 1173.69Q223.055 1174.44 252.1 1174.28L474.946 1174.51L540.492 1174.48C551.285 1174.47 562.975 1173.47 573.625 1174.86C533.431 1175.37 493.19 1174.96 452.988 1174.96L75.2008 1174.81Z"/>
	<defs>
		<linearGradient id="gradient_2" gradientUnits="userSpaceOnUse" x1="360.10138" y1="951.48706" x2="212.03206" y2="919.24579">
			<stop offset="0" stop-color="#08B284"/>
			<stop offset="1" stop-color="#008C8B"/>
		</linearGradient>
	</defs>
	<path fill="url(#gradient_2)" d="M218.472 880.204C234.178 875.129 250.015 871.164 266.466 869.387C293.233 866.495 325.301 868.205 352.548 868.195L509.8 868.178C500.154 870.17 487.871 868.828 477.929 868.836L414.999 869.437C402.087 869.437 388.114 868.318 375.362 869.617C373.051 869.852 370.201 870.04 368.61 871.93C367.12 891.412 366.476 910.5 364.124 929.955C363.422 935.757 363.05 941.83 361.779 947.535C360.183 954.701 357.062 962.011 354.697 968.976Q349.228 985.192 344.169 1001.54C342.576 1006.54 340.299 1011.34 338.759 1016.3C337.924 1019 338.125 1023.06 336.79 1025.38C336.002 1026.75 334.464 1028.21 333.301 1029.27C332.572 1029.93 332.901 1029.81 332.08 1029.81L331.558 1031.15L331.307 1030.27C339.024 1036.9 372.979 1067.06 379.361 1068.49L379.555 1069.53C377.848 1068.88 376.486 1067.91 374.932 1066.97C369.039 1063.44 364.035 1058.39 358.574 1054.23C308.594 1016.09 269.167 968.513 237.323 914.562C230.873 903.635 223.327 891.936 218.472 880.204Z"/>
	<defs>
		<linearGradient id="gradient_3" gradientUnits="userSpaceOnUse" x1="1121.6589" y1="267.60446" x2="1105.8334" y2="870.32111">
			<stop offset="0" stop-color="#18FD77"/>
			<stop offset="1" stop-color="#039C88"/>
		</linearGradient>
	</defs>
	<path fill="url(#gradient_3)" d="M1026.72 287.537C1072.37 233.926 1141.12 203.01 1210.56 197.598C1229.74 196.103 1249.69 197.157 1268.96 197.197C1269.29 235.357 1269.81 273.804 1269.02 311.951L1269.07 748.854L1269.12 891.42L1269.14 934.198C1269.15 942.355 1269.66 950.979 1268.76 959.082C1268.16 950.865 1268.64 942.295 1268.63 934.046L1268.59 885.749L1268.45 732.95C1196.23 808.376 1101.07 853.887 997.7 865.997C984.244 867.013 970.737 868.136 957.241 868.352L958.033 579.426L958.019 500.457C957.992 470.178 957.357 440.452 963.889 410.693C973.787 365.595 995.31 321.568 1026.72 287.537Z"/>
	<path fill="#14EC7A" d="M1026.72 287.537C1072.37 233.926 1141.12 203.01 1210.56 197.598C1229.74 196.103 1249.69 197.157 1268.96 197.197C1269.29 235.357 1269.81 273.804 1269.02 311.951C1268.05 314.981 1268.17 318.212 1268.15 321.369C1268.12 326.453 1264.53 331.823 1265.04 335.86C1265.24 337.434 1265.09 338.147 1264.76 339.715C1262.43 337.764 1260.91 334.004 1259.4 331.337C1254.94 331.702 1251.15 329.424 1246.75 329.2C1233.02 328.501 1219.06 328.586 1205.36 327.431C1200.3 327.004 1195.5 324.808 1190.48 324.152C1185.66 323.524 1180.76 323.508 1175.93 322.934C1165.27 321.668 1154.39 319.229 1144.08 316.208C1131.3 312.464 1115.37 307.624 1103.2 302.58C1097.2 300.091 1091.41 296.699 1085.51 293.91C1079.98 291.294 1074.22 288.931 1068.94 285.831C1065.67 283.91 1062.94 281.331 1059.78 279.321C1056.91 277.499 1053.44 276.921 1051.75 273.821C1052.47 270.837 1055.79 269.337 1057.43 266.709L1057.1 266.341C1041.93 267.449 1036.22 285.602 1026.72 287.537Z"/>
	<defs>
		<linearGradient id="gradient_4" gradientUnits="userSpaceOnUse" x1="1329.8593" y1="885.04669" x2="963.0899" y2="1038.4414">
			<stop offset="0" stop-color="#22FF6F" stop-opacity="0.98823529"/>
			<stop offset="1" stop-color="#08B984"/>
		</linearGradient>
	</defs>
	<path fill="url(#gradient_4)" d="M997.7 865.997C1101.07 853.887 1196.23 808.376 1268.45 732.95L1268.59 885.749L1268.63 934.046C1268.64 942.295 1268.16 950.865 1268.76 959.082C1267.61 1013.37 1239.94 1071.63 1201.03 1109.08Q1199.26 1110.82 1197.45 1112.52Q1195.64 1114.22 1193.8 1115.88Q1191.96 1117.54 1190.08 1119.16Q1188.2 1120.78 1186.28 1122.36Q1184.37 1123.93 1182.42 1125.47Q1180.47 1127.01 1178.49 1128.5Q1176.51 1130 1174.5 1131.45Q1172.48 1132.9 1170.44 1134.31Q1168.4 1135.71 1166.32 1137.08Q1164.25 1138.44 1162.15 1139.76Q1160.05 1141.07 1157.91 1142.35Q1155.78 1143.62 1153.63 1144.84Q1151.47 1146.07 1149.29 1147.25Q1147.1 1148.43 1144.89 1149.56Q1142.68 1150.69 1140.45 1151.77Q1138.22 1152.85 1135.96 1153.89Q1133.71 1154.92 1131.43 1155.91Q1129.15 1156.89 1126.86 1157.83Q1124.56 1158.76 1122.24 1159.65Q1119.92 1160.53 1117.58 1161.37Q1115.25 1162.2 1112.89 1162.99Q1110.54 1163.77 1108.17 1164.51Q1105.8 1165.24 1103.41 1165.92Q1101.03 1166.6 1098.63 1167.23Q1096.23 1167.86 1093.81 1168.44Q1091.4 1169.02 1088.98 1169.55Q1086.55 1170.07 1084.12 1170.54Q1081.68 1171.02 1079.23 1171.44Q1076.79 1171.86 1074.33 1172.23Q1071.88 1172.59 1069.42 1172.91Q1066.96 1173.22 1064.49 1173.48Q1062.02 1173.74 1059.55 1173.95C1041.96 1175.45 1023.96 1174.72 1006.3 1174.72C983.032 1174.71 959.678 1175.11 936.416 1174.66Q934.563 1174.61 932.712 1174.52C937.707 1172.18 992.051 1173.75 1001.91 1173.84C1007.49 1173.89 1015.13 1174.94 1020.38 1173.32C1020.11 1172.71 1019.85 1172.1 1019.55 1171.51C1015.29 1163.28 1018.2 1150.92 1014.65 1141.28C1011.45 1132.6 1013.12 1124.11 1011.19 1115.43L1010.11 1116.84C1007.99 1113.44 1007.56 1111.16 1007.8 1107.13C1007.84 1106.5 1007.92 1105.88 1007.92 1105.24C1007.97 1100.56 986.41 1028.61 983.65 1023.44C983.097 1022.41 982.491 1021.76 981.683 1020.95C978.488 1017.72 978.574 1011.41 976.431 1007.28C971.499 997.75 967.663 987.685 962.814 978.116C955.264 963.221 946.546 948.604 939.871 933.301C934.266 920.451 930.269 906.939 925.387 893.811C923.338 888.301 919.431 881.74 918.477 876.102C918.309 875.11 918.204 874.55 918.881 873.727C921.145 870.972 925.834 870.067 929.186 869.653C936.772 868.716 944.98 869.509 952.629 869.552C967.434 869.636 981.974 869.203 996.638 866.924L997.7 865.997Z"/>
	<path fill="#06AA86" d="M1021.62 1149.61C1023.31 1153.76 1022.35 1161.02 1022.32 1165.61C1020.62 1161.46 1021.58 1154.2 1021.62 1149.61Z"/>
	<path fill="#14EC7A" d="M705.184 20.6569C705.4 20.6179 705.614 20.5699 705.831 20.5397C714.313 19.3619 723.974 20.2674 732.561 20.5968C745.859 21.1068 759.073 21.6513 772.343 22.6623Q778.4 23.1238 784.447 23.6927Q790.494 24.2616 796.531 24.9378Q802.567 25.6139 808.59 26.3971Q814.614 27.1803 820.622 28.0703Q826.631 28.9603 832.622 29.9567Q838.614 30.9532 844.587 32.0559Q850.56 33.1586 856.513 34.3671Q862.466 35.5756 868.396 36.8896Q874.326 38.2036 880.232 39.6226Q886.138 41.0416 892.018 42.5653Q897.898 44.0889 903.75 45.7167Q909.601 47.3444 915.423 49.0758Q921.245 50.8072 927.036 52.6416Q932.826 54.476 938.583 56.4129Q944.34 58.3498 950.062 60.3886Q955.783 62.4274 961.468 64.5674Q967.152 66.7075 972.798 68.948Q978.443 71.1886 984.048 73.5291Q989.653 75.8695 995.216 78.309Q1000.78 80.7486 1006.3 83.2865Q1011.82 85.8244 1017.29 88.4598Q1022.76 91.0952 1028.18 93.8274Q1033.61 96.5595 1038.98 99.3876Q1044.36 102.216 1049.68 105.139Q1055.01 108.062 1060.28 111.079Q1065.55 114.096 1070.77 117.206Q1075.99 120.316 1081.15 123.518Q1086.31 126.72 1091.41 130.014Q1096.52 133.307 1101.56 136.69Q1106.6 140.074 1111.59 143.546Q1116.57 147.018 1121.49 150.579Q1126.41 154.139 1131.27 157.786C1110 163.607 1091.07 171.869 1071.72 182.336C1029.46 151.343 969.167 123.757 919.487 107.107Q912.109 104.644 904.674 102.363Q897.238 100.082 889.748 97.9846Q882.258 95.8869 874.719 93.9737Q867.181 92.0606 859.597 90.3331Q852.013 88.6056 844.39 87.0648Q836.766 85.5241 829.106 84.1709Q821.447 82.8178 813.757 81.6532Q806.067 80.4885 798.35 79.513Q790.634 78.5375 782.896 77.7518Q775.157 76.966 767.402 76.3705Q759.647 75.775 751.88 75.3701Q744.113 74.9651 736.338 74.751Q728.563 74.5369 720.785 74.5138Q713.007 74.4907 705.231 74.6585Q697.455 74.8263 689.685 75.1851Q681.915 75.5438 674.157 76.0931Q666.398 76.6425 658.656 77.3822Q650.913 78.1219 643.191 79.0514Q635.469 79.981 627.772 81.0999Q620.075 82.2188 612.407 83.5263Q604.74 84.8339 597.107 86.3293Q589.475 87.8246 581.881 89.507Q574.287 91.1893 566.737 93.0576Q559.187 94.9259 551.685 96.979Q544.183 99.0321 536.733 101.269Q529.284 103.505 521.892 105.924Q514.5 108.343 507.169 110.943Q499.839 113.543 492.574 116.321Q485.31 119.1 478.116 122.057Q470.922 125.013 463.803 128.145Q456.683 131.277 449.643 134.583Q442.603 137.889 435.646 141.367Q428.625 144.882 421.692 148.568Q414.76 152.255 407.92 156.11Q401.08 159.965 394.336 163.988Q387.593 168.01 380.951 172.196Q374.308 176.383 367.77 180.731Q361.233 185.08 354.804 189.587Q348.375 194.095 342.059 198.759Q335.743 203.423 329.543 208.241Q323.343 213.059 317.263 218.027Q311.184 222.996 305.228 228.112Q299.272 233.229 293.444 238.49Q287.616 243.751 281.919 249.153Q276.221 254.556 270.658 260.097Q265.095 265.637 259.67 271.313Q254.245 276.989 248.961 282.796Q243.677 288.604 238.537 294.539Q233.397 300.474 228.405 306.534Q223.412 312.593 218.57 318.774Q213.728 324.954 209.039 331.252Q204.35 337.549 199.817 343.96Q195.284 350.371 190.91 356.891Q186.536 363.411 182.323 370.036Q178.11 376.662 174.062 383.389Q170.013 390.116 166.131 396.94Q162.249 403.764 158.535 410.682Q154.822 417.599 151.279 424.606Q147.737 431.613 144.368 438.704Q140.998 445.796 137.804 452.968Q134.61 460.14 131.593 467.389Q128.576 474.637 125.738 481.957Q122.9 489.278 120.243 496.665Q117.585 504.053 115.11 511.504C73.5964 631.601 74.3537 764.703 108.237 886.338C91.3711 899.184 77.6019 916.147 66.6413 934.163C46.8231 879.724 35.8166 821.026 31.2126 763.38Q30.5505 754.899 30.0983 746.404Q29.6461 737.909 29.4041 729.405Q29.1621 720.901 29.1305 712.394Q29.0989 703.887 29.2777 695.382Q29.4564 686.877 29.8454 678.379Q30.2345 669.881 30.8335 661.395Q31.4326 652.909 32.2413 644.44Q33.05 635.972 34.0679 627.526Q35.0858 619.08 36.3123 610.661Q37.5387 602.243 38.9729 593.858Q40.4072 585.473 42.0483 577.125Q43.6895 568.778 45.5366 560.474Q47.3837 552.17 49.4355 543.914Q51.4874 535.658 53.7428 527.455Q55.9982 519.252 58.4557 511.108Q60.9133 502.964 63.5715 494.882Q66.2297 486.801 69.0869 478.788Q71.9441 470.775 74.9986 462.835Q78.0531 454.895 81.3031 447.033Q84.553 439.171 87.9963 431.392Q91.4397 423.613 95.0743 415.921Q98.709 408.229 102.533 400.63Q106.356 393.031 110.367 385.528Q114.378 378.025 118.572 370.624Q122.767 363.223 127.144 355.928Q131.52 348.632 136.076 341.448Q140.632 334.263 145.363 327.193Q150.095 320.123 155.001 313.172Q159.906 306.221 164.982 299.394Q170.057 292.566 175.3 285.867Q180.543 279.167 185.95 272.599Q191.357 266.03 196.925 259.598Q201.716 254.034 206.626 248.573Q211.535 243.113 216.559 237.758Q221.584 232.404 226.721 227.158Q231.859 221.911 237.108 216.776Q242.356 211.641 247.713 206.619Q253.07 201.597 258.533 196.69Q263.996 191.784 269.562 186.995Q275.129 182.206 280.796 177.537Q286.463 172.868 292.229 168.321Q297.995 163.774 303.856 159.351Q309.718 154.928 315.672 150.631Q321.627 146.334 327.672 142.165Q333.717 137.997 339.849 133.958Q345.982 129.919 352.199 126.012Q358.417 122.105 364.716 118.331Q371.015 114.558 377.394 110.92Q383.772 107.282 390.227 103.78Q396.681 100.279 403.209 96.9166Q409.737 93.5539 416.336 90.3313Q422.934 87.1088 429.599 84.0277Q436.265 80.9467 442.995 78.0087Q449.724 75.0706 456.515 72.2768Q463.306 69.483 470.155 66.8348Q477.004 64.1866 483.908 61.6851Q490.812 59.1837 497.768 56.8301Q504.724 54.4766 511.728 52.272Q518.733 50.0675 525.783 48.0129Q532.833 45.9583 539.925 44.0547Q547.017 42.151 554.148 40.3992Q561.279 38.6473 568.446 37.048Q575.613 35.4488 582.813 34.0028Q590.012 32.5569 597.241 31.2649Q636.109 24.3401 675.516 21.9272C685.4 21.2682 695.322 21.4348 705.184 20.6569Z"/>
	<path fill="#06AA86" d="M1089.06 1226.28L1175.59 1226.35Q1161.75 1238.52 1147.42 1250.12C1130.07 1263.39 1112.68 1276.5 1094.33 1288.37Q1089.26 1291.67 1084.13 1294.89Q1079 1298.1 1073.82 1301.23Q1068.64 1304.35 1063.4 1307.38Q1058.16 1310.41 1052.87 1313.35Q1047.58 1316.29 1042.24 1319.13Q1036.9 1321.98 1031.51 1324.73Q1026.12 1327.48 1020.68 1330.13Q1015.24 1332.79 1009.76 1335.35Q1004.27 1337.91 998.745 1340.37Q993.216 1342.83 987.645 1345.19Q982.074 1347.56 976.462 1349.82Q970.85 1352.09 965.2 1354.25Q959.549 1356.42 953.861 1358.48Q948.172 1360.55 942.449 1362.52Q936.725 1364.48 930.968 1366.35Q925.21 1368.21 919.421 1369.97Q913.631 1371.73 907.812 1373.4Q901.992 1375.06 896.144 1376.61Q890.296 1378.17 884.422 1379.62Q878.547 1381.08 872.648 1382.43Q866.749 1383.78 860.827 1385.03Q854.905 1386.27 848.961 1387.41Q843.018 1388.55 837.056 1389.59Q831.094 1390.63 825.114 1391.56Q819.134 1392.49 813.139 1393.32Q807.144 1394.14 801.135 1394.86Q795.126 1395.58 789.106 1396.2Q783.085 1396.81 777.055 1397.32Q771.024 1397.83 764.986 1398.23Q758.947 1398.63 752.903 1398.93Q746.858 1399.22 740.809 1399.41Q734.76 1399.6 728.709 1399.68Q722.044 1399.78 715.378 1399.76Q708.711 1399.73 702.047 1399.57Q695.383 1399.42 688.723 1399.13Q682.063 1398.84 675.41 1398.43Q668.756 1398.01 662.113 1397.47Q655.469 1396.93 648.837 1396.25Q642.205 1395.58 635.587 1394.78Q628.969 1393.98 622.368 1393.05Q615.767 1392.12 609.186 1391.06Q602.604 1390 596.044 1388.81Q589.484 1387.63 582.949 1386.32Q576.413 1385 569.905 1383.56Q563.396 1382.12 556.916 1380.56Q550.436 1378.99 543.988 1377.3Q537.54 1375.61 531.126 1373.8Q524.712 1371.98 518.335 1370.04Q511.957 1368.1 505.619 1366.04Q499.28 1363.97 492.983 1361.79Q486.685 1359.6 480.432 1357.29Q474.178 1354.98 467.97 1352.56Q461.762 1350.13 455.603 1347.58Q449.444 1345.03 443.335 1342.36Q437.226 1339.69 431.17 1336.91Q425.115 1334.12 419.114 1331.22Q413.114 1328.31 407.171 1325.29Q401.228 1322.27 395.344 1319.14Q389.461 1316.01 383.64 1312.76Q377.819 1309.51 372.062 1306.15Q366.304 1302.79 360.614 1299.32Q354.923 1295.85 349.301 1292.27Q343.678 1288.69 338.127 1285Q332.575 1281.31 327.096 1277.51C304.92 1262.04 281.602 1245.3 262.316 1226.33C291.02 1225.89 319.806 1226.19 348.516 1226.33C426.397 1280.22 508.75 1317.74 602.285 1334.98Q608.722 1336.18 615.183 1337.25Q621.644 1338.31 628.125 1339.25Q634.607 1340.18 641.106 1340.98Q647.605 1341.78 654.119 1342.44Q660.634 1343.1 667.161 1343.63Q673.687 1344.16 680.224 1344.56Q686.76 1344.95 693.303 1345.21Q699.846 1345.47 706.393 1345.6Q712.94 1345.72 719.488 1345.71Q726.036 1345.7 732.583 1345.56Q739.129 1345.41 745.671 1345.13Q752.214 1344.85 758.748 1344.43Q765.283 1344.02 771.808 1343.47Q778.333 1342.91 784.846 1342.23Q791.358 1341.54 797.854 1340.72Q804.351 1339.9 810.829 1338.95Q817.308 1338 823.765 1336.91Q830.222 1335.82 836.656 1334.6Q843.089 1333.38 849.496 1332.03Q855.903 1330.68 862.28 1329.19Q868.658 1327.71 875.003 1326.09Q881.349 1324.47 887.66 1322.73Q893.971 1320.98 900.244 1319.1Q906.517 1317.23 912.751 1315.22Q918.984 1313.21 925.174 1311.08Q931.365 1308.94 937.51 1306.68Q943.655 1304.42 949.752 1302.03Q955.849 1299.65 961.895 1297.13Q967.942 1294.62 973.935 1291.98Q979.928 1289.34 985.866 1286.58Q991.803 1283.82 997.682 1280.94Q1003.56 1278.05 1009.38 1275.05C1037.23 1260.65 1063.26 1244.01 1089.06 1226.28Z"/>
	<path fill="#06AA86" d="M1325.12 382.776C1333.5 391.284 1358.34 451.592 1363.63 465.582Q1366.23 472.437 1368.68 479.346Q1371.13 486.255 1373.43 493.214Q1375.73 500.173 1377.89 507.179Q1380.04 514.185 1382.05 521.236Q1384.05 528.286 1385.91 535.378Q1387.76 542.469 1389.47 549.598Q1391.17 556.727 1392.72 563.891Q1394.28 571.054 1395.68 578.249Q1397.08 585.444 1398.33 592.667Q1399.58 599.89 1400.67 607.138Q1401.77 614.386 1402.71 621.656Q1403.65 628.925 1404.43 636.213Q1405.22 643.5 1405.85 650.803Q1406.48 658.106 1406.96 665.421Q1407.44 672.735 1407.76 680.058Q1408.08 687.381 1408.25 694.709Q1408.41 702.038 1408.42 709.368Q1408.43 716.698 1408.29 724.026Q1408.14 731.355 1407.84 738.679Q1407.54 746.003 1407.09 753.319Q1406.63 760.635 1406.02 767.939Q1405.41 775.244 1404.65 782.534Q1403.88 789.824 1402.96 797.096Q1402.04 804.368 1400.97 811.619Q1399.9 818.87 1398.67 826.097Q1397.44 833.324 1396.06 840.523Q1394.68 847.722 1393.15 854.89Q1391.62 862.058 1389.93 869.192Q1388.25 876.326 1386.42 883.423Q1384.58 890.52 1382.6 897.576Q1380.61 904.632 1378.48 911.645Q1376.34 918.657 1374.06 925.623C1365.34 952.235 1354.48 978.027 1342.97 1003.53C1337.85 1015.29 1331.45 1027.08 1325.37 1038.39C1324.09 1009.56 1325.06 980.282 1325.07 951.404C1325.08 935.406 1323.49 915.826 1325.7 900.153C1326.65 893.471 1329.2 886.71 1331.01 880.207Q1335.54 863.918 1339.35 847.445C1348.7 805.955 1354.03 762.307 1354.28 719.751Q1354.55 701.272 1353.75 682.809Q1352.95 664.345 1351.08 645.959Q1349.21 627.573 1346.28 609.326Q1343.35 591.08 1339.36 573.034Q1335.78 556.991 1331.31 541.173C1329.14 533.47 1326.38 525.701 1325.39 517.741C1323.69 504.139 1325.09 488.921 1325.08 475.161L1325.12 382.776Z"/>
</svg>
