<?xml version="1.0" encoding="utf-8" ?>
<svg xmlns="http://www.w3.org/2000/svg" xmlns:xlink="http://www.w3.org/1999/xlink" width="1437" height="1420">
	<defs>
		<linearGradient id="gradient_0" gradientUnits="userSpaceOnUse" x1="665.75592" y1="1199.827" x2="866.20764" y2="507.7023">
			<stop offset="0" stop-color="#C3CC02"/>
			<stop offset="1" stop-color="#CAF916"/>
		</linearGradient>
	</defs>
	<path fill="url(#gradient_0)" d="M957.197 868.29L958.023 619.025L958.01 516.091C958.024 478.668 956.486 441.48 965.324 404.819Q966.393 400.362 967.612 395.944Q968.831 391.526 970.199 387.152Q971.568 382.778 973.084 378.453Q974.599 374.127 976.261 369.856Q977.923 365.585 979.729 361.372Q981.535 357.16 983.482 353.011Q985.43 348.862 987.517 344.782Q989.604 340.701 991.829 336.694Q994.053 332.687 996.413 328.758Q998.772 324.828 1001.26 320.981Q1003.75 317.134 1006.37 313.373Q1008.99 309.613 1011.74 305.943Q1014.49 302.274 1017.36 298.7Q1020.23 295.126 1023.21 291.651Q1026.2 288.176 1029.31 284.805Q1032.41 281.433 1035.63 278.169C1085.12 228.16 1153.43 197.441 1224.19 197.153L1269.83 197.157L1269.82 732.678L1269.87 874.603C1269.86 907.359 1271.49 940.932 1267.74 973.513Q1267.45 975.88 1267.11 978.24Q1266.77 980.6 1266.38 982.953Q1265.99 985.305 1265.55 987.649Q1265.11 989.993 1264.63 992.328Q1264.14 994.662 1263.61 996.986Q1263.07 999.31 1262.49 1001.62Q1261.91 1003.93 1261.28 1006.23Q1260.65 1008.53 1259.97 1010.82Q1259.29 1013.11 1258.57 1015.38Q1257.84 1017.65 1257.07 1019.91Q1256.3 1022.16 1255.48 1024.4Q1254.66 1026.64 1253.8 1028.86Q1252.93 1031.09 1252.02 1033.29Q1251.11 1035.49 1250.16 1037.68Q1249.2 1039.86 1248.2 1042.03Q1247.2 1044.19 1246.15 1046.33Q1245.11 1048.48 1244.02 1050.6Q1242.93 1052.72 1241.79 1054.82Q1240.66 1056.92 1239.48 1058.99Q1238.31 1061.06 1237.09 1063.11Q1235.87 1065.16 1234.61 1067.19Q1233.34 1069.21 1232.04 1071.21Q1230.74 1073.2 1229.39 1075.17Q1228.05 1077.14 1226.66 1079.08Q1225.28 1081.03 1223.85 1082.94Q1222.43 1084.85 1220.97 1086.73Q1219.5 1088.61 1218 1090.47Q1216.5 1092.32 1214.95 1094.14Q1213.41 1095.96 1211.84 1097.75Q1210.26 1099.53 1208.64 1101.29Q1207.03 1103.04 1205.38 1104.76Q1203.73 1106.48 1202.04 1108.17Q1199.3 1110.89 1196.48 1113.51Q1193.65 1116.13 1190.74 1118.65Q1187.83 1121.18 1184.84 1123.61Q1181.84 1126.03 1178.77 1128.36Q1175.69 1130.68 1172.54 1132.9Q1169.39 1135.12 1166.17 1137.24Q1162.95 1139.35 1159.66 1141.36Q1156.36 1143.36 1153.01 1145.26Q1149.65 1147.15 1146.23 1148.93Q1142.81 1150.71 1139.34 1152.37Q1135.86 1154.04 1132.33 1155.58Q1128.8 1157.13 1125.22 1158.56Q1121.64 1159.99 1118.01 1161.29Q1114.39 1162.6 1110.72 1163.79Q1107.05 1164.97 1103.34 1166.03Q1099.64 1167.09 1095.9 1168.03C1055.79 1177.94 1009.38 1174.69 967.906 1174.68L840.069 1174.67C816.433 1174.67 792.696 1174.21 769.077 1174.86L769.062 549.877C710.702 549.243 664.874 545.561 619.108 590.145Q617.873 591.35 616.668 592.584Q615.464 593.819 614.289 595.082Q613.115 596.346 611.973 597.638Q610.83 598.931 609.719 600.25Q608.609 601.57 607.531 602.917Q606.453 604.264 605.408 605.636Q604.364 607.009 603.353 608.407Q602.343 609.805 601.367 611.228Q600.391 612.65 599.45 614.096Q598.51 615.542 597.605 617.011Q596.7 618.479 595.832 619.97Q594.963 621.46 594.131 622.971Q593.3 624.483 592.505 626.014Q591.711 627.545 590.955 629.095Q590.198 630.645 589.48 632.214Q588.762 633.782 588.083 635.368Q587.403 636.953 586.763 638.555Q586.123 640.157 585.522 641.774Q584.921 643.391 584.361 645.022Q583.8 646.653 583.279 648.297Q582.759 649.942 582.278 651.599Q581.798 653.255 581.359 654.924Q580.92 656.592 580.522 658.27Q580.124 659.948 579.767 661.636Q579.41 663.324 579.095 665.019Q578.78 666.715 578.506 668.418Q578.233 670.121 578.001 671.831Q577.769 673.54 577.58 675.255Q577.39 676.969 577.243 678.688Q577.095 680.406 576.99 682.128Q576.885 683.85 576.822 685.573Q576.76 687.297 576.739 689.022L576.777 952.47C576.777 1026.33 575.682 1100.38 576.918 1174.21C572.733 1176.74 118.294 1173.77 75.1724 1174.91L75.125 1111.38C75.12 1098.52 74.6613 1085.49 75.4489 1072.66C78.1261 1029.03 92.3453 987.739 118.99 952.854Q121.011 950.193 123.114 947.597Q125.217 945 127.4 942.471Q129.582 939.941 131.843 937.481Q134.103 935.02 136.439 932.631Q138.775 930.242 141.184 927.927Q143.594 925.612 146.074 923.373Q148.554 921.134 151.102 918.973Q153.651 916.812 156.265 914.732Q158.88 912.651 161.558 910.653Q164.236 908.655 166.975 906.742Q169.714 904.828 172.511 903Q175.309 901.173 178.161 899.433Q181.014 897.693 183.92 896.043Q186.825 894.393 189.781 892.835Q192.736 891.276 195.739 889.81Q198.741 888.344 201.788 886.972C208.817 883.731 217.042 879.71 224.755 878.65C236.144 872.373 263.5 869.453 277.365 868.534C288.204 867.815 299.191 868.158 310.056 868.165L362.136 868.181L517.092 868.22L517.049 681.231C517.216 631.095 538.336 584.138 573.74 548.989Q575.164 547.576 576.618 546.195Q578.072 544.813 579.555 543.463Q581.038 542.113 582.55 540.796Q584.062 539.478 585.602 538.193Q587.142 536.908 588.71 535.656Q590.277 534.405 591.871 533.188Q593.465 531.97 595.084 530.787Q596.704 529.604 598.349 528.456Q599.994 527.309 601.663 526.196Q603.332 525.084 605.024 524.008Q606.717 522.932 608.432 521.893Q610.148 520.854 611.885 519.852Q613.623 518.849 615.381 517.885Q617.14 516.92 618.919 515.994Q620.698 515.067 622.496 514.179Q624.294 513.291 626.112 512.442Q627.929 511.593 629.764 510.783Q631.599 509.973 633.451 509.203Q635.303 508.433 637.171 507.703Q639.039 506.973 640.922 506.283Q642.806 505.593 644.703 504.944Q646.601 504.295 648.513 503.687Q650.424 503.079 652.348 502.512Q654.272 501.945 656.208 501.42Q658.143 500.895 660.09 500.411Q662.037 499.928 663.993 499.486Q665.95 499.045 667.915 498.645Q669.881 498.246 671.854 497.889Q673.828 497.532 675.809 497.218Q677.79 496.903 679.777 496.632Q681.765 496.36 683.757 496.131Q685.75 495.902 687.747 495.716C706.138 494.098 725.216 495.086 743.71 495.088L827.831 495.165C827.941 502.315 827.79 509.485 827.752 516.636L827.852 868.207L957.197 868.29Z"/>
	<defs>
		<linearGradient id="gradient_1" gradientUnits="userSpaceOnUse" x1="1108.6996" y1="869.75684" x2="1120.3749" y2="195.99165">
			<stop offset="0" stop-color="#C2C800"/>
			<stop offset="1" stop-color="#C9F313"/>
		</linearGradient>
	</defs>
	<path fill="url(#gradient_1)" d="M957.197 868.29L958.023 619.025L958.01 516.091C958.024 478.668 956.486 441.48 965.324 404.819Q966.393 400.362 967.612 395.944Q968.831 391.526 970.199 387.152Q971.568 382.778 973.084 378.453Q974.599 374.127 976.261 369.856Q977.923 365.585 979.729 361.372Q981.535 357.16 983.482 353.011Q985.43 348.862 987.517 344.782Q989.604 340.701 991.829 336.694Q994.053 332.687 996.413 328.758Q998.772 324.828 1001.26 320.981Q1003.75 317.134 1006.37 313.373Q1008.99 309.613 1011.74 305.943Q1014.49 302.274 1017.36 298.7Q1020.23 295.126 1023.21 291.651Q1026.2 288.176 1029.31 284.805Q1032.41 281.433 1035.63 278.169C1085.12 228.16 1153.43 197.441 1224.19 197.153L1269.83 197.157L1269.82 732.678C1267.06 733.193 1263.04 738.143 1260.83 740.309C1246.76 754.118 1232.42 766.885 1216.74 778.849C1143.27 834.912 1054.86 864.829 962.836 869.356C945.907 870.189 928.681 869.441 911.724 869.303Q869.153 869.098 826.583 869.435C825.948 847.077 826.423 824.613 826.416 802.245L826.975 638.997L826.911 555.622C826.901 546.437 825.495 524.528 827.752 516.636L827.852 868.207L957.197 868.29Z"/>
	<defs>
		<linearGradient id="gradient_2" gradientUnits="userSpaceOnUse" x1="83.21936" y1="1018.187" x2="581.03339" y2="1090.2124">
			<stop offset="0" stop-color="#C2C700"/>
			<stop offset="1" stop-color="#CDFF1E"/>
		</linearGradient>
	</defs>
	<path fill="url(#gradient_2)" d="M75.1724 1174.91L75.125 1111.38C75.12 1098.52 74.6613 1085.49 75.4489 1072.66C78.1261 1029.03 92.3453 987.739 118.99 952.854Q121.011 950.193 123.114 947.597Q125.217 945 127.4 942.471Q129.582 939.941 131.843 937.481Q134.103 935.02 136.439 932.631Q138.775 930.242 141.184 927.927Q143.594 925.612 146.074 923.373Q148.554 921.134 151.102 918.973Q153.651 916.812 156.265 914.732Q158.88 912.651 161.558 910.653Q164.236 908.655 166.975 906.742Q169.714 904.828 172.511 903Q175.309 901.173 178.161 899.433Q181.014 897.693 183.92 896.043Q186.825 894.393 189.781 892.835Q192.736 891.276 195.739 889.81Q198.741 888.344 201.788 886.972C208.817 883.731 217.042 879.71 224.755 878.65C223.469 880.451 221.411 880.45 220.609 882.281C281.12 1006.49 370.277 1076.84 492.862 1136.48Q521.422 1150.46 550.662 1162.96C558.53 1166.39 566.519 1170.42 574.561 1173.36C575.153 1173.58 575.787 1173.67 576.373 1173.91C576.567 1173.98 576.736 1174.11 576.918 1174.21C572.733 1176.74 118.294 1173.77 75.1724 1174.91Z"/>
	<path fill="#C5DA08" d="M705.014 20.6587C705.638 20.533 705.897 20.4655 706.601 20.4148C724.932 19.0943 744.613 20.8252 762.958 22.0056Q767.93 22.3126 772.896 22.692Q777.863 23.0714 782.824 23.5232Q787.785 23.975 792.738 24.499Q797.692 25.0231 802.637 25.6193Q807.583 26.2156 812.519 26.8839Q817.455 27.5522 822.381 28.2923Q827.307 29.0325 832.221 29.8445Q837.136 30.6564 842.038 31.5399Q846.94 32.4234 851.829 33.3783Q856.718 34.3332 861.592 35.3592Q866.467 36.3853 871.326 37.4823Q876.184 38.5794 881.027 39.7471Q885.869 40.9149 890.694 42.1531Q895.519 43.3914 900.325 44.6998Q905.131 46.0083 909.918 47.3867Q914.705 48.7651 919.471 50.2131Q924.237 51.6611 928.981 53.1785Q933.726 54.6959 938.447 56.2823Q943.169 57.8687 947.867 59.5238Q952.566 61.1788 957.239 62.9022Q961.913 64.6256 966.56 66.417Q971.208 68.2083 975.83 70.0673Q980.451 71.9262 985.045 73.8523Q989.638 75.7785 994.203 77.7713Q998.768 79.7642 1003.3 81.8235Q1007.84 83.8827 1012.34 86.0079Q1016.85 88.133 1021.32 90.3237Q1025.8 92.5143 1030.24 94.7699Q1034.68 97.0255 1039.09 99.3456Q1043.49 101.666 1047.87 104.05Q1052.24 106.434 1056.58 108.882Q1060.92 111.329 1065.22 113.84C1087.84 126.931 1111.08 141.375 1131.34 157.877C1110.4 163.094 1091.13 171.919 1072.24 182.181C1033.17 156.749 992.699 134.752 949.197 117.852Q941.924 115.014 934.584 112.356Q927.243 109.698 919.84 107.221Q912.436 104.745 904.973 102.452Q897.51 100.159 889.994 98.0508Q882.477 95.9425 874.91 94.0201Q867.344 92.0977 859.732 90.3624Q852.12 88.6271 844.468 87.08Q836.816 85.5329 829.128 84.1749Q821.44 82.8169 813.721 81.6488Q806.001 80.4807 798.256 79.5033Q790.51 78.5259 782.743 77.7397Q774.976 76.9535 767.191 76.359Q759.407 75.7645 751.61 75.3622Q743.814 74.9597 736.009 74.7497Q728.205 74.5396 720.398 74.522Q712.591 74.5044 704.786 74.6792Q696.981 74.854 689.183 75.2212Q681.384 75.5884 673.597 76.1478Q665.81 76.7071 658.039 77.4582Q650.269 78.2093 642.519 79.1517Q634.769 80.0942 627.044 81.2274Q619.32 82.3606 611.626 83.6839Q603.932 85.0072 596.273 86.5197Q588.614 88.0323 580.994 89.7332Q573.375 91.4341 565.8 93.3223Q558.225 95.2105 550.698 97.2849Q543.172 99.3593 535.699 101.619Q528.226 103.878 520.811 106.321Q513.396 108.764 506.044 111.388Q498.691 114.013 491.406 116.819Q484.12 119.624 476.906 122.608Q469.692 125.592 462.554 128.753Q456.515 131.436 450.533 134.243Q444.551 137.049 438.629 139.979Q432.706 142.909 426.845 145.96Q420.984 149.011 415.187 152.182Q409.39 155.354 403.66 158.644Q397.93 161.935 392.269 165.342Q386.608 168.75 381.018 172.274Q375.429 175.798 369.913 179.437Q364.398 183.075 358.958 186.827Q353.519 190.578 348.158 194.441Q342.798 198.304 337.518 202.277Q332.238 206.25 327.041 210.331Q321.844 214.412 316.733 218.599Q311.621 222.786 306.598 227.078Q301.574 231.369 296.639 235.764Q291.705 240.158 286.862 244.654Q282.02 249.149 277.271 253.744Q272.522 258.338 267.869 263.029Q263.216 267.721 258.661 272.507Q254.106 277.293 249.651 282.172Q245.195 287.052 240.841 292.022Q236.488 296.992 232.237 302.051Q227.987 307.11 223.842 312.256Q219.697 317.401 215.659 322.631Q211.621 327.861 207.692 333.173Q203.763 338.485 199.944 343.877Q196.126 349.27 192.419 354.739Q188.713 360.209 185.12 365.754Q181.527 371.299 178.049 376.917Q174.571 382.535 171.21 388.224Q167.849 393.912 164.606 399.669Q161.363 405.426 158.24 411.248Q141.368 442.983 128.025 476.356C123.639 487.399 119.957 498.683 115.659 509.754C110.124 528.938 104.005 547.846 99.5886 567.348Q98.4612 572.256 97.4115 577.182Q96.3618 582.108 95.3901 587.049Q94.4185 591.991 93.5251 596.947Q92.6316 601.903 91.8167 606.873Q91.0018 611.843 90.2656 616.825Q89.5293 621.807 88.872 626.8Q88.2146 631.793 87.6363 636.796Q87.0579 641.799 86.5588 646.81Q86.0596 651.822 85.6398 656.84Q85.2199 661.859 84.8795 666.883Q84.539 671.908 84.2781 676.938Q84.0172 681.967 83.8358 687Q83.6544 692.033 83.5526 697.068Q83.4508 702.103 83.4287 707.139Q83.4065 712.175 83.464 717.211Q83.5215 722.247 83.6586 727.281Q83.7957 732.315 84.0124 737.347Q84.2291 742.378 84.5253 747.406Q84.8215 752.433 85.1972 757.455Q85.5729 762.477 86.028 767.493Q86.483 772.508 87.0173 777.516Q87.5516 782.524 88.1651 787.523Q88.7785 792.521 89.4709 797.51Q90.1633 802.498 90.9344 807.475Q91.7056 812.451 92.5554 817.415Q93.4052 822.379 94.3333 827.329Q95.2615 832.279 96.2678 837.214Q97.2741 842.148 98.3583 847.066Q99.4425 851.984 100.604 856.885Q101.766 861.785 103.005 866.667Q104.245 871.548 105.561 876.409Q106.877 881.27 108.27 886.11C91.4588 900.391 78.9257 915.69 66.6616 933.891C62.4273 923.267 59.2966 911.984 56.1196 901.002Q51.3119 884.249 47.3512 867.275Q43.3905 850.302 40.2868 833.151Q37.1831 816 34.9443 798.715Q32.7055 781.43 31.3371 764.055Q30.6736 755.679 30.2149 747.29Q29.7563 738.901 29.5028 730.503Q29.2493 722.104 29.2011 713.703Q29.153 705.301 29.3101 696.901Q29.4673 688.5 29.8297 680.106Q30.1921 671.712 30.7595 663.329Q31.3269 654.947 32.0991 646.58Q32.8712 638.214 33.8475 629.869Q34.8239 621.524 36.0038 613.205Q37.1838 604.887 38.5667 596.599Q39.9497 588.312 41.5347 580.061Q43.1197 571.81 44.9059 563.6Q46.6921 555.39 48.6785 547.226Q50.6648 539.062 52.85 530.95Q55.0352 522.837 57.418 514.78Q59.8008 506.723 62.3798 498.727Q64.9589 490.73 67.7325 482.799Q70.5062 474.868 73.4728 467.007Q76.4395 459.147 79.5973 451.361Q82.7552 443.575 86.1024 435.868Q89.4496 428.161 92.9841 420.539Q96.5186 412.917 100.238 405.383Q103.958 397.849 107.861 390.408Q111.764 382.968 115.847 375.625Q119.93 368.281 124.192 361.04Q128.454 353.799 132.891 346.664Q137.328 339.529 141.939 332.505Q146.549 325.481 151.33 318.571Q156.111 311.662 161.059 304.871Q166.007 298.08 171.119 291.413Q176.232 284.745 181.506 278.204Q186.78 271.663 192.212 265.253Q197.014 259.563 201.938 253.977Q206.862 248.392 211.906 242.915Q216.949 237.437 222.11 232.069Q227.271 226.702 232.546 221.447Q237.821 216.192 243.209 211.052Q248.596 205.913 254.094 200.89Q259.591 195.868 265.195 190.966Q270.8 186.063 276.509 181.283Q282.218 176.503 288.028 171.847Q293.839 167.191 299.749 162.661Q305.659 158.132 311.666 153.731Q317.672 149.33 323.772 145.06Q329.872 140.79 336.063 136.653Q342.254 132.515 348.533 128.512Q354.811 124.509 361.175 120.643Q367.539 116.777 373.984 113.049Q380.43 109.321 386.955 105.732Q393.48 102.144 400.08 98.698Q406.681 95.2516 413.354 91.9485Q420.028 88.6454 426.771 85.4872Q433.514 82.3289 440.324 79.3169Q447.134 76.305 454.008 73.4407Q460.881 70.5765 467.814 67.8613Q474.748 65.146 481.739 62.5811Q488.729 60.0162 495.774 57.6028Q502.818 55.1894 509.913 52.9286Q517.008 50.6679 524.15 48.5608Q531.292 46.4537 538.477 44.5013Q545.663 42.5488 552.889 40.752Q560.116 38.9551 567.379 37.3147Q574.642 35.6742 581.94 34.191Q589.237 32.7077 596.564 31.3823Q635.012 24.4593 674.001 22.0034C684.33 21.302 694.717 21.5158 705.014 20.6587Z"/>
	<path fill="#C5DA08" d="M1089.11 1226.25L1175.91 1226.31Q1161.18 1239.09 1145.98 1251.31Q1140.54 1255.62 1135.01 1259.82Q1129.48 1264.02 1123.87 1268.1Q1118.26 1272.19 1112.56 1276.16Q1106.87 1280.13 1101.1 1283.99Q1095.33 1287.85 1089.48 1291.59Q1083.63 1295.32 1077.71 1298.94Q1071.78 1302.56 1065.79 1306.06Q1059.79 1309.56 1053.73 1312.94Q1047.66 1316.32 1041.53 1319.57Q1035.4 1322.83 1029.2 1325.96Q1023.01 1329.09 1016.75 1332.09Q1010.49 1335.1 1004.17 1337.98Q997.854 1340.85 991.48 1343.6Q985.105 1346.35 978.676 1348.97Q972.248 1351.59 965.767 1354.08Q959.287 1356.57 952.758 1358.93Q946.229 1361.29 939.653 1363.51Q933.077 1365.74 926.458 1367.83Q919.839 1369.92 913.178 1371.88Q906.518 1373.84 899.82 1375.66Q893.121 1377.49 886.388 1379.18Q879.654 1380.86 872.887 1382.41Q866.12 1383.97 859.324 1385.38Q852.527 1386.79 845.704 1388.07Q838.88 1389.35 832.032 1390.49Q825.184 1391.63 818.314 1392.63Q811.444 1393.63 804.556 1394.49Q797.667 1395.35 790.763 1396.07Q783.858 1396.79 776.94 1397.38Q770.023 1397.96 763.094 1398.4Q756.166 1398.84 749.231 1399.15Q742.295 1399.45 735.355 1399.61Q728.739 1399.77 722.121 1399.81Q715.503 1399.84 708.886 1399.75Q702.269 1399.66 695.654 1399.43Q689.04 1399.21 682.431 1398.87Q675.823 1398.52 669.222 1398.04Q662.621 1397.57 656.03 1396.97Q649.44 1396.36 642.862 1395.63Q636.285 1394.9 629.722 1394.05Q623.16 1393.19 616.615 1392.21Q610.071 1391.23 603.546 1390.12Q597.022 1389.01 590.52 1387.78Q584.018 1386.54 577.541 1385.18Q571.064 1383.83 564.615 1382.34Q558.165 1380.86 551.745 1379.25Q545.326 1377.64 538.938 1375.91Q532.551 1374.18 526.198 1372.33Q519.845 1370.47 513.529 1368.5Q507.213 1366.52 500.936 1364.42Q494.659 1362.33 488.424 1360.11Q482.189 1357.89 475.998 1355.55Q469.807 1353.22 463.661 1350.76Q457.516 1348.3 451.42 1345.73Q445.323 1343.15 439.278 1340.46Q433.232 1337.77 427.239 1334.96Q421.247 1332.15 415.309 1329.23Q409.372 1326.31 403.492 1323.27Q397.612 1320.24 391.791 1317.09Q385.971 1313.94 380.212 1310.68Q374.454 1307.42 368.759 1304.04Q363.064 1300.67 357.436 1297.19Q351.807 1293.71 346.247 1290.12Q340.686 1286.53 335.196 1282.84C309.893 1265.9 284.442 1247.28 262.287 1226.35C291.065 1225.71 319.996 1226.24 348.79 1226.28C428.641 1281.43 508.577 1318.07 604.793 1335.36Q611.306 1336.55 617.843 1337.6Q624.379 1338.65 630.936 1339.57Q637.493 1340.49 644.068 1341.27Q650.643 1342.05 657.232 1342.69Q663.822 1343.33 670.423 1343.83Q677.025 1344.34 683.636 1344.7Q690.246 1345.07 696.863 1345.3Q703.48 1345.52 710.1 1345.61Q716.72 1345.7 723.341 1345.66Q729.961 1345.61 736.58 1345.42Q743.198 1345.23 749.81 1344.91Q756.423 1344.58 763.028 1344.12Q769.632 1343.66 776.226 1343.06Q782.819 1342.46 789.399 1341.72Q795.978 1340.98 802.541 1340.11Q809.104 1339.23 815.646 1338.22Q822.189 1337.21 828.71 1336.06Q835.23 1334.91 841.725 1333.63Q848.22 1332.34 854.687 1330.92Q861.154 1329.5 867.589 1327.95Q874.025 1326.39 880.427 1324.71Q886.829 1323.02 893.194 1321.2Q899.559 1319.37 905.885 1317.42Q912.21 1315.47 918.494 1313.38Q924.778 1311.3 931.016 1309.08Q937.255 1306.86 943.446 1304.52Q949.637 1302.17 955.778 1299.7Q961.918 1297.22 968.006 1294.62Q974.094 1292.02 980.126 1289.29Q986.158 1286.56 992.131 1283.7Q998.105 1280.85 1004.02 1277.87Q1009.93 1274.89 1015.78 1271.79C1041.29 1258.25 1065.42 1242.75 1089.11 1226.25Z"/>
	<path fill="#C5DA08" d="M1325.3 382.757C1334.65 393.944 1356.63 446.838 1362.46 462.07Q1365.09 468.896 1367.57 475.777Q1370.06 482.658 1372.39 489.589Q1374.73 496.521 1376.92 503.501Q1379.11 510.48 1381.15 517.505Q1383.19 524.529 1385.09 531.595Q1386.98 538.661 1388.72 545.766Q1390.46 552.871 1392.05 560.011Q1393.64 567.151 1395.08 574.323Q1396.52 581.495 1397.81 588.696Q1399.1 595.897 1400.23 603.123Q1401.37 610.35 1402.35 617.599Q1403.33 624.848 1404.15 632.116Q1404.98 639.384 1405.65 646.668Q1406.33 653.952 1406.85 661.249Q1407.36 668.545 1407.73 675.851Q1408.09 683.157 1408.3 690.469Q1408.51 697.781 1408.56 705.096Q1408.62 712.411 1408.52 719.725Q1408.41 727.04 1408.16 734.35Q1407.9 741.661 1407.49 748.964Q1407.08 756.268 1406.51 763.561Q1405.95 770.854 1405.23 778.133Q1404.51 785.413 1403.64 792.676Q1402.76 799.938 1401.73 807.181Q1400.71 814.423 1399.52 821.642Q1398.34 828.861 1397.01 836.054Q1395.68 843.246 1394.19 850.409Q1392.7 857.572 1391.07 864.701Q1389.43 871.831 1387.64 878.924Q1385.85 886.017 1383.92 893.071Q1381.98 900.124 1379.89 907.135Q1377.8 914.147 1375.57 921.112C1366.84 948.379 1356.09 974.685 1344.39 1000.79C1338.18 1013.26 1332.2 1025.92 1325.39 1038.07Q1325.08 992.437 1325.27 946.804C1325.27 931.659 1323.7 915.119 1325.74 900.17C1326.52 894.497 1328.63 888.739 1330.22 883.237Q1334.47 869.036 1337.8 854.589C1347.63 809.873 1354.13 764.414 1354.23 718.554C1354.33 670.115 1350.14 622.874 1340.02 575.441Q1336.61 559.496 1332.13 543.817C1329.77 535.529 1326.67 527.015 1325.59 518.478C1323.84 504.689 1325.25 489.267 1325.24 475.287L1325.3 382.757Z"/>
</svg>
