<?xml version="1.0" encoding="utf-8" ?>
<svg xmlns="http://www.w3.org/2000/svg" xmlns:xlink="http://www.w3.org/1999/xlink" width="1536" height="1024">
	<defs>
		<linearGradient id="gradient_1" gradientUnits="userSpaceOnUse" x1="835.60419" y1="902.92163" x2="697.05408" y2="141.32664">
			<stop offset="0" stop-color="#060235"/>
			<stop offset="1" stop-color="#364180"/>
		</linearGradient>
	</defs>
	<path fill="url(#gradient_1)" d="M1219.06 122.972C1240.48 118.202 1261.37 123.303 1279.68 134.861C1298.69 146.863 1311.67 167.964 1316.43 189.705C1321.31 212.2 1316.96 235.709 1304.37 254.974C1299.77 262.081 1294.26 268.185 1287.81 273.677C1288.01 274.4 1288.35 274.826 1288.01 275.522C1286.77 278.1 1286.21 281.21 1284.62 283.566C1283.16 285.727 1279.57 288.492 1278.71 290.622C1275.82 297.752 1281.29 345.142 1276.45 351.084C1278.14 356.609 1278.21 399.145 1276.4 403.524C1281.1 409.589 1279.12 516.844 1279.11 535.256C1301.16 558.256 1315.29 578.688 1329.87 606.983C1332.17 611.447 1337.33 620.422 1337.13 625.385C1337.1 625.99 1337.06 626.029 1336.88 626.517C1339.14 630.135 1341.19 635.898 1340.97 640.211C1342.8 640.667 1344.01 642.415 1343.8 644.294C1343.58 646.172 1342 647.598 1340.11 647.624C1338.22 647.651 1336.61 646.27 1336.34 644.398L1335.69 643.218C1333.67 643.823 1333.27 643.753 1331.96 645.495C1330.83 655.698 1329.57 707.458 1325.11 712.457L1277.11 712.258C1279.08 716.603 1279.33 738.914 1277.62 743.769C1277.48 744.151 1277.32 744.522 1277.16 744.894C1277.09 745.037 1277.04 745.182 1276.98 745.326C1278.88 750.602 1278.34 797.14 1277.61 805.102C1277.33 808.178 1276.69 810.888 1275.4 813.708C1271.87 821.394 1266.44 826.338 1258.53 829.157C1254.17 830.71 1250.28 831.059 1245.69 831.107C1197.3 831.611 1148.85 831.06 1100.45 830.998L846.408 830.897L730.137 830.901C712.477 830.904 686.852 832.57 670.193 829.755C665.073 828.701 557.565 828.474 549.856 829.735C532.217 831.873 513.999 830.92 496.243 830.915L395.292 830.94C378.893 830.951 361.632 829.897 345.315 831.163C327.575 830.019 309.276 830.995 291.481 831.073C282.364 831.038 273.436 829.95 266.43 823.517C255.495 813.477 257.146 798.7 256.648 785.271C257.312 777.844 256.805 769.963 256.782 762.492L256.634 719.358L256.547 588.155C251.374 584.062 246.683 577.688 242.676 572.445C220.453 542.963 205.53 508.633 199.13 472.268C196.282 455.589 195.463 439.111 195.569 422.225C195.982 356.521 217.995 303.393 255.445 250.337C255.397 248.019 254.976 245.314 256.16 243.251C256.436 234.948 258.797 227.446 264.802 221.432C268.242 217.986 273.237 214.881 278.109 214.166C289.346 212.518 301.427 213.277 312.778 213.253L369.813 213.151C435.944 213.723 502.078 213.77 568.209 213.291L991.842 213.137L1107.74 213.155C1119.08 213.147 1144.61 214.572 1154.53 212.964C1156.08 209.7 1154.37 196.492 1154.63 191.868C1155.24 181.053 1159.89 168.213 1165.43 159.123C1177.29 139.674 1197.4 128.147 1219.06 122.972Z"/>
	<path fill="#7240A8" d="M1219.06 122.972C1240.48 118.202 1261.37 123.303 1279.68 134.861C1298.69 146.863 1311.67 167.964 1316.43 189.705C1321.31 212.2 1316.96 235.709 1304.37 254.974C1299.77 262.081 1294.26 268.185 1287.81 273.677C1284.39 276.736 1280.95 280.217 1276.35 281.294C1277.27 278.979 1277.21 276.328 1277.25 273.861C1277.53 257.682 1280.41 235.735 1268.11 223.301C1255.89 210.943 1238.09 213.098 1222.22 213.012C1214.67 214.015 1206.17 213.316 1198.51 213.292C1183.85 213.304 1169.19 213.195 1154.53 212.964C1156.08 209.7 1154.37 196.492 1154.63 191.868C1155.24 181.053 1159.89 168.213 1165.43 159.123C1177.29 139.674 1197.4 128.147 1219.06 122.972Z"/>
	<path fill="#C039A1" d="M1154.53 212.964C1156.08 209.7 1154.37 196.492 1154.63 191.868C1155.24 181.053 1159.89 168.213 1165.43 159.123C1177.29 139.674 1197.4 128.147 1219.06 122.972L1222.57 123.216L1222.63 123.577C1220.53 123.923 1218.73 123.908 1217.04 125.265C1209.44 150.584 1209 164.263 1211.27 190.557C1211.89 197.711 1213.08 204.639 1213.26 211.846C1216.18 212.178 1219.7 211.4 1222.22 213.012C1214.67 214.015 1206.17 213.316 1198.51 213.292C1183.85 213.304 1169.19 213.195 1154.53 212.964Z"/>
	<path fill="#7240A8" d="M255.445 250.337C255.397 248.019 254.976 245.314 256.16 243.251L256.547 588.155C251.374 584.062 246.683 577.688 242.676 572.445C220.453 542.963 205.53 508.633 199.13 472.268C196.282 455.589 195.463 439.111 195.569 422.225C195.982 356.521 217.995 303.393 255.445 250.337Z"/>
	<path fill="#351A82" d="M1276.4 403.524C1281.1 409.589 1279.12 516.844 1279.11 535.256C1301.16 558.256 1315.29 578.688 1329.87 606.983C1332.17 611.447 1337.33 620.422 1337.13 625.385C1337.1 625.99 1337.06 626.029 1336.88 626.517C1339.14 630.135 1341.19 635.898 1340.97 640.211C1342.8 640.667 1344.01 642.415 1343.8 644.294C1343.58 646.172 1342 647.598 1340.11 647.624C1338.22 647.651 1336.61 646.27 1336.34 644.398L1335.69 643.218C1333.67 643.823 1333.27 643.753 1331.96 645.495C1330.83 655.698 1329.57 707.458 1325.11 712.457L1277.11 712.258C1279.08 716.603 1279.33 738.914 1277.62 743.769C1277.48 744.151 1277.32 744.522 1277.16 744.894C1277.09 745.037 1277.04 745.182 1276.98 745.326C1279 738.148 1277.43 691.102 1277.42 679.96L1277.28 483.447C1277.27 472.6 1278.58 410.304 1276.4 403.524Z"/>
	<path fill="#F9FAF4" d="M1340.97 640.211C1342.8 640.667 1344.01 642.415 1343.8 644.294C1343.58 646.172 1342 647.598 1340.11 647.624C1338.22 647.651 1336.61 646.27 1336.34 644.398C1336.16 643.158 1336.61 641.91 1337.54 641.07C1338.47 640.23 1339.75 639.908 1340.97 640.211Z"/>
	<path fill="#F9FAF4" d="M1302.23 640.384C1304.03 639.36 1306.31 639.961 1307.38 641.737C1308.44 643.513 1307.89 645.812 1306.14 646.914C1304.97 647.648 1303.5 647.693 1302.29 647.031C1301.08 646.369 1300.32 645.103 1300.31 643.724C1300.29 642.344 1301.03 641.066 1302.23 640.384Z"/>
	<path fill="#F9FAF4" d="M1320.18 640.399C1322.06 639.584 1324.25 640.424 1325.1 642.29C1325.96 644.156 1325.16 646.361 1323.31 647.251C1322.08 647.843 1320.63 647.724 1319.51 646.941C1318.4 646.157 1317.79 644.832 1317.93 643.475C1318.07 642.118 1318.93 640.941 1320.18 640.399Z"/>
	<path fill="#1C195B" d="M1154.53 212.964C1169.19 213.195 1183.85 213.304 1198.51 213.292C1206.17 213.316 1214.67 214.015 1222.22 213.012C1238.09 213.098 1255.89 210.943 1268.11 223.301C1280.41 235.735 1277.53 257.682 1277.25 273.861C1277.21 276.328 1277.27 278.979 1276.35 281.294C1280.95 280.217 1284.39 276.736 1287.81 273.677C1288.01 274.4 1288.35 274.826 1288.01 275.522C1286.77 278.1 1286.21 281.21 1284.62 283.566C1283.16 285.727 1279.57 288.492 1278.71 290.622C1275.82 297.752 1281.29 345.142 1276.45 351.084C1278.14 356.609 1278.21 399.145 1276.4 403.524C1278.58 410.304 1277.27 472.6 1277.28 483.447L1277.42 679.96C1277.43 691.102 1279 738.148 1276.98 745.326C1278.88 750.602 1278.34 797.14 1277.61 805.102C1277.33 808.178 1276.69 810.888 1275.4 813.708C1271.87 821.394 1266.44 826.338 1258.53 829.157C1254.17 830.71 1250.28 831.059 1245.69 831.107C1197.3 831.611 1148.85 831.06 1100.45 830.998L846.408 830.897L730.137 830.901C712.477 830.904 686.852 832.57 670.193 829.755L671.179 829.808C682.712 830.383 694.539 829.867 706.095 829.87L773.903 829.953L988.434 829.919L1161.48 829.683L1216.04 829.631C1226.35 829.631 1236.93 830.117 1247.21 829.365C1254.64 828.821 1261.49 827.204 1267.12 822.013C1272.81 816.768 1275.41 810.051 1275.73 802.467C1276.23 790.385 1275.76 778.11 1275.72 766.013L1275.63 701.59L1275.13 475.156L1274.95 317.175L1274.95 271.927C1275.01 263.125 1275.62 254.009 1274.89 245.243C1274.28 237.927 1271.86 231.117 1266.76 225.724C1261.19 219.842 1255.72 217.484 1247.82 216.587C1230.7 214.644 1205.73 216.078 1187.56 216.073L1064.09 216.064L747.278 216.097C693.737 216.098 639.254 217.408 585.87 215.971C577.639 214.844 569.21 214.97 560.931 214.368C563.243 214.22 565.33 213.98 567.588 213.443L568.209 213.291L991.842 213.137L1107.74 213.155C1119.08 213.147 1144.61 214.572 1154.53 212.964Z"/>
	<path fill="#1C195B" d="M1276.35 281.294C1280.95 280.217 1284.39 276.736 1287.81 273.677C1288.01 274.4 1288.35 274.826 1288.01 275.522C1286.77 278.1 1286.21 281.21 1284.62 283.566C1283.16 285.727 1279.57 288.492 1278.71 290.622C1275.82 297.752 1281.29 345.142 1276.45 351.084C1278.03 346.821 1277.87 286.132 1276.35 281.294Z"/>
	<path fill="#1C195B" d="M256.16 243.251C256.436 234.948 258.797 227.446 264.802 221.432C268.242 217.986 273.237 214.881 278.109 214.166C289.346 212.518 301.427 213.277 312.778 213.253L369.813 213.151C435.944 213.723 502.078 213.77 568.209 213.291L567.588 213.443C565.33 213.98 563.243 214.22 560.931 214.368C569.21 214.97 577.639 214.844 585.87 215.971C512.974 217.313 439.835 216.174 366.918 216.135L309.476 216.069C299.723 216.051 288.929 215.138 279.321 216.516C274.118 217.262 269.27 220.395 265.7 224.151C261.591 228.474 259.375 233.889 258.855 239.808C258.181 247.489 258.683 255.581 258.665 263.307L258.575 309.988L258.679 463.92L258.709 692.585L258.752 764.207C258.748 776.251 258.295 788.409 258.756 800.435C259.067 808.563 261.935 815.895 268.037 821.496C271.459 824.636 276.16 827.336 280.801 828.005C292.719 829.724 305.556 828.948 317.586 828.972L377.67 829.077L492.108 829.352C511.344 829.442 530.625 830.052 549.856 829.735C532.217 831.873 513.999 830.92 496.243 830.915L395.292 830.94C378.893 830.951 361.632 829.897 345.315 831.163C327.575 830.019 309.276 830.995 291.481 831.073C282.364 831.038 273.436 829.95 266.43 823.517C255.495 813.477 257.146 798.7 256.648 785.271C257.312 777.844 256.805 769.963 256.782 762.492L256.634 719.358L256.547 588.155L256.16 243.251Z"/>
	<path fill="#3E56AB" d="M825.524 251.417C857.45 251.008 889.319 251.767 921.222 251.74L1016.24 250.902L1079.49 250.629C1097.59 250.521 1115.64 249.52 1133.6 252.489L1132.93 252.602C1149.98 254.658 1168.13 253.241 1185.38 253.408C1190.49 253.458 1196.05 253.092 1201.1 253.824C1205.09 254.403 1212.3 256.478 1214.85 259.824C1217.15 262.838 1217.55 268.926 1217.8 272.566C1218.54 283.41 1217.34 294.596 1217.3 305.488C1217.25 318.808 1218.65 333.507 1216.98 346.682C1219.18 357.17 1217.13 384.424 1217.2 396.369L1217.29 560.512C1217.26 574.637 1216.74 588.91 1217.06 603.017C1217.18 608.497 1218.81 613.965 1218.76 619.422C1218.71 623.822 1217.65 628.229 1217.41 632.636C1216.8 644.064 1216.47 656.327 1217.07 667.739C1217.26 671.194 1219.09 672.522 1220.29 675.463C1223.23 682.676 1223.2 692.826 1222.18 700.423L1222.92 699.977C1224.95 689.37 1222.94 668.48 1222.61 656.669C1222.05 636.745 1222.46 616.701 1222.47 596.766C1222.47 584.417 1221.61 571.327 1222.79 559.061C1224.75 587.07 1223.21 615.932 1223.54 644.056C1223.98 672.802 1224.08 701.552 1223.83 730.3C1223.79 743.419 1224.53 756.902 1223.72 769.958C1223.61 771.771 1223.59 773.013 1222.45 774.471C1218.77 775.677 1215.12 776.513 1211.26 776.867C1205.46 777.401 1169.17 778.559 1166.26 777.058C1166.09 776.972 1165.95 776.838 1165.8 776.728C1165.63 775.367 1165.46 774.012 1165.39 772.642C1166.4 768.592 1166.03 635.516 1164.75 631.69C1160.44 635.353 1154.86 641.761 1149.61 643.734C1151.7 648.156 1151.38 757.895 1150.4 770.034C1149.9 770.718 1149.42 771.446 1148.84 772.065C1146.32 773.741 1102.78 772.754 1097.13 772.749C1099.71 768.517 1098.96 756.861 1098.11 751.863C1098.96 743.988 1099.59 687.745 1096.93 683.477C1091.04 686.03 1085.16 689.005 1079.03 690.899C1080.61 696.526 1080.59 769.314 1078.77 772.512C1078.5 772.975 1078.39 773.091 1078.09 773.474C1061.16 773.571 1043.3 774.815 1026.47 773.56C1027.02 763.12 1028.28 711.212 1025.72 704.311C1020.93 706.354 1014.07 705.808 1008.84 706.6L1008.75 706.115C992.225 707.866 973.794 706.634 957.273 705.416C955.578 690.087 956.94 673.242 956.964 657.756C957.001 650.443 954.993 620.043 958.852 615.758C962.963 611.193 992.535 613.043 1000.44 613.016C1002.07 612.547 1003.92 611.822 1005.58 612.481C1016.4 616.771 1007.21 629.842 1009.83 635.887C1010.3 636.954 1010.72 637.421 1011.83 637.809C1015.57 639.127 1022.19 635.434 1025.43 633.686C1026.95 625.479 1026.66 613.42 1025.1 605.169C1019.33 604.428 1008.61 605.798 1002.11 605.803L939.508 605.468C927.004 605.515 913.441 606.725 901.053 605.266C895.469 606.806 869.685 604.974 861.897 605.087C789.228 606.093 716.549 606.319 643.875 605.765C639.925 609.671 635.593 612.947 631.413 616.574C625.154 622.006 619.201 627.803 612.802 633.074C604.129 640.218 594.914 646.7 586.114 653.688C562.876 672.139 538.799 692.506 513.807 708.387L513.84 603.766L513.797 574.942L513.872 567.804C513.962 560.543 513.936 553.281 513.795 546.021C514.792 540.829 513.893 534.429 514.209 529.047C513.617 507.595 514.43 486.098 513.814 464.639C512.776 462.733 512.193 460.612 512.111 458.443C511.775 451.09 512.562 443.414 512.599 436.01L512.745 378.17C512.888 339.293 511.799 300.183 512.97 261.338C515.752 256.805 518.237 254.665 522.867 252.102C533.442 251.833 544.057 252.514 554.64 252.486L638.867 252.174C665.754 251.496 692.767 251.899 719.666 252.043C744.221 251.63 768.727 251.26 793.29 251.264C803.96 251.265 814.896 250.726 825.524 251.417Z"/>
	<path fill="#1C195B" d="M825.524 251.417C857.45 251.008 889.319 251.767 921.222 251.74L1016.24 250.902L1079.49 250.629C1097.59 250.521 1115.64 249.52 1133.6 252.489L1132.93 252.602C1149.98 254.658 1168.13 253.241 1185.38 253.408C1190.49 253.458 1196.05 253.092 1201.1 253.824C1205.09 254.403 1212.3 256.478 1214.85 259.824C1217.15 262.838 1217.55 268.926 1217.8 272.566C1218.54 283.41 1217.34 294.596 1217.3 305.488C1217.25 318.808 1218.65 333.507 1216.98 346.682L1216.47 346.681C1216.6 352.453 1218.01 362.218 1215.6 367.467L1214.23 367.554C1192.31 368.876 1170.05 368.303 1148.08 368.253C1139.39 368.234 1130.4 367.716 1121.75 368.348L1119.89 366.735C1109.56 366.404 1071.56 368.355 1065.03 365.971L1064.42 368.437C1043.97 368.365 1023.26 369.038 1002.85 368.272L1002.77 393.95L1001.79 392.637C998.274 389.057 994.496 384.27 990.216 381.69C987.012 377.081 981.834 372.659 977.913 368.554L976.122 366.953C972.281 363.321 968.428 359.714 964.77 355.898C960.336 360.116 955.96 364.723 951.215 368.569C948.295 371.601 945.441 374.768 942.365 377.639C939.274 380.891 936.201 384.16 933.146 387.447C926.01 392.933 911.312 407.792 905.642 414.911L898.731 421.241C889.778 412.551 878.831 404.178 871.076 394.478C861.18 404.147 850.517 413.274 841.034 423.319C833.737 423.147 826.438 423.043 819.138 423.006L818.178 423.079L817.726 423L790.181 423.382L791.146 424.08C798.313 431.282 805.611 438.352 813.038 445.286C807.131 451.102 800.822 456.78 795.271 462.923C782.444 449.285 768.909 436.317 756.191 422.571C745.204 435.688 732.071 447.607 719.979 459.732C715.283 455.115 704.22 446.36 697.717 446.183C690.13 454.415 682.265 462.386 674.135 470.083C666.876 462.857 660.271 454.941 652.711 448.02C648.381 441.291 640.439 434.778 634.859 428.908C623.625 418.202 613.759 406.205 602.716 395.301C602.551 395.246 602.385 395.194 602.221 395.135C599.971 394.332 598.463 393.098 596.665 391.598C591.871 395.547 587.482 399.625 580.81 399.003C578.991 398.833 577.285 398.536 575.788 397.457L572.953 400.446L572.512 401.531C565.884 408.978 559.859 417.249 552.751 424.219C543.984 433.85 535.359 443.706 526.178 452.942C522.208 456.32 517.795 460.278 514.48 464.288L513.814 464.639C512.776 462.733 512.193 460.612 512.111 458.443C511.775 451.09 512.562 443.414 512.599 436.01L512.745 378.17C512.888 339.293 511.799 300.183 512.97 261.338C515.752 256.805 518.237 254.665 522.867 252.102C533.442 251.833 544.057 252.514 554.64 252.486L638.867 252.174C665.754 251.496 692.767 251.899 719.666 252.043C744.221 251.63 768.727 251.26 793.29 251.264C803.96 251.265 814.896 250.726 825.524 251.417Z"/>
	<path fill="#3E56AB" d="M941.304 268.151C941.348 264.968 940.762 260.08 941.77 257.149L941.968 268.049C942.524 280.734 940.361 297.924 942.254 309.713L942.122 311.289C955.246 311.403 968.371 311.36 981.495 311.163C988.098 311.108 995.503 310.477 1002.03 311.422L1002.22 366.971C993.53 366.927 984.806 366.722 976.122 366.953C972.281 363.321 968.428 359.714 964.77 355.898C960.336 360.116 955.96 364.723 951.215 368.569C948.295 371.601 945.441 374.768 942.365 377.639C939.274 380.891 936.201 384.16 933.146 387.447C926.01 392.933 911.312 407.792 905.642 414.911L898.731 421.241C889.778 412.551 878.831 404.178 871.076 394.478C861.18 404.147 850.517 413.274 841.034 423.319C833.737 423.147 826.438 423.043 819.138 423.006C817.421 415.779 819.07 378.17 819.124 367.887C838.967 368.948 860.179 368.971 880.001 367.63C879.851 374.449 879.118 383.154 880.861 389.703C881.031 382.448 881.094 375.19 881.048 367.933C890.873 368.249 900.771 367.892 910.603 367.861C920.334 367.831 930.249 368.21 939.944 367.34C929.623 366.446 918.726 367.096 908.349 367.067C878.677 366.986 848.577 368.127 818.959 366.718L818.378 366.736C817.802 366.789 817.224 366.833 816.646 366.867C810.149 367.187 760.492 367.863 757.949 366.625C757.353 366.335 756.971 365.73 756.482 365.282C757.424 347.256 756.803 328.856 756.934 310.784C761.731 309.406 768.888 310.135 774.008 310.032L756.724 310.063C757.096 296.194 757.227 281.914 756.622 268.06C777.064 269.198 797.909 268.686 818.391 268.53L818.631 257.808L818.908 268.486C831.58 268.422 844.253 268.432 856.925 268.518C864.861 268.57 873.207 269.076 881.105 268.312C900.896 269.36 921.495 268.847 941.304 268.151Z"/>
	<path fill="#2C6097" d="M941.304 268.151C940.239 281.853 941.3 296.356 941.399 310.139C921.347 309.586 901.128 309.877 881.065 310.017C881.121 301.969 881.835 293.248 880.642 285.304C878.944 288.385 879.91 305.292 879.904 309.923L818.795 309.851C819.013 296.166 819.759 282.136 818.908 268.486C831.58 268.422 844.253 268.432 856.925 268.518C864.861 268.57 873.207 269.076 881.105 268.312C900.896 269.36 921.495 268.847 941.304 268.151Z"/>
	<path fill="#2C6097" d="M756.934 310.784C771.827 313.833 801.097 310.09 818.094 311.414L819.165 311.534C819.301 329.853 818.228 348.444 818.959 366.718L818.378 366.736C817.802 366.789 817.224 366.833 816.646 366.867C810.149 367.187 760.492 367.863 757.949 366.625C757.353 366.335 756.971 365.73 756.482 365.282C757.424 347.256 756.803 328.856 756.934 310.784Z"/>
	<path fill="#336DA2" d="M818.094 311.414L819.165 311.534C819.301 329.853 818.228 348.444 818.959 366.718L818.378 366.736C819.552 348.622 818.226 329.618 818.094 311.414Z"/>
	<path fill="#2C6097" d="M756.622 268.06C777.064 269.198 797.909 268.686 818.391 268.53C817.66 282.235 818.301 296.23 818.515 309.959C805.1 309.89 786.859 308.508 774.008 310.032L756.724 310.063C757.096 296.194 757.227 281.914 756.622 268.06Z"/>
	<path fill="#336DA2" d="M941.304 268.151C941.348 264.968 940.762 260.08 941.77 257.149L941.968 268.049C942.524 280.734 940.361 297.924 942.254 309.713L942.122 311.289C941.412 328.884 942.341 346.588 941.697 364.229C939.945 348.281 941.239 327.14 941.241 310.591C923.834 312.518 899.437 311.176 881.289 311.221C881.317 325.725 882.681 352.735 880.589 365.812L880.222 365.58C879.274 347.544 879.77 329.257 879.68 311.188C859.573 311.851 839.288 311.425 819.165 311.534L818.094 311.414C801.097 310.09 771.827 313.833 756.934 310.784C761.731 309.406 768.888 310.135 774.008 310.032C786.859 308.508 805.1 309.89 818.515 309.959C818.301 296.23 817.66 282.235 818.391 268.53L818.631 257.808L818.908 268.486C819.759 282.136 819.013 296.166 818.795 309.851L879.904 309.923C879.91 305.292 878.944 288.385 880.642 285.304C881.835 293.248 881.121 301.969 881.065 310.017C901.128 309.877 921.347 309.586 941.399 310.139C941.3 296.356 940.239 281.853 941.304 268.151Z"/>
	<path fill="#254885" d="M942.17 368.208C945.205 368.076 948.18 368.671 951.215 368.569C948.295 371.601 945.441 374.768 942.365 377.639C942.396 374.5 942.253 371.347 942.17 368.208Z"/>
	<path fill="#3E56AB" d="M572.153 311.535L573.109 311.6C573.035 330.036 573.197 348.504 572.844 366.934L696.747 366.843L736.446 366.96C742.456 366.96 749.377 367.643 755.226 366.554L756.264 365.355L756.482 365.282C756.971 365.73 757.353 366.335 757.949 366.625C760.492 367.863 810.149 367.187 816.646 366.867C817.224 366.833 817.802 366.789 818.378 366.736L818.959 366.718C848.577 368.127 878.677 366.986 908.349 367.067C918.726 367.096 929.623 366.446 939.944 367.34C930.249 368.21 920.334 367.831 910.603 367.861C900.771 367.892 890.873 368.249 881.048 367.933C881.094 375.19 881.031 382.448 880.861 389.703C879.118 383.154 879.851 374.449 880.001 367.63C860.179 368.971 838.967 368.948 819.124 367.887C819.07 378.17 817.421 415.779 819.138 423.006L818.178 423.079L817.726 423L790.181 423.382L791.146 424.08C798.313 431.282 805.611 438.352 813.038 445.286C807.131 451.102 800.822 456.78 795.271 462.923C782.444 449.285 768.909 436.317 756.191 422.571C745.204 435.688 732.071 447.607 719.979 459.732C715.283 455.115 704.22 446.36 697.717 446.183C690.13 454.415 682.265 462.386 674.135 470.083C666.876 462.857 660.271 454.941 652.711 448.02C648.381 441.291 640.439 434.778 634.859 428.908C623.625 418.202 613.759 406.205 602.716 395.301C602.551 395.246 602.385 395.194 602.221 395.135C599.971 394.332 598.463 393.098 596.665 391.598C591.871 395.547 587.482 399.625 580.81 399.003C578.991 398.833 577.285 398.536 575.788 397.457L572.953 400.446L572.512 401.531C571.584 390.657 572.326 379.022 572.33 368.077C559.026 368.408 525.93 369.817 514.616 367.904L514.55 366.825C514.889 348.541 514.568 330.192 514.574 311.9C523.656 311.436 565.6 310.395 572.085 312.033L572.153 311.535Z"/>
	<path fill="#50DDD5" d="M756.158 388.844L756.578 388.757C766.441 401.153 779.364 411.722 790.181 423.382L791.146 424.08C798.313 431.282 805.611 438.352 813.038 445.286C807.131 451.102 800.822 456.78 795.271 462.923C782.444 449.285 768.909 436.317 756.191 422.571C745.204 435.688 732.071 447.607 719.979 459.732C715.283 455.115 704.22 446.36 697.717 446.183C705.448 438.678 713.113 431.106 720.711 423.467C732.929 412.503 744.175 400.128 756.158 388.844Z"/>
	<path fill="#2C6097" d="M514.574 311.9C523.656 311.436 565.6 310.395 572.085 312.033L572.357 366.868L514.55 366.825C514.889 348.541 514.568 330.192 514.574 311.9Z"/>
	<path fill="#3E56AB" d="M757.737 368.242C763.773 367.62 816.09 366.979 819.124 367.887C819.07 378.17 817.421 415.779 819.138 423.006L818.178 423.079L817.726 423L790.181 423.382C779.364 411.722 766.441 401.153 756.578 388.757C757.054 382.123 756.77 375.303 756.776 368.647L757.737 368.242Z"/>
	<path fill="#2C6097" d="M757.737 368.242C763.773 367.62 816.09 366.979 819.124 367.887C819.07 378.17 817.421 415.779 819.138 423.006L818.178 423.079L817.726 423C819.72 418.561 818.135 376.976 818.102 368.449C798.205 368.533 777.526 369.777 757.737 368.242Z"/>
	<path fill="#254885" d="M634.859 428.908C634.807 427.186 635.025 425.538 635.237 423.832C636.33 423.314 710.61 423.474 720.711 423.467C713.113 431.106 705.448 438.678 697.717 446.183C690.13 454.415 682.265 462.386 674.135 470.083C666.876 462.857 660.271 454.941 652.711 448.02C648.381 441.291 640.439 434.778 634.859 428.908Z"/>
	<path fill="#336DA2" d="M572.153 311.535L573.109 311.6C573.035 330.036 573.197 348.504 572.844 366.934L696.747 366.843L736.446 366.96C742.456 366.96 749.377 367.643 755.226 366.554L756.264 365.355L756.482 365.282C756.971 365.73 757.353 366.335 757.949 366.625C760.492 367.863 810.149 367.187 816.646 366.867C817.224 366.833 817.802 366.789 818.378 366.736L818.959 366.718C848.577 368.127 878.677 366.986 908.349 367.067C918.726 367.096 929.623 366.446 939.944 367.34C930.249 368.21 920.334 367.831 910.603 367.861C900.771 367.892 890.873 368.249 881.048 367.933C881.094 375.19 881.031 382.448 880.861 389.703C879.118 383.154 879.851 374.449 880.001 367.63C860.179 368.971 838.967 368.948 819.124 367.887C816.09 366.979 763.773 367.62 757.737 368.242L756.776 368.647L755.988 368.383C749.902 367.368 742.951 367.99 736.766 368.021C723.553 368.087 710.305 368.429 697.096 368.12L696.783 378.428L695.911 378.168L696.014 368.155C675.703 368.327 655.392 368.344 635.081 368.205C635.123 379.575 634.958 390.945 634.587 402.309C634.467 407.337 634.783 412.76 634.133 417.707C633.831 401.198 633.72 384.686 633.8 368.174C613.637 368.389 592.903 369.096 572.788 367.884C572.714 378.305 571.594 390.224 572.953 400.446L572.512 401.531C571.584 390.657 572.326 379.022 572.33 368.077C559.026 368.408 525.93 369.817 514.616 367.904L514.55 366.825L572.357 366.868L572.085 312.033L572.153 311.535Z"/>
	<path fill="#FFC9EE" d="M589.834 381.144C594.226 385.773 598.52 390.493 602.716 395.301C602.551 395.246 602.385 395.194 602.221 395.135C599.971 394.332 598.463 393.098 596.665 391.598C591.871 395.547 587.482 399.625 580.81 399.003C578.991 398.833 577.285 398.536 575.788 397.457C580.162 391.82 585.141 386.525 589.834 381.144Z"/>
	<path fill="#336DA2" d="M695.911 378.168L696.783 378.428C697.476 392.192 696.616 406.343 696.416 420.142C696.034 406.154 695.865 392.161 695.911 378.168Z"/>
	<path fill="#336DA2" d="M755.988 368.383L756.776 368.647C756.77 375.303 757.054 382.123 756.578 388.757L756.158 388.844L755.988 368.383Z"/>
	<path fill="#2C6097" d="M634.069 268.321C633.962 264.45 633.634 260.446 634.459 256.641C635.667 260.035 635.078 264.829 634.951 268.439C647.588 268.363 660.225 268.398 672.862 268.545C679.822 268.595 689.354 269.659 696.072 267.979L696.722 267.972C703.538 269.822 746.107 268.393 756.175 268.177L756.415 257.396L756.622 268.06C757.227 281.914 757.096 296.194 756.724 310.063L774.008 310.032C768.888 310.135 761.731 309.406 756.934 310.784C756.803 328.856 757.424 347.256 756.482 365.282L756.264 365.355L755.226 366.554C749.377 367.643 742.456 366.96 736.446 366.96L696.747 366.843L572.844 366.934C573.197 348.504 573.035 330.036 573.109 311.6C571.524 299.177 573.286 281.457 572.973 268.235L634.069 268.321Z"/>
	<path fill="#336DA2" d="M634.069 268.321C633.962 264.45 633.634 260.446 634.459 256.641C635.667 260.035 635.078 264.829 634.951 268.439C647.588 268.363 660.225 268.398 672.862 268.545C679.822 268.595 689.354 269.659 696.072 267.979L696.722 267.972C703.538 269.822 746.107 268.393 756.175 268.177C755.222 282.012 756.044 296.294 756.194 310.175C748.717 310.14 699.352 308.737 696.307 310.58C687.163 313.478 647.591 311.613 635.594 311.557C635.579 318.04 636.556 357.93 634.126 361.028C632.879 359.218 633.413 317.817 633.382 311.694C613.291 311.772 593.2 311.741 573.109 311.6C571.524 299.177 573.286 281.457 572.973 268.235L634.069 268.321Z"/>
	<path fill="#3783AE" d="M756.175 268.177L756.415 257.396L756.622 268.06C757.227 281.914 757.096 296.194 756.724 310.063L774.008 310.032C768.888 310.135 761.731 309.406 756.934 310.784C756.803 328.856 757.424 347.256 756.482 365.282L756.264 365.355C755.059 347.286 755.991 328.648 756.057 310.523C736.869 312.325 716.6 311.11 697.291 311.093C697.454 318.829 697.179 326.622 697.1 334.363C697.02 326.43 696.756 318.501 696.307 310.58C699.352 308.737 748.717 310.14 756.194 310.175C756.044 296.294 755.222 282.012 756.175 268.177Z"/>
	<path fill="#1A2E73" d="M1179.74 254.447C1188.75 254.697 1207 253.179 1213.65 260.505C1215.07 262.073 1215.88 264.495 1215.92 266.6C1215.93 267.314 1215.69 267.875 1215.43 268.524C1217.15 272.588 1217.32 305.481 1215.6 309.928C1215.53 310.11 1215.43 310.281 1215.35 310.457C1218.62 319.152 1215.47 336.534 1216.47 346.681C1216.6 352.453 1218.01 362.218 1215.6 367.467L1214.23 367.554C1192.31 368.876 1170.05 368.303 1148.08 368.253C1139.39 368.234 1130.4 367.716 1121.75 368.348L1119.89 366.735C1109.56 366.404 1071.56 368.355 1065.03 365.971L1064.98 365.436C1065.06 347.683 1066.3 329.073 1064.83 311.39C1069.51 310.654 1120.07 310.416 1122.1 311.885C1122.22 311.966 1122.3 312.076 1122.4 312.172L1123.11 311.288L1124.13 310.561C1121.05 307.218 1123.27 274.989 1122.51 267.839C1128.9 269.094 1165.84 266.867 1167.72 269.079C1170.86 267.815 1174.07 264.102 1176.42 261.687C1178.42 259.987 1179.73 258.527 1180.65 256.039L1179.74 254.447Z"/>
	<path fill="#254885" d="M1064.83 311.39C1069.51 310.654 1120.07 310.416 1122.1 311.885C1122.22 311.966 1122.3 312.076 1122.4 312.172C1123.33 317.968 1123.78 363.066 1121.34 366.922C1132.64 366.898 1207.79 365.594 1214.23 367.554C1192.31 368.876 1170.05 368.303 1148.08 368.253C1139.39 368.234 1130.4 367.716 1121.75 368.348L1119.89 366.735C1109.56 366.404 1071.56 368.355 1065.03 365.971L1064.98 365.436C1065.06 347.683 1066.3 329.073 1064.83 311.39Z"/>
	<path fill="#1A2E73" d="M1064.98 365.436C1069.93 362.711 1120.04 316.011 1120.58 313.778C1120.61 313.633 1120.61 313.481 1120.63 313.332C1123.06 318.453 1123.01 358.257 1121.28 364.231C1121.02 365.135 1120.47 366.006 1119.89 366.735C1109.56 366.404 1071.56 368.355 1065.03 365.971L1064.98 365.436Z"/>
	<path fill="#3E56AB" d="M1122.51 267.839C1128.9 269.094 1165.84 266.867 1167.72 269.079C1165.09 273.827 1129.87 307.108 1124.63 309.758L1177.06 309.951L1177.24 311.367C1173.3 309.901 1131.1 311.435 1123.11 311.288L1124.13 310.561C1121.05 307.218 1123.27 274.989 1122.51 267.839Z"/>
	<path fill="#2C6097" d="M1063.26 267.915C1063.32 267.786 1063.37 267.654 1063.43 267.526C1065.12 263.855 1064.14 259.073 1064.72 255.023C1064.87 259.159 1065.41 263.928 1064.11 267.893C1074.26 269.295 1112.51 269.449 1121.83 267.829C1121.92 264.373 1121.27 258.493 1122.57 255.375C1122.86 259.587 1122.78 263.627 1122.51 267.839C1123.27 274.989 1121.05 307.218 1124.13 310.561L1123.11 311.288L1122.4 312.172C1122.3 312.076 1122.22 311.966 1122.1 311.885C1120.07 310.416 1069.51 310.654 1064.83 311.39C1066.3 329.073 1065.06 347.683 1064.98 365.436L1065.03 365.971L1064.42 368.437C1043.97 368.365 1023.26 369.038 1002.85 368.272L1002.77 393.95L1001.79 392.637C998.274 389.057 994.496 384.27 990.216 381.69C987.012 377.081 981.834 372.659 977.913 368.554L976.122 366.953C984.806 366.722 993.53 366.927 1002.22 366.971L1002.03 311.422C995.503 310.477 988.098 311.108 981.495 311.163C968.371 311.36 955.246 311.403 942.122 311.289L942.254 309.713C940.361 297.924 942.524 280.734 941.968 268.049C961.69 268.397 982.509 269.696 1002.12 267.789C1002.01 264.103 1002.1 260.487 1002.31 256.805C1003.22 259.925 1002.75 264.061 1002.74 267.338C1006.92 268.756 1058.85 269.274 1062.65 268.241C1062.87 268.18 1063.06 268.024 1063.26 267.915Z"/>
	<path fill="#3E56AB" d="M1002.74 267.338C1006.92 268.756 1058.85 269.274 1062.65 268.241C1062.87 268.18 1063.06 268.024 1063.26 267.915C1063.43 268.293 1063.7 268.845 1063.81 269.27C1065.16 274.167 1065.11 306.273 1062.95 310.01C1042.91 309.477 1022.73 309.819 1002.69 309.975C1002.82 296.187 1004.04 281.419 1002.66 267.746L1002.74 267.338Z"/>
	<path fill="#3E56AB" d="M1064.11 267.893C1074.26 269.295 1112.51 269.449 1121.83 267.829C1121.95 275.108 1123.86 304.8 1120.84 309.89C1102.28 309.912 1083.25 310.816 1064.74 309.737C1065.53 302.995 1066.42 273.209 1064.11 267.893Z"/>
	<path fill="#254885" d="M977.913 368.554C985.818 368.444 993.821 368.532 1001.71 368.066C1001.79 376.133 1002.43 384.616 1001.79 392.637C998.274 389.057 994.496 384.27 990.216 381.69C987.012 377.081 981.834 372.659 977.913 368.554Z"/>
	<path fill="#254885" d="M1002.85 311.454C1010.61 310.943 1059.89 309.84 1063.98 311.621C1064.11 320.336 1065.94 361.954 1062.95 366.882L1002.65 366.881C1002.82 348.406 1002.88 329.93 1002.85 311.454Z"/>
	<path fill="#3E56AB" d="M614.54 254.16L672.42 254.301C681.569 254.306 691.419 255.048 700.467 254.215C740.044 254.709 779.906 255.052 819.471 254.187C840.089 254.741 860.791 254.349 881.418 254.335C881.373 258.98 881.477 263.681 881.105 268.312C873.207 269.076 864.861 268.57 856.925 268.518C844.253 268.432 831.58 268.422 818.908 268.486L818.631 257.808L818.391 268.53C797.909 268.686 777.064 269.198 756.622 268.06L756.415 257.396L756.175 268.177C746.107 268.393 703.538 269.822 696.722 267.972L696.072 267.979C689.354 269.659 679.822 268.595 672.862 268.545C660.225 268.398 647.588 268.363 634.951 268.439C635.078 264.829 635.667 260.035 634.459 256.641C633.634 260.446 633.962 264.45 634.069 268.321L572.973 268.235C573.286 281.457 571.524 299.177 573.109 311.6L572.153 311.535L572.085 312.033C565.6 310.395 523.656 311.436 514.574 311.9C514.666 297.217 514.647 282.532 514.517 267.849C514.608 267.355 514.709 266.862 514.82 266.372C516.168 260.509 519.061 257.598 524.011 254.442C533.62 253.844 543.54 254.343 553.18 254.35C573.633 254.462 594.088 254.399 614.54 254.16Z"/>
	<path fill="#336DA2" d="M572.172 267.992C572.239 264.092 571.926 259.734 572.734 255.926C572.79 260.029 572.87 264.133 572.973 268.235C573.286 281.457 571.524 299.177 573.109 311.6L572.153 311.535L572.085 312.033C565.6 310.395 523.656 311.436 514.574 311.9C514.666 297.217 514.647 282.532 514.517 267.849C533.732 268.334 552.955 268.382 572.172 267.992Z"/>
	<path fill="#3783AE" d="M572.172 267.992C572.239 264.092 571.926 259.734 572.734 255.926C572.79 260.029 572.87 264.133 572.973 268.235C573.286 281.457 571.524 299.177 573.109 311.6L572.153 311.535C571.53 297.186 571.95 282.374 572.172 267.992Z"/>
	<path fill="#2C6097" d="M696.072 267.979C696.057 264.326 695.716 260.291 696.49 256.726C696.716 260.491 696.792 264.201 696.722 267.972L696.072 267.979Z"/>
	<path fill="#254885" d="M881.418 254.335L1003.02 254.41C1023.58 254.413 1044.38 253.753 1064.92 254.462C1103.15 254.241 1141.51 253.74 1179.74 254.447L1180.65 256.039C1179.73 258.527 1178.42 259.987 1176.42 261.687C1174.07 264.102 1170.86 267.815 1167.72 269.079C1165.84 266.867 1128.9 269.094 1122.51 267.839C1122.78 263.627 1122.86 259.587 1122.57 255.375C1121.27 258.493 1121.92 264.373 1121.83 267.829C1112.51 269.449 1074.26 269.295 1064.11 267.893C1065.41 263.928 1064.87 259.159 1064.72 255.023C1064.14 259.073 1065.12 263.855 1063.43 267.526C1063.37 267.654 1063.32 267.786 1063.26 267.915C1063.06 268.024 1062.87 268.18 1062.65 268.241C1058.85 269.274 1006.92 268.756 1002.74 267.338C1002.75 264.061 1003.22 259.925 1002.31 256.805C1002.1 260.487 1002.01 264.103 1002.12 267.789C982.509 269.696 961.69 268.397 941.968 268.049L941.77 257.149C940.762 260.08 941.348 264.968 941.304 268.151C921.495 268.847 900.896 269.36 881.105 268.312C881.477 263.681 881.373 258.98 881.418 254.335Z"/>
	<path fill="#3E56AB" d="M514.616 367.904C525.93 369.817 559.026 368.408 572.33 368.077C572.326 379.022 571.584 390.657 572.512 401.531C565.884 408.978 559.859 417.249 552.751 424.219L514.844 424.178C514.908 414.85 515.173 405.378 514.47 396.075C514.447 386.685 514.496 377.294 514.616 367.904Z"/>
	<path fill="#254885" d="M514.47 396.075C515.173 405.378 514.908 414.85 514.844 424.178L552.751 424.219C543.984 433.85 535.359 443.706 526.178 452.942C522.208 456.32 517.795 460.278 514.48 464.288L513.814 464.639C515.09 441.971 512.283 418.657 514.47 396.075Z"/>
	<path fill="#8988E7" d="M575.788 397.457C577.285 398.536 578.991 398.833 580.81 399.003C587.482 399.625 591.871 395.547 596.665 391.598C598.463 393.098 599.971 394.332 602.221 395.135C602.385 395.194 602.551 395.246 602.716 395.301C613.759 406.205 623.625 418.202 634.859 428.908C640.439 434.778 648.381 441.291 652.711 448.02C660.271 454.941 666.876 462.857 674.135 470.083C682.265 462.386 690.13 454.415 697.717 446.183C704.22 446.36 715.283 455.115 719.979 459.732C732.071 447.607 745.204 435.688 756.191 422.571C768.909 436.317 782.444 449.285 795.271 462.923C800.822 456.78 807.131 451.102 813.038 445.286C805.611 438.352 798.313 431.282 791.146 424.08L790.181 423.382L817.726 423L818.178 423.079L819.138 423.006C826.438 423.043 833.737 423.147 841.034 423.319C850.517 413.274 861.18 404.147 871.076 394.478C878.831 404.178 889.778 412.551 898.731 421.241L905.642 414.911L905.21 417.589C908.337 421.009 912.675 423.4 912.43 428.703C912.215 433.341 911.566 437.729 911.623 442.431C915.995 437.931 927.307 423.919 932.753 422.452C923.049 433.864 911.747 444.03 901.581 455.046C905.376 454.619 913.419 444.364 916.91 441.563L917.913 442.736C893.675 468.546 868.795 493.743 843.295 518.306C835.79 508.842 826.483 500.298 818.059 491.632C809.975 483.316 801.932 474.085 793.157 466.527C780.136 480.496 764.227 492.618 749.987 505.393C726.158 527.025 702.548 548.896 679.159 571.004C667.537 581.91 654.978 592.508 643.941 603.954C630.39 603.416 616.677 603.735 603.11 603.684L513.84 603.766L513.797 574.942L513.872 567.804C513.962 560.543 513.936 553.281 513.795 546.021C514.792 540.829 513.893 534.429 514.209 529.047C513.617 507.595 514.43 486.098 513.814 464.639L514.48 464.288C517.795 460.278 522.208 456.32 526.178 452.942C535.359 443.706 543.984 433.85 552.751 424.219C559.859 417.249 565.884 408.978 572.512 401.531L572.953 400.446L575.788 397.457Z"/>
	<defs>
		<linearGradient id="gradient_2" gradientUnits="userSpaceOnUse" x1="623.29712" y1="540.1991" x2="602.50488" y2="446.47327">
			<stop offset="0" stop-color="#9094EB"/>
			<stop offset="1" stop-color="#D2CCFD"/>
		</linearGradient>
	</defs>
	<path fill="url(#gradient_2)" d="M575.788 397.457C577.285 398.536 578.991 398.833 580.81 399.003C587.482 399.625 591.871 395.547 596.665 391.598C598.463 393.098 599.971 394.332 602.221 395.135C602.385 395.194 602.551 395.246 602.716 395.301C613.759 406.205 623.625 418.202 634.859 428.908C640.439 434.778 648.381 441.291 652.711 448.02C660.271 454.941 666.876 462.857 674.135 470.083C682.265 462.386 690.13 454.415 697.717 446.183C704.22 446.36 715.283 455.115 719.979 459.732C693.326 485.778 667.288 512.508 640.903 538.835C638.456 536.38 635.731 532.896 632.866 531.033C619.315 516.013 604.483 501.773 590.17 487.471C581.067 498.006 571.208 507.851 562.007 518.296C557.342 522.923 552.982 527.75 548.646 532.685C544.674 536.869 517.569 566.97 513.872 567.804C513.962 560.543 513.936 553.281 513.795 546.021C514.792 540.829 513.893 534.429 514.209 529.047C513.617 507.595 514.43 486.098 513.814 464.639L514.48 464.288C517.795 460.278 522.208 456.32 526.178 452.942C535.359 443.706 543.984 433.85 552.751 424.219C559.859 417.249 565.884 408.978 572.512 401.531L572.953 400.446L575.788 397.457Z"/>
	<path fill="#8D52D8" d="M575.788 397.457C577.285 398.536 578.991 398.833 580.81 399.003C587.482 399.625 591.871 395.547 596.665 391.598C598.463 393.098 599.971 394.332 602.221 395.135C602.385 395.194 602.551 395.246 602.716 395.301C613.759 406.205 623.625 418.202 634.859 428.908C640.439 434.778 648.381 441.291 652.711 448.02C660.271 454.941 666.876 462.857 674.135 470.083C663.479 480.945 651.743 491.74 642.311 503.652C625.28 484.582 608.25 465.084 589.764 447.417C580.382 457.617 571.236 468.362 561.259 477.968C561.765 476.387 562.261 474.803 562.749 473.216C558.956 472.244 521.981 474.055 515.294 474.409C514.195 472.095 514.6 466.976 514.48 464.288C517.795 460.278 522.208 456.32 526.178 452.942C535.359 443.706 543.984 433.85 552.751 424.219C559.859 417.249 565.884 408.978 572.512 401.531L572.953 400.446L575.788 397.457Z"/>
	<defs>
		<linearGradient id="gradient_3" gradientUnits="userSpaceOnUse" x1="590.30127" y1="445.03314" x2="588.65009" y2="391.07809">
			<stop offset="0" stop-color="#D356D7"/>
			<stop offset="1" stop-color="#FFBFE9"/>
		</linearGradient>
	</defs>
	<path fill="url(#gradient_3)" d="M575.788 397.457C577.285 398.536 578.991 398.833 580.81 399.003C587.482 399.625 591.871 395.547 596.665 391.598C598.463 393.098 599.971 394.332 602.221 395.135C602.385 395.194 602.551 395.246 602.716 395.301C613.759 406.205 623.625 418.202 634.859 428.908C640.439 434.778 648.381 441.291 652.711 448.02L652.33 449.697C650.231 447.227 648.54 445.129 645.433 443.915C645.172 443.814 644.918 443.697 644.654 443.603C641.052 442.312 636.409 443.094 632.607 443.109C622.982 443.146 613.531 443.18 603.92 443.89C582.755 445.454 555.998 449.423 535.112 445.855C533.304 447.678 529.104 452.883 526.79 453.319L526.178 452.942C535.359 443.706 543.984 433.85 552.751 424.219C559.859 417.249 565.884 408.978 572.512 401.531L572.953 400.446L575.788 397.457Z"/>
	<path fill="#7240A8" d="M514.48 464.288C514.6 466.976 514.195 472.095 515.294 474.409C521.981 474.055 558.956 472.244 562.749 473.216C562.261 474.803 561.765 476.387 561.259 477.968C545.839 495.102 530.435 512.682 514.209 529.047C513.617 507.595 514.43 486.098 513.814 464.639L514.48 464.288Z"/>
	<path fill="#7290DA" d="M871.076 394.478C878.831 404.178 889.778 412.551 898.731 421.241L905.642 414.911L905.21 417.589C908.337 421.009 912.675 423.4 912.43 428.703C912.215 433.341 911.566 437.729 911.623 442.431C915.995 437.931 927.307 423.919 932.753 422.452C923.049 433.864 911.747 444.03 901.581 455.046C890.296 465.423 879.692 476.718 868.837 487.552C860.469 495.904 851.687 503.886 843.389 512.285C828.472 494.827 810.524 480.018 795.271 462.923C800.822 456.78 807.131 451.102 813.038 445.286C805.611 438.352 798.313 431.282 791.146 424.08L790.181 423.382L817.726 423L818.178 423.079L819.138 423.006C826.438 423.043 833.737 423.147 841.034 423.319C850.517 413.274 861.18 404.147 871.076 394.478Z"/>
	<defs>
		<linearGradient id="gradient_4" gradientUnits="userSpaceOnUse" x1="865.45386" y1="471.72369" x2="849.91669" y2="399.0527">
			<stop offset="0" stop-color="#3937B4"/>
			<stop offset="1" stop-color="#BE5AE7"/>
		</linearGradient>
	</defs>
	<path fill="url(#gradient_4)" d="M871.076 394.478C878.831 404.178 889.778 412.551 898.731 421.241C896.036 424.121 893.354 427.535 890.354 430.061C878.535 444.419 857.15 465.367 843.327 477.873C835.029 468.11 825.705 459.284 817.392 449.54L813.038 445.286C805.611 438.352 798.313 431.282 791.146 424.08L790.181 423.382L817.726 423L818.178 423.079L819.138 423.006C826.438 423.043 833.737 423.147 841.034 423.319C850.517 413.274 861.18 404.147 871.076 394.478Z"/>
	<path fill="#254885" d="M818.178 423.079L819.138 423.006C826.438 423.043 833.737 423.147 841.034 423.319L840.112 424.033L829.324 434.877C826.268 438.01 822.89 442.368 818.91 444.258L818.342 444.377L817.392 449.54L813.038 445.286C805.611 438.352 798.313 431.282 791.146 424.08L790.181 423.382L817.726 423L818.178 423.079Z"/>
	<path fill="#254885" d="M818.953 423.775C826.006 423.793 833.064 423.744 840.112 424.033L829.324 434.877C826.268 438.01 822.89 442.368 818.91 444.258C818.667 437.447 818.881 430.591 818.953 423.775Z"/>
	<path fill="#336DA2" d="M818.178 423.079L819.138 423.006C826.438 423.043 833.737 423.147 841.034 423.319L840.112 424.033C833.064 423.744 826.006 423.793 818.953 423.775C818.881 430.591 818.667 437.447 818.91 444.258L818.342 444.377L818.17 424.024C809.326 423.716 799.967 423.372 791.146 424.08L790.181 423.382L817.726 423L818.178 423.079Z"/>
	<path fill="#2B3794" d="M756.191 422.571C768.909 436.317 782.444 449.285 795.271 462.923C810.524 480.018 828.472 494.827 843.389 512.285C851.687 503.886 860.469 495.904 868.837 487.552C879.692 476.718 890.296 465.423 901.581 455.046C905.376 454.619 913.419 444.364 916.91 441.563L917.913 442.736C893.675 468.546 868.795 493.743 843.295 518.306C835.79 508.842 826.483 500.298 818.059 491.632C809.975 483.316 801.932 474.085 793.157 466.527C780.813 454.296 767.987 442.005 756.392 429.07C731.86 453.302 707.507 477.714 683.334 502.303C669.118 516.528 654.391 530.398 640.721 545.144C637.137 541.401 632.847 537.624 629.882 533.391C616.153 521.003 602.905 506.599 590.547 492.82C581.146 501.879 572.9 512.181 563.637 521.421C559.526 526.68 554.676 531.489 550.112 536.363L548.646 532.685C552.982 527.75 557.342 522.923 562.007 518.296C571.208 507.851 581.067 498.006 590.17 487.471C604.483 501.773 619.315 516.013 632.866 531.033C635.731 532.896 638.456 536.38 640.903 538.835C667.288 512.508 693.326 485.778 719.979 459.732C732.071 447.607 745.204 435.688 756.191 422.571Z"/>
	<path fill="#7240A8" d="M562.007 518.296C571.208 507.851 581.067 498.006 590.17 487.471C604.483 501.773 619.315 516.013 632.866 531.033C626.961 529.84 596.856 496.12 590.176 489.42C587.289 492.746 580.705 498.565 579.254 502.358C583.248 499.237 586.632 495.192 590.091 491.496C596.463 496.306 627.712 527.713 629.882 533.391C616.153 521.003 602.905 506.599 590.547 492.82C581.146 501.879 572.9 512.181 563.637 521.421C559.526 526.68 554.676 531.489 550.112 536.363L548.646 532.685C552.982 527.75 557.342 522.923 562.007 518.296Z"/>
	<path fill="#351A82" d="M548.646 532.685L550.112 536.363C538.286 549.539 525.874 562.022 513.797 574.942L513.872 567.804C517.569 566.97 544.674 536.869 548.646 532.685Z"/>
	<path fill="#1A2E73" d="M1216.47 346.681L1216.98 346.682C1219.18 357.17 1217.13 384.424 1217.2 396.369L1217.29 560.512C1217.26 574.637 1216.74 588.91 1217.06 603.017C1217.18 608.497 1218.81 613.965 1218.76 619.422C1218.71 623.822 1217.65 628.229 1217.41 632.636C1216.8 644.064 1216.47 656.327 1217.07 667.739C1217.26 671.194 1219.09 672.522 1220.29 675.463C1223.23 682.676 1223.2 692.826 1222.18 700.423L1222.92 699.977C1224.95 689.37 1222.94 668.48 1222.61 656.669C1222.05 636.745 1222.46 616.701 1222.47 596.766C1222.47 584.417 1221.61 571.327 1222.79 559.061C1224.75 587.07 1223.21 615.932 1223.54 644.056C1223.98 672.802 1224.08 701.552 1223.83 730.3C1223.79 743.419 1224.53 756.902 1223.72 769.958C1223.61 771.771 1223.59 773.013 1222.45 774.471C1218.77 775.677 1215.12 776.513 1211.26 776.867C1205.46 777.401 1169.17 778.559 1166.26 777.058C1166.09 776.972 1165.95 776.838 1165.8 776.728C1165.63 775.367 1165.46 774.012 1165.39 772.642C1166.4 768.592 1166.03 635.516 1164.75 631.69C1160.44 635.353 1154.86 641.761 1149.61 643.734C1151.7 648.156 1151.38 757.895 1150.4 770.034C1149.9 770.718 1149.42 771.446 1148.84 772.065C1148.94 771.861 1149.05 771.662 1149.13 771.452C1150.87 767.189 1150.47 661.681 1149.79 649.392C1149.72 648.171 1149.36 647.119 1148.84 646.016C1150.59 641.951 1150.94 572.589 1149.17 566.355L1149.47 565.011C1150.99 558.225 1151.5 525.986 1149.84 519.111L1150.08 517.739C1150.51 515.328 1150.37 513.832 1149.61 511.506C1151.03 508.103 1150.86 502.64 1150.76 498.931C1150.64 494.446 1150.68 491.513 1147.33 488.338L1145.61 488.159C1140.9 488.344 1136.15 488.228 1131.43 488.214C1127.74 488.482 1123.91 488.246 1120.21 488.221C1117.38 488.424 1114.42 488.248 1111.57 488.231C1107.07 488.254 1102.03 487.706 1097.93 489.813C1096.68 485.579 1087.16 477.721 1083.5 474.878C1082.96 474.039 1082.03 473.323 1081.3 472.63C1080.31 470.602 1078.6 469.49 1076.87 468.131C1075.75 465.071 1066.86 457.306 1064.14 454.55C1053.86 445.648 1045.27 434.738 1034.85 426.035C1034.26 425.285 1033.29 424.613 1032.56 423.978C1030.15 419.106 1022.04 412.969 1017.94 409.027C1012.58 404.529 1007.71 398.927 1002.77 393.95L1002.85 368.272C1023.26 369.038 1043.97 368.365 1064.42 368.437L1065.03 365.971C1071.56 368.355 1109.56 366.404 1119.89 366.735L1121.75 368.348C1130.4 367.716 1139.39 368.234 1148.08 368.253C1170.05 368.303 1192.31 368.876 1214.23 367.554L1215.6 367.467C1218.01 362.218 1216.6 352.453 1216.47 346.681Z"/>
	<path fill="#1C195B" d="M1216.47 346.681L1216.98 346.682C1219.18 357.17 1217.13 384.424 1217.2 396.369L1217.29 560.512C1217.26 574.637 1216.74 588.91 1217.06 603.017C1217.18 608.497 1218.81 613.965 1218.76 619.422C1218.71 623.822 1217.65 628.229 1217.41 632.636C1216.8 644.064 1216.47 656.327 1217.07 667.739C1217.26 671.194 1219.09 672.522 1220.29 675.463C1223.23 682.676 1223.2 692.826 1222.18 700.423L1222.92 699.977C1224.95 689.37 1222.94 668.48 1222.61 656.669C1222.05 636.745 1222.46 616.701 1222.47 596.766C1222.47 584.417 1221.61 571.327 1222.79 559.061C1224.75 587.07 1223.21 615.932 1223.54 644.056C1223.98 672.802 1224.08 701.552 1223.83 730.3C1223.79 743.419 1224.53 756.902 1223.72 769.958C1223.61 771.771 1223.59 773.013 1222.45 774.471C1218.77 775.677 1215.12 776.513 1211.26 776.867C1205.46 777.401 1169.17 778.559 1166.26 777.058C1166.09 776.972 1165.95 776.838 1165.8 776.728C1165.63 775.367 1165.46 774.012 1165.39 772.642C1166.4 768.592 1166.03 635.516 1164.75 631.69C1160.44 635.353 1154.86 641.761 1149.61 643.734C1151.7 648.156 1151.38 757.895 1150.4 770.034C1149.9 770.718 1149.42 771.446 1148.84 772.065C1148.94 771.861 1149.05 771.662 1149.13 771.452C1150.87 767.189 1150.47 661.681 1149.79 649.392C1149.72 648.171 1149.36 647.119 1148.84 646.016C1150.59 641.951 1150.94 572.589 1149.17 566.355L1149.47 565.011C1150.99 558.225 1151.5 525.986 1149.84 519.111L1150.08 517.739C1150.51 515.328 1150.37 513.832 1149.61 511.506C1153.24 510.267 1157.03 509.022 1160.43 507.228C1160.83 507.043 1161.23 506.867 1161.62 506.654C1163.73 505.479 1164.15 504.704 1164.76 502.502L1164.98 501.015C1165.23 500.888 1165.48 500.77 1165.72 500.636C1171 497.69 1213.41 437.16 1215.43 430.035C1217.55 426.038 1216.55 418.571 1216.49 414.076L1217.02 414.076C1215.44 402.453 1219.07 376.178 1215.6 367.467C1218.01 362.218 1216.6 352.453 1216.47 346.681Z"/>
	<path fill="#2B3794" d="M1216.49 414.076L1217.02 414.076C1217.5 422.973 1218.66 488.402 1215.54 493.584C1217.13 497.394 1217.44 565.694 1216.08 570.492C1215.85 571.291 1215.4 571.791 1214.88 572.406C1208.64 582.73 1173.11 626.409 1165.08 630.044C1166.45 622.476 1166.03 558.967 1164.8 552.121C1159.9 556.277 1154.97 561.797 1149.47 565.011C1150.99 558.225 1151.5 525.986 1149.84 519.111L1150.08 517.739C1150.51 515.328 1150.37 513.832 1149.61 511.506C1153.24 510.267 1157.03 509.022 1160.43 507.228C1160.83 507.043 1161.23 506.867 1161.62 506.654C1163.73 505.479 1164.15 504.704 1164.76 502.502L1164.98 501.015C1165.23 500.888 1165.48 500.77 1165.72 500.636C1171 497.69 1213.41 437.16 1215.43 430.035C1217.55 426.038 1216.55 418.571 1216.49 414.076Z"/>
	<path fill="#3783AE" d="M1216.49 414.076L1217.02 414.076C1217.5 422.973 1218.66 488.402 1215.54 493.584C1212.19 501.328 1171.37 547.758 1165.14 550.538C1166.2 542.051 1166.46 510.738 1164.76 502.502L1164.98 501.015C1165.23 500.888 1165.48 500.77 1165.72 500.636C1171 497.69 1213.41 437.16 1215.43 430.035C1217.55 426.038 1216.55 418.571 1216.49 414.076Z"/>
	<path fill="#1C195B" d="M1149.61 511.506C1153.24 510.267 1157.03 509.022 1160.43 507.228C1159.11 510.364 1154.45 516.359 1151.17 517.546C1150.81 517.678 1150.47 517.692 1150.08 517.739C1150.51 515.328 1150.37 513.832 1149.61 511.506Z"/>
	<path fill="#0D0A1F" d="M1216.47 346.681L1216.98 346.682C1219.18 357.17 1217.13 384.424 1217.2 396.369L1217.29 560.512C1217.26 574.637 1216.74 588.91 1217.06 603.017C1217.18 608.497 1218.81 613.965 1218.76 619.422C1218.71 623.822 1217.65 628.229 1217.41 632.636C1216.8 644.064 1216.47 656.327 1217.07 667.739C1217.26 671.194 1219.09 672.522 1220.29 675.463C1223.23 682.676 1223.2 692.826 1222.18 700.423L1222.92 699.977C1224.95 689.37 1222.94 668.48 1222.61 656.669C1222.05 636.745 1222.46 616.701 1222.47 596.766C1222.47 584.417 1221.61 571.327 1222.79 559.061C1224.75 587.07 1223.21 615.932 1223.54 644.056C1223.98 672.802 1224.08 701.552 1223.83 730.3C1223.79 743.419 1224.53 756.902 1223.72 769.958C1223.61 771.771 1223.59 773.013 1222.45 774.471C1218.77 775.677 1215.12 776.513 1211.26 776.867C1205.46 777.401 1169.17 778.559 1166.26 777.058C1166.09 776.972 1165.95 776.838 1165.8 776.728C1165.63 775.367 1165.46 774.012 1165.39 772.642C1181.7 771.917 1198.29 772.534 1214.62 772.519C1214.88 771.978 1215.1 771.483 1215.26 770.902C1216.96 764.425 1215.69 720.39 1215.71 710.434L1215.94 620.599C1215.97 606.026 1216.47 591.27 1215.96 576.715C1215.9 575.065 1215.69 573.857 1214.88 572.406C1215.4 571.791 1215.85 571.291 1216.08 570.492C1217.44 565.694 1217.13 497.394 1215.54 493.584C1218.66 488.402 1217.5 422.973 1217.02 414.076C1215.44 402.453 1219.07 376.178 1215.6 367.467C1218.01 362.218 1216.6 352.453 1216.47 346.681Z"/>
	<path fill="#254885" d="M1065.03 365.971C1071.56 368.355 1109.56 366.404 1119.89 366.735L1121.75 368.348C1124.08 372.975 1123.54 416.59 1122.44 423.733L1121.47 423.731C1113.86 424.556 1105.62 423.983 1097.95 424.014C1086.95 424.058 1075.26 424.784 1064.33 423.548L1063.06 423.883C1052.94 424.263 1042.7 423.838 1032.56 423.978C1030.15 419.106 1022.04 412.969 1017.94 409.027C1012.58 404.529 1007.71 398.927 1002.77 393.95L1002.85 368.272C1023.26 369.038 1043.97 368.365 1064.42 368.437L1065.03 365.971Z"/>
	<path fill="#1A2E73" d="M1063.95 368.559C1082.57 368.535 1101.27 368.877 1119.87 368.396C1121.65 371.403 1122.64 418.659 1121.47 423.731C1113.86 424.556 1105.62 423.983 1097.95 424.014C1086.95 424.058 1075.26 424.784 1064.33 423.548C1066.24 417.168 1065.48 392.371 1064.73 384.844C1065.21 380.328 1066.38 372.559 1063.95 368.559Z"/>
	<path fill="#1A2E73" d="M1062.79 369.393C1065.08 373.145 1064.08 380.475 1064.07 384.844C1064.19 391.839 1066.37 418.949 1063.06 423.883C1052.94 424.263 1042.7 423.838 1032.56 423.978C1030.15 419.106 1022.04 412.969 1017.94 409.027C1025.39 400.717 1059.61 376.403 1062.79 369.393Z"/>
	<path fill="#1A2E73" d="M1063.06 423.883L1064.33 423.548C1075.26 424.784 1086.95 424.058 1097.95 424.014C1105.62 423.983 1113.86 424.556 1121.47 423.731L1122.44 423.733C1128.38 423.953 1154.15 422.608 1157.85 424.453C1145.92 425.228 1133.49 425.444 1121.56 424.609C1123.65 428.776 1123.7 441.965 1122.22 446.51C1122.14 446.754 1122.05 446.995 1121.96 447.237C1124.11 447.648 1128.28 447.647 1130.03 448.635C1132.47 448.961 1134.48 449.166 1136.67 450.402C1137.45 451.699 1138.25 452.89 1138.74 454.332C1139.93 454.664 1141.15 455.093 1142.38 455.238L1144.8 455.195C1147.95 458.401 1147.48 463.494 1147.45 467.771C1147.43 469.361 1147.27 470.364 1146.53 471.8C1149.04 474.509 1148.89 477.859 1148.75 481.442C1148.65 483.815 1148.63 486.282 1147.33 488.338L1145.61 488.159C1140.9 488.344 1136.15 488.228 1131.43 488.214C1127.74 488.482 1123.91 488.246 1120.21 488.221C1117.38 488.424 1114.42 488.248 1111.57 488.231C1107.07 488.254 1102.03 487.706 1097.93 489.813C1096.68 485.579 1087.16 477.721 1083.5 474.878C1082.96 474.039 1082.03 473.323 1081.3 472.63C1080.31 470.602 1078.6 469.49 1076.87 468.131C1075.75 465.071 1066.86 457.306 1064.14 454.55C1053.86 445.648 1045.27 434.738 1034.85 426.035C1034.26 425.285 1033.29 424.613 1032.56 423.978C1042.7 423.838 1052.94 424.263 1063.06 423.883Z"/>
	<path fill="#351A82" d="M1121.96 447.237C1124.11 447.648 1128.28 447.647 1130.03 448.635C1132.47 448.961 1134.48 449.166 1136.67 450.402C1137.45 451.699 1138.25 452.89 1138.74 454.332C1139.93 454.664 1141.15 455.093 1142.38 455.238L1144.8 455.195C1147.95 458.401 1147.48 463.494 1147.45 467.771C1147.43 469.361 1147.27 470.364 1146.53 471.8C1149.04 474.509 1148.89 477.859 1148.75 481.442C1148.65 483.815 1148.63 486.282 1147.33 488.338L1145.61 488.159C1140.9 488.344 1136.15 488.228 1131.43 488.214C1127.74 488.482 1123.91 488.246 1120.21 488.221C1117.38 488.424 1114.42 488.248 1111.57 488.231C1107.07 488.254 1102.03 487.706 1097.93 489.813C1096.68 485.579 1087.16 477.721 1083.5 474.878C1082.96 474.039 1082.03 473.323 1081.3 472.63C1080.31 470.602 1078.6 469.49 1076.87 468.131L1079.76 468.186C1084.8 468.168 1090.16 468.53 1095.16 468L1095.7 467.426C1096.04 463.79 1099.64 460.689 1101.38 457.461C1104.18 454.38 1106.24 453.427 1109.66 451.288L1110.02 449.471C1110.14 449.397 1110.26 449.317 1110.39 449.25C1110.6 449.138 1110.82 449.04 1111.04 448.934C1113.72 447.611 1116.63 447.789 1119.55 447.744L1121.8 448.941C1122.89 452.888 1123.33 461.471 1121.69 465.15C1123.62 460.501 1122.95 452.084 1121.96 447.237Z"/>
	<path fill="#351A82" d="M1110.02 449.471L1113.02 449.389C1113.38 450.422 1113.48 451.192 1113.49 452.285C1117.67 456.376 1115.35 464.181 1119.24 469.444C1119.68 470.042 1119.53 469.753 1119.75 470.426C1119.17 472.314 1118.63 473.776 1118.99 475.751C1120.84 478.147 1121.95 478.587 1121.72 481.695L1121.52 483.898L1122.52 484.117L1123.34 483.557C1123.35 481.665 1123.43 480.1 1123.94 478.273L1125.64 477.798C1128.26 478.807 1129.22 479.635 1130.45 482.216C1131.4 484.215 1132.08 486.099 1131.43 488.214C1127.74 488.482 1123.91 488.246 1120.21 488.221C1117.38 488.424 1114.42 488.248 1111.57 488.231C1107.07 488.254 1102.03 487.706 1097.93 489.813C1096.68 485.579 1087.16 477.721 1083.5 474.878C1082.96 474.039 1082.03 473.323 1081.3 472.63C1080.31 470.602 1078.6 469.49 1076.87 468.131L1079.76 468.186C1084.8 468.168 1090.16 468.53 1095.16 468L1095.7 467.426C1096.04 463.79 1099.64 460.689 1101.38 457.461C1104.18 454.38 1106.24 453.427 1109.66 451.288L1110.02 449.471Z"/>
	<path fill="#2B3794" d="M1110.02 449.471L1113.02 449.389C1113.38 450.422 1113.48 451.192 1113.49 452.285C1117.67 456.376 1115.35 464.181 1119.24 469.444C1119.68 470.042 1119.53 469.753 1119.75 470.426C1119.17 472.314 1118.63 473.776 1118.99 475.751C1120.84 478.147 1121.95 478.587 1121.72 481.695L1121.19 481.644C1120.8 480.024 1120.62 479.844 1119.43 478.657C1116.76 478.526 1115.41 479.888 1113.01 480.954L1112.72 479.915C1114.13 478.784 1115.14 477.642 1115.41 475.787C1115.98 471.854 1114.6 467.092 1112.23 463.933C1110.88 462.13 1109.53 461.413 1107.34 461.032L1107.34 462.908L1107.12 461.917C1106.71 464.496 1106.6 466.987 1106.54 469.588C1104.12 468.436 1104.41 466.011 1101.67 464.385C1101.09 465.621 1100.63 466.004 1099.47 466.722C1099.71 464.316 1101.9 461.982 1102.59 459.453L1101.38 457.461C1104.18 454.38 1106.24 453.427 1109.66 451.288L1110.02 449.471Z"/>
	<path fill="#254885" d="M1076.87 468.131L1079.76 468.186C1084.8 468.168 1090.16 468.53 1095.16 468L1097.71 468.739C1097.33 470.507 1096.91 473.155 1095.36 474.252C1092.2 476.477 1087.18 473.789 1083.5 474.878C1082.96 474.039 1082.03 473.323 1081.3 472.63C1080.31 470.602 1078.6 469.49 1076.87 468.131Z"/>
	<path fill="#351A82" d="M1076.87 468.131L1079.76 468.186L1080.37 468.26C1085.07 468.796 1090 468.077 1094.56 469.431L1094.89 470.364C1090.96 472.951 1085.58 471.073 1081.3 472.63C1080.31 470.602 1078.6 469.49 1076.87 468.131Z"/>
	<path fill="#2B3794" d="M1128.59 475.614C1130.29 477.64 1131.92 480.43 1134.41 481.336C1135.48 480.315 1136.1 479.51 1136.81 478.22L1137.47 478.204C1137.39 480.631 1137.25 483.07 1137.35 485.497L1137.82 487.03C1139.34 487.286 1140.71 487.356 1142.25 487.34C1143.73 487.324 1144.4 487.321 1145.61 488.159C1140.9 488.344 1136.15 488.228 1131.43 488.214C1132.08 486.099 1131.4 484.215 1130.45 482.216C1129.22 479.635 1128.26 478.807 1125.64 477.798C1127 477.198 1127.6 476.737 1128.59 475.614Z"/>
	<path fill="#3E56AB" d="M1121.8 468.243L1123.16 471.051C1123.7 471.228 1124.38 471.541 1124.94 471.572C1126.93 472.666 1127.52 472.72 1128.51 474.832L1128.59 475.614C1127.6 476.737 1127 477.198 1125.64 477.798L1123.94 478.273C1123.43 480.1 1123.35 481.665 1123.34 483.557L1122.52 484.117L1121.52 483.898L1121.72 481.695C1121.95 478.587 1120.84 478.147 1118.99 475.751C1118.63 473.776 1119.17 472.314 1119.75 470.426C1121.25 469.708 1121.19 469.788 1121.8 468.243Z"/>
	<path fill="#3E56AB" d="M1137.33 456.731C1138.87 456.31 1140.31 456.229 1141.9 456.149C1143.01 458.142 1143.59 458.73 1143.45 461.052L1142.24 462.119C1140.73 461.831 1139.42 461.678 1138.57 460.214C1137.98 459.202 1137.67 457.853 1137.33 456.731Z"/>
	<path fill="#2B3794" d="M1063.06 423.883L1064.33 423.548C1075.26 424.784 1086.95 424.058 1097.95 424.014C1105.62 423.983 1113.86 424.556 1121.47 423.731L1122.44 423.733C1128.38 423.953 1154.15 422.608 1157.85 424.453C1145.92 425.228 1133.49 425.444 1121.56 424.609C1123.65 428.776 1123.7 441.965 1122.22 446.51C1122.14 446.754 1122.05 446.995 1121.96 447.237C1122.95 452.084 1123.62 460.501 1121.69 465.15C1123.33 461.471 1122.89 452.888 1121.8 448.941L1119.55 447.744C1120.2 447.35 1121.42 446.892 1121.6 446.158C1122.68 441.694 1122.94 428.785 1120.72 424.871C1101.72 425.086 1082.72 425.026 1063.72 424.691C1066.36 428.724 1065.64 447.228 1064.75 452.255C1064.65 452.869 1064.44 453.284 1064.18 453.841C1064.23 447.461 1066.05 429.647 1062.9 424.645C1056.97 424.682 1039.34 423.453 1034.85 426.035C1034.26 425.285 1033.29 424.613 1032.56 423.978C1042.7 423.838 1052.94 424.263 1063.06 423.883Z"/>
	<path fill="#50DDD5" d="M1164.43 416.972C1165.02 415.633 1165.58 414.73 1166.51 413.602C1173.34 412.8 1211.26 412.295 1216.49 414.076C1216.55 418.571 1217.55 426.038 1215.43 430.035C1213.41 437.16 1171 497.69 1165.72 500.636C1165.48 500.77 1165.23 500.888 1164.98 501.015C1166.48 494.11 1166.28 430.038 1165.55 420.47C1165.45 419.154 1165.08 418.118 1164.43 416.972Z"/>
	<path fill="#351A82" d="M513.84 603.766L603.11 603.684C616.677 603.735 630.39 603.416 643.941 603.954L840.297 603.777L897.297 603.677C905.999 603.664 915.897 602.782 924.485 603.941C916.869 605.414 908.587 603.185 901.053 605.266C895.469 606.806 869.685 604.974 861.897 605.087C789.228 606.093 716.549 606.319 643.875 605.765C639.925 609.671 635.593 612.947 631.413 616.574C625.154 622.006 619.201 627.803 612.802 633.074C604.129 640.218 594.914 646.7 586.114 653.688C562.876 672.139 538.799 692.506 513.807 708.387L513.84 603.766Z"/>
	<path fill="#5DBBD7" d="M964.77 355.898C968.428 359.714 972.281 363.321 976.122 366.953L977.913 368.554C981.834 372.659 987.012 377.081 990.216 381.69C994.496 384.27 998.274 389.057 1001.79 392.637L1002.77 393.95C1007.71 398.927 1012.58 404.529 1017.94 409.027C1022.04 412.969 1030.15 419.106 1032.56 423.978C1033.29 424.613 1034.26 425.285 1034.85 426.035C1045.27 434.738 1053.86 445.648 1064.14 454.55C1066.86 457.306 1075.75 465.071 1076.87 468.131C1078.6 469.49 1080.31 470.602 1081.3 472.63C1082.03 473.323 1082.96 474.039 1083.5 474.878C1087.16 477.721 1096.68 485.579 1097.93 489.813C1098.39 496.321 1099.63 517.1 1096.94 522.182C1095.56 518.993 1090.5 514.422 1087.33 513.063C1087.29 512.758 1087.32 512.439 1087.23 512.146C1086.3 509.247 1051.94 476.015 1049.21 474.841C1048.77 471.48 975.421 398.756 964.712 388.525C955.876 400.556 943.31 411.817 932.753 422.452C927.307 423.919 915.995 437.931 911.623 442.431C911.566 437.729 912.215 433.341 912.43 428.703C912.675 423.4 908.337 421.009 905.21 417.589L905.642 414.911C911.312 407.792 926.01 392.933 933.146 387.447C936.201 384.16 939.274 380.891 942.365 377.639C945.441 374.768 948.295 371.601 951.215 368.569C955.96 364.723 960.336 360.116 964.77 355.898Z"/>
	<path fill="#29E6C7" d="M964.77 355.898C968.428 359.714 972.281 363.321 976.122 366.953L977.913 368.554C981.834 372.659 987.012 377.081 990.216 381.69L988.929 381.892C985.975 379.215 978.976 370.315 975.154 370.407C965.934 370.63 951.608 373.007 943.835 378.297C940.239 380.745 937.449 386.542 933.146 387.447C936.201 384.16 939.274 380.891 942.365 377.639C945.441 374.768 948.295 371.601 951.215 368.569C955.96 364.723 960.336 360.116 964.77 355.898Z"/>
	<path fill="#8D52D8" d="M1148.84 646.016C1149.36 647.119 1149.72 648.171 1149.79 649.392C1150.47 661.681 1150.87 767.189 1149.13 771.452C1149.05 771.662 1148.94 771.861 1148.84 772.065C1146.32 773.741 1102.78 772.754 1097.13 772.749C1099.71 768.517 1098.96 756.861 1098.11 751.863C1099.8 745.928 1099.89 686.275 1097.82 682.043C1098.49 681.941 1099.17 681.861 1099.82 681.705C1108.16 679.723 1143.82 653.916 1148.84 646.016Z"/>
	<path fill="#F9FAF4" d="M1145.61 488.159L1147.33 488.338C1150.68 491.513 1150.64 494.446 1150.76 498.931C1150.86 502.64 1151.03 508.103 1149.61 511.506C1150.37 513.832 1150.51 515.328 1150.08 517.739L1149.84 519.111C1151.5 525.986 1150.99 558.225 1149.47 565.011L1149.17 566.355C1140.19 574.051 1109.55 600.174 1097.84 600.954C1100.15 595.528 1099.57 573.012 1097.29 567.234C1097.34 567.091 1097.41 566.951 1097.46 566.805C1099.11 561.721 1099.03 531.514 1096.92 527.404C1097.75 524.888 1097.78 524.693 1096.94 522.182C1099.63 517.1 1098.39 496.321 1097.93 489.813C1102.03 487.706 1107.07 488.254 1111.57 488.231C1114.42 488.248 1117.38 488.424 1120.21 488.221C1123.91 488.246 1127.74 488.482 1131.43 488.214C1136.15 488.228 1140.9 488.344 1145.61 488.159Z"/>
	<path fill="#5DBBD7" d="M1097.29 567.234L1098.99 570.096C1099.25 570.052 1099.5 570.017 1099.75 569.965C1102.72 569.341 1106.81 565.332 1109.19 563.357C1124.07 551.009 1140.03 535.949 1149.84 519.111C1151.5 525.986 1150.99 558.225 1149.47 565.011L1149.17 566.355C1140.19 574.051 1109.55 600.174 1097.84 600.954C1100.15 595.528 1099.57 573.012 1097.29 567.234Z"/>
	<path fill="#826BDE" d="M1000.44 613.016C1003.19 613.363 1005.76 613.544 1007.6 615.91C1011.73 621.216 1009.24 634.346 1008.97 640.835C1008.77 662.594 1008.7 684.355 1008.75 706.115C992.225 707.866 973.794 706.634 957.273 705.416C955.578 690.087 956.94 673.242 956.964 657.756C957.001 650.443 954.993 620.043 958.852 615.758C962.963 611.193 992.535 613.043 1000.44 613.016Z"/>
	<path fill="#8988E7" d="M1000.44 613.016C1003.19 613.363 1005.76 613.544 1007.6 615.91C1011.73 621.216 1009.24 634.346 1008.97 640.835C995.23 646.288 970.876 654.804 956.964 657.756C957.001 650.443 954.993 620.043 958.852 615.758C962.963 611.193 992.535 613.043 1000.44 613.016Z"/>
	<path fill="#7290DA" d="M1097.84 600.954C1109.55 600.174 1140.19 574.051 1149.17 566.355C1150.94 572.589 1150.59 641.951 1148.84 646.016C1143.82 653.916 1108.16 679.723 1099.82 681.705C1099.17 681.861 1098.49 681.941 1097.82 682.043C1097.95 681.753 1098.08 681.467 1098.2 681.172C1099.76 677.15 1099.69 605.215 1097.84 600.954Z"/>
	<path fill="#351A82" d="M1078.59 667.411C1081.59 670.731 1080.49 682.339 1080.2 686.955C1080.11 688.432 1079.78 689.618 1079.03 690.899C1080.61 696.526 1080.59 769.314 1078.77 772.512C1078.5 772.975 1078.39 773.091 1078.09 773.474C1061.16 773.571 1043.3 774.815 1026.47 773.56C1028.34 768.341 1028.52 708.657 1026.55 703.745C1036.79 704.113 1070.74 696.663 1078.48 690.468C1080.3 685.846 1080.35 672.18 1078.59 667.411Z"/>
	<path fill="#826BDE" d="M1079.06 611.503C1079.84 620.256 1080.73 660.748 1078.59 667.411C1080.35 672.18 1080.3 685.846 1078.48 690.468C1070.74 696.663 1036.79 704.113 1026.55 703.745C1026.77 703.274 1027.03 702.794 1027.18 702.288C1028.8 696.748 1028.15 645.952 1027.51 637.251C1027.42 635.997 1027.05 635.248 1026.45 634.175C1036.39 633.482 1069.24 617.119 1079.06 611.503Z"/>
	<path fill="#F9FAF4" d="M1026.86 603.277C1029.09 592.773 1027.17 573.902 1026.67 562.785C1026.56 560.369 1026.83 557.917 1028.61 556.137C1034.14 550.641 1061.74 552.845 1069.93 552.908C1073.16 552.933 1075.86 552.911 1078.26 555.369C1079 557.605 1079 557.96 1078.43 560.245C1080.08 565.41 1080.34 579.009 1078.2 583.812C1072.2 589.191 1036.29 603.631 1027.9 603.42C1027.34 603.406 1027.32 603.383 1026.86 603.277Z"/>
	<path fill="#1C195B" d="M924.485 603.941C958.161 603.485 991.891 604.402 1025.55 603.654C1026.25 604.765 1026.71 605.872 1026.83 607.184C1027.37 613.445 1026.94 620.094 1026.95 626.391L1026.96 663.715C1026.97 674.169 1028.41 694.296 1026.62 703.467C1026.6 703.561 1026.57 703.652 1026.55 703.745C1028.52 708.657 1028.34 768.341 1026.47 773.56C1027.02 763.12 1028.28 711.212 1025.72 704.311C1020.93 706.354 1014.07 705.808 1008.84 706.6L1008.75 706.115C1008.7 684.355 1008.77 662.594 1008.97 640.835C1009.24 634.346 1011.73 621.216 1007.6 615.91C1005.76 613.544 1003.19 613.363 1000.44 613.016C1002.07 612.547 1003.92 611.822 1005.58 612.481C1016.4 616.771 1007.21 629.842 1009.83 635.887C1010.3 636.954 1010.72 637.421 1011.83 637.809C1015.57 639.127 1022.19 635.434 1025.43 633.686C1026.95 625.479 1026.66 613.42 1025.1 605.169C1019.33 604.428 1008.61 605.798 1002.11 605.803L939.508 605.468C927.004 605.515 913.441 606.725 901.053 605.266C908.587 603.185 916.869 605.414 924.485 603.941Z"/>
	<path fill="#92B0E4" d="M1078.43 560.245C1081.15 563.565 1080.17 574.728 1079.7 579.159C1079.61 580.002 1079.38 580.717 1079.14 581.522C1080.9 590.598 1079.67 601.512 1079.43 610.773L1079.06 611.503C1069.24 617.119 1036.39 633.482 1026.45 634.175C1028.78 629.266 1028.4 608.327 1026.86 603.277C1027.32 603.383 1027.34 603.406 1027.9 603.42C1036.29 603.631 1072.2 589.191 1078.2 583.812C1080.34 579.009 1080.08 565.41 1078.43 560.245Z"/>
	<path fill="#1C195B" d="M1079.43 610.773C1085.28 609.283 1091.47 605.133 1096.82 602.316C1097.49 603.394 1097.92 604.421 1098.03 605.692C1098.74 613.511 1099.17 674.9 1097.95 680.785C1097.75 681.764 1097.41 682.611 1096.93 683.477C1091.04 686.03 1085.16 689.005 1079.03 690.899C1079.78 689.618 1080.11 688.432 1080.2 686.955C1080.49 682.339 1081.59 670.731 1078.59 667.411C1080.73 660.748 1079.84 620.256 1079.06 611.503L1079.43 610.773Z"/>
	<path fill="#254885" d="M964.712 388.525C975.421 398.756 1048.77 471.48 1049.21 474.841L1048.69 475.743C1046.21 473.809 1043.91 470.688 1040.9 470.005C1026.82 455.643 1012.06 441.925 997.673 427.877C986.967 417.425 976.812 406.289 965.298 396.713C948.971 411.525 933.721 427.388 917.913 442.736L916.91 441.563C913.419 444.364 905.376 454.619 901.581 455.046C911.747 444.03 923.049 433.864 932.753 422.452C943.31 411.817 955.876 400.556 964.712 388.525Z"/>
	<path fill="#1A2E73" d="M1096.95 571.114C1098.89 574.454 1099.01 595.892 1097.72 600.33C1097.56 600.894 1097.26 601.433 1097 601.952C1096.93 602.072 1096.88 602.195 1096.82 602.316C1091.47 605.133 1085.28 609.283 1079.43 610.773C1079.67 601.512 1080.9 590.598 1079.14 581.522C1083.18 580.873 1094.13 574.861 1096.53 571.708C1096.68 571.514 1096.81 571.312 1096.95 571.114Z"/>
	<path fill="#2B3794" d="M1040.9 470.005C1043.91 470.688 1046.21 473.809 1048.69 475.743L1049.21 474.841C1051.94 476.015 1086.3 509.247 1087.23 512.146C1087.32 512.439 1087.29 512.758 1087.33 513.063C1086.37 512.119 1085.96 512.081 1084.64 511.727L1082.75 513.12C1080.1 507.745 1048.13 478.018 1040.9 470.005Z"/>
	<path fill="#1A2E73" d="M1082.75 513.12L1084.64 511.727C1085.96 512.081 1086.37 512.119 1087.33 513.063C1090.5 514.422 1095.56 518.993 1096.94 522.182C1097.78 524.693 1097.75 524.888 1096.92 527.404C1092.65 522.474 1087.94 517.077 1082.75 513.12Z"/>
	<path fill="#EC6B8A" d="M672.534 645.339C672.5 642.402 672.158 639.223 673.454 636.51C673.871 636.166 674.597 635.375 675.061 635.184C679.891 633.199 709.449 634.094 715.899 634.713C718.701 634.981 722.624 635.343 724.667 637.336C726.674 644.682 725.255 655.145 725.114 662.773C725.534 679.219 726.274 699.566 724.752 715.736C724.181 734.938 724.327 754.441 724.896 773.644C708.037 773.674 690.752 772.904 673.95 774.053L672.045 774.008C672.021 759.1 670.193 649.713 672.534 645.339Z"/>
	<path fill="#351A82" d="M672.045 774.008C672.021 759.1 670.193 649.713 672.534 645.339C673.306 667.031 672.588 688.942 672.528 710.657C672.494 718.61 672.565 726.578 672.411 734.529C682.59 731.576 692.826 728.706 702.723 724.889C710.079 722.052 717.334 718.265 724.752 715.736C724.181 734.938 724.327 754.441 724.896 773.644C708.037 773.674 690.752 772.904 673.95 774.053L672.045 774.008Z"/>
	<path fill="#C039A1" d="M724.547 689.676C724.491 680.771 724.157 671.627 725.114 662.773C725.534 679.219 726.274 699.566 724.752 715.736C717.334 718.265 710.079 722.052 702.723 724.889C692.826 728.706 682.59 731.576 672.411 734.529C672.565 726.578 672.494 718.61 672.528 710.657C689.498 703.017 707.2 696.434 724.547 689.676Z"/>
	<path fill="#1C195B" d="M438.075 322.111C439.309 312.089 436.707 268.088 439.37 264.03C441.458 262.798 443.335 263.273 445.627 263.549C455.266 271.111 463.908 280.038 472.777 288.466C474.578 290.14 476.285 291.517 476.452 294.14C477.053 303.629 476.747 323.384 474.205 332.243C472.573 335.691 470.152 339.426 467.379 342.061C465.677 343.678 463.988 344.703 461.67 345.174C454.468 346.637 423.793 345.012 413.863 344.602C409.542 344.424 404.416 344.39 400.329 342.964C392.598 340.267 384.32 329.606 378.773 323.595C390.798 322.782 404.261 325.338 416.004 323.149C404.533 320.758 391.861 324.387 380.374 322.746C377.566 322.344 374.565 321.614 372.812 319.231L373.175 317.858C379.156 314.288 392.898 315.896 399.966 315.882C396.472 310.95 392.542 305.372 388.018 301.365C386.27 299.818 384.063 298.917 382.406 297.324C383.229 296.884 384.046 296.534 384.71 295.868C382.916 295.363 381.638 294.73 380.072 293.726L380.203 292.265C378.541 290.86 376.901 289.43 375.532 287.729C372.64 284.136 369.84 277.782 370.521 273.092C370.899 270.491 372.499 268.332 374.605 266.826C376.993 265.116 380.015 264.262 382.888 263.827C388.441 262.984 418.513 262.985 424.76 264.097C426.785 265.587 426.757 266.353 427.536 268.682C429.584 271.096 431.453 271.349 434.557 271.595C435.625 271.678 436.695 271.748 437.765 271.807C437.738 282.96 437.438 294.207 437.773 305.35C437.765 310.808 437.289 316.72 438.075 322.111Z"/>
	<path fill="#F9FAF4" d="M380.203 292.265C378.541 290.86 376.901 289.43 375.532 287.729C372.64 284.136 369.84 277.782 370.521 273.092C370.899 270.491 372.499 268.332 374.605 266.826C376.993 265.116 380.015 264.262 382.888 263.827C388.441 262.984 418.513 262.985 424.76 264.097C426.785 265.587 426.757 266.353 427.536 268.682C427.367 268.801 427.2 268.926 427.027 269.04C419.207 274.188 380.801 266.022 378.821 275.237C378.318 277.578 378.711 279.744 380.082 281.729C383.096 286.089 389.505 287.778 394.455 288.469C405.154 289.96 416.108 289.757 425.162 296.413C428.125 301.323 429.528 306.478 428.147 312.206C427.297 315.731 425.095 319.27 421.979 321.202C420.221 322.292 418 322.696 416.004 323.149C404.533 320.758 391.861 324.387 380.374 322.746C377.566 322.344 374.565 321.614 372.812 319.231L373.175 317.858C379.156 314.288 392.898 315.896 399.966 315.882C396.472 310.95 392.542 305.372 388.018 301.365C386.27 299.818 384.063 298.917 382.406 297.324C383.229 296.884 384.046 296.534 384.71 295.868C382.916 295.363 381.638 294.73 380.072 293.726L380.203 292.265Z"/>
	<path fill="#1C195B" d="M380.203 292.265C383.382 293.598 386.495 294.772 389.921 295.272C397.338 296.353 416.544 295.081 420.17 302.992C421.252 305.354 421.404 308.985 420.385 311.379C419.579 313.273 418.077 314.48 416.167 315.17C411.575 316.832 404.851 315.977 399.966 315.882C396.472 310.95 392.542 305.372 388.018 301.365C386.27 299.818 384.063 298.917 382.406 297.324C383.229 296.884 384.046 296.534 384.71 295.868C382.916 295.363 381.638 294.73 380.072 293.726L380.203 292.265Z"/>
	<path fill="#F9FAF4" d="M438.075 322.111C439.309 312.089 436.707 268.088 439.37 264.03C441.458 262.798 443.335 263.273 445.627 263.549C445.433 272.941 446.881 316.084 445.142 321.376C444.991 321.834 444.196 322.645 443.881 323.068C441.744 323.528 440.475 323.513 438.468 322.372C438.331 322.295 438.206 322.198 438.075 322.111Z"/>
	<path fill="#1A2E73" d="M472.777 288.466C474.578 290.14 476.285 291.517 476.452 294.14C477.053 303.629 476.747 323.384 474.205 332.243C471.676 318.3 472.221 302.539 472.777 288.466Z"/>
	<path fill="#351A82" d="M886.373 657.871C887.432 656.066 888.255 654.987 890.327 654.389C895.306 652.952 932.31 652.604 935.481 654.757C937.374 656.042 938.097 657.943 938.309 660.147C938.406 661.161 938.399 662.184 938.383 663.201L938.243 703.936L938.223 773.495C924.192 773.521 901.529 772.191 888.478 774.1L885.791 774.228C885.53 749.195 885.779 724.134 885.776 699.099C885.764 685.948 884.322 670.78 886.373 657.871Z"/>
	<path fill="#826BDE" d="M886.373 657.871C887.432 656.066 888.255 654.987 890.327 654.389C895.306 652.952 932.31 652.604 935.481 654.757C937.374 656.042 938.097 657.943 938.309 660.147C938.406 661.161 938.399 662.184 938.383 663.201L938.243 703.936C920.798 703.118 903.174 700.787 885.776 699.099C885.764 685.948 884.322 670.78 886.373 657.871Z"/>
	<path fill="#8988E7" d="M886.373 657.871C887.432 656.066 888.255 654.987 890.327 654.389C895.306 652.952 932.31 652.604 935.481 654.757C937.374 656.042 938.097 657.943 938.309 660.147C938.406 661.161 938.399 662.184 938.383 663.201C921.21 668.988 904.003 674.677 886.765 680.269C886.743 672.796 886.738 665.336 886.373 657.871Z"/>
	<path fill="#EC6B8A" d="M603.006 737.349C602.571 727.157 601.09 673.025 604.816 667.284C606.815 666.388 608.831 666.201 610.988 666.07C615.294 665.81 650.313 665.3 652.05 667.051C655.986 671.021 654.129 708.705 654.06 716.31L654.018 739.923L653.958 773.476L603.255 773.58C603.16 766.957 603.11 760.333 603.105 753.709L603.006 737.349Z"/>
	<path fill="#61277E" d="M603.105 753.709C619.937 751.667 637.704 744.723 654.018 739.923L653.958 773.476L603.255 773.58C603.16 766.957 603.11 760.333 603.105 753.709Z"/>
	<path fill="#C039A1" d="M603.006 737.349C620.156 731.059 637.033 723.091 654.06 716.31L654.018 739.923C637.704 744.723 619.937 751.667 603.105 753.709L603.006 737.349Z"/>
	<path fill="#351A82" d="M814.41 698.434C814.312 695.922 813.56 690.05 815.366 688.101C817.376 685.932 824.05 685.805 826.819 685.749C835.543 685.57 856.231 684.426 864.021 686.744C865.289 687.121 866.304 688.03 867.239 688.927C867.103 691.833 867.022 694.742 866.997 697.652C866.814 713.401 866.8 729.152 866.955 744.902C866.99 754.378 866.586 764.047 867.125 773.487L861.837 773.57C846.159 772.763 830.16 773.411 814.446 773.419L814.41 698.434Z"/>
	<path fill="#826BDE" d="M814.41 698.434C814.312 695.922 813.56 690.05 815.366 688.101C817.376 685.932 824.05 685.805 826.819 685.749C835.543 685.57 856.231 684.426 864.021 686.744C865.289 687.121 866.304 688.03 867.239 688.927C867.103 691.833 867.022 694.742 866.997 697.652C856.746 697.651 846.426 696.98 836.163 696.836L814.41 698.434Z"/>
	<path fill="#8D52D8" d="M867.239 688.927C867.103 691.833 867.022 694.742 866.997 697.652C856.746 697.651 846.426 696.98 836.163 696.836C843.686 695.581 861.659 693.262 867.239 688.927Z"/>
	<path fill="#351A82" d="M957.273 705.416C973.794 706.634 992.225 707.866 1008.75 706.115L1008.84 706.6C1007.98 728.801 1008.59 751.24 1008.62 773.472L957.551 773.628C957.577 751.135 958.926 727.799 957.273 705.416Z"/>
	<path fill="#DF3E97" d="M532.926 711.93C536.15 708.576 541.163 709.16 545.494 709.076C551.742 708.955 580.954 707.425 584.577 711.255C586.947 713.76 585.838 738.764 585.796 743.656L585.807 755.226L585.745 773.49L532.566 773.631C532.721 760.078 532.381 746.505 532.353 732.95C532.339 726.053 531.923 718.741 532.926 711.93Z"/>
	<path fill="#61277E" d="M532.566 773.631C532.721 760.078 532.381 746.505 532.353 732.95C532.339 726.053 531.923 718.741 532.926 711.93C533.903 727.877 533.181 744.182 533.069 760.166L540.694 759.44C555.165 760.549 571.403 757.342 585.807 755.226L585.745 773.49L532.566 773.631Z"/>
	<path fill="#C039A1" d="M540.694 759.44C551.731 752.914 572.851 748.511 585.796 743.656L585.807 755.226C571.403 757.342 555.165 760.549 540.694 759.44Z"/>
	<path fill="#351A82" d="M774.086 712.299C780.611 711.83 787.188 711.939 793.728 711.897C795.482 732.038 794.164 753.181 794.143 773.426L762.592 773.475L743.267 773.616C743.259 753.649 742.91 733.613 743.572 713.658C753.746 713.434 763.922 712.802 774.086 712.299Z"/>
	<path fill="#F9FAF4" d="M313.914 263.337C326.207 264.325 350.297 260.555 359.942 267.764C362.851 269.938 364.603 273.015 365.058 276.61C365.74 281.993 365.397 288.099 361.798 292.423C357.066 298.109 350.381 298.408 343.583 298.92C349.575 304.457 357.241 311.03 361.47 317.992C362.52 319.719 362.702 320.471 362.229 322.405C360.707 323.658 359.843 323.804 357.896 323.913C350.006 316.156 342.758 308.346 336.141 299.467L319.156 299.428C319.249 306.412 320.697 316.379 317.367 322.661C315.857 323.697 315.966 323.753 314.172 323.474C311.598 320.966 311.189 317.045 311.078 313.596C310.813 305.317 310.159 272.663 311.725 266.662C312.064 265.363 313.022 264.298 313.914 263.337Z"/>
	<path fill="#1A2E73" d="M319.069 270.697C329.89 270.607 340.712 270.637 351.532 270.788C354.768 273.026 356.967 274.836 357.738 278.977C358.485 282.987 356.785 286.655 354.654 289.899C346.485 295.026 328.597 292.685 319.179 292.618C319.263 285.311 319.227 278.003 319.069 270.697Z"/>
	<path fill="#50DDD5" d="M414.995 765.901L415.294 506.259L415.281 427.493C415.267 412.235 414.858 396.845 415.428 381.602C415.494 379.838 415.233 376.169 416.448 375.039C417.754 377.629 418.325 380.787 418.346 383.677L417.741 656.412L417.798 726.586C417.836 737.453 419.319 752.03 417.244 762.403L416.388 761.514C415.714 762.994 415.318 764.309 414.995 765.901Z"/>
	<path fill="#61277E" d="M465.507 758.791C481.632 758.916 497.781 758.622 513.907 758.519L513.757 774.117L465.498 774.093L465.507 758.791Z"/>
	<path fill="#EC6B8A" d="M284.06 684.197C292.047 684.05 300.057 684.197 308.046 684.22C308.359 692.385 308.128 700.643 308.149 708.819L284.011 708.833L284.06 684.197Z"/>
	<path fill="#F9FAF4" d="M284.543 604.045C292.445 604.105 300.346 604.218 308.246 604.385L308.241 627.995L284.461 627.997L284.543 604.045Z"/>
	<path fill="#29E6C7" d="M284.854 450.919L308.254 450.886L308.232 473.835C300.499 474.217 292.625 473.95 284.875 473.982L284.854 450.919Z"/>
	<path fill="#351A82" d="M284.237 528.023L306.093 528.039L306.057 548.268L284.218 548.27L284.237 528.023Z"/>
	<path fill="#0D0A1F" d="M513.807 708.387C512.48 724.315 514.28 740.601 513.13 756.595C512.332 753.236 513.041 749.171 512.997 745.677C512.833 732.645 514.002 709.846 512.413 697.776C512.376 707.206 512.475 716.391 510.453 725.652L510.09 725.204C511.656 686.521 511.784 647.55 511.97 608.826C512.063 589.344 511.243 569.369 512.557 549.956C512.668 548.33 512.944 547.413 513.795 546.021C513.936 553.281 513.962 560.543 513.872 567.804L513.797 574.942L513.84 603.766L513.807 708.387Z"/>
	<path fill="#E23D3F" d="M285.644 373.25L305.332 373.378L305.28 393.166L285.725 393.14L285.644 373.25Z"/>
	<path fill="#0D0A1F" d="M867.125 773.487C867.127 773.903 867.155 774.41 867.026 774.807C866.664 775.929 866.349 776.34 865.271 776.739C862.005 777.945 818.211 777.888 814.747 776.236L814.469 775.039C814.824 774.716 815.081 774.227 815.534 774.069C819.231 772.782 854.392 774.183 861.837 773.57L867.125 773.487Z"/>
	<path fill="#0D0A1F" d="M1026.41 774.517C1033.29 774.224 1074.8 773.253 1078.62 774.51L1077.4 776.065C1069.95 778.444 1049.83 777.359 1041.27 777.336C1036.24 777.323 1030.13 778.246 1026.41 774.517Z"/>
	<path fill="#29E6C7" d="M362.339 534.429C368.411 533.757 398.605 532.68 402.685 534.948L403.346 537.333C396.337 537.873 369.265 539.043 363.729 536.868C363.017 536.589 362.652 535.14 362.339 534.429Z"/>
	<path fill="#29E6C7" d="M361.905 379.799C368.179 379.219 399.321 378.169 402.891 380.807L402.735 382.771C395.717 382.934 368.804 384.673 363.48 382.341C362.262 381.808 362.319 380.981 361.905 379.799Z"/>
	<path fill="#0D0A1F" d="M742.369 774.512C751.261 773.792 785.965 772.95 793.442 774.603L794.321 776.157C785.585 778.031 756.952 777.678 746.986 776.86C744.259 776.636 744.092 776.492 742.369 774.512Z"/>
	<path fill="#0D0A1F" d="M885.791 774.228L888.478 774.1C904.446 775.834 922.035 771.535 937.6 775.302L937.486 776.073L938.146 775.716L936.044 774.988L935.876 776.347C930.567 776.798 890.232 777.862 887.297 776.437C886.122 775.866 886.244 775.378 885.791 774.228Z"/>
	<path fill="#0D0A1F" d="M531.717 774.506C532.592 774.392 533.432 774.292 534.314 774.249C541.076 773.914 581.974 773.14 584.627 774.387C585.221 774.666 585.602 775.268 586.089 775.708C580.196 777.863 570.106 776.613 563.802 776.645C559.469 776.668 536.143 777.802 533.368 776.14C532.829 775.817 532.185 774.968 531.717 774.506Z"/>
	<path fill="#0D0A1F" d="M956.926 774.542C965.732 773.716 999.812 773.04 1007.5 774.724L1008.6 776.63C1007.54 776.849 1006.45 777.043 1005.37 777.068C1000.25 777.185 961.255 777.457 958.578 776.178C958.111 775.955 957.33 774.943 956.926 774.542Z"/>
	<path fill="#29E6C7" d="M396.24 456.144C398.514 456.012 400.725 455.538 402.669 456.93L403.464 458.288C402.92 458.504 402.586 458.662 402.039 458.801C398.087 459.8 365.015 459.855 362.639 458.311L363.209 457.07C366.704 454.776 390.2 456.106 396.24 456.144Z"/>
	<path fill="#50DDD5" d="M362.699 690.407C369.544 689.999 396.942 688.671 402.071 691.002L402.809 692.975C396.336 693.928 368.848 694.689 363.464 692.589L362.699 690.407Z"/>
	<path fill="#0D0A1F" d="M602.711 774.476C610.495 773.597 646.922 773.093 653.489 774.629L654.083 776.132C645.984 777.259 615.725 777.616 606.817 776.883C604.374 776.683 604.232 776.273 602.711 774.476Z"/>
	<path fill="#50DDD5" d="M362.774 613.158C369.76 612.381 396.704 611.46 402.331 613.574L403.111 615.683C396.514 616.168 368.526 617.233 363.414 615.131L362.774 613.158Z"/>
	<path fill="#0D0A1F" d="M672.045 774.008L673.95 774.053C681.34 774.73 722.209 773.125 725.129 774.937L724.343 776.245C718.118 777.214 676.118 777.245 672.567 775.991L672.045 774.008Z"/>
	<path fill="#29E6C7" d="M414.995 765.901C415.318 764.309 415.714 762.994 416.388 761.514L417.244 762.403C417.454 762.441 417.663 762.483 417.873 762.518C423.482 763.453 447.298 761.62 449.845 764.368C446.101 767.435 420.87 766.293 414.995 765.901Z"/>
	<path fill="#29E6C7" d="M431.855 379.155C437.248 378.97 445.588 377.74 450.51 379.81C451.122 381.377 450.8 381.487 450.152 382.973C444.718 383.209 437.117 384.422 432.045 382.489C431.22 380.897 431.431 380.815 431.855 379.155Z"/>
	<path fill="#29E6C7" d="M430.595 533.65C436.198 533.741 446.131 532.022 450.982 534.605L451.69 537.114C447.266 537.486 435.205 539.062 431.65 536.743C430.662 536.1 430.784 534.767 430.595 533.65Z"/>
	<path fill="#29E6C7" d="M430.098 612.142C435.272 612.062 446.396 610.362 450.577 613.343L450.572 615.477C445.252 616.02 435.652 617.44 430.888 614.878L430.098 612.142Z"/>
	<path fill="#29E6C7" d="M431.424 456.315C436.077 455.994 445.674 454.524 449.782 456.572C451.062 457.211 451.03 458.549 451.354 459.814C446.287 459.851 435.573 461.594 431.474 458.696L431.424 456.315Z"/>
	<path fill="#29E6C7" d="M429.849 690.456C435.026 689.673 443.671 689.035 448.666 690.342C450.441 690.805 450.465 691.616 451.225 693.112C446.18 693.828 436.471 694.898 431.827 693.125C430.459 692.603 430.427 691.717 429.849 690.456Z"/>
	<path fill="rgba(97,39,126,0.3)" d="M256.648 785.271C257.146 798.7 255.495 813.477 266.43 823.517C273.436 829.95 282.364 831.038 291.481 831.073C309.276 830.995 327.575 830.019 345.315 831.163C345.119 831.236 344.924 831.314 344.725 831.38C338.291 833.518 329.125 832.289 322.252 832.486L322.209 833.548L323.687 832.333L322.236 832.424C322.601 836.617 327.257 841.802 330.384 844.494C336.128 849.437 346.614 851.713 353.885 853.544C370.944 857.838 388.431 860.885 405.799 863.659C422.847 866.382 462.063 867.777 475.216 878.282C475.296 881.548 474.42 886.711 475.862 889.535C478.33 890.584 480.077 889.545 482.429 890.014C483.755 890.277 484.331 891.003 485.877 891.047C512.633 891.792 539.744 890.816 566.551 890.878L710.091 891.682L1094.41 892.002L1197.47 892.152C1204.35 892.181 1226.07 891.166 1231.54 892.37L566.44 893.356L359.09 893.671C325.384 893.727 291.338 894.785 257.666 893.795C248.969 895.498 238.923 894.613 230.053 894.567C188.349 894.32 146.401 895.334 104.737 894.125C116.287 889.025 127.59 881.414 138.588 875.137C168.05 858.321 196.986 840.591 226.404 823.688C236.097 818.119 246.025 810.845 256.304 806.567C256.245 799.488 255.978 792.323 256.648 785.271Z"/>
	<defs>
		<linearGradient id="gradient_5" gradientUnits="userSpaceOnUse" x1="124.42015" y1="589.02185" x2="193.53537" y2="587.4978">
			<stop offset="0" stop-color="#FF6C9E"/>
			<stop offset="1" stop-color="#8C30C0"/>
		</linearGradient>
	</defs>
	<path fill="url(#gradient_5)" d="M190.511 620.416C173.66 633.795 149.343 631.897 134.771 616.064C120.2 600.232 120.316 575.835 135.037 560.142C149.758 544.449 174.093 542.782 190.816 556.32C200.501 564.162 206.103 575.978 206.044 588.441C205.985 600.905 200.271 612.667 190.511 620.416Z"/>
	<path fill="#7240A8" d="M190.816 556.32C200.501 564.162 206.103 575.978 206.044 588.441C205.985 600.905 200.271 612.667 190.511 620.416C190.474 620.247 190.434 620.078 190.4 619.908C190.344 619.625 190.298 619.339 190.238 619.057C188.613 611.358 192.827 594.044 193.014 584.977C193.208 575.557 191.65 565.723 190.816 556.32Z"/>
	<defs>
		<linearGradient id="gradient_6" gradientUnits="userSpaceOnUse" x1="246.31104" y1="690.33167" x2="182.82516" y2="684.60632">
			<stop offset="0" stop-color="#241C9F"/>
			<stop offset="1" stop-color="#AB42B9"/>
		</linearGradient>
	</defs>
	<path fill="url(#gradient_6)" d="M177.865 673.426C185.955 665.763 199.049 659.352 210.288 659.639C219.204 659.867 227.311 664.101 233.38 670.521C244.764 682.564 246.192 697.206 245.954 712.912C232.561 713.611 219.032 713.204 205.622 713.137C197.384 713.096 188.443 713.669 180.305 712.598L156.531 712.749C156.612 711.996 156.697 711.244 156.786 710.492C158.624 695.027 165.651 683.037 177.865 673.426Z"/>
	<path fill="#C039A1" d="M177.865 673.426C178.034 673.386 178.204 673.352 178.371 673.307C181.559 672.454 184.274 670.374 186.993 668.574C186.894 672.574 183.43 676.473 180.682 679.1L181.373 679.273L180.378 679.581C180.399 681.099 180.031 682.55 181.367 683.611C181.679 683.859 182.266 684.048 182.645 684.188C182.487 689.612 181.996 695.398 182.44 700.785C182.751 704.544 184.284 707.68 184.035 711.5L183.451 711.575C182.256 711.737 181.218 711.727 180.305 712.598L156.531 712.749C156.612 711.996 156.697 711.244 156.786 710.492C158.624 695.027 165.651 683.037 177.865 673.426Z"/>
	<path fill="#C039A1" d="M1359.54 459.1C1365.21 455.478 1371.68 454.057 1378.31 455.6C1384.36 457.016 1389.59 460.798 1392.83 466.1C1395.99 471.284 1397.19 477.759 1395.63 483.677C1394.53 487.849 1390.97 493.126 1387.16 495.258C1386.67 495.534 1386.34 495.62 1385.79 495.819C1384.59 497.853 1383.11 498.736 1380.79 499.309C1380.43 499.397 1380.07 499.472 1379.71 499.545C1377.99 501.038 1376.6 500.978 1374.39 501.082C1370.5 502.07 1364.86 500.854 1361.36 498.976C1351.41 493.644 1350.92 484.413 1348.21 475.242L1348.04 474.711C1348.96 473.261 1349.26 472.999 1349.23 471.231C1351.71 467.462 1354.26 463.938 1357.2 460.512L1358.77 459.12L1359.54 459.1Z"/>
	<path fill="#7240A8" d="M1359.54 459.1C1365.21 455.478 1371.68 454.057 1378.31 455.6C1384.36 457.016 1389.59 460.798 1392.83 466.1C1395.99 471.284 1397.19 477.759 1395.63 483.677C1394.53 487.849 1390.97 493.126 1387.16 495.258C1386.67 495.534 1386.34 495.62 1385.79 495.819C1387.37 487.823 1372.49 480.406 1368.79 475.143C1367.08 472.704 1363.9 467.962 1363.22 465.107C1362.9 463.764 1363.11 462.197 1362.48 460.968C1361.66 459.38 1361.1 459.521 1359.54 459.1Z"/>
	<path fill="#DF3E97" d="M1349.23 471.231C1351.81 471.56 1352.14 471.653 1353.73 473.79C1356.46 477.449 1374.24 498.907 1374.33 499.207C1374.51 499.804 1374.37 500.457 1374.39 501.082C1370.5 502.07 1364.86 500.854 1361.36 498.976C1351.41 493.644 1350.92 484.413 1348.21 475.242L1348.04 474.711C1348.96 473.261 1349.26 472.999 1349.23 471.231Z"/>
	<path fill="#7240A8" d="M959.559 128.315C964.413 126.242 971.189 125.573 976.197 127.528C982.031 129.805 986.428 134.877 988.77 140.586C991.225 146.434 991.21 153.025 988.729 158.861C986.753 163.521 983.205 167.839 978.416 169.744C974.904 171.14 969.816 172.335 966.075 171.564C965.889 171.525 965.701 171.491 965.516 171.447C958.538 169.792 952.087 166.362 948.343 160.016C945.474 155.206 944.668 149.441 946.108 144.028C948.061 136.498 953.058 132.05 959.559 128.315Z"/>
	<path fill="#DF3E97" d="M966.075 171.564C965.889 171.525 965.701 171.491 965.516 171.447C958.538 169.792 952.087 166.362 948.343 160.016C945.474 155.206 944.668 149.441 946.108 144.028C948.061 136.498 953.058 132.05 959.559 128.315C962.439 137.971 960.289 148.543 963.3 158.119C964.26 161.173 968.557 167.772 967.84 170.698L966.075 171.564Z"/>
	<path fill="#F9FAF4" d="M181.96 151.194C183.179 150.465 184.703 150.481 185.906 151.237C187.109 151.993 187.785 153.359 187.658 154.774C187.53 156.189 186.619 157.412 185.301 157.94C183.473 158.672 181.389 157.876 180.515 156.111C179.641 154.345 180.27 152.205 181.96 151.194Z"/>
	<path fill="#F9FAF4" d="M236.803 151.155C238.668 150.302 240.87 151.135 241.705 153.008C242.54 154.882 241.686 157.077 239.805 157.894C237.949 158.699 235.791 157.859 234.968 156.011C234.145 154.163 234.963 151.997 236.803 151.155Z"/>
	<path fill="#F9FAF4" d="M254.454 151.088C256.111 150.162 258.201 150.659 259.264 152.233C260.326 153.806 260.007 155.932 258.528 157.123C257.454 157.988 255.985 158.175 254.73 157.606C253.474 157.037 252.645 155.81 252.587 154.432C252.528 153.055 253.25 151.761 254.454 151.088Z"/>
	<path fill="#F9FAF4" d="M1355.64 640.379C1357.41 639.787 1359.34 640.641 1360.09 642.35C1360.84 644.059 1360.17 646.06 1358.54 646.966C1357.34 647.631 1355.87 647.561 1354.74 646.785C1353.61 646.01 1353.02 644.661 1353.21 643.304C1353.4 641.947 1354.34 640.814 1355.64 640.379Z"/>
	<path fill="#F9FAF4" d="M199.626 151.167C200.781 150.507 202.205 150.537 203.331 151.244C204.457 151.952 205.102 153.223 205.008 154.55C204.913 155.877 204.096 157.044 202.881 157.586C201.128 158.368 199.07 157.637 198.202 155.925C197.334 154.213 197.96 152.12 199.626 151.167Z"/>
	<path fill="#F9FAF4" d="M218.395 151.108C219.602 150.595 220.994 150.787 222.018 151.606C223.043 152.425 223.536 153.74 223.303 155.031C223.07 156.322 222.148 157.382 220.901 157.79C219.083 158.387 217.118 157.443 216.445 155.651C215.773 153.859 216.633 151.855 218.395 151.108Z"/>
</svg>
